<svg width="33" height="34" viewBox="0 0 33 34" fill="none" xmlns="http://www.w3.org/2000/svg">
<path d="M23.123 0C28.9038 0 32.3662 3.2712 32.3818 8.7334V24.7939C32.3818 30.2562 28.9351 33.5283 23.1387 33.5283H18C17.3411 33.4596 16.8428 32.933 16.8428 32.3066C16.8428 31.6804 17.3412 31.1547 18 31.0859H23.123C27.5409 31.0859 29.7656 28.9683 29.7656 24.7939V8.7334C29.7656 4.55904 27.5409 2.44238 23.123 2.44238H9.24316C4.82535 2.44238 2.58497 4.55904 2.58496 8.7334V24.7939C2.58496 28.9683 4.82534 31.0859 9.24316 31.0859C9.90198 31.1547 10.4003 31.6803 10.4004 32.3066C10.4004 32.933 9.90206 33.4596 9.24316 33.5283C3.46239 33.5283 0 30.2562 0 24.7939V8.7334C1.08759e-05 3.2564 3.4624 0 9.24316 0H23.123ZM22.6533 22.6475C23.3628 22.6475 23.9385 23.191 23.9385 23.8613C23.9384 24.5316 23.3627 25.0752 22.6533 25.0752H9.68164C8.97244 25.075 8.39757 24.5315 8.39746 23.8613C8.39746 23.1911 8.97237 22.6477 9.68164 22.6475H22.6533ZM22.6543 15.541C23.1498 15.4894 23.6334 15.7104 23.8984 16.1094C24.1634 16.5085 24.1633 17.0159 23.8984 17.415C23.6334 17.8143 23.15 18.036 22.6543 17.9844H9.68359C9.02462 17.9157 8.5254 17.3891 8.52539 16.7627C8.52539 16.1363 9.02461 15.6097 9.68359 15.541H22.6543ZM14.6328 8.45117C15.2917 8.5199 15.79 9.04646 15.79 9.67285C15.7899 10.2991 15.2916 10.8248 14.6328 10.8936H9.69824C9.03933 10.8249 8.54014 10.2992 8.54004 9.67285C8.54004 9.04641 9.03926 8.51983 9.69824 8.45117H14.6328Z" fill="black"/>
</svg>
