<svg width="41" height="37" viewBox="0 0 41 37" fill="none" xmlns="http://www.w3.org/2000/svg">
<path d="M18.7216 29.8027H12.4557C10.4254 29.7962 8.77926 28.3456 8.76435 26.55V15.527C8.76833 14.9259 9.07246 14.3571 9.59525 13.973L10.6986 13.2502C11.1014 12.8706 11.1423 12.2914 10.7962 11.8704C10.45 11.4494 9.81435 11.3055 9.28196 11.5274L8.15139 12.2743C7.01095 13.0548 6.33417 14.2519 6.3125 15.527V26.5621C6.31999 29.56 9.06603 31.9886 12.4557 31.9953H18.7216C19.3986 31.9953 19.9475 31.5098 19.9475 30.911C19.9475 30.3122 19.3986 29.8268 18.7216 29.8268V29.8027Z" fill="#161616"/>
<path d="M35.0975 15.5476C35.0836 14.2839 34.446 13.0923 33.3601 12.3003L24.1956 5.67326C22.1817 4.20527 19.3129 4.20527 17.299 5.67326L14.3945 7.58559C13.8488 7.94096 13.7241 8.63021 14.116 9.12507C14.5079 9.61994 15.2679 9.73302 15.8136 9.37765L18.7579 7.38113C19.9136 6.51834 21.5811 6.51834 22.7367 7.38113L31.9012 14.0081C32.4287 14.3873 32.7403 14.9613 32.75 15.5717V26.5886C32.75 28.3821 31.1468 29.8359 29.1691 29.8359H26.4503C26.1719 29.8359 25.9463 29.6313 25.9463 29.3789V24.4117C25.9463 22.8288 24.5352 21.5438 22.7898 21.5372H18.811C17.9703 21.5372 17.164 21.84 16.5696 22.3791C15.9751 22.9182 15.6412 23.6493 15.6412 24.4117V26.312C15.6412 26.9098 16.1756 27.3944 16.8348 27.3944C17.4941 27.3944 18.0285 26.9098 18.0285 26.312V24.4117C18.0249 24.2246 18.1044 24.044 18.249 23.9106C18.3937 23.7772 18.5914 23.702 18.7977 23.7021H22.7765C23.2013 23.7021 23.5457 24.0144 23.5457 24.3996V29.3789C23.553 30.8289 24.8513 32.0009 26.4503 32.0008H29.1028C32.4063 32.0008 35.0842 29.5723 35.0842 26.5766L35.0975 15.5476Z" fill="#161616"/>
</svg>
