<svg width="42" height="43" viewBox="0 0 42 43" fill="none" xmlns="http://www.w3.org/2000/svg">
<path d="M26.9148 5.375H16.2596C11.8644 5.375 9.10736 8.57723 9.10736 13.715V34.9209C9.10736 36.4143 10.2403 37.625 11.638 37.625C12.0611 37.6247 12.4775 37.5122 12.85 37.2977L21.5206 32.2737L31.6164 37.3261C31.8901 37.449 32.1983 37.4505 32.4731 37.3303C32.7479 37.2102 32.9668 36.9783 33.0815 36.6857C33.2507 36.1465 33.0456 35.5541 32.5887 35.2625L22.5595 30.2528C21.9043 29.8679 21.1103 29.8679 20.4551 30.2528L11.7712 35.2625C11.6716 35.3207 11.5511 35.3207 11.4515 35.2625C11.3568 35.1974 11.3012 35.0838 11.305 34.9636V13.715C11.3183 9.91505 13.103 7.75177 16.2996 7.75177H26.9548C31.057 7.75177 31.6563 11.3098 31.6563 13.4446V14.4124H20.1221C19.8289 14.4235 19.5518 14.5588 19.3519 14.7884C19.1521 15.0179 19.0458 15.323 19.0566 15.6364C19.0707 16.2589 19.5396 16.7599 20.1221 16.7749H31.6164V29.228C31.6164 29.8804 32.1113 30.4093 32.7219 30.4093C33.3272 30.4094 33.82 29.8891 33.8273 29.2423V13.4446C33.8273 8.46337 31.1902 5.375 26.9148 5.375Z" fill="#161616"/>
</svg>
