<svg width="28" height="44" viewBox="0 0 28 44" fill="none" xmlns="http://www.w3.org/2000/svg">
<path fill-rule="evenodd" clip-rule="evenodd" d="M26.5897 26.7605C26.499 27.433 26.1264 28.3754 24.8636 29.0459C24.1888 29.4044 23.5071 29.4536 22.8383 29.1943C21.8007 28.792 21.0993 27.7815 20.9012 27.2389C20.8248 27.0288 20.7469 26.7968 20.6626 26.5429C20.5768 26.2846 20.4768 25.9939 20.3678 25.6897C21.1107 25.4662 21.8811 25.058 22.4405 24.72C23.5096 24.0743 24.1371 23.5048 24.4229 22.9234C25.1204 23.7462 25.6744 24.372 25.9431 24.6264C26.4384 25.0958 26.6982 25.953 26.5897 26.7605ZM18.8606 25.0101C18.4801 24.5501 18.9059 24.0229 18.9971 23.9204L23.0926 20.8832C23.1907 20.9026 23.4007 21.0012 23.7014 21.4502C23.9251 21.7847 24.0025 22.0884 23.9384 22.3796C23.8216 22.9098 23.24 23.4748 22.1078 24.1588C20.5078 25.1246 19.2342 25.4586 18.8606 25.0101ZM17.132 23.1259C16.5322 22.3906 17.2814 21.5379 17.3351 21.4791L21.2763 17.8217C21.5095 17.7914 22.2651 17.753 22.6974 18.447C23.3081 19.4262 22.5584 20.3511 22.4381 20.4895C22.4209 20.5074 22.4095 20.5209 22.4056 20.5263C22.3849 20.5527 22.3726 20.5831 22.3617 20.613L18.6058 23.3982C18.4915 23.4619 17.7235 23.8487 17.132 23.1259ZM15.4373 20.5533C14.7039 19.4975 15.8933 18.4586 15.944 18.4153L15.9445 18.4148L19.5131 15.3592C19.6758 15.279 20.461 14.9714 21.1392 16.1418C21.5 16.7635 20.9879 17.2101 20.9302 17.2578C20.9263 17.2608 20.9248 17.2648 20.9209 17.2678C20.9179 17.2708 20.914 17.2713 20.911 17.2738L16.9372 20.9621C16.711 21.0273 15.8923 21.2075 15.4373 20.5533ZM14.478 18.1828C14.2321 18.134 14.03 17.9837 13.8614 17.7213C13.1684 16.6481 14.4879 15.1969 15.5486 14.0306C16.7434 12.7164 17.4354 12.3485 18.1008 12.677C18.7648 13.0031 19.1586 13.3964 19.2715 13.8454C19.3932 14.3278 19.1532 14.7594 19.0866 14.8664L15.5392 17.9045C15.4924 17.9369 14.9768 18.2804 14.478 18.1828ZM12.1659 13.6831L15.5161 11.2901C15.703 11.4997 15.9972 11.8542 16.3792 12.3694C15.9149 12.691 15.4777 13.14 15.0715 13.5865C14.5713 14.1371 14.0227 14.743 13.6165 15.3707C12.9935 14.6305 12.4804 14.0396 12.1659 13.6831ZM26.3857 24.1488C26.0983 23.8765 25.4344 23.1173 24.6028 22.1252C24.591 21.7817 24.4717 21.4327 24.2376 21.0838C23.9488 20.6512 23.6481 20.3799 23.342 20.2743C23.6116 19.6889 23.7373 18.8884 23.2459 18.0999C22.8388 17.4463 22.2492 17.2312 21.7854 17.1735C21.9496 16.8081 21.9988 16.3307 21.6977 15.811C21.1116 14.7999 20.4038 14.5968 19.8887 14.6167C19.9568 14.3564 19.9863 14.0373 19.9025 13.6933C19.7428 13.0446 19.2327 12.505 18.3849 12.0878C17.8881 11.8439 17.4104 11.8703 16.9555 12.054C16.5656 11.5228 16.2585 11.149 16.0495 10.91L16.7194 10.4321L16.6883 10.3883C17.6717 9.36283 17.5682 7.0739 16.3551 3.98299C16.2896 3.81473 16.1013 3.73359 15.9352 3.7993C15.7691 3.86551 15.6877 4.05567 15.7538 4.22343C16.9057 7.16101 17.0309 9.40813 16.0811 10.0866C14.5546 11.1759 10.0963 8.31046 5.89035 2.30537C5.39498 1.59848 4.92525 0.875655 4.49347 0.157314C4.4008 0.00249467 4.20216 -0.045793 4.04887 0.0472976C3.89558 0.140886 3.84678 0.342002 3.93994 0.496323C4.37911 1.22761 4.85772 1.96337 5.36196 2.68321C8.68411 7.42684 12.4652 10.6024 14.9045 10.927L10.7784 13.8745C9.9972 14.431 8.48153 13.9621 6.62083 12.5886C4.63887 11.1246 2.49623 8.81773 0.588212 6.09321C0.485196 5.94635 0.282613 5.91001 0.136715 6.01505C-0.00918417 6.11959 -0.0436872 6.3232 0.0593291 6.47055C1.32707 8.28059 2.69881 9.90694 4.06464 11.2406C4.06464 11.2431 4.06316 11.2446 4.06316 11.2465C4.08732 12.3323 8.21733 17.1441 10.4995 18.4787C10.9603 19.0438 11.0461 25.004 11.0875 27.8684C11.0969 28.5116 11.1057 29.1055 11.1156 29.6182C11.2092 34.2723 11.0032 40.3799 10.6572 43.2319C10.6355 43.4116 10.7617 43.5749 10.9391 43.5963C10.9524 43.5983 10.9662 43.5993 10.9786 43.5993C11.1397 43.5993 11.2797 43.4778 11.2994 43.312C11.6489 40.4337 11.8564 34.2847 11.7633 29.6048C11.7529 29.0941 11.7445 28.5007 11.7352 27.859C11.6272 20.4127 11.4384 18.2801 10.8563 17.9376C9.08681 16.8987 6.67357 14.1742 5.46596 12.511C5.72572 12.7255 5.98301 12.9277 6.23883 13.1168C7.70472 14.1996 8.98774 14.7541 9.9834 14.7541C10.4354 14.7541 10.8282 14.6396 11.1521 14.4081L11.6346 14.0637C11.9649 14.4375 12.5578 15.118 13.2784 15.9782C12.9546 16.6806 12.8797 17.3955 13.3194 18.0775C13.5865 18.4922 13.937 18.7431 14.3604 18.8247C14.5107 18.8536 14.6591 18.8581 14.8 18.8466C14.5028 19.4385 14.3939 20.1902 14.907 20.9285C15.3126 21.5124 15.9179 21.6856 16.4389 21.6866C16.2028 22.2178 16.1205 22.9142 16.6336 23.5425C17.0856 24.097 17.6431 24.2344 18.1173 24.2051C18.0098 24.5809 18.0275 25.022 18.3642 25.4292C18.6185 25.7353 18.9843 25.8563 19.4037 25.8563C19.5087 25.8563 19.6181 25.8453 19.729 25.8314C19.8483 26.1615 19.9563 26.4746 20.0479 26.7509C20.1347 27.0107 20.2145 27.2492 20.2934 27.4647C20.5404 28.1402 21.36 29.3211 22.6056 29.8039C22.9595 29.9413 23.3203 30.0095 23.6831 30.0095C24.1809 30.0095 24.6812 29.8806 25.1638 29.6237C26.3403 29 27.0738 28.0138 27.231 26.8474C27.3685 25.8249 27.0363 24.7656 26.3857 24.1488Z" fill="#393F49"/>
</svg>
