<svg width="10" height="17" viewBox="0 0 10 17" fill="none" xmlns="http://www.w3.org/2000/svg">
<path fill-rule="evenodd" clip-rule="evenodd" d="M7.56649 3.26066C7.57585 3.24528 7.58374 3.22494 7.59162 3.20261C7.62267 3.20906 7.65126 3.22494 7.64436 3.23834C7.6276 3.22345 7.59852 3.24975 7.56649 3.26066ZM7.96179 1.40561C7.93271 1.47408 8.05839 1.48052 8.11655 1.51972C8.11705 1.61448 8.01995 1.52617 7.95193 1.53262C7.96228 1.59563 8.04952 1.67451 8.0303 1.71122C8.01108 1.70676 8.00171 1.71221 7.982 1.69435C8.04952 1.78266 7.92532 1.85807 8.01256 1.96424C8.00122 1.96524 7.99087 1.96375 7.982 1.96176C8.04213 1.97317 8.0993 1.99302 8.13923 2.01088C8.12986 2.04263 8.18851 2.09522 8.11064 2.07885C8.12 2.06099 8.09092 2.04809 8.07121 2.03023L8.09092 2.07488C7.9751 2.06396 8.07121 2.01683 7.99333 1.98706C8.00418 2.06347 8.06332 2.17063 8.01551 2.20784C7.90856 2.17906 8.0234 2.08133 7.90757 2.1111L7.9751 2.05106C7.79125 2.0466 8.00368 2.00939 7.80998 1.99649C7.74295 2.0843 7.82132 2.12697 7.75429 2.21478C7.80259 2.25844 7.84153 2.23909 7.89032 2.28325C7.94109 2.46235 7.59065 2.29664 7.68923 2.45143C7.74837 2.50402 7.87504 2.56306 7.77893 2.61119L7.67148 2.54222C7.62466 2.63401 7.81885 2.65981 7.70303 2.73125C7.66409 2.69602 7.69268 2.64145 7.67345 2.65038C7.55713 2.68163 7.72225 2.72132 7.70401 2.77143L7.59656 2.74365C7.57537 2.8518 7.60938 2.99221 7.5872 3.11276C7.55861 3.0949 7.53348 3.06365 7.49207 3.07853C7.49207 3.24076 7.36885 3.37968 7.25746 3.49577L7.32844 3.5811C7.32302 3.59301 7.27964 3.58904 7.26732 3.56969C7.21409 3.61137 7.32302 3.59301 7.34914 3.63171C7.34421 3.66445 7.28309 3.65354 7.26338 3.62427C7.30527 3.7473 7.33041 3.95419 7.1993 4.02017L7.17959 3.9914C7.11551 4.05639 7.3314 4.1447 7.22296 4.18736L7.21163 4.16801C7.11305 4.3238 7.13079 4.5406 6.9504 4.62246C7.07066 4.69241 6.83457 4.77031 7.01053 4.84423C6.8878 4.91021 6.86464 4.87102 6.75768 4.98711C6.73698 5.02085 6.85232 5.08088 6.85577 5.13247L6.76113 5.10072L6.83901 5.19647L6.7148 5.19002L6.72515 5.24112C6.736 5.22624 6.77937 5.21979 6.80598 5.2317C6.82619 5.31257 6.68523 5.37061 6.63643 5.35523L6.66305 5.53979C6.62658 5.52342 6.62214 5.49266 6.60489 5.46339C6.67291 5.57998 6.5004 5.44453 6.5625 5.5512C6.58764 5.54822 6.61672 5.5765 6.63545 5.58444C6.56546 5.60329 6.5349 5.69011 6.53786 5.76304L6.47674 5.72832C6.42154 5.83945 6.42647 5.98481 6.38211 6.11529C6.42794 6.07858 6.53736 6.1272 6.53539 6.16937L6.43041 6.15101C6.48463 6.19666 6.48167 6.12372 6.54032 6.19963C6.51272 6.24478 6.41562 6.19467 6.39246 6.15548L6.40724 6.22642C6.37669 6.21997 6.36535 6.20062 6.32838 6.18475C6.3826 6.2294 6.19432 6.25371 6.29043 6.32465L6.25987 6.3182C6.21551 6.44868 6.22931 6.51913 6.20023 6.62828C6.286 6.65854 6.25347 6.69426 6.3131 6.74884C6.26037 6.8183 6.16376 6.88329 6.14059 6.98003C6.16228 7.0604 6.20763 7.02369 6.24952 7.07032C6.16918 7.04949 6.14602 7.14623 6.10511 7.07876C6.08145 7.19634 6.07406 7.22908 6.0918 7.3933C6.12926 7.38784 6.14897 7.37494 6.17313 7.3928C6.17756 7.42307 6.12039 7.44142 6.08391 7.42555L6.078 7.41563C6.14454 7.61457 5.73003 7.71429 5.85423 7.89587L5.84881 7.88595L5.89218 8.04669C5.85965 8.10375 5.84487 7.99113 5.78129 8.02089C5.86803 8.20644 5.6906 8.24216 5.74136 8.38852C5.47816 8.40241 5.64673 8.70405 5.45796 8.77152L5.51464 8.78393C5.55702 8.83354 5.47028 8.80973 5.45007 8.82709C5.49344 8.83949 5.5102 8.81221 5.53337 8.84148C5.5102 9.12625 5.26524 9.34405 5.09618 9.57127C5.04098 9.6576 5.3441 9.74789 5.16617 9.80892L5.08386 9.73053C5.1154 9.97412 4.91086 10.1145 4.90544 10.3398C4.88868 10.3174 4.86108 10.3021 4.87044 10.2852C4.78123 10.2862 4.79207 10.4221 4.84728 10.4534C4.82559 10.4777 4.79306 10.4325 4.7556 10.434C4.69498 10.4494 4.79109 10.5769 4.71272 10.5595C4.6999 10.5566 4.69645 10.5367 4.69498 10.5268C4.71469 10.5695 4.62449 10.6364 4.71568 10.6573C4.64175 10.7029 4.68019 10.8056 4.60576 10.8324C4.67477 10.9197 4.4998 10.9212 4.61414 11.0046C4.49092 10.9242 4.44114 11.0562 4.47417 11.1336C4.44459 11.0968 4.41256 11.145 4.37066 11.0963C4.34257 11.1435 4.33862 11.2005 4.40763 11.2328C4.20604 11.2239 4.4165 11.4833 4.19766 11.4084C4.17942 11.592 4.13753 11.7483 4.07592 11.8872C3.9596 11.7984 4.1602 11.7458 4.03008 11.6634C3.99854 11.8103 4.05226 11.9497 3.94185 12.0429C3.9044 12.0603 3.90242 11.9884 3.88961 11.9641C3.85609 12.1134 3.72055 12.1754 3.71119 12.3252C3.70034 12.3168 3.6964 12.2965 3.69492 12.2796C3.68457 12.3024 3.64465 12.3128 3.69886 12.351V12.3208C3.79941 12.3481 3.7999 12.5232 3.83539 12.5574C3.71217 12.4071 3.71907 12.6249 3.5717 12.4235C3.5717 12.4438 3.58353 12.4795 3.62099 12.5038C3.59536 12.5148 3.57071 12.5043 3.54607 12.4542C3.51896 12.545 3.59339 12.5649 3.54213 12.6269C3.51699 12.606 3.51748 12.5857 3.49333 12.5554C3.51699 12.6264 3.53966 12.6978 3.47559 12.7336C3.46327 12.7182 3.43912 12.7082 3.45193 12.6929C3.38638 12.7891 3.45489 12.9548 3.32772 13.0153C3.24492 12.8953 3.26513 13.0193 3.16902 12.9459L3.15226 13.0213L3.21485 13.0397C3.17345 13.0828 3.20352 13.1811 3.13944 13.1935L3.13156 13.127L3.0734 13.2262L3.15078 13.2093C3.1567 13.2966 3.26956 13.3061 3.19021 13.3443C3.19218 13.3234 3.14832 13.3889 3.07438 13.3641C3.08276 13.4122 3.09213 13.4628 3.03939 13.4757C3.00341 13.4584 2.94722 13.3785 2.92307 13.3666C2.97778 13.4569 2.84963 13.4911 2.90286 13.5928C2.893 13.566 2.84717 13.5224 2.83435 13.5164L2.87822 13.5908C2.84027 13.5938 2.82844 13.5884 2.79393 13.5502C2.7274 13.6028 2.92406 13.6355 2.80921 13.6648C2.80971 13.6544 2.79788 13.6489 2.79985 13.6281C2.70817 13.6792 2.70177 13.8042 2.60812 13.8429C2.50264 13.7764 2.6441 13.764 2.54799 13.7144C2.47159 13.824 2.45927 14.014 2.34788 14.0855L2.37449 14.078C2.48243 14.2145 2.24782 14.086 2.25817 14.1907C2.26064 14.1698 2.20691 14.1068 2.21677 14.1237C2.13446 14.1654 2.11524 14.2775 2.05412 14.4094L2.03638 14.3658C1.97132 14.3722 1.92104 14.4427 1.86683 14.466C1.88408 14.5102 1.85549 14.527 1.91316 14.5613C1.62039 14.4938 1.75593 14.8847 1.5016 14.8282C1.5154 14.8158 1.50949 14.7696 1.49815 14.7791L1.42619 14.8961C1.48238 14.9467 1.46858 14.9195 1.52723 14.9458C1.5435 14.9909 1.53758 15.0415 1.51294 15.0633C1.52526 14.9859 1.43457 14.9716 1.38873 14.9557C1.40648 14.9706 1.41584 14.9959 1.43309 15.0122C1.29508 14.9547 1.52082 15.1358 1.39267 15.1283L1.37099 15.0951C1.35719 15.1338 1.36507 15.1938 1.3286 15.2097C1.26108 15.1521 1.33205 15.1546 1.28818 15.0976C1.25073 15.1348 1.31086 15.2916 1.2182 15.2543C1.22066 15.2216 1.2458 15.2008 1.24826 15.168C1.14328 15.1219 1.15461 15.1457 1.11469 15.1576L1.11913 15.1571L1.02055 15.1769L1.05554 15.1844C1.14525 15.4032 0.976684 15.3015 0.99837 15.4751C0.979641 15.3094 0.959433 15.4017 0.903737 15.3198C0.869728 15.3129 0.823891 15.3104 0.814526 15.2821C0.830791 15.3719 0.720878 15.2752 0.74503 15.4037C0.723343 15.3799 0.707078 15.428 0.666662 15.359C0.638074 15.4116 0.710528 15.3952 0.730736 15.4295C0.728272 15.5674 0.494646 15.4439 0.48676 15.6369C0.438458 15.748 0.484296 15.8457 0.435008 15.9464C0.378819 15.9241 0.390155 15.8363 0.390155 15.8363C0.320166 15.8293 0.293058 15.8591 0.27285 15.9182C0.264964 15.8899 0.24377 15.8765 0.210747 15.8561C0.182653 15.8859 0.255106 15.9673 0.184624 15.9583C0.172302 15.9241 0.150123 15.871 0.145194 15.8308C0.123507 15.8814 0.118578 15.9559 0.0939341 16.007C0.0525321 15.9683 0.0717545 15.9211 0.065347 15.8819C0.0342955 15.9325 -0.0233715 16.002 0.0101444 16.0849L0.0569681 16.0913C0.0421816 16.1062 0.00669421 16.0342 0.0101444 16.0129C0.0111301 15.9296 0.0825978 16 0.102806 16.0253L0.0850623 16.0615C0.21814 16.1955 0.18561 15.9588 0.248206 15.9271L0.300944 16.0556L0.296015 15.9211C0.328545 15.941 0.380791 15.9965 0.36354 16.0338C0.443387 16.0591 0.372412 15.9683 0.45078 16.004C0.461623 16.0104 0.463595 16.0169 0.463102 16.0243L0.480353 15.9623C0.489224 15.9911 0.542456 16.0352 0.505982 16.0372C0.624767 16.0481 0.564635 15.8705 0.652368 15.934L0.650889 15.9449C0.723836 15.8343 0.602587 15.8576 0.607516 15.7078L0.802697 15.8675L0.753409 15.7802C0.765731 15.7753 0.790375 15.7658 0.810583 15.8006C0.807625 15.7172 0.778053 15.7708 0.761788 15.7028C0.8648 15.7381 0.871207 15.5664 0.978162 15.684C0.949575 15.6106 0.895851 15.6736 0.916552 15.5922C1.03435 15.7152 0.959433 15.5237 1.05012 15.5495C1.09054 15.6294 1.02055 15.6264 1.11272 15.6527C1.04766 15.5143 1.2182 15.6091 1.23791 15.5565C1.16644 15.4627 1.28818 15.4528 1.32564 15.3719C1.34585 15.4052 1.48435 15.3288 1.56765 15.3119L1.57898 15.3288C1.51343 15.2271 1.58539 15.1943 1.61201 15.1387C1.65637 15.1948 1.66672 15.2231 1.66425 15.2672L1.70368 15.232C1.6889 15.1948 1.68791 15.169 1.70516 15.1363L1.75297 15.2127C1.80324 15.1626 1.79142 15.0405 1.89837 15.0261C1.84711 14.9601 1.69235 14.8981 1.72685 14.7944C1.75938 14.8262 1.81261 14.8813 1.80571 14.9115C1.80817 14.9016 1.80374 14.8644 1.82838 14.8684L1.84958 14.9502C1.90281 14.9482 1.82444 14.8887 1.85352 14.8723C1.89541 14.9209 1.90182 14.8907 1.93189 14.9319C1.92942 14.9423 1.89295 14.9309 1.90034 14.9582C1.93534 14.9423 1.99448 14.9418 2.03786 14.9681C2.01124 14.9433 1.98068 14.9036 1.99498 14.8788C2.04328 14.8277 2.06398 14.92 2.11573 14.9165C2.09848 14.8718 2.16206 14.8753 2.09897 14.8034C2.11376 14.7895 2.14728 14.8202 2.17044 14.8341C2.16847 14.7776 2.28627 14.7091 2.1872 14.662L2.17586 14.663C2.17586 14.663 2.17636 14.6595 2.17734 14.656L2.17685 14.6565L2.17734 14.656C2.19853 14.5057 2.39421 14.5275 2.45237 14.4169L2.47455 14.4402C2.49919 14.3643 2.56918 14.3127 2.55637 14.2284C2.57066 14.2135 2.63178 14.2353 2.65248 14.2685C2.67318 14.213 2.65199 14.1832 2.74415 14.1654C2.74563 14.2432 2.79196 14.1872 2.7338 14.2338C2.80281 14.2036 2.85062 14.2279 2.84076 14.1128C2.88167 14.1887 2.95215 14.1475 2.95757 14.1063L2.88117 14.1004C2.89892 14.0651 2.92751 14.0468 2.9556 14.0279L3.02017 14.1162C3.21929 14.1048 3.03693 13.7734 3.27055 13.8424C3.24098 13.7625 3.17937 13.8642 3.13747 13.7784C3.19218 13.7397 3.35188 13.7933 3.36617 13.7774C3.47165 13.7501 3.30653 13.6082 3.40018 13.565C3.36371 13.5482 3.27942 13.4882 3.29914 13.4117C3.35335 13.3726 3.47411 13.4584 3.46918 13.5105C3.4613 13.5244 3.447 13.5219 3.43764 13.513C3.43369 13.5378 3.42729 13.5695 3.47608 13.5779L3.45292 13.5462C3.50418 13.5477 3.56234 13.4767 3.59536 13.5348C3.60127 13.4728 3.56234 13.4767 3.52241 13.4911C3.62099 13.4638 3.61409 13.3944 3.69689 13.3502C3.67225 13.3473 3.62986 13.3274 3.63824 13.317C3.75604 13.248 3.61852 13.2257 3.65993 13.1473C3.73583 13.1468 3.75604 13.2515 3.77378 13.1518C3.83835 13.1354 3.85954 13.2083 3.86989 13.2451C3.86349 13.1349 4.00248 13.1592 4.0424 13.1319L4.03944 13.1845C4.04142 13.1533 4.05472 13.1374 4.06803 13.121L3.99311 13.0913C4.01924 13.0803 4.03304 13.064 4.05768 13.0843C4.03452 13.0327 3.9453 13.0188 3.92362 12.9365C3.97488 12.935 3.95418 12.8323 4.04142 12.8869C3.94826 12.9464 4.12816 12.9419 4.08578 13.0208C4.08676 13 4.10056 12.9841 4.12668 12.9732C4.13802 12.9776 4.14147 12.9891 4.14147 12.9985C4.27603 12.9771 4.07986 12.8903 4.1464 12.8119C4.18386 12.8576 4.24793 12.8606 4.24892 12.8397C4.22181 12.8715 4.16069 12.7961 4.14936 12.7395C4.22477 12.7137 4.16562 12.6606 4.18977 12.6363L4.15034 12.6552C4.11239 12.6095 4.13753 12.5872 4.14985 12.5391C4.1878 12.5634 4.14985 12.5917 4.17548 12.5902C4.12471 12.488 4.32679 12.5604 4.31349 12.4612C4.36475 12.4577 4.4027 12.5232 4.44065 12.5153C4.42783 12.4061 4.55549 12.4914 4.55549 12.3863C4.47811 12.3605 4.49142 12.3749 4.4648 12.2826L4.42783 12.4269L4.3889 12.2885C4.36376 12.3218 4.37657 12.3887 4.35193 12.4011C4.32532 12.3292 4.33813 12.3446 4.27455 12.3223C4.40171 12.3451 4.28588 12.1918 4.38742 12.1848L4.54169 12.298C4.66984 12.2662 4.56486 12.098 4.6797 12.0211L4.62794 12.036C4.57668 11.9794 4.66392 11.9646 4.65998 11.912C4.71124 11.9512 4.74426 11.9422 4.78714 11.9492C4.74624 11.9244 4.84185 11.8713 4.74131 11.7909L4.84235 11.7889C4.92663 11.719 4.75264 11.589 4.82411 11.5171C4.86601 11.5801 4.9286 11.5657 4.93501 11.6495C4.95325 11.6212 4.97937 11.6024 4.9424 11.5781C4.98676 11.583 4.91874 11.4541 4.98676 11.46C4.97 11.4337 4.91579 11.3945 4.93994 11.3657C4.95325 11.3692 4.96705 11.3826 4.96705 11.3826C4.93994 11.3657 4.96113 11.3107 4.88375 11.3012C5.11146 11.3206 5.01978 11.0522 5.20757 11.0586C5.22334 10.9837 5.2475 10.8969 5.2746 10.8369C5.28939 10.8498 5.3022 10.8523 5.29087 10.8602C5.38599 10.8086 5.15582 10.7228 5.26327 10.6642C5.37909 10.6667 5.28643 10.7386 5.33671 10.7287C5.52893 10.816 5.37072 10.6052 5.51266 10.6012L5.51562 10.6216C5.60434 10.6077 5.50675 10.4702 5.56146 10.4008C5.56146 10.4008 5.57625 10.4127 5.58955 10.4152C5.51858 10.3125 5.53238 10.1949 5.53977 10.1061C5.60336 10.1656 5.56343 10.1597 5.64574 10.1815C5.64969 10.1423 5.52006 10.1334 5.52893 10.0555C5.5797 10.053 5.63736 10.0208 5.72115 10.0515L5.69651 10.1185C5.81579 10.1344 5.73052 10.0327 5.76453 10.0074L5.80839 10.0327C5.83797 9.926 5.72263 9.87291 5.77833 9.77071L5.7384 9.76625C5.6487 9.65809 5.82515 9.74591 5.76502 9.65115L5.8907 9.68389C5.87789 9.6323 5.83994 9.5033 5.84191 9.42343C5.91781 9.50033 5.92323 9.59757 5.95379 9.6705C5.97104 9.6318 6.00456 9.53704 5.95231 9.49239C5.95823 9.51323 5.97844 9.54399 5.95379 9.55192C5.88282 9.46709 5.85571 9.38473 5.88676 9.30833C6.1125 9.41251 6.01688 9.12824 6.21847 9.13766C6.1815 8.967 6.35401 8.87323 6.39837 8.70405C6.19432 8.70256 6.40971 8.65444 6.21798 8.60433C6.21946 8.56315 6.22685 8.54976 6.24065 8.55025L6.38851 8.47286C6.4521 8.46343 6.41907 8.52148 6.46245 8.5314C6.50286 8.4545 6.55314 8.52247 6.62066 8.48427C6.54919 8.47385 6.53243 8.42523 6.57285 8.38703L6.4654 8.42523C6.40084 8.27937 6.65467 8.37661 6.59109 8.23026L6.63939 8.28582C6.62313 8.21537 6.70889 8.06852 6.57532 7.96235C6.60045 7.95888 6.65615 7.96185 6.66206 7.99212C6.72909 7.85866 6.59897 7.62598 6.72811 7.5471L6.77099 7.5729C6.76606 7.54214 6.69903 7.49947 6.75571 7.48111C6.77444 7.48955 6.7981 7.50691 6.805 7.4955C6.79416 7.47665 6.74684 7.39975 6.78479 7.37395L6.82718 7.42009C6.93167 7.30301 6.76902 7.16856 6.77493 7.04304C6.90998 7.08769 6.98884 6.99442 7.02827 6.94828L7.04651 6.95622C7.11453 6.80242 7.02334 6.64862 7.0194 6.48292C7.19635 6.44075 7.18353 6.19368 7.31414 6.07411C7.2826 6.0885 7.21015 6.03492 7.20571 6.00416C7.24416 5.97886 7.1441 5.87715 7.26584 5.92478L7.25894 5.93619C7.38955 5.95157 7.38118 5.86971 7.40286 5.81563L7.24465 5.75114C7.52855 5.68714 7.28654 5.34233 7.52362 5.33638C7.49503 5.28726 7.51031 5.2441 7.48172 5.19548L7.56798 5.22773C7.62269 5.13892 7.65078 5.09477 7.67148 4.96826L7.72471 5.0144C7.75379 4.94891 7.50489 4.84224 7.52115 4.77824L7.65719 4.80454C7.69563 4.68696 7.84991 4.60807 7.77302 4.4508C7.79125 4.45973 7.82723 4.47611 7.82575 4.49694C7.84843 4.44287 7.98841 4.31536 7.80407 4.2722C7.92039 4.31189 7.85878 4.15512 7.83019 4.07375L7.91152 4.11394C7.8223 4.02166 7.79273 4.00926 7.78928 3.92392C7.80653 3.91053 7.86272 3.93335 7.83265 3.94873C7.89821 3.90557 7.76858 3.87381 7.83906 3.81874L7.88391 3.86488C7.91201 3.80684 7.88145 3.80088 7.8297 3.74482C7.809 3.69422 7.89229 3.63766 7.97214 3.65651C7.92827 3.63171 7.878 3.57565 7.9125 3.54786C7.94355 3.55382 7.95686 3.57316 7.96327 3.58309C8.05741 3.50321 7.91891 3.39704 8.02734 3.35735C8.05593 3.36628 8.07121 3.36678 8.08205 3.36479C8.051 3.44417 8.02291 3.50668 8.01896 3.49875C8.09733 3.52703 8.1343 3.46749 8.22351 3.55828C8.18359 3.48486 8.08797 3.34892 8.14761 3.29931C8.15598 3.29881 8.16436 3.29881 8.17718 3.30079L8.18359 3.31072C8.1964 3.29881 8.19394 3.28293 8.18556 3.26607C8.20577 3.25069 8.21957 3.24176 8.22795 3.22241C8.29498 3.23878 8.28956 3.16089 8.30434 3.13013C8.21809 3.10086 8.24717 3.06414 8.16239 3.07754C8.17028 3.07456 8.17028 3.08697 8.16584 3.10979C8.16683 3.11574 8.16584 3.12219 8.16979 3.12715L8.16288 3.12219C8.15648 3.14452 8.14908 3.1723 8.13972 3.20455C8.10571 3.16287 8.0786 3.12269 8.13923 3.10483C8.09043 3.06613 8.04114 3.02694 8.01749 3.00858C8.15303 3.00858 8.24865 2.94706 8.32652 2.96294C8.31518 2.84635 8.38025 2.71934 8.24273 2.59729C8.23287 2.56108 8.3004 2.58191 8.32997 2.58092C8.33983 2.60325 8.33046 2.6216 8.35018 2.63897C8.32948 2.56753 8.39552 2.46731 8.28857 2.41174C8.36546 2.36064 8.37679 2.49013 8.39454 2.38644L8.42362 2.41274C8.674 2.29069 8.25407 1.99401 8.5631 1.87097C8.54388 1.8799 8.53452 1.88486 8.5148 1.88089C8.70653 1.67947 8.60894 1.34905 8.8608 1.17491C8.91896 1.12084 8.85045 1.08561 8.81299 1.0231L8.9096 1.04493L8.83222 0.933303C8.79426 0.802823 9.12203 0.850451 9.0274 0.666886L8.95987 0.658452C8.98945 0.618266 8.98057 0.501181 9.0481 0.537398C9.03873 0.527972 8.99043 0.496716 9.02937 0.492251L9.07718 0.510111L9.04071 0.366732C9.10971 0.295291 9.22307 0.457026 9.28271 0.336965C9.2832 0.283384 9.19843 0.148935 9.15998 0.152904C9.15062 0.170268 9.11119 0.187633 9.06338 0.169276L9.05599 0.116687C8.92044 0.050703 8.7918 -0.0435601 8.65084 0.0224241L8.70555 0.131571L8.62866 0.127106L8.64936 0.0636022C8.57148 0.0725323 8.6188 0.118176 8.64739 0.158857C8.60894 0.149927 8.57986 0.149927 8.56064 0.158857L8.66464 0.285865C8.60648 0.271973 8.56902 0.208966 8.51973 0.244686C8.56803 0.304221 8.65527 0.262547 8.67351 0.334981C8.59563 0.344407 8.54782 0.313151 8.58578 0.376159C8.54733 0.367725 8.52811 0.349368 8.51924 0.326546C8.54733 0.380624 8.49854 0.431228 8.56508 0.480344C8.47192 0.484809 8.53649 0.612312 8.40489 0.555258C8.43249 0.579568 8.48375 0.661428 8.47636 0.697645C8.34131 0.572623 8.41721 0.820187 8.25358 0.735847C8.37778 0.838544 8.2521 0.926357 8.29991 1.03848C8.29054 1.02955 8.27132 1.01119 8.28068 1.00723C8.2516 1.04791 8.2033 1.04394 8.16486 1.06279C8.28068 1.11488 8.28019 1.19625 8.33835 1.26322C8.20281 1.27463 8.21267 1.17491 8.09635 1.14961C8.19295 1.18434 8.15451 1.28406 8.24175 1.29646C8.15451 1.31135 8.19295 1.31978 8.08698 1.30341C8.23238 1.3689 8.09684 1.35302 8.17373 1.42397C8.07762 1.45721 8.02931 1.38626 8.04854 1.47159C7.99087 1.48648 7.96179 1.40561 7.96179 1.40561Z" fill="white"/>
</svg>
