<svg width="21" height="8" viewBox="0 0 21 8" fill="none" xmlns="http://www.w3.org/2000/svg">
<path fill-rule="evenodd" clip-rule="evenodd" d="M2.56096 3.20334C2.59004 3.21376 2.58363 3.23311 2.57279 3.24898C2.56293 3.24055 2.55012 3.23212 2.53089 3.22269L2.52054 3.22765C2.53484 3.21723 2.54913 3.2083 2.56096 3.20334ZM2.3944 3.92772C2.38059 3.90936 2.36088 3.88852 2.33919 3.86768C2.35595 3.8404 2.38355 3.82204 2.39538 3.83593C2.37369 3.84437 2.39242 3.88852 2.3944 3.92772ZM0.643702 2.17126C0.692005 2.25907 0.768401 2.1524 0.83839 2.13553C0.926616 2.21839 0.789595 2.22781 0.758051 2.29429C0.822618 2.34192 0.94436 2.3315 0.967525 2.38062C0.952738 2.39501 0.952246 2.40791 0.92563 2.41039C1.0454 2.42428 1.05969 2.59693 1.20854 2.60239C1.20361 2.61429 1.19721 2.62273 1.1908 2.62918C1.23171 2.58304 1.2805 2.54583 1.31796 2.5235C1.34359 2.55724 1.42443 2.54434 1.37021 2.60288C1.35739 2.58006 1.33029 2.59693 1.30268 2.6009L1.35641 2.61776C1.28839 2.71699 1.28938 2.59048 1.22136 2.6386C1.30268 2.6902 1.43625 2.71798 1.44907 2.7919C1.36922 2.87029 1.32831 2.68474 1.3017 2.8177L1.27558 2.70657C1.18094 2.87476 1.24797 2.64604 1.14003 2.81671C1.19671 2.95066 1.2736 2.91445 1.33374 3.04443C1.40225 3.03054 1.3988 2.98043 1.46632 2.96654C1.67727 3.04641 1.35099 3.26024 1.55849 3.27909C1.63883 3.26074 1.75367 3.18037 1.76353 3.30688L1.6477 3.36195C1.72558 3.47407 1.83056 3.30192 1.85865 3.46514C1.80641 3.47953 1.76008 3.41206 1.76205 3.43785C1.74825 3.57429 1.8557 3.43984 1.90055 3.49292L1.83056 3.57826C1.9454 3.66855 2.11397 3.72312 2.23965 3.81937C2.21057 3.83674 2.1667 3.84219 2.16966 3.8928C2.3471 3.99698 2.4644 4.20188 2.57777 4.37056L2.69606 4.34377C2.70838 4.35568 2.69359 4.39735 2.66698 4.39983C2.70247 4.47574 2.70838 4.35568 2.76013 4.34923C2.79759 4.37106 2.7695 4.42762 2.73056 4.43307C2.88631 4.45292 3.12388 4.53726 3.1781 4.69751L3.13866 4.70544C3.20668 4.79772 3.35307 4.61366 3.38461 4.74166L3.35898 4.74513C3.5305 4.90935 3.78976 4.97781 3.86419 5.19958C3.95931 5.10581 4.03571 5.36528 4.14365 5.20752C4.21364 5.35338 4.16336 5.36479 4.2994 5.51065C4.33981 5.5424 4.42163 5.4402 4.48521 5.45161L4.44086 5.54141L4.56309 5.48783L4.5483 5.61583L4.61139 5.62029C4.59365 5.60392 4.58773 5.55679 4.60449 5.53248C4.70405 5.53446 4.76862 5.69967 4.74891 5.7473C4.82333 5.75821 4.90318 5.75672 4.98007 5.7592C4.95887 5.79443 4.91994 5.79294 4.88297 5.80534C5.03182 5.75672 4.85833 5.90953 4.99485 5.86488C4.99091 5.83908 5.0264 5.81328 5.03675 5.79592C5.05991 5.87133 5.17032 5.91846 5.26199 5.92888L5.21911 5.98593C5.36057 6.06432 5.54343 6.08615 5.70854 6.1561C5.66024 6.10103 5.71692 5.99486 5.76917 6.00429L5.75093 6.11145C5.80466 6.06333 5.71495 6.05291 5.80663 6.00479C5.86282 6.0415 5.80564 6.13477 5.75783 6.15213L5.84606 6.14916C5.83916 6.18041 5.81649 6.18934 5.79726 6.22506C5.85 6.17892 5.89338 6.37489 5.97815 6.28013L5.97224 6.31139C6.14277 6.36646 6.23149 6.35604 6.37196 6.39474C6.40301 6.30841 6.45082 6.34512 6.51391 6.28708C6.60608 6.34661 6.69825 6.45129 6.82344 6.48255C6.92152 6.46568 6.86928 6.41557 6.92251 6.37539C6.90625 6.45774 7.03045 6.4885 6.9511 6.52621C7.10143 6.56243 7.14529 6.56342 7.35033 6.5406C7.33752 6.50289 7.31829 6.48354 7.33752 6.45874C7.37497 6.45278 7.40652 6.50984 7.39223 6.54754L7.38089 6.5535C7.61944 6.47858 7.81807 6.89979 8.02459 6.76732L8.01375 6.77377L8.20646 6.72367C8.28385 6.75542 8.14633 6.77427 8.19661 6.83827C8.41052 6.74698 8.49234 6.92112 8.66583 6.85018C8.74814 7.11064 9.09956 6.89532 9.24053 7.07442L9.23905 7.01588C9.28932 6.96528 9.28587 7.05607 9.31545 7.07343C9.31693 7.02828 9.27651 7.01538 9.30707 6.9876C9.67525 6.96726 10.0355 7.18952 10.4082 7.25749C10.5442 7.28329 10.5107 6.96428 10.6709 7.11461L10.6137 7.2183C10.8981 7.10965 11.1771 7.26345 11.4511 7.17315C11.4343 7.19697 11.4324 7.22921 11.4058 7.22723C11.46 7.31207 11.6167 7.2431 11.6197 7.17613C11.6616 7.18357 11.6276 7.23417 11.6522 7.26642C11.7089 7.31256 11.7986 7.1667 11.8277 7.24459C11.8326 7.257 11.8109 7.26989 11.8001 7.27585C11.8385 7.23814 11.9745 7.28527 11.9395 7.19498C12.0406 7.23814 12.1337 7.15479 12.2146 7.20838C12.2663 7.10717 12.3886 7.2565 12.4038 7.11411C12.3979 7.26146 12.5832 7.23269 12.6453 7.16323C12.6251 7.20788 12.702 7.20937 12.6784 7.27089C12.7523 7.2689 12.8188 7.24112 12.8031 7.16571C12.945 7.3463 13.0668 7.00893 13.1535 7.23169C13.3669 7.13594 13.5626 7.06748 13.7538 7.01787C13.7598 7.16521 13.5399 7.04912 13.5601 7.20242C13.742 7.128 13.8361 6.99405 14.022 7.01538C14.0717 7.03176 14.0018 7.08087 13.9884 7.10717C14.1669 7.03821 14.3463 7.07938 14.4996 6.97619C14.501 6.98959 14.4848 7.00695 14.47 7.02084C14.5015 7.01092 14.5474 7.03076 14.5351 6.96528L14.506 6.9876C14.4424 6.89929 14.6055 6.76782 14.6031 6.71622C14.5765 6.91418 14.7697 6.73954 14.7194 6.99207C14.7386 6.97619 14.7603 6.94097 14.749 6.89731C14.782 6.90525 14.7958 6.92956 14.7716 6.98512C14.8815 6.93104 14.8293 6.86754 14.9333 6.85266C14.9382 6.8849 14.919 6.90028 14.9151 6.93948C14.957 6.86952 14.9989 6.79908 15.0915 6.81247C15.0895 6.83232 15.1038 6.85613 15.0782 6.8596C15.228 6.82785 15.3039 6.65619 15.4765 6.67554C15.4567 6.82388 15.541 6.70779 15.5745 6.82487L15.6554 6.76881L15.6081 6.7192C15.6849 6.70332 15.7337 6.60112 15.8077 6.62494L15.7618 6.68695L15.9008 6.63089L15.8092 6.60509C15.8722 6.52621 15.7658 6.45725 15.8747 6.46667C15.8575 6.48354 15.9506 6.4503 16.0073 6.51083V6.51133C16.0359 6.46469 16.0645 6.41657 16.1276 6.43244C16.1517 6.46667 16.1492 6.5654 16.1655 6.58822C16.1768 6.48057 16.3385 6.52174 16.3553 6.3992C16.3469 6.42847 16.3627 6.49049 16.3715 6.50091L16.3799 6.4121C16.4213 6.42649 16.4302 6.4374 16.4381 6.48801C16.547 6.46965 16.3631 6.35009 16.5051 6.37539C16.4967 6.38481 16.5051 6.39523 16.4883 6.41359C16.6224 6.40764 16.7136 6.28807 16.8393 6.29105C16.9098 6.39722 16.7481 6.35108 16.8176 6.4374C16.9773 6.36199 17.1163 6.1948 17.2819 6.16354L17.2484 6.16206C17.2119 5.99139 17.3928 6.19678 17.4435 6.08863C17.4292 6.10847 17.4519 6.18885 17.4504 6.169C17.5673 6.15213 17.655 6.04199 17.795 5.92789L17.7915 5.977C17.8699 5.98841 17.9665 5.93235 18.0424 5.92342C18.0449 5.8753 18.0848 5.8624 18.0365 5.81477C18.3445 5.94674 18.3642 5.50668 18.6348 5.60938C18.6136 5.62029 18.6008 5.66891 18.6181 5.66097L18.7536 5.54984C18.7068 5.48932 18.7122 5.51908 18.6531 5.48287C18.6531 5.43425 18.6792 5.38265 18.7147 5.36082C18.6723 5.44268 18.7714 5.46749 18.8197 5.48783C18.8044 5.47046 18.8024 5.44218 18.7891 5.42333C18.9291 5.49725 18.7305 5.28243 18.8773 5.30228L18.8906 5.33998C18.9202 5.2998 18.9311 5.23381 18.9784 5.21992C19.0385 5.28541 18.9567 5.27896 18.9887 5.34296C19.0464 5.30426 19.0242 5.1331 19.1213 5.17775C19.108 5.21298 19.072 5.23381 19.0592 5.26904C19.1681 5.32411 19.1627 5.29781 19.2145 5.2864L19.209 5.2869L19.3347 5.26854L19.2943 5.26011C19.2534 5.02544 19.422 5.13062 19.4397 4.94209C19.422 5.12268 19.4678 5.02147 19.5141 5.10879C19.5536 5.11574 19.6078 5.11623 19.6122 5.14699C19.6152 5.04975 19.7241 5.14749 19.7256 5.00758C19.7458 5.03189 19.7768 4.97732 19.8109 5.05025C19.8577 4.98972 19.7655 5.01403 19.7483 4.97781C19.7803 4.83096 20.0395 4.93564 20.08 4.71785C20.1524 4.58538 20.1095 4.48913 20.1721 4.36808C20.2357 4.38048 20.2175 4.4807 20.2175 4.4807C20.2993 4.47276 20.3343 4.43208 20.3604 4.36213C20.3683 4.39189 20.3934 4.40083 20.4319 4.41521C20.4664 4.37453 20.3836 4.30458 20.4664 4.29565C20.4807 4.32988 20.5058 4.38247 20.5093 4.42613C20.5378 4.36262 20.5472 4.28076 20.5738 4.21428C20.6236 4.24355 20.6024 4.30408 20.6083 4.34576C20.6458 4.27779 20.7133 4.17856 20.669 4.10018L20.6142 4.10911C20.6305 4.08827 20.6759 4.15475 20.6724 4.17955C20.6734 4.27283 20.5862 4.21875 20.563 4.19742L20.5822 4.15128C20.425 4.04709 20.4688 4.29515 20.39 4.34625L20.3313 4.21875L20.3328 4.36461C20.2954 4.35072 20.2367 4.30061 20.2574 4.25695C20.1667 4.24653 20.2451 4.33038 20.1559 4.30855C20.144 4.30309 20.1421 4.29664 20.1431 4.2887L20.1209 4.36064C20.112 4.33038 20.0533 4.29217 20.0943 4.28324C19.9612 4.29168 20.0139 4.47227 19.9188 4.4172L19.9213 4.40479C19.8246 4.53428 19.9691 4.49261 19.9449 4.65732L19.7379 4.5065L19.7832 4.5963C19.7685 4.60275 19.7394 4.61614 19.7211 4.57992C19.7128 4.67121 19.7542 4.6092 19.763 4.68213C19.6497 4.65385 19.6088 4.83642 19.5067 4.71487C19.5255 4.79326 19.6009 4.72281 19.561 4.81211C19.4476 4.68312 19.4969 4.88901 19.3954 4.86271C19.3663 4.77689 19.4466 4.77937 19.3461 4.75208C19.3904 4.90042 19.215 4.79971 19.1814 4.85577C19.2426 4.96045 19.0972 4.96343 19.0306 5.04628C19.0163 5.00957 18.8359 5.08299 18.7359 5.09093L18.729 5.07208C18.7709 5.18569 18.6767 5.21298 18.6284 5.26953C18.5974 5.20454 18.5954 5.17329 18.6122 5.12665L18.557 5.1589C18.5619 5.20107 18.552 5.22687 18.5205 5.25763L18.4944 5.1713C18.4199 5.21248 18.3854 5.34048 18.2593 5.33502C18.2888 5.41341 18.4411 5.50469 18.3573 5.60739C18.3337 5.56869 18.2967 5.50073 18.3164 5.47046C18.31 5.48039 18.3002 5.52007 18.2731 5.51164L18.2834 5.42283C18.2228 5.4149 18.2864 5.4918 18.2464 5.50271C18.2198 5.44466 18.2001 5.47443 18.1834 5.42581C18.1903 5.41589 18.2267 5.43474 18.2297 5.40497C18.1834 5.4144 18.1178 5.40398 18.0808 5.36777C18.1001 5.39902 18.1178 5.44615 18.0907 5.46798C18.0153 5.51015 18.032 5.41093 17.9739 5.40249C17.9734 5.45211 17.9049 5.43375 17.9423 5.52206C17.9192 5.53297 17.897 5.49378 17.8778 5.47443C17.8546 5.53149 17.6895 5.56274 17.7762 5.63865L17.79 5.64063L17.7846 5.64708H17.7851H17.7846C17.6836 5.78996 17.4795 5.70959 17.3593 5.80138L17.3484 5.77161C17.2799 5.83809 17.1754 5.86339 17.1409 5.9517C17.1158 5.95964 17.063 5.91449 17.0611 5.8748C17.0059 5.91747 17.0098 5.95418 16.9014 5.93235C16.9477 5.85942 16.8639 5.89217 16.9536 5.87331C16.8624 5.87282 16.8279 5.82916 16.7668 5.94079C16.7717 5.85297 16.6742 5.86091 16.6421 5.89663L16.7175 5.93483C16.6776 5.96013 16.6367 5.9651 16.5958 5.97105L16.5849 5.86041C16.3824 5.7855 16.3459 6.17247 16.1581 5.99685C16.133 6.08268 16.2641 6.02364 16.2473 6.11939C16.165 6.12882 16.0428 5.99387 16.0191 5.99982C15.8974 5.96658 15.9575 6.17694 15.8343 6.16305C15.8575 6.19728 15.8959 6.29402 15.819 6.34959C15.7352 6.35455 15.6845 6.21415 15.7273 6.17247C15.7451 6.16503 15.7574 6.17495 15.7594 6.18785C15.7815 6.16851 15.8111 6.1442 15.7707 6.11096L15.7692 6.15064C15.7209 6.12137 15.6135 6.15064 15.6253 6.08268C15.574 6.13229 15.6135 6.15064 15.6623 6.16007C15.5494 6.12882 15.5045 6.1948 15.3927 6.1824C15.4134 6.19927 15.438 6.24044 15.4217 6.24342C15.2596 6.23201 15.3685 6.33123 15.268 6.37192C15.1975 6.32677 15.2635 6.23201 15.1669 6.29899C15.095 6.26922 15.1344 6.20026 15.1541 6.16503C15.0718 6.25285 14.9663 6.1442 14.9106 6.13923L14.955 6.10054C14.9284 6.12336 14.9037 6.12683 14.8786 6.1303L14.92 6.20224C14.8884 6.19331 14.8633 6.19678 14.8584 6.16503C14.8362 6.21961 14.9037 6.28807 14.8539 6.36596C14.8081 6.33322 14.7391 6.42599 14.71 6.32677C14.8397 6.34215 14.68 6.22705 14.782 6.1948C14.7642 6.21018 14.7391 6.21316 14.7076 6.20423C14.7012 6.19381 14.7085 6.18289 14.7154 6.17545C14.5838 6.10302 14.679 6.29849 14.5553 6.31536C14.5627 6.25582 14.5109 6.21117 14.4927 6.22655C14.5424 6.2201 14.5301 6.31833 14.4907 6.36894C14.4049 6.33669 14.4089 6.41557 14.3665 6.41706L14.4173 6.43046C14.4084 6.49049 14.3675 6.489 14.3142 6.51529C14.3034 6.47164 14.3606 6.47709 14.3384 6.46022C14.2891 6.57086 14.1861 6.37737 14.1092 6.45874C14.0644 6.42302 14.0929 6.35108 14.0545 6.32726C13.9663 6.40912 13.9421 6.25632 13.8475 6.32578C13.8844 6.40069 13.8879 6.38134 13.8233 6.46221L13.9855 6.39523L13.8889 6.51579C13.9401 6.51281 13.9909 6.45923 14.023 6.46965C13.9786 6.53712 13.9815 6.51728 14.0126 6.57979C13.9308 6.46915 13.8815 6.65768 13.7928 6.58525L13.777 6.39374C13.6498 6.31734 13.5725 6.50835 13.4123 6.47164L13.465 6.5014C13.4497 6.57929 13.3689 6.51976 13.3201 6.55399C13.3211 6.48999 13.2881 6.46866 13.2639 6.43046C13.2693 6.47809 13.1496 6.43492 13.1427 6.56391L13.0682 6.48503C12.9416 6.45824 12.9327 6.68398 12.8085 6.66016C12.843 6.59021 12.7863 6.54457 12.8657 6.49446C12.8252 6.49396 12.7883 6.48205 12.7893 6.52671C12.7641 6.48652 12.6789 6.61353 12.6394 6.5525C12.6232 6.58078 12.6192 6.64825 12.5734 6.6428C12.568 6.6299 12.5729 6.61105 12.5729 6.61105C12.5734 6.6428 12.5014 6.65421 12.5433 6.72565C12.4137 6.52472 12.1894 6.74004 12.08 6.56788C11.9908 6.58971 11.8829 6.61055 11.802 6.61551C11.8075 6.59616 11.803 6.58326 11.8178 6.59021C11.7084 6.53067 11.7449 6.77477 11.6192 6.70779C11.5571 6.6041 11.6887 6.65173 11.6492 6.61253C11.6379 6.40367 11.495 6.63982 11.4141 6.50736L11.4353 6.49644C11.3737 6.41954 11.2737 6.56491 11.1672 6.54208C11.1672 6.54208 11.1736 6.52373 11.1697 6.51033C11.0913 6.61253 10.9508 6.63833 10.8453 6.66066C10.8833 6.58029 10.8946 6.62047 10.8813 6.53514C10.8345 6.54357 10.8858 6.67058 10.7916 6.68745C10.765 6.64032 10.7014 6.59567 10.6995 6.50587L10.7867 6.50736C10.7507 6.38779 10.6743 6.50289 10.63 6.47957L10.6403 6.42947C10.5067 6.43641 10.4939 6.56342 10.352 6.54407L10.3628 6.58326C10.2731 6.70432 10.3047 6.50785 10.2174 6.59616L10.2071 6.46667C10.1519 6.49644 10.0139 6.57235 9.91923 6.58177C9.98231 6.49297 10.0942 6.46519 10.1671 6.41111C10.1159 6.41012 9.99414 6.39821 9.96063 6.45874C9.98281 6.44931 10.0114 6.42153 10.0291 6.44435C9.95668 6.53613 9.86846 6.57334 9.76742 6.55647C9.81572 6.31188 9.51161 6.45626 9.4643 6.25384C9.27404 6.31982 9.1178 6.16454 8.90981 6.14916C8.95269 6.35157 8.84869 6.14618 8.82947 6.34463C8.7787 6.35009 8.76046 6.34413 8.75849 6.33074L8.63182 6.19232C8.60718 6.1303 8.68505 6.1561 8.6885 6.11096C8.58598 6.08119 8.65844 6.02165 8.5983 5.95964C8.59978 6.03306 8.54458 6.0534 8.49086 6.01322L8.55739 6.12187C8.39376 6.19381 8.46325 5.92987 8.29913 6.00082L8.35679 5.94922C8.27547 5.96906 8.08472 5.8877 7.97777 6.02761C7.96939 6.0028 7.96347 5.94525 7.99945 5.9388C7.82842 5.87629 7.56424 6.01669 7.44841 5.89018L7.47404 5.84603C7.43757 5.85248 7.3937 5.92193 7.36364 5.86538C7.37103 5.84652 7.38927 5.82122 7.37497 5.81477C7.35329 5.82668 7.26408 5.88075 7.22908 5.8371L7.27985 5.79592C7.12853 5.68082 6.9856 5.84255 6.83182 5.82916C6.87273 5.69173 6.75394 5.60541 6.6948 5.56224L6.70318 5.54389C6.51391 5.4655 6.33352 5.55232 6.13045 5.54736C6.07377 5.35735 5.78248 5.33155 5.64053 5.17775C5.65729 5.21298 5.59321 5.27946 5.55624 5.27946C5.52667 5.2353 5.40296 5.32262 5.46161 5.20504L5.47492 5.21347C5.49513 5.082 5.39803 5.07853 5.33346 5.04777L5.25164 5.19958C5.18018 4.91183 4.77306 5.0562 4.78094 4.81459C4.7218 4.83146 4.67251 4.80467 4.61287 4.82104L4.65871 4.74116C4.56063 4.66179 4.51183 4.62259 4.36594 4.56951L4.42656 4.52734C4.35312 4.48368 4.19589 4.70395 4.12591 4.66228L4.17667 4.5318C4.04902 4.44845 3.98987 4.2634 3.79617 4.28424C3.80898 4.26886 3.83511 4.23859 3.85876 4.24752C3.80159 4.20486 3.68478 4.0203 3.59655 4.18749C3.66457 4.08926 3.47481 4.09125 3.38067 4.07785L3.44524 4.01385C3.32202 4.06197 3.30082 4.08579 3.2052 4.04908C3.19436 4.02526 3.23428 3.97912 3.24414 4.01683C3.21358 3.931 3.14409 4.0461 3.1017 3.94886L3.16528 3.92604C3.10811 3.87047 3.09332 3.89875 3.01643 3.92306C2.95433 3.9186 2.91391 3.80945 2.95876 3.74049C2.91785 3.77174 2.83998 3.79407 2.81928 3.74644C2.83505 3.71965 2.86068 3.71568 2.87349 3.71419C2.81287 3.5852 2.66057 3.65565 2.65416 3.52815C2.67339 3.50483 2.6793 3.48995 2.67979 3.47804C2.75274 3.55345 2.80942 3.61646 2.79907 3.61596C2.85526 3.55345 2.80597 3.48399 2.93018 3.4453C2.84146 3.44579 2.66599 3.46415 2.63445 3.37782C2.6374 3.36889 2.63987 3.36046 2.64726 3.34905L2.65958 3.34855C2.65219 3.3292 2.63445 3.32325 2.61375 3.32176C2.60487 3.29398 2.59995 3.27513 2.58319 3.25627C2.62508 3.2012 2.54179 3.163 2.51468 3.13175C2.45159 3.19773 2.423 3.14861 2.40575 3.23742C2.40526 3.22799 2.41906 3.23544 2.44173 3.2523C2.44814 3.25528 2.45405 3.25925 2.46095 3.25826L2.45307 3.26223C2.47426 3.28058 2.50137 3.3044 2.53193 3.33119C2.47574 3.34111 2.423 3.34359 2.42596 3.27513C2.36829 3.30092 2.30767 3.32573 2.2776 3.33565C2.32689 3.20616 2.2988 3.08114 2.34907 3.01466C2.2293 2.95116 2.1322 2.80828 1.94786 2.85541C1.90745 2.84102 1.95822 2.79141 1.97054 2.76412C1.99765 2.76908 2.01194 2.79042 2.03806 2.78297C1.95674 2.75519 1.88527 2.62818 1.77979 2.68821C1.76402 2.58304 1.89661 2.66341 1.80592 2.57311L1.84485 2.56468C1.86161 2.24964 1.35591 2.40989 1.40915 2.03581C1.4057 2.06062 1.40471 2.07253 1.38992 2.08692C1.31895 1.76245 0.969004 1.56549 0.992662 1.20382C0.984283 1.11055 0.915772 1.13139 0.840855 1.1041L0.923659 1.04754L0.784666 1.00537C0.656517 0.910115 0.920701 0.709186 0.724535 0.605993L0.668839 0.647171C0.662432 0.586644 0.571742 0.477994 0.647152 0.465094C0.633845 0.46311 0.575685 0.466583 0.6023 0.433839L0.651095 0.417467L0.528368 0.29939C0.536254 0.181313 0.72552 0.264165 0.701369 0.109375C0.667853 0.0557943 0.522946 -0.0196161 0.493374 0.00469381C0.494852 0.0270193 0.471687 0.0681973 0.421906 0.0806004L0.385926 0.0294999C0.23609 0.0433913 0.0709748 0.00866278 0 0.195701L0.11287 0.283018L0.0492881 0.334614L0.0256298 0.244817C-0.0305586 0.311297 0.0354874 0.332134 0.0857613 0.355948C0.0502738 0.373808 0.0276013 0.395141 0.0197152 0.419451L0.185816 0.482955C0.132092 0.511234 0.0606243 0.468567 0.0478094 0.546458C0.125192 0.575233 0.163144 0.464598 0.226232 0.530086C0.173494 0.598055 0.115827 0.601032 0.190745 0.639729C0.15575 0.659078 0.128642 0.654117 0.104984 0.636752C0.166101 0.673465 0.167579 0.764256 0.252355 0.764256C0.188773 0.84165 0.328751 0.924503 0.192716 0.968658C0.229682 0.973619 0.332202 1.01529 0.354874 1.05746C0.163144 1.03811 0.413034 1.22763 0.234611 1.27625C0.400219 1.27824 0.386911 1.47024 0.518018 1.53572C0.504217 1.53523 0.476616 1.53473 0.478587 1.52233C0.495838 1.58583 0.462322 1.62304 0.454929 1.67365C0.572727 1.62503 0.642224 1.70242 0.735378 1.71433C0.661446 1.84134 0.582092 1.74013 0.488445 1.81603C0.578149 1.76543 0.640745 1.89293 0.703834 1.82844C0.663418 1.91823 0.696933 1.89095 0.619551 1.96933C0.763965 1.90137 0.671304 2.00506 0.781709 2.00059C0.758051 2.1147 0.66391 2.09436 0.7546 2.1534C0.736364 2.21839 0.643702 2.17126 0.643702 2.17126Z" fill="white"/>
</svg>
