<svg width="7" height="21" viewBox="0 0 7 21" fill="none" xmlns="http://www.w3.org/2000/svg">
<path fill-rule="evenodd" clip-rule="evenodd" d="M2.97146 2.58995C2.99758 2.60484 2.98773 2.6222 2.97491 2.63609C2.96604 2.62667 2.9552 2.61625 2.93893 2.60335L2.92759 2.60732C2.94337 2.59938 2.95865 2.59243 2.97146 2.58995ZM2.65156 3.2378C2.64367 3.21895 2.63184 3.19712 2.61657 3.17529C2.63924 3.15346 2.67078 3.14007 2.67719 3.15545C2.65501 3.15892 2.66043 3.20208 2.65156 3.2378ZM1.15575 1.76334C1.2075 1.82635 1.26665 1.71174 1.32826 1.67801C1.41895 1.72861 1.29425 1.77227 1.27108 1.83875C1.33417 1.86256 1.44655 1.82387 1.47366 1.86108C1.46183 1.87695 1.46232 1.88836 1.43669 1.89729C1.55055 1.88241 1.56681 2.03769 1.70827 2.01636C1.70383 2.02777 1.69792 2.03621 1.692 2.04315C1.72946 1.99503 1.77481 1.95385 1.8098 1.92756C1.83642 1.95385 1.91282 1.93202 1.86156 1.99354C1.84923 1.97419 1.8236 1.99304 1.79797 2.00049L1.84874 2.00942C1.78417 2.10963 1.78615 1.99205 1.72158 2.04663C1.79699 2.08185 1.92415 2.09326 1.93598 2.15924C1.85811 2.23862 1.82262 2.0754 1.79502 2.19893L1.77185 2.10169C1.68116 2.2669 1.7477 2.05109 1.6442 2.21977C1.69151 2.33189 1.76889 2.28675 1.81621 2.39937C1.88029 2.38151 1.88127 2.33537 1.94584 2.318C2.13708 2.3825 1.8098 2.59285 2.00104 2.59831C2.07842 2.57946 2.20066 2.50206 2.19179 2.61965L2.07497 2.66975C2.13018 2.77047 2.25635 2.61667 2.25783 2.76501C2.20559 2.77642 2.17306 2.7154 2.17059 2.73871C2.13609 2.86026 2.25931 2.74169 2.29381 2.79081L2.2115 2.86572C2.29529 2.95502 2.43773 3.01902 2.53237 3.11924C2.50082 3.13164 2.45893 3.13214 2.44907 3.17679C2.59398 3.28445 2.63144 3.49282 2.66347 3.66448L2.77684 3.66795C2.78374 3.68085 2.75466 3.71359 2.731 3.70962C2.73346 3.78255 2.78374 3.68085 2.83204 3.6873C2.85717 3.71558 2.81035 3.75725 2.77388 3.75229C2.90301 3.80488 3.09376 3.93883 3.05728 4.09709L3.0218 4.09065C3.03116 4.19136 3.24162 4.08866 3.20466 4.20823L3.18198 4.20178C3.24014 4.39973 3.42497 4.55799 3.36681 4.75942C3.50186 4.72568 3.39392 4.96779 3.57185 4.89684C3.53439 5.0432 3.48954 5.02782 3.49792 5.20196C3.50827 5.24512 3.63346 5.21138 3.67388 5.25206L3.58319 5.29424L3.70887 5.31805L3.61572 5.4014L3.66008 5.43712C3.65712 5.41628 3.68324 5.38056 3.71084 5.37113C3.78478 5.42521 3.72612 5.57405 3.68029 5.59538C3.73302 5.63954 3.77837 5.68816 3.82667 5.73529C3.78773 5.7467 3.76408 5.72288 3.73204 5.70999C3.86117 5.76357 3.64086 5.76654 3.75964 5.81566C3.7759 5.79581 3.81681 5.79978 3.83604 5.79383C3.79611 5.85932 3.8316 5.95556 3.88237 6.01808L3.81287 6.02899C3.84491 6.16394 3.94546 6.28846 3.99869 6.43333C4.00904 6.37082 4.12585 6.34204 4.15296 6.38124L4.0598 6.43383C4.13176 6.43928 4.0805 6.37528 4.17711 6.40555C4.18598 6.46409 4.07755 6.48195 4.03368 6.4626L4.09283 6.51618C4.06473 6.53007 4.04305 6.52015 4.00362 6.52958C4.07508 6.53553 3.94743 6.67643 4.06523 6.6799L4.03615 6.69379C4.07952 6.84164 4.13423 6.8972 4.17563 7.01627C4.26336 6.99147 4.25794 7.04455 4.33927 7.05894C4.33828 7.15717 4.29934 7.27624 4.33877 7.38092C4.40531 7.44343 4.4201 7.38142 4.48171 7.40027C4.40383 7.42905 4.44376 7.53373 4.36983 7.49453C4.4201 7.61956 4.43932 7.6523 4.54036 7.80213C4.56895 7.77583 4.57881 7.75152 4.60838 7.755C4.62859 7.78179 4.59064 7.83239 4.55071 7.83835L4.54086 7.83239C4.70449 7.99065 4.40383 8.31909 4.60592 8.42724L4.59606 8.4203L4.71928 8.55474C4.72174 8.62867 4.6483 8.52547 4.61035 8.58898C4.78237 8.7264 4.6557 8.85341 4.76462 8.97446C4.54135 9.12628 4.8425 9.35201 4.71139 9.52268L4.76709 9.50531C4.82919 9.53359 4.74195 9.55592 4.73308 9.58519C4.77645 9.57427 4.77744 9.53607 4.81194 9.55492C4.9327 9.86153 4.83708 10.2182 4.81638 10.5561C4.8144 10.6781 5.11999 10.5898 5.00071 10.758L4.88981 10.7273C5.04458 10.9565 4.94157 11.2254 5.07711 11.4531C5.05099 11.4412 5.01846 11.4442 5.01649 11.4208C4.94551 11.4789 5.0293 11.6079 5.09288 11.6029C5.08894 11.6406 5.0362 11.6168 5.00663 11.6431C4.96523 11.6977 5.11654 11.7607 5.04113 11.7949C5.0293 11.8004 5.0155 11.783 5.0086 11.7741C5.04852 11.8038 5.01205 11.9289 5.0983 11.8892C5.0638 11.9824 5.15301 12.0574 5.10619 12.1338C5.21019 12.172 5.07169 12.2915 5.21413 12.295C5.06725 12.3 5.10964 12.4612 5.18308 12.5128C5.13773 12.4974 5.14168 12.5659 5.07859 12.548C5.08647 12.613 5.11802 12.6701 5.19244 12.6532C5.02486 12.7852 5.34721 12.8844 5.12738 12.9668C5.21709 13.1538 5.28067 13.3299 5.32454 13.5021C5.17864 13.5031 5.2994 13.3106 5.14661 13.3264C5.2161 13.4872 5.34672 13.5765 5.32109 13.7417C5.30334 13.7849 5.25652 13.7204 5.2304 13.7075C5.29989 13.8692 5.22793 14.0255 5.31271 14.1693C5.2994 14.1693 5.28363 14.154 5.27229 14.1396C5.2782 14.1684 5.25307 14.2076 5.31911 14.2021L5.30038 14.1743C5.39502 14.1247 5.50493 14.2825 5.5557 14.2864C5.36446 14.2433 5.51232 14.4333 5.26983 14.3623C5.28264 14.3807 5.31517 14.4035 5.35953 14.3981C5.34721 14.4268 5.32158 14.4363 5.27032 14.409C5.30926 14.5112 5.37875 14.473 5.38023 14.5667C5.3477 14.5672 5.33489 14.5484 5.29693 14.54C5.36101 14.5856 5.42508 14.6322 5.40044 14.7121C5.38072 14.7076 5.35608 14.7176 5.35559 14.6938C5.37087 14.8297 5.52563 14.924 5.46599 15.0743C5.32601 15.0311 5.42015 15.1259 5.2994 15.1343L5.33538 15.2142L5.39403 15.1814C5.39157 15.2519 5.48029 15.3144 5.44086 15.3749L5.39058 15.3228L5.41375 15.4548L5.45959 15.3799C5.52169 15.4513 5.61238 15.3724 5.57886 15.4667C5.56654 15.4479 5.57738 15.5377 5.50641 15.5739L5.50592 15.5734C5.54485 15.6091 5.58527 15.6453 5.5552 15.6974C5.51627 15.7103 5.42163 15.685 5.39551 15.6934C5.49803 15.7292 5.42114 15.8586 5.5276 15.9038C5.50296 15.8889 5.43938 15.8874 5.42607 15.8919L5.50789 15.9221C5.48029 15.9544 5.46698 15.9589 5.4172 15.9524C5.39945 16.0501 5.57098 15.9246 5.50197 16.0397C5.49557 16.0303 5.48324 16.0348 5.47092 16.0154C5.43346 16.131 5.51676 16.2431 5.47339 16.3493C5.35115 16.3771 5.44677 16.2545 5.34327 16.2873C5.36002 16.4426 5.48226 16.6137 5.44283 16.7621L5.45811 16.7353C5.62815 16.7641 5.36643 16.8425 5.44332 16.9223C5.43149 16.903 5.34967 16.8931 5.3684 16.899C5.33489 16.9997 5.39847 17.1104 5.44381 17.2696L5.40093 17.2473C5.35805 17.3053 5.36939 17.4051 5.34327 17.4686C5.38516 17.4914 5.37481 17.5276 5.44086 17.5102C5.17322 17.6898 5.5419 17.9061 5.31813 18.0649C5.31961 18.0436 5.28363 18.0103 5.28215 18.0272L5.3063 18.1825C5.3822 18.1785 5.35362 18.1676 5.41523 18.1418C5.45712 18.1656 5.48669 18.2122 5.48226 18.2499C5.44086 18.1765 5.36298 18.2375 5.31764 18.2624C5.34129 18.2599 5.36495 18.2728 5.38812 18.2728C5.24715 18.3368 5.53647 18.303 5.43494 18.4013L5.3965 18.3913C5.41178 18.434 5.45909 18.4777 5.44283 18.5198C5.3546 18.5278 5.40734 18.4717 5.33735 18.4603C5.33538 18.5218 5.4862 18.6022 5.39354 18.6468C5.37284 18.6176 5.37678 18.5799 5.35608 18.5511C5.24814 18.5987 5.27328 18.6086 5.25208 18.6513L5.25504 18.6473L5.19491 18.7436L5.22596 18.7213C5.43839 18.8284 5.2442 18.8815 5.3753 19.0065C5.25159 18.8855 5.29792 18.9778 5.20181 18.9554C5.17125 18.9778 5.13527 19.0125 5.10964 18.9971C5.18061 19.0571 5.0362 19.0676 5.1402 19.1539C5.10915 19.1519 5.12935 19.205 5.05296 19.1807C5.06627 19.2472 5.10964 19.1752 5.14808 19.1871C5.2373 19.3017 4.97903 19.3895 5.10028 19.5538C5.13921 19.6847 5.23631 19.7269 5.26588 19.8504C5.20871 19.8772 5.15942 19.7959 5.15942 19.7959C5.10126 19.8465 5.10028 19.8926 5.12393 19.9576C5.09929 19.9402 5.07465 19.9467 5.03571 19.9561C5.03472 20.0032 5.14118 20.0122 5.08204 20.0608C5.05049 20.0429 4.99825 20.0166 4.96917 19.9874C4.98494 20.0464 5.02979 20.1119 5.04409 20.1739C4.98741 20.1749 4.97114 20.1208 4.94058 20.093C4.95044 20.16 4.95192 20.2637 5.02979 20.3044L5.0707 20.2731C5.06873 20.2964 4.9948 20.2652 4.98395 20.2453C4.93072 20.1759 5.03127 20.1769 5.06282 20.1813L5.07317 20.2255C5.26194 20.23 5.08253 20.0598 5.11112 19.9849L5.23483 20.0474L5.14365 19.9412C5.18111 19.9313 5.2575 19.9353 5.26884 19.9794C5.34573 19.9358 5.23286 19.9184 5.31566 19.8842C5.32799 19.8812 5.3339 19.8852 5.33834 19.8911L5.31073 19.8261C5.33587 19.843 5.40537 19.8365 5.37925 19.8673C5.47634 19.7805 5.31517 19.6827 5.42213 19.6644L5.42853 19.6743C5.40882 19.5235 5.3339 19.6416 5.23877 19.5146L5.49113 19.4873L5.3965 19.4555C5.4029 19.4416 5.41473 19.4138 5.45268 19.4263C5.396 19.3598 5.40882 19.4277 5.35164 19.3856C5.45268 19.3305 5.34425 19.1851 5.50148 19.1946C5.4305 19.1574 5.43396 19.2526 5.39354 19.1688C5.56408 19.1742 5.37777 19.0775 5.46402 19.0249C5.54781 19.0581 5.49261 19.1127 5.57935 19.0596C5.43888 18.9986 5.63012 18.9381 5.60991 18.879C5.4931 18.8597 5.58034 18.7535 5.55126 18.6563C5.5902 18.6672 5.63554 18.4916 5.68828 18.4107L5.7075 18.4152C5.59118 18.3849 5.62371 18.2996 5.60696 18.2326C5.67695 18.2425 5.70356 18.2574 5.73166 18.2956L5.73757 18.2351C5.70159 18.2167 5.68385 18.1954 5.67448 18.1552L5.76123 18.1795C5.76714 18.0976 5.67251 18.0064 5.74102 17.9081C5.6592 17.8947 5.50444 17.9682 5.4586 17.8545C5.50394 17.8545 5.58034 17.8575 5.59611 17.8878C5.59069 17.8779 5.5621 17.8511 5.58281 17.8337L5.65378 17.8843C5.69124 17.8402 5.59316 17.854 5.60351 17.8168C5.66709 17.8238 5.65181 17.7935 5.70159 17.8034C5.70701 17.8134 5.67251 17.8337 5.69567 17.8506C5.71145 17.8089 5.75334 17.7608 5.80312 17.7479C5.76665 17.7484 5.71687 17.7404 5.71194 17.7087C5.71391 17.6273 5.7908 17.6873 5.82727 17.6427C5.78489 17.6194 5.83565 17.5718 5.74003 17.5628C5.7425 17.539 5.78735 17.538 5.81446 17.5311C5.77651 17.4859 5.81692 17.3346 5.71243 17.3743L5.70504 17.3847L5.7011 17.3778C5.61386 17.2344 5.77158 17.097 5.73806 16.958L5.7701 16.96C5.73806 16.8772 5.75876 16.7785 5.69321 16.7174C5.69469 16.6936 5.75482 16.6638 5.79277 16.6758C5.77256 16.6123 5.73511 16.6043 5.7908 16.5165C5.84502 16.581 5.84058 16.4967 5.83023 16.582C5.85931 16.5026 5.91156 16.4857 5.82629 16.3959C5.90761 16.4287 5.93127 16.3384 5.90761 16.2992L5.84748 16.3543C5.83664 16.3106 5.84502 16.2729 5.8534 16.2347L5.95986 16.259C6.09589 16.0958 5.74546 15.9549 5.96824 15.8328C5.89431 15.7882 5.91303 15.9221 5.8258 15.8815C5.84305 15.8061 5.99929 15.7287 5.9988 15.7048C6.05794 15.6007 5.84107 15.6056 5.88149 15.497C5.84305 15.5104 5.74053 15.5233 5.70455 15.4419C5.71835 15.366 5.86572 15.3491 5.89677 15.3968C5.89923 15.4156 5.8874 15.424 5.87459 15.4235C5.88839 15.4479 5.90466 15.4801 5.94655 15.4503L5.90811 15.4404C5.94704 15.4027 5.9431 15.2975 6.00619 15.3223C5.96922 15.2643 5.9431 15.2975 5.92289 15.3402C5.97908 15.2425 5.92437 15.1874 5.96183 15.0867C5.94064 15.1031 5.89578 15.1179 5.89628 15.1021C5.9431 14.9537 5.82284 15.0376 5.80608 14.9383C5.86473 14.8808 5.94606 14.9567 5.89677 14.857C5.9362 14.795 5.9988 14.8421 6.02985 14.8664C5.9569 14.7756 6.0747 14.6938 6.08702 14.6412L6.12005 14.6888C6.10082 14.66 6.10033 14.6362 6.09984 14.6119L6.02344 14.6417C6.03626 14.6124 6.03626 14.5886 6.0678 14.5886C6.01703 14.5603 5.94064 14.6134 5.87015 14.5573C5.90811 14.5181 5.82481 14.4432 5.92634 14.4273C5.89578 14.5474 6.02837 14.412 6.04808 14.5122C6.03527 14.4933 6.03527 14.4695 6.04759 14.4407C6.05893 14.4358 6.06879 14.4442 6.07519 14.4516C6.16293 14.3351 5.95838 14.402 5.9569 14.284C6.01506 14.2973 6.06484 14.2537 6.05252 14.2348C6.05252 14.2825 5.95739 14.2601 5.91205 14.218C5.95444 14.1411 5.87656 14.1371 5.88001 14.0974L5.8603 14.1431C5.80263 14.1297 5.80904 14.092 5.78932 14.0404C5.83417 14.0339 5.82136 14.0865 5.84058 14.0671C5.73806 14.0126 5.94113 13.9312 5.87114 13.8523C5.9086 13.8131 5.97859 13.8444 6.00373 13.8097C5.92733 13.7214 6.07815 13.7075 6.01161 13.6137C5.9362 13.6449 5.95542 13.6489 5.87607 13.5854L5.93965 13.7402L5.82136 13.6445C5.82284 13.6916 5.87656 13.7422 5.86375 13.7715C5.79869 13.7258 5.81742 13.7303 5.75482 13.7556C5.8672 13.6856 5.6804 13.6301 5.75433 13.5517L5.94507 13.5447C6.02344 13.4267 5.83565 13.3483 5.87508 13.1989L5.84452 13.2481C5.76764 13.2327 5.82875 13.1583 5.79573 13.1121C5.85931 13.1131 5.88051 13.0819 5.91895 13.059C5.87213 13.0645 5.91796 12.9514 5.78932 12.9464L5.86966 12.875C5.89726 12.7539 5.6799 12.7519 5.69518 12.6368C5.76665 12.6666 5.80854 12.6115 5.86227 12.6845C5.86079 12.6463 5.87065 12.611 5.82629 12.6135C5.86424 12.5882 5.73166 12.5148 5.78932 12.4751C5.75975 12.4612 5.69272 12.4612 5.6942 12.4185C5.70701 12.4126 5.72574 12.4161 5.72574 12.4161C5.6942 12.4185 5.67695 12.353 5.60991 12.3957C5.79869 12.2633 5.56753 12.0713 5.72968 11.9552C5.7011 11.8743 5.67202 11.7766 5.66068 11.7021C5.6804 11.7051 5.69272 11.6992 5.6873 11.714C5.73757 11.6049 5.49902 11.6674 5.5552 11.5439C5.6523 11.4739 5.61583 11.6009 5.65181 11.5598C5.85882 11.523 5.61238 11.4198 5.72475 11.3291L5.73954 11.3469C5.80362 11.2789 5.64343 11.207 5.64737 11.1068C5.64737 11.1068 5.66659 11.1098 5.67892 11.1043C5.56457 11.0478 5.51479 10.9242 5.47437 10.8329C5.55964 10.8533 5.52267 10.8711 5.604 10.8438C5.58724 10.8027 5.47141 10.8711 5.43888 10.7888C5.48078 10.756 5.51282 10.6905 5.60055 10.6722L5.61435 10.7521C5.72426 10.6975 5.59858 10.6484 5.61386 10.6037L5.66462 10.6032C5.63406 10.4822 5.50789 10.4956 5.50197 10.3626L5.46599 10.381C5.33242 10.3239 5.52859 10.3115 5.42755 10.2515L5.55225 10.2138C5.51627 10.1701 5.41178 10.0625 5.37284 9.9806C5.47536 10.0163 5.53746 10.1106 5.59907 10.1652C5.59562 10.118 5.56999 10.0054 5.50247 9.98953C5.51775 10.0064 5.55274 10.0267 5.53598 10.0481C5.42705 10.0029 5.36594 9.93396 5.35362 9.8402C5.60153 9.82184 5.37629 9.58668 5.5552 9.48894C5.43839 9.33614 5.54091 9.15009 5.49507 8.9566C5.31665 9.06079 5.48029 8.90054 5.28757 8.94916C5.26785 8.906 5.26835 8.88863 5.28067 8.88218L5.37382 8.72243C5.42459 8.67877 5.42558 8.75716 5.46698 8.74476C5.46402 8.64256 5.5414 8.68671 5.57886 8.61081C5.51232 8.63809 5.47141 8.59642 5.48521 8.5344L5.41375 8.63214C5.27919 8.51605 5.54929 8.47933 5.41523 8.36126L5.48669 8.39251C5.43396 8.32851 5.42656 8.12758 5.25602 8.09385C5.27525 8.07648 5.32404 8.04721 5.34524 8.07549C5.32897 7.89838 5.09436 7.73714 5.15893 7.58135L5.20871 7.58185C5.18751 7.55357 5.10816 7.5501 5.14611 7.49801C5.16583 7.49453 5.19589 7.49801 5.19491 7.48263C5.17421 7.47022 5.08845 7.4216 5.10323 7.37298L5.16632 7.39382C5.17815 7.21274 4.96325 7.179 4.8908 7.05348C5.02733 7.0133 5.03324 6.87091 5.03571 6.79947L5.05592 6.79599C5.01402 6.59953 4.84792 6.50676 4.73751 6.35197C4.84348 6.1942 4.66309 5.96896 4.67935 5.76555C4.66555 5.80177 4.57437 5.80127 4.54923 5.77597C4.56156 5.72536 4.41566 5.70106 4.53987 5.65938L4.54283 5.67476C4.65077 5.59737 4.58768 5.52642 4.56649 5.46044L4.40383 5.51451C4.57684 5.24611 4.13127 5.1191 4.29787 4.93752C4.24118 4.9152 4.219 4.86608 4.16282 4.84475L4.2471 4.80804C4.21802 4.68797 4.20372 4.62695 4.12191 4.49995L4.19387 4.49945C4.16282 4.41957 3.91391 4.51781 3.87349 4.45182L3.98538 4.36996C3.9144 4.24147 3.95038 4.05244 3.77245 3.98299C3.79118 3.97505 3.82766 3.96017 3.84441 3.97852C3.81484 3.91601 3.79858 3.69573 3.64628 3.80984C3.75225 3.74882 3.58516 3.66993 3.50137 3.62727L3.58565 3.59304C3.45208 3.59304 3.42251 3.60792 3.3471 3.54541C3.34562 3.5206 3.39885 3.49183 3.39441 3.52854C3.39639 3.44172 3.29091 3.52358 3.28598 3.42336L3.35252 3.42187C3.319 3.3539 3.29535 3.37474 3.21648 3.37474C3.16128 3.3539 3.16128 3.24129 3.22437 3.1882C3.17705 3.20606 3.09918 3.20656 3.09573 3.15595C3.1184 3.13412 3.14354 3.1376 3.15537 3.13958C3.14058 2.99819 2.96955 3.03688 2.99715 2.91484C3.0213 2.89698 3.03018 2.88408 3.03363 2.87316C3.08686 2.9585 3.12382 3.03143 3.11446 3.02795C3.18494 2.98281 3.1534 2.90442 3.2845 2.89747C3.19776 2.87416 3.02377 2.8558 3.00947 2.76997C3.01391 2.76253 3.01835 2.75509 3.02673 2.74516L3.03954 2.74665C3.03609 2.72681 3.02032 2.71788 2.99962 2.71341C2.99617 2.68464 2.99518 2.66529 2.98237 2.64495C3.03363 2.59782 2.95871 2.54672 2.9385 2.51099C2.86555 2.56656 2.84682 2.51447 2.81429 2.59881C2.81577 2.58988 2.8276 2.59881 2.84584 2.61865C2.85175 2.62213 2.85717 2.62709 2.86358 2.62758L2.8557 2.63006C2.87245 2.6509 2.89414 2.67819 2.91878 2.70895C2.86161 2.70895 2.81084 2.70399 2.82662 2.6385C2.76599 2.65388 2.70389 2.66975 2.67432 2.6772C2.74677 2.55912 2.74085 2.43062 2.79556 2.37208C2.68467 2.29965 2.59792 2.1523 2.4121 2.19794C2.37317 2.18455 2.4264 2.13642 2.43921 2.10963C2.46533 2.11509 2.47815 2.13543 2.50477 2.12898C2.4264 2.1007 2.36183 1.97568 2.25832 2.03769C2.24502 1.935 2.37464 2.00793 2.28395 1.92458L2.32289 1.91466C2.32191 1.59912 1.84578 1.81097 1.85515 1.45277C1.85613 1.47658 1.85663 1.48849 1.8448 1.50436C1.727 1.19975 1.35044 1.12285 1.25728 0.790942C1.21835 0.707594 1.15969 0.757206 1.0828 0.76564L1.13505 0.680307L0.994579 0.704617C0.85115 0.681795 0.989157 0.378169 0.765389 0.394045L0.739266 0.458541C0.703286 0.411409 0.577602 0.372712 0.630833 0.320123C0.618511 0.326076 0.573659 0.362789 0.577109 0.322107L0.607174 0.280433L0.442552 0.264557C0.376999 0.16831 0.580559 0.110264 0.450931 0.00508583C0.3908 -0.014759 0.218784 0.0269152 0.221742 0.0705738C0.241457 0.0869458 0.258215 0.133085 0.230614 0.176744L0.170482 0.169302C0.0807779 0.291844 -0.0251915 0.405952 0.00536712 0.554788L0.126616 0.527502L0.105422 0.602416L0.0457833 0.566199C0.0383901 0.645578 0.0930999 0.608865 0.141402 0.592493C0.123658 0.628214 0.116758 0.657485 0.121687 0.679315L0.27448 0.615315C0.246879 0.6684 0.173932 0.68626 0.198576 0.746291C0.270537 0.71702 0.249343 0.6173 0.328204 0.622757C0.318839 0.702136 0.273987 0.738849 0.348905 0.721981C0.330175 0.75671 0.306517 0.770105 0.280887 0.772089C0.343976 0.761175 0.380449 0.829639 0.44896 0.78102C0.427766 0.87429 0.57563 0.858911 0.479518 0.965577C0.511556 0.948213 0.61161 0.927872 0.644633 0.951189C0.47804 1.03057 0.748138 1.06083 0.61161 1.18437C0.754053 1.10648 0.799891 1.26523 0.928533 1.26821C0.916211 1.27317 0.891074 1.28409 0.890581 1.27268C0.920647 1.31882 0.898467 1.36446 0.902903 1.4101C0.996057 1.32328 1.07541 1.36297 1.16314 1.34015C1.12322 1.4746 1.02957 1.41705 0.961063 1.51578C1.03105 1.44036 1.11386 1.52471 1.1592 1.4483C1.14096 1.5381 1.16413 1.50536 1.10696 1.59764C1.22722 1.49345 1.15871 1.61252 1.25876 1.57481C1.25334 1.68198 1.16512 1.68991 1.25433 1.71621C1.24398 1.77822 1.15575 1.76334 1.15575 1.76334Z" fill="white"/>
</svg>
