<svg width="7" height="5" viewBox="0 0 7 5" fill="none" xmlns="http://www.w3.org/2000/svg">
<path fill-rule="evenodd" clip-rule="evenodd" d="M1.15056 1.23313C1.14711 1.22618 1.14021 1.22023 1.13232 1.21576C1.15007 1.18897 1.17077 1.16416 1.17422 1.16863C1.15943 1.18401 1.15943 1.20633 1.15056 1.23313ZM0.400712 1.02399C0.422399 1.04334 0.480559 0.937173 0.526397 0.88508C0.574206 0.878135 0.486966 0.965948 0.460351 1.02251C0.495838 1.00961 0.574699 0.930228 0.584557 0.943623C0.574206 0.960491 0.572235 0.967933 0.554491 0.985793C0.628916 0.92229 0.611665 1.02201 0.703341 0.940646C0.698412 0.950568 0.693483 0.959499 0.688554 0.966941C0.720592 0.91584 0.756079 0.866228 0.782202 0.831499C0.794031 0.837453 0.846276 0.784368 0.803888 0.850848C0.799452 0.844399 0.78023 0.869205 0.762486 0.887065L0.793538 0.867716C0.736857 0.965948 0.755586 0.888057 0.706298 0.95553C0.749179 0.941142 0.829025 0.884088 0.826068 0.921793C0.764458 1.01358 0.766429 0.923778 0.730449 1.01953L0.729956 0.966941C0.646659 1.12173 0.721577 0.945607 0.629902 1.10933C0.644195 1.15944 0.699891 1.09097 0.714184 1.14158C0.757558 1.09742 0.764951 1.06616 0.808817 1.02251C0.920701 0.967933 0.681654 1.27404 0.802903 1.18027C0.855641 1.12768 0.941402 1.01754 0.922673 1.09544L0.840362 1.1897C0.865006 1.22344 0.964567 1.05823 0.948302 1.151C0.913801 1.18623 0.899014 1.16589 0.895071 1.18126C0.858598 1.27702 0.952245 1.13562 0.968511 1.14802L0.9069 1.23981C0.95126 1.25072 1.03604 1.2145 1.08582 1.22592C1.06462 1.25072 1.03751 1.27404 1.02667 1.30778C1.10652 1.29835 1.12032 1.3941 1.12771 1.48092L1.20115 1.41692C1.2046 1.42089 1.18341 1.45711 1.16813 1.46902C1.16468 1.51119 1.2046 1.42089 1.23516 1.39658C1.24995 1.39906 1.21643 1.45115 1.19326 1.46951C1.27262 1.42734 1.38598 1.39509 1.35887 1.50226L1.33571 1.52061C1.33866 1.57072 1.48012 1.38418 1.45203 1.47398L1.43773 1.4839C1.46928 1.55931 1.58313 1.5345 1.54075 1.68284C1.63045 1.57767 1.56095 1.77314 1.67727 1.62132C1.65361 1.72154 1.62404 1.74238 1.63193 1.82771C1.63883 1.84359 1.72065 1.74436 1.74677 1.73891L1.68812 1.82027L1.77043 1.75032L1.71079 1.855L1.73987 1.84458C1.7379 1.83565 1.75466 1.79943 1.7724 1.77711C1.82119 1.75627 1.78472 1.87286 1.75515 1.91453L1.85668 1.88427C1.83154 1.91602 1.81479 1.92098 1.7931 1.93636C1.88083 1.87435 1.73593 2.02566 1.81627 1.96861C1.82662 1.94777 1.85323 1.92197 1.86605 1.9056C1.84288 1.96414 1.87098 1.98548 1.90794 1.98101L1.86309 2.0336C1.89069 2.07627 1.96364 2.06684 2.00602 2.09959C2.00947 2.06238 2.08341 1.96811 2.10263 1.96811L2.04545 2.05742C2.09228 2.01078 2.05581 2.01524 2.11988 1.96315C2.12875 1.98449 2.05975 2.06833 2.03018 2.08917L2.07158 2.07428C2.05383 2.10058 2.03954 2.1105 2.0144 2.14225C2.06123 2.09512 1.98582 2.25289 2.06468 2.16954L2.04743 2.19583C2.08981 2.22808 2.13072 2.2132 2.16917 2.23503C2.22338 2.1616 2.22536 2.18839 2.27957 2.1363C2.28795 2.17896 2.27464 2.25785 2.31013 2.27472C2.35893 2.25388 2.36188 2.21717 2.40378 2.18045C2.35646 2.24892 2.39195 2.26529 2.34069 2.302C2.38604 2.31838 2.39836 2.32383 2.4851 2.30399C2.50038 2.27273 2.50334 2.25636 2.52306 2.23552C2.53932 2.23106 2.52207 2.27819 2.49693 2.30944L2.48954 2.3149C2.61621 2.25289 2.46884 2.60166 2.61325 2.49251L2.60635 2.49747L2.70296 2.45679C2.71429 2.48309 2.65416 2.49847 2.63839 2.55106C2.76753 2.47366 2.70148 2.6225 2.79463 2.57636C2.67979 2.79713 2.91194 2.64135 2.85969 2.79812L2.89173 2.7495C2.9356 2.7113 2.88483 2.78572 2.88483 2.80209C2.90997 2.76488 2.90405 2.75149 2.92919 2.73115C3.05931 2.74057 3.06276 2.93505 3.12289 3.0447C3.14704 3.08191 3.31857 2.81698 3.27914 2.95936L3.20372 3.03725C3.34715 2.98318 3.33877 3.14243 3.46939 3.10274C3.45017 3.12011 3.43144 3.14591 3.42552 3.14094C3.39299 3.21437 3.47432 3.18212 3.51227 3.13102C3.51818 3.14442 3.48072 3.17915 3.46791 3.2099C3.4546 3.25753 3.56156 3.15533 3.52311 3.2238C3.5172 3.23471 3.50438 3.24116 3.49847 3.24414C3.53001 3.22032 3.53494 3.28333 3.5793 3.20395C3.57881 3.25704 3.65027 3.20643 3.63845 3.26448C3.7109 3.19254 3.65274 3.33493 3.73998 3.2228C3.65225 3.33989 3.71386 3.35031 3.77004 3.30615C3.7385 3.3384 3.75674 3.35328 3.71435 3.39893C3.73357 3.41034 3.76561 3.40042 3.80701 3.33691C3.73653 3.50361 3.95685 3.27142 3.84201 3.4669C3.94206 3.44259 4.0224 3.43564 4.09042 3.44259C4.00219 3.56017 4.02881 3.4158 3.94058 3.54181C4.02141 3.52593 4.12147 3.44358 4.14562 3.50559C4.14562 3.5304 4.10126 3.55223 4.08302 3.56959C4.16336 3.55421 4.16238 3.645 4.24962 3.60978C4.24124 3.62069 4.22842 3.62962 4.21758 3.63558C4.22842 3.63756 4.223 3.66683 4.26145 3.61226L4.24321 3.62119C4.28757 3.53387 4.39403 3.48128 4.42508 3.4411C4.29891 3.58547 4.43642 3.50907 4.27278 3.68817C4.2856 3.68172 4.31123 3.66138 4.33587 3.62417C4.33587 3.64054 4.32306 3.66336 4.2856 3.69858C4.33489 3.69015 4.36692 3.62565 4.39206 3.646C4.37284 3.67179 4.36002 3.67824 4.33489 3.70652C4.38516 3.66534 4.43543 3.62417 4.44086 3.66237C4.42804 3.67725 4.41572 3.69958 4.4098 3.69412C4.45268 3.71396 4.57196 3.60581 4.57689 3.68519C4.48226 3.78987 4.56358 3.73282 4.49458 3.83254L4.53795 3.81964L4.56358 3.76556C4.58133 3.78144 4.65082 3.7224 4.64392 3.76705L4.60006 3.79682L4.64984 3.80475L4.65674 3.75217C4.71293 3.71644 4.74447 3.62714 4.75038 3.67328C4.73806 3.67924 4.76911 3.68866 4.73708 3.75365L4.73658 3.75415C4.76862 3.72984 4.80312 3.70404 4.79918 3.73927C4.78045 3.773 4.71736 3.84544 4.70405 3.86776C4.77355 3.79285 4.76616 3.87868 4.84206 3.80029C4.82284 3.81765 4.78489 3.86875 4.77897 3.88017L4.83516 3.81964C4.82826 3.84742 4.82234 3.85883 4.7908 3.89902C4.80904 3.93077 4.87311 3.76804 4.86621 3.84544C4.8598 3.84891 4.8534 3.85982 4.84107 3.86578C4.85241 3.91737 4.93324 3.86925 4.93916 3.92382C4.87558 4.029 4.89578 3.92878 4.84502 4.01958C4.90071 4.03297 5.019 3.96649 5.04316 4.02007L5.04365 4.0032C5.1511 3.86826 5.02393 4.09449 5.09294 4.04438C5.08012 4.05133 5.02985 4.11681 5.04217 4.10243C5.054 4.14559 5.12448 4.11086 5.19891 4.09846L5.16785 4.13021C5.16095 4.17437 5.19792 4.18081 5.20383 4.21009C5.23587 4.17833 5.24129 4.19173 5.27333 4.13517C5.17968 4.37976 5.45816 4.10392 5.38324 4.30981C5.37733 4.30584 5.34628 4.33064 5.35121 4.33461L5.41676 4.33213C5.45816 4.26912 5.43845 4.29145 5.46358 4.23737C5.49562 4.20562 5.52716 4.18627 5.53801 4.19421C5.48971 4.2205 5.46654 4.29145 5.45027 4.33163C5.4626 4.31179 5.48034 4.29343 5.49316 4.27409C5.43647 4.39812 5.58631 4.15452 5.56314 4.24928L5.53801 4.28004C5.56117 4.2721 5.60208 4.23737 5.60701 4.25523C5.56117 4.32915 5.57152 4.27954 5.52864 4.3366C5.54836 4.34503 5.65926 4.22795 5.62328 4.30981C5.60208 4.3237 5.59124 4.31626 5.56955 4.33064C5.52618 4.4254 5.54392 4.40556 5.54639 4.42788V4.42491L5.54786 4.48394L5.55674 4.45567C5.7115 4.28847 5.62426 4.45418 5.74009 4.35545C5.62968 4.44822 5.68784 4.41746 5.62722 4.49585C5.61884 4.52314 5.61145 4.55588 5.59222 4.57622C5.65236 4.52165 5.57793 4.6432 5.66517 4.56332C5.64743 4.58962 5.67749 4.57672 5.62771 4.63873C5.66024 4.63129 5.6563 4.59061 5.68094 4.55985C5.77163 4.49238 5.66714 4.71266 5.79332 4.62137C5.86282 4.59656 5.93231 4.5147 5.99441 4.49486C5.97519 4.54348 5.91753 4.58168 5.91753 4.58168C5.90718 4.63179 5.92492 4.63427 5.96188 4.61691C5.94266 4.63675 5.93231 4.65808 5.91555 4.69033C5.93379 4.69281 5.99244 4.60351 5.9816 4.65362C5.95794 4.67991 5.92098 4.72307 5.89436 4.74689C5.9264 4.73449 5.97618 4.69777 6.00822 4.68636C5.97963 4.73399 5.94956 4.74689 5.92295 4.77219C5.95548 4.76475 5.99737 4.76525 6.05504 4.69827L6.06145 4.66503C6.07081 4.66602 6.02054 4.72804 6.00674 4.73746C5.95153 4.78162 6.00279 4.69678 6.02054 4.67049L6.0437 4.66255C6.14179 4.50379 5.9816 4.65362 5.96583 4.62832L6.05504 4.52611L5.96583 4.59954C5.9816 4.56779 6.02251 4.50429 6.04567 4.49585C6.06933 4.43036 6.00329 4.52463 6.03385 4.45418C6.03877 4.44376 6.04321 4.4388 6.04765 4.43533L6.00871 4.45666C6.02842 4.43582 6.06194 4.37728 6.05997 4.4006C6.0782 4.31675 5.95548 4.44872 6.00526 4.35843L6.01265 4.35297C5.94661 4.3614 5.95006 4.43086 5.85247 4.50329L5.97667 4.29095L5.91457 4.36835C5.9126 4.36239 5.90915 4.35049 5.93428 4.31973C5.87859 4.36339 5.91112 4.35644 5.86479 4.40159C5.8983 4.31427 5.78642 4.39663 5.87514 4.26565C5.82388 4.32122 5.85937 4.32618 5.80811 4.35297C5.90225 4.21157 5.7667 4.35942 5.7948 4.28302C5.85247 4.21604 5.84162 4.26615 5.87021 4.18974C5.77163 4.30187 5.85444 4.13815 5.82339 4.15005C5.7529 4.24481 5.76178 4.16593 5.71347 4.17933C5.73861 4.14807 5.70509 4.09201 5.70707 4.04041L5.71889 4.02454C5.64447 4.11781 5.63363 4.08209 5.60159 4.08903C5.64447 4.03148 5.66419 4.01114 5.69228 3.99229L5.67552 3.98088C5.64891 4.00916 5.63215 4.02106 5.61342 4.02454L5.6701 3.95558C5.64546 3.94317 5.56462 4.00816 5.57103 3.93871C5.52076 4.00519 5.45718 4.14261 5.39458 4.16543C5.42021 4.12872 5.46408 4.06571 5.4828 4.05629C5.47689 4.05926 5.45175 4.0801 5.45816 4.06075L5.51435 4.00816C5.52125 3.97195 5.47048 4.0543 5.46408 4.04091C5.50252 3.98931 5.4833 3.99874 5.51534 3.95855C5.52174 3.95508 5.50843 3.98634 5.52716 3.96897C5.52273 3.95111 5.53111 3.90993 5.55477 3.86727C5.53456 3.89753 5.504 3.93722 5.49069 3.93772C5.46605 3.92531 5.52864 3.86975 5.53554 3.83403C5.504 3.86578 5.51731 3.81815 5.46063 3.89554C5.45422 3.89009 5.47935 3.85337 5.49217 3.83055C5.45619 3.85635 5.43204 3.80128 5.38472 3.89306L5.38374 3.90051C5.38176 3.90199 5.38127 3.9015 5.37979 3.90249V3.90299V3.90249C5.28615 3.9521 5.33445 3.80178 5.27382 3.80773L5.29255 3.78193C5.24869 3.79533 5.23094 3.76308 5.17475 3.80773C5.16785 3.80277 5.19398 3.74869 5.21862 3.71992C5.18806 3.72736 5.1649 3.75465 5.1718 3.69412C5.22158 3.66138 5.19546 3.64947 5.2132 3.67378C5.20778 3.63558 5.23341 3.58993 5.158 3.64352C5.21468 3.58299 5.20236 3.54776 5.17771 3.56017L5.158 3.61871C5.13927 3.6197 5.13385 3.6068 5.12744 3.59341L5.19644 3.51006C5.22996 3.37065 4.9845 3.63161 5.08012 3.4282C5.02393 3.48079 5.07273 3.48922 5.01062 3.55322C4.9983 3.52593 5.06879 3.38454 5.06238 3.37958C5.06977 3.31062 4.9431 3.48823 4.93768 3.43316C4.91846 3.4669 4.86178 3.55322 4.8184 3.56612C4.80559 3.53933 4.8879 3.41679 4.91944 3.40091C4.92634 3.4024 4.92141 3.41381 4.91353 3.42423C4.92881 3.41778 4.94704 3.41083 4.96331 3.37114L4.93817 3.40042C4.95099 3.36073 4.92043 3.34336 4.96429 3.29722C4.92733 3.31558 4.92043 3.34336 4.91994 3.36817C4.92684 3.30367 4.88001 3.33642 4.87459 3.28581C4.8667 3.30665 4.84403 3.34584 4.84009 3.34237C4.82826 3.2744 4.77946 3.38851 4.7425 3.38206C4.76172 3.32352 4.83023 3.27291 4.77454 3.29276C4.78144 3.24811 4.83122 3.20742 4.85635 3.18659C4.78735 3.22876 4.8391 3.11316 4.8327 3.09183L4.86424 3.07645C4.84551 3.08538 4.8396 3.07992 4.83319 3.07546L4.79524 3.14293C4.79524 3.12656 4.78883 3.1216 4.80805 3.0958C4.7701 3.13102 4.73856 3.20395 4.68237 3.24811C4.69518 3.20891 4.62618 3.25902 4.68286 3.17369C4.69469 3.22578 4.74053 3.08836 4.777 3.0948C4.76468 3.10076 4.75876 3.0958 4.75876 3.07943C4.76468 3.06901 4.77207 3.06305 4.77799 3.05958C4.80115 2.96333 4.69567 3.14293 4.66512 3.11763C4.70307 3.07397 4.72278 3.02336 4.70997 3.02932C4.72229 3.03974 4.6592 3.11167 4.62125 3.13896C4.62766 3.08786 4.57985 3.14987 4.57196 3.13747V3.16327C4.53352 3.20693 4.5281 3.19353 4.50296 3.1975C4.5281 3.16029 4.53401 3.18212 4.54042 3.16228C4.46501 3.23273 4.56703 3.05115 4.50444 3.09034C4.51774 3.05115 4.56753 3.00203 4.57443 2.97375C4.50542 3.01642 4.59414 2.8904 4.53204 2.92116C4.49359 2.98913 4.50592 2.97474 4.44332 3.02237L4.51824 3.00997L4.4241 3.08091C4.43593 3.09133 4.47979 3.06107 4.47979 3.07794C4.42952 3.11911 4.44233 3.10473 4.41079 3.16129C4.46156 3.05412 4.33538 3.19006 4.3615 3.11167L4.47585 2.95688C4.49556 2.8651 4.36298 2.99657 4.35214 2.92811L4.34474 2.96482C4.29447 3.02237 4.31418 2.9549 4.28313 2.97028C4.32207 2.91967 4.32799 2.89487 4.34573 2.85865C4.31813 2.89735 4.31911 2.83335 4.24025 2.93456L4.27229 2.8527C4.26046 2.8011 4.12788 2.97375 4.10964 2.93307C4.16041 2.88346 4.17322 2.83633 4.22349 2.81152C4.21314 2.80358 4.21068 2.78721 4.18456 2.82293C4.2023 2.78622 4.1052 2.87155 4.13133 2.81549C4.11062 2.83484 4.06922 2.88842 4.06134 2.87552C4.06725 2.86411 4.08007 2.84972 4.08007 2.84972C4.06134 2.87552 4.0362 2.87155 4.00466 2.93605C4.09091 2.75099 3.90756 2.88246 3.98149 2.72321C3.946 2.72371 3.90657 2.72073 3.88341 2.70932C3.89622 2.69493 3.90214 2.68352 3.90214 2.69195C3.90953 2.62299 3.77694 2.82789 3.78384 2.7505C3.8287 2.65475 3.83412 2.71775 3.84693 2.67806C3.9667 2.50442 3.79124 2.6731 3.8425 2.55751L3.85531 2.55155C3.88094 2.4811 3.76758 2.58628 3.74984 2.55403C3.74984 2.55403 3.76167 2.54014 3.76857 2.52873C3.68675 2.60216 3.63105 2.60513 3.58768 2.61009C3.64436 2.54957 3.62514 2.5838 3.6695 2.51186C3.65126 2.51285 3.59359 2.62349 3.55613 2.62547C3.57536 2.5833 3.58226 2.53915 3.63302 2.46473L3.65717 2.47713C3.71484 2.37543 3.62711 2.45977 3.62711 2.43447L3.65865 2.39478C3.61528 2.38337 3.53987 2.48606 3.50931 2.45233L3.49058 2.48606C3.39595 2.57338 3.51572 2.41661 3.4408 2.47813L3.51079 2.36948C3.47924 2.38535 3.39151 2.43645 3.35405 2.43893C3.42355 2.37146 3.47924 2.35261 3.53001 2.31937C3.5172 2.30895 3.48023 2.29456 3.43636 2.3407C3.44918 2.33475 3.47382 2.31391 3.46742 2.33375C3.392 2.40371 3.34222 2.42851 3.31807 2.40768C3.46939 2.21022 3.28801 2.30746 3.38363 2.13779C3.28406 2.17847 3.31659 2.03955 3.25498 2.01276C3.15986 2.18244 3.23625 2.00532 3.1224 2.16855C3.10268 2.16954 3.10022 2.16358 3.10613 2.15217L3.13916 2.02864C3.16429 1.97556 3.17662 2.00235 3.20225 1.96514C3.18352 1.93289 3.2402 1.88873 3.25351 1.83317C3.21506 1.8932 3.18401 1.90858 3.1845 1.87484L3.15246 1.96514C3.05241 2.02269 3.21802 1.80638 3.11846 1.86294L3.16725 1.82126C3.12585 1.83664 3.09628 1.76718 2.98291 1.88179C2.99326 1.86095 3.02037 1.81382 3.03812 1.80836C3.00509 1.75478 2.83406 1.86939 2.85575 1.76322L2.88779 1.7265C2.87103 1.73146 2.81878 1.78901 2.83702 1.74139C2.84934 1.72601 2.86906 1.70517 2.86659 1.69971C2.8523 1.70963 2.79315 1.75131 2.79858 1.72005L2.84047 1.68334C2.83308 1.59801 2.69261 1.7394 2.63494 1.73791C2.71922 1.62232 2.71084 1.55881 2.7069 1.52657L2.71922 1.51069C2.67684 1.45711 2.56002 1.53996 2.47771 1.54939C2.53883 1.40154 2.41314 1.42089 2.4161 1.31423C2.40772 1.34102 2.34858 1.40353 2.33182 1.40898C2.33773 1.37674 2.24113 1.46554 2.32048 1.36086L2.32295 1.36582C2.39047 1.25568 2.3466 1.26561 2.33034 1.24973L2.22634 1.38567C2.32541 1.14852 2.04644 1.36681 2.15192 1.16688C2.11495 1.19317 2.10066 1.18176 2.06418 1.20806L2.11889 1.13413C2.10066 1.09147 2.09179 1.07013 2.03855 1.05872L2.08587 1.01159C2.06665 0.990258 1.90104 1.20508 1.87689 1.19416L1.95181 1.07857C1.91139 1.05128 1.94294 0.92477 1.83056 0.996708C1.84337 0.980832 1.86802 0.949576 1.87738 0.950072C1.86112 0.933204 1.86112 0.822073 1.75663 0.979344C1.82859 0.879623 1.7236 0.94015 1.67037 0.967933L1.72705 0.897483C1.64129 0.977855 1.62207 1.00266 1.5782 1.0101C1.57919 0.996212 1.61566 0.948088 1.60975 0.972398C1.61813 0.919809 1.5437 1.03044 1.54863 0.973886L1.59151 0.9337C1.57574 0.912863 1.55898 0.939158 1.50772 0.985793C1.47371 1.00564 1.48259 0.938662 1.52842 0.870197C1.49639 0.908894 1.44562 0.954537 1.44759 0.926755C1.46435 0.90046 1.47963 0.888057 1.48751 0.882104C1.48998 0.807189 1.37563 0.929731 1.40422 0.840926C1.42147 0.81612 1.42886 0.80322 1.43231 0.79429C1.45794 0.81612 1.47667 0.835965 1.47076 0.839933C1.51955 0.772461 1.50674 0.744182 1.592 0.66381C1.53779 0.702012 1.42738 0.790321 1.42935 0.74319C1.4333 0.735748 1.43675 0.728802 1.44315 0.717888L1.45104 0.711934C1.45104 0.701516 1.44217 0.704492 1.42985 0.712926C1.43133 0.696554 1.4328 0.685144 1.42689 0.679686C1.46533 0.62164 1.42393 0.631066 1.41555 0.620152C1.36232 0.695066 1.3569 0.672244 1.32585 0.74319C1.32782 0.73674 1.33423 0.735748 1.34359 0.738229C1.34704 0.737236 1.34951 0.737732 1.35394 0.733763C1.35246 0.735748 1.35049 0.738229 1.34852 0.740213C1.3569 0.74319 1.36774 0.748151 1.37859 0.754601C1.3431 0.785856 1.31106 0.811158 1.32881 0.76105C1.28888 0.804709 1.24699 0.848864 1.22678 0.869205C1.2874 0.755097 1.29923 0.678694 1.34162 0.612214C1.27804 0.629082 1.24403 0.58195 1.1218 0.704988C1.09962 0.715903 1.14003 0.657361 1.15236 0.633051C1.16813 0.623128 1.17306 0.630074 1.1908 0.612214C1.14595 0.634043 1.12475 0.584927 1.04934 0.678694C1.05772 0.617671 1.1282 0.599315 1.08384 0.590881L1.10947 0.564586C1.15876 0.362665 0.825082 0.735252 0.899507 0.484214C0.895564 0.499594 0.894086 0.507036 0.883242 0.5244C0.865991 0.376556 0.656517 0.483222 0.677711 0.28527C0.675739 0.240619 0.62793 0.30065 0.579628 0.337362L0.632859 0.25451L0.542169 0.328432C0.459858 0.370603 0.626451 0.0907902 0.491402 0.186045L0.457886 0.243596C0.45 0.222262 0.386911 0.23913 0.433735 0.180092C0.425356 0.188526 0.388883 0.231689 0.402684 0.199441L0.432256 0.157767L0.343538 0.200929C0.336145 0.149333 0.468237 0.0396897 0.431271 0C0.404162 0.00446509 0.298193 0.0878135 0.284392 0.120061C0.288828 0.126511 0.281435 0.157767 0.251369 0.199937L0.221303 0.210852C0.129628 0.330913 0.0271084 0.447998 0 0.559625L0.0798467 0.503067L0.0438664 0.568555L0.020701 0.557144C-0.00837897 0.621144 0.0354874 0.577485 0.0680175 0.549702C0.0473165 0.582943 0.0345016 0.607253 0.0310515 0.622632L0.140471 0.523904C0.108434 0.574012 0.0606243 0.610725 0.0571742 0.649423C0.107941 0.603284 0.124206 0.533827 0.169058 0.511997C0.140964 0.576493 0.103998 0.619159 0.152793 0.58195C0.131599 0.614694 0.113855 0.632555 0.0985761 0.642477C0.138499 0.613702 0.142935 0.650911 0.196659 0.590384C0.158708 0.668275 0.250876 0.603284 0.165115 0.718384C0.189266 0.693082 0.253341 0.643469 0.268127 0.646942C0.146386 0.76998 0.305093 0.686136 0.190745 0.831003C0.297207 0.717391 0.286857 0.81612 0.364239 0.7675C0.355367 0.775934 0.337623 0.793794 0.340088 0.785856C0.347974 0.807189 0.324808 0.848367 0.317415 0.879127C0.394305 0.777422 0.435214 0.771469 0.494359 0.717391C0.440635 0.830507 0.394797 0.830011 0.331216 0.929731C0.390854 0.845887 0.42437 0.870693 0.469222 0.796275C0.438171 0.868212 0.459365 0.835468 0.404655 0.926259C0.500767 0.799251 0.433735 0.914352 0.503231 0.843902C0.477601 0.92229 0.42092 0.968429 0.47218 0.946103C0.453943 0.993235 0.400712 1.02399 0.400712 1.02399Z" fill="white"/>
</svg>
