<svg width="164" height="137" viewBox="0 0 164 137" fill="none" xmlns="http://www.w3.org/2000/svg">
<path fill-rule="evenodd" clip-rule="evenodd" d="M159.473 111.809C159.561 112.681 159.624 113.588 159.614 114.519C159.616 115.127 159.608 115.736 159.593 116.335C159.567 116.935 159.506 117.524 159.456 118.09C159.395 118.654 159.336 119.196 159.282 119.705C159.221 120.097 159.152 120.459 159.086 120.802C159.388 115.239 158.954 108.901 157.921 101.692C155.846 87.2051 153.208 71.9393 149.119 57.8772C149.864 59.8984 150.575 61.9353 151.272 63.9791C152.074 64.1511 150.112 56.6639 151.857 60.8005C152.534 62.8368 152.144 62.754 152.115 63.2157C152.737 65.258 153.406 67.2948 153.982 69.3531L152.982 71.4878C153.41 76.8247 154.667 80.8586 156.042 85.3085C157.423 89.7499 158.945 94.5976 159.71 101.429C159.891 101.789 160.051 102.048 160.195 102.228C160.022 102.659 159.875 103.248 159.796 104.088C159.722 104.989 159.692 106.179 159.761 107.759C159.853 109.335 159.99 111.309 160.219 113.796C159.963 112.221 159.668 113.24 159.473 111.809M39.0229 152.671C37.8386 152.086 37.4685 151.731 37.5008 151.494C39.4164 152.088 41.4529 152.63 43.6008 153.125C43.5271 153.115 43.447 153.11 43.3744 153.098C41.5415 152.834 39.9563 152.699 39.0229 152.671M41.052 20.806C46.4392 17.3548 52.2082 14.3628 58.2006 11.9228C54.6542 13.5113 51.6185 15.2212 49.0585 16.8162C40.5662 21.2769 32.8698 26.5853 26.2734 32.4851C30.7124 28.2136 35.6828 24.27 41.052 20.806M117.688 8.91606C117.838 8.81177 118.027 8.73383 118.321 8.72522C118.617 8.71555 119.025 8.765 119.572 8.99454C122.171 10.6567 126.605 14.8432 125.567 14.783C125.777 15.0427 125.994 15.2975 126.213 15.5517C123.514 13.0725 120.579 10.9325 117.393 9.16871C117.488 9.08109 117.579 8.99186 117.688 8.91606M147.781 53.0178C147.78 53.1366 147.703 53.0603 147.596 52.9076C146.946 50.9003 146.263 48.9259 145.544 46.9863C146.429 48.7205 147.323 50.5939 147.781 53.0178M162.915 109.476C162.388 107.35 161.743 105.391 161.017 102.129C161.563 100.748 161.443 96.2256 161.747 94.3258L161.516 95.7149C160.981 94.0764 160.326 93.3647 160.076 89.8941C159.822 86.407 160.998 91.6455 160.981 89.2104C160.452 83.6826 159.652 80.5303 158.784 77.6151C157.895 74.6988 156.914 72.0159 155.751 67.4025C154.465 58.938 151.959 52.4233 148.87 46.0182C145.742 39.6099 142.126 33.2807 137.151 25.3086C138.731 28.2243 140.248 31.2734 141.67 34.7202C143.161 38.1359 144.547 41.9462 146.123 46.2838C145.581 45.128 144.945 44.0104 144.364 42.8778C143.803 41.7725 143.182 40.6969 142.559 39.6271C139.977 33.8327 136.995 28.4942 133.533 23.7943C133.663 23.9518 133.793 24.1125 133.924 24.2652C134.431 24.8619 134.919 25.4371 135.384 25.9843C136.273 27.1089 137.041 28.1448 137.665 29.0108C136.622 26.0649 134.063 21.7118 132.17 18.7675C130.236 15.8862 129.301 14.0837 132.436 15.9894C131.681 15.1282 131.023 14.3396 130.361 13.6806C129.683 13.0355 129.062 12.4673 128.486 11.9577C127.364 10.9062 126.272 10.2428 125.299 9.5983C124.807 9.28328 124.332 8.98386 123.847 8.69842C123.34 8.44576 122.83 8.19203 122.296 7.92647C121.228 7.40558 120.106 6.78792 118.628 6.20358C117.943 5.79611 117.116 5.32413 116.233 4.87903C115.323 4.49144 114.377 4.08935 113.502 3.71628C113.062 3.53458 112.651 3.32654 112.255 3.18086C111.857 3.03787 111.493 2.89811 111.177 2.76425C110.544 2.49708 110.101 2.25034 109.967 2.03639C109.239 1.90899 108.622 1.75955 108.055 1.70579C107.492 1.64988 106.996 1.60043 106.538 1.55527C105.626 1.45851 104.872 1.35799 104.032 1.19564C103.187 1.08222 102.252 0.954815 100.985 0.717749C100.351 0.621525 99.633 0.419939 98.7988 0.345218C97.9614 0.247919 97.01 0.137718 95.9132 0.0108534C94.3938 -0.0520415 92.9184 0.173198 91.6058 0.306513C90.9508 0.38446 90.3388 0.465632 89.7883 0.547879C89.2383 0.632277 88.76 0.778494 88.3537 0.881706C86.7346 1.33003 86.3755 1.66279 88.368 1.65365C93.7802 1.09189 99.3191 1.12899 104.768 2.12724C108.484 3.58726 106.467 3.70983 103.955 3.65715C102.496 3.70445 100.857 3.75391 99.9093 3.87701C93.8109 3.30612 87.056 3.78562 79.5495 5.5198C74.9122 6.59117 70.3772 7.9168 65.9722 9.46229C67.856 8.57531 69.7642 7.73026 71.692 6.91693C68.1058 7.99152 64.5445 9.16663 61.0618 10.5552C61.4457 10.1375 62.0434 9.60797 62.595 9.09191C63.1513 8.58983 63.6647 8.11193 63.8556 7.75714C64.247 7.07551 63.3152 6.79867 58.9717 8.26514C52.3323 11.6706 46.3167 15.5491 40.3864 19.5744C37.4515 21.6413 34.4916 23.6878 31.5615 25.9026L30.4456 26.7143L29.3446 27.5594C28.6022 28.1184 27.8565 28.6802 27.1061 29.2457C25.6322 30.4133 24.0985 31.5513 22.5907 32.7813C18.7792 36.3292 15.2047 40.2319 12.0189 44.5259C8.82463 48.8103 6.06579 53.5301 3.9598 58.6246C2.86783 61.1533 2.05958 63.8234 1.34574 66.5236C0.743274 69.256 0.216113 72.0315 0.0898918 74.8692C-0.0458759 76.2793 0.0124618 77.7054 0.0124618 79.1267C0.0156438 79.8379 0.107923 80.5491 0.153533 81.2598C0.212931 81.9651 0.259071 82.6989 0.346047 83.3601C0.663722 86.0715 0.982988 88.7975 1.30438 91.5396C1.84055 87.7847 2.12747 96.3621 2.23566 89.4377C2.50507 90.5484 2.74054 91.5934 2.94154 92.7163C3.16217 95.6101 3.38279 98.4371 3.63364 101.191C2.33854 97.3405 2.32635 99.7552 2.47113 103.017C2.59417 106.356 3.02693 110.565 1.98587 109.706C2.836 114.955 2.87101 117.632 2.98026 120.5C3.0142 121.217 3.04708 121.945 3.10648 122.727C3.20088 123.506 3.32074 124.34 3.49045 125.268C3.85108 127.119 4.50658 129.355 5.83986 132.204C6.94563 133.747 7.39907 134.011 7.39642 133.532C7.40278 133.048 6.93979 131.827 6.48105 130.251C5.94912 128.698 5.449 126.79 5.00404 125.041C4.81259 124.162 4.62856 123.319 4.46575 122.569C4.31778 121.821 4.2324 121.162 4.15868 120.659C4.33104 121.186 4.47052 121.833 4.65296 122.536C4.83487 123.239 5.03109 123.999 5.22732 124.759C4.56757 120.813 4.88578 117.107 5.59697 115.871C7.0395 123.194 9.29982 129.749 13.2429 135.348C12.6007 135.983 12.1806 136.721 13.988 138.992C14.1922 139.636 14.9448 140.726 16.093 141.895C16.6848 142.461 17.3552 143.067 18.0643 143.689C18.8009 144.275 19.6086 144.834 20.3983 145.413C23.636 147.624 27.1087 149.281 27.9774 150.327C33.8282 152.661 39.0319 154.488 43.6167 155.758C48.202 156.923 52.1276 157.516 55.2604 156.724L59.6314 158.155C61.0978 158.604 62.5722 159.014 64.0534 159.446C65.8619 159.737 67.5266 159.857 69.0864 159.926C70.6466 159.99 72.1035 160.029 73.4903 159.973C76.2619 159.844 78.7805 159.631 81.3399 159.391C83.648 158.648 75.8106 158.236 81.9398 157.29C83.054 157.204 84.5602 157.107 86.0563 157.084C87.5529 157.049 89.0389 157.075 90.1171 157.267C90.7042 157.709 87.8255 158.049 87.1801 158.19C98.8895 157.641 107.073 159.392 116.326 159.373C122.383 158.517 129.706 157.544 136.341 155.401C142.985 153.449 148.788 149.784 151.283 146.645L149.718 147.809C149.455 147.998 149.2 148.201 148.931 148.377L148.113 148.883L146.478 149.886L144.792 150.75C149.595 147.954 149.156 147.167 149.058 146.687C148.995 146.417 148.976 146.136 149.572 145.485C149.882 145.169 150.314 144.729 150.933 144.098C151.252 143.793 151.618 143.441 152.041 143.036C152.44 142.604 152.892 142.115 153.403 141.56C154.937 139.898 155.834 138.759 156.398 138.075C156.985 137.401 157.302 137.207 157.489 137.255C157.867 137.345 157.706 138.432 158.232 138.368C159.592 135.997 160.752 132.563 161.378 129.277C161.513 128.457 161.648 127.645 161.778 126.856C161.924 126.069 161.967 125.31 162.075 124.59C162.294 123.145 162.387 121.874 162.595 120.868C162.501 123.787 162.794 122.686 163.093 121.168C163.165 120.787 163.241 120.383 163.311 120.011C163.365 119.642 163.415 119.306 163.45 119.059C163.529 118.565 163.579 118.432 163.574 119.119C163.928 114.327 163.426 111.799 162.915 109.476" fill="#BB87AC" fill-opacity="0.46"/>
</svg>
