<svg width="7" height="7" viewBox="0 0 7 7" fill="none" xmlns="http://www.w3.org/2000/svg">
<path fill-rule="evenodd" clip-rule="evenodd" d="M5.93082 2.98724H3.50875V0.375219C3.50875 0.16772 3.34328 0 3.13857 0C2.93491 0 2.76892 0.16772 2.76892 0.375219V2.98724H0.370179C0.165467 2.98724 0 3.15496 0 3.36192C0 3.56942 0.165467 3.73714 0.370179 3.73714H2.76892V6.61902C2.76892 6.82598 2.93491 6.9937 3.13857 6.9937C3.34328 6.9937 3.50875 6.82598 3.50875 6.61902V3.73714H5.93082C6.13553 3.73714 6.30047 3.56942 6.30047 3.36192C6.30047 3.15496 6.13553 2.98724 5.93082 2.98724Z" fill="white"/>
</svg>
