<svg width="40" height="47" viewBox="0 0 40 47" fill="none" xmlns="http://www.w3.org/2000/svg">
<mask id="mask0_18_140" style="mask-type:alpha" maskUnits="userSpaceOnUse" x="0" y="0" width="40" height="47">
<path fill-rule="evenodd" clip-rule="evenodd" d="M8.65257 13.1355C8.68323 13.0969 8.70754 13.1055 8.72445 13.1194C8.70754 13.1339 8.68746 13.1511 8.66367 13.1764L8.66579 13.1898C8.65892 13.1705 8.65257 13.1522 8.65257 13.1355M9.57315 13.3888C9.54144 13.406 9.50339 13.4312 9.46428 13.4586C9.43574 13.4344 9.42464 13.3968 9.45054 13.3818C9.45054 13.4108 9.51977 13.3888 9.57315 13.3888M9.32706 13.558L9.32865 13.5596C9.30433 13.579 9.28425 13.5951 9.27104 13.6059C9.28267 13.5956 9.29905 13.5822 9.32706 13.558M6.50949 15.7652C6.64186 15.6878 6.50207 15.6115 6.48884 15.5272C6.62386 15.3982 6.61274 15.5702 6.70223 15.5981C6.78007 15.5062 6.78854 15.3514 6.86267 15.3111C6.87962 15.3272 6.89868 15.3256 6.89709 15.36C6.94157 15.2025 7.19627 15.166 7.24233 14.9736C7.25716 14.9784 7.26775 14.9854 7.27516 14.9929C7.22009 14.9467 7.18038 14.8887 7.15814 14.8435C7.21427 14.8048 7.21851 14.7017 7.28734 14.764C7.25134 14.7844 7.26722 14.8172 7.26563 14.8516L7.30482 14.7796C7.42766 14.8548 7.2471 14.8709 7.29687 14.9521C7.39219 14.8408 7.47214 14.6619 7.58122 14.6355C7.667 14.7307 7.39377 14.8065 7.57328 14.8253L7.4086 14.8736C7.62041 14.9747 7.317 14.9161 7.52721 15.0349C7.73055 14.9478 7.69825 14.8478 7.90052 14.7613C7.90423 14.6753 7.83168 14.6818 7.83486 14.5963C8.02548 14.3217 8.2087 14.7317 8.30877 14.4646C8.31142 14.3609 8.2447 14.2137 8.42474 14.1959L8.45651 14.3469C8.64025 14.2427 8.44486 14.1078 8.68155 14.0669C8.67943 14.1357 8.5693 14.1981 8.60477 14.1949C8.78587 14.2104 8.64555 14.0712 8.73662 14.01L8.82452 14.1035C8.99979 13.9611 9.15388 13.7461 9.34715 13.5875C9.35615 13.6268 9.34292 13.6837 9.41281 13.6837C9.63785 13.4559 9.97145 13.3161 10.2632 13.207L10.2966 13.0506C10.3193 13.0361 10.3654 13.063 10.3532 13.0974C10.4734 13.0646 10.3193 13.0361 10.3416 12.9684C10.3924 12.9238 10.4501 12.97 10.4332 13.0216C10.5523 12.826 10.8038 12.5148 11.049 12.4847L11.0326 12.5363C11.1973 12.4745 11.0622 12.2402 11.2486 12.2332L11.2354 12.2665C11.5648 12.0886 11.8274 11.7393 12.1578 11.6942C12.1012 11.5367 12.5009 11.5179 12.3717 11.3266C12.6 11.2631 12.5804 11.3346 12.8536 11.1809C12.9203 11.132 12.8504 10.996 12.9081 10.9106L12.9881 10.9933L13.0056 10.8122L13.1528 10.8622L13.202 10.7762C13.1692 10.7972 13.1078 10.7934 13.0892 10.7655C13.1644 10.6316 13.4022 10.5731 13.4445 10.6096L13.6124 10.2845C13.6405 10.3226 13.6119 10.3764 13.6018 10.4312C13.6447 10.2124 13.7114 10.4898 13.7506 10.2893C13.7167 10.2882 13.7098 10.2334 13.6955 10.2141C13.8035 10.1995 13.9364 10.0566 14.0116 9.93136L14.0514 10.005C14.2505 9.83248 14.3733 9.55785 14.5613 9.33588C14.467 9.39393 14.3781 9.28698 14.4204 9.21335L14.5348 9.26387C14.5115 9.17358 14.4448 9.30364 14.4443 9.15799C14.5221 9.08275 14.5962 9.18809 14.5872 9.26172L14.6381 9.13273C14.6704 9.14939 14.6656 9.1854 14.6968 9.22087C14.6719 9.13166 14.9351 9.11769 14.8827 8.9758L14.9155 8.99193C15.0897 8.75814 15.13 8.62324 15.2634 8.42708C15.1819 8.36205 15.2544 8.30024 15.2263 8.19383C15.3529 8.07237 15.5361 7.96435 15.6372 7.78054C15.6727 7.62737 15.5869 7.69455 15.5705 7.6048C15.6553 7.64887 15.7601 7.46775 15.7585 7.5962C15.8798 7.37639 15.9152 7.31458 16.0185 7.00717C15.9671 7.01523 15.9322 7.03888 15.9158 7.00502C15.9338 6.94913 16.0169 6.91473 16.0519 6.9459L16.0529 6.96418C16.1032 6.58421 16.701 6.39234 16.6634 6.04355L16.665 6.06236L16.7085 5.75279C16.7847 5.64047 16.7344 5.85813 16.8318 5.7974C16.8345 5.44054 17.0871 5.36476 17.1019 5.07992C17.436 5.01812 17.3947 4.42533 17.6589 4.24743L17.5927 4.23454C17.561 4.14371 17.6605 4.17166 17.6944 4.12974C17.6446 4.11576 17.6107 4.17649 17.5954 4.12167C17.6769 3.83146 17.8199 3.55898 17.9687 3.28327C18.0449 3.14784 18.1233 3.01025 18.2006 2.87321C18.2488 2.77324 18.2451 2.81678 18.2599 2.80764C18.27 2.80925 18.2774 2.8157 18.2832 2.82269C18.2891 2.85923 18.0704 2.40456 18.1906 2.5314C18.2086 2.60341 18.2282 2.67113 18.2493 2.73347C18.2107 2.53032 18.262 2.50829 18.2726 2.44165C18.2806 2.41961 18.2891 2.43358 18.306 2.36855C18.3002 2.43197 18.2959 2.52656 18.2933 2.51796C18.2875 2.75712 18.3076 2.57117 18.3346 2.43788C18.3394 2.47335 18.3176 2.57762 18.3086 2.65877C18.2901 2.75873 18.3685 2.497 18.3335 2.65608C18.3277 2.67382 18.3198 2.69424 18.315 2.7066C18.3383 2.64748 18.3219 2.75605 18.3775 2.6147C18.3611 2.70983 18.4495 2.67489 18.4188 2.76518C18.4712 2.74154 18.4712 2.77916 18.4717 2.80334C18.477 2.8372 18.504 2.91029 18.5813 2.88611C18.422 2.9377 18.5639 3.20534 18.6751 3.27145C18.6152 3.25909 18.6597 3.37571 18.5803 3.36496C18.6264 3.4746 18.6968 3.56328 18.7683 3.51061C18.6682 3.79169 19.0854 3.85296 18.8975 4.06847C19.1172 4.35815 19.3063 4.63063 19.4688 4.90472C19.3115 4.96437 19.3131 4.59032 19.1585 4.67577C19.3407 4.9246 19.544 5.02081 19.633 5.30833C19.6446 5.38841 19.5493 5.29973 19.5128 5.28791C19.6991 5.53244 19.7426 5.82427 19.9438 6.02312C19.93 6.02957 19.902 6.0113 19.8787 5.99195C19.9067 6.0371 19.911 6.11395 19.9761 6.07418L19.9353 6.0371C19.9967 5.91241 20.2324 6.12148 20.2885 6.1032C20.055 6.12148 20.3557 6.3644 20.0486 6.36225C20.0762 6.38697 20.1275 6.41008 20.1694 6.37945C20.1789 6.43265 20.1593 6.46114 20.0852 6.44018C20.2048 6.59173 20.2483 6.49338 20.325 6.64601C20.2922 6.66267 20.2641 6.63849 20.2175 6.64279C20.3213 6.68632 20.4246 6.72985 20.4643 6.87227C20.441 6.8755 20.4235 6.90398 20.4034 6.86529C20.5315 7.07973 20.7619 7.15067 20.8381 7.41939C20.6597 7.42852 20.8376 7.5258 20.7248 7.60749L20.8328 7.71498L20.862 7.63006C20.9234 7.74346 21.0658 7.79075 21.0812 7.90953L20.9853 7.85578L21.1262 8.05195L21.1045 7.9063C21.2289 7.98262 21.2474 7.80473 21.2983 7.97241C21.2676 7.95037 21.3618 8.08205 21.3279 8.18147V8.18147C21.3984 8.2121 21.4714 8.24274 21.4921 8.34109C21.4677 8.3857 21.3523 8.40612 21.3359 8.43514C21.4661 8.42654 21.5212 8.6743 21.6658 8.6743C21.6276 8.66785 21.5662 8.70655 21.5583 8.72213L21.6642 8.71461C21.6705 8.78179 21.6631 8.79737 21.6096 8.82102C21.6917 8.98171 21.7224 8.67806 21.778 8.89519C21.7627 8.88605 21.7553 8.90056 21.724 8.8796C21.8124 9.07845 22.0057 9.1854 22.0783 9.37351C21.9983 9.50303 21.9533 9.25151 21.8956 9.37512C22.0719 9.6003 22.3732 9.7524 22.5156 9.98833L22.496 9.93835C22.6718 9.84376 22.5453 10.1609 22.702 10.2119C22.6708 10.1947 22.5914 10.2474 22.6136 10.2404C22.7078 10.4091 22.9085 10.5 23.1415 10.6693L23.0812 10.6784C23.123 10.7929 23.2585 10.9159 23.329 11.0127C23.3888 11.0009 23.4312 11.0546 23.4534 10.9729C23.5122 11.4405 24.0539 11.347 24.1291 11.7425C24.1005 11.7167 24.0316 11.7124 24.0544 11.7339L24.2869 11.8876C24.3282 11.8086 24.2953 11.8237 24.2974 11.7345C24.3562 11.7205 24.4394 11.7436 24.4907 11.7877C24.361 11.7484 24.4002 11.8925 24.4086 11.964C24.4192 11.9382 24.4526 11.9285 24.4664 11.9054C24.4738 12.1166 24.5977 11.7904 24.6771 11.9983L24.6395 12.0258C24.7094 12.0569 24.7984 12.0559 24.8492 12.1182C24.81 12.216 24.7613 12.1021 24.7041 12.1612C24.7915 12.2316 24.9906 12.1601 25.0043 12.3004C24.9503 12.2918 24.8984 12.2488 24.8444 12.2397C24.854 12.3998 24.8826 12.3853 24.9339 12.4525L24.9292 12.445L25.0409 12.6078L25.0239 12.5524C25.2929 12.4401 25.2723 12.6976 25.5243 12.6782C25.2834 12.6933 25.4438 12.733 25.3644 12.8142C25.383 12.8685 25.419 12.9426 25.3835 12.9544C25.509 12.9367 25.4571 13.106 25.6376 13.0754C25.6207 13.1082 25.7123 13.1356 25.6424 13.1968C25.7531 13.2436 25.6572 13.1291 25.6927 13.0985C25.9072 13.1044 25.9432 13.4747 26.254 13.4801C26.4743 13.5499 26.5786 13.4645 26.7788 13.5252C26.8058 13.6123 26.6617 13.6069 26.6617 13.6069C26.7263 13.7144 26.8047 13.7493 26.9154 13.7681C26.8815 13.7848 26.8862 13.8192 26.8931 13.8713C26.971 13.9068 27.007 13.7875 27.0774 13.889C27.0414 13.9148 26.9863 13.96 26.9313 13.9734C27.035 13.996 27.1552 13.9853 27.2606 14.0073C27.2543 14.0772 27.1605 14.061 27.1086 14.0788C27.223 14.1142 27.4046 14.1744 27.4804 14.1013L27.4306 14.0347C27.4698 14.0497 27.411 14.1218 27.3745 14.1234C27.2495 14.1459 27.2627 14.025 27.2754 13.9895L27.3512 14.0035C27.385 13.7805 27.0785 13.8923 26.9561 13.8031L27.0869 13.7004L26.8931 13.7332C26.8862 13.6821 26.9122 13.5961 26.9858 13.6139C26.936 13.4935 26.8783 13.6128 26.8465 13.493C26.8449 13.4758 26.8529 13.472 26.864 13.472L26.7544 13.4553C26.7883 13.4387 26.7989 13.3532 26.8386 13.4064C26.7353 13.2312 26.5299 13.3452 26.5378 13.2065L26.5558 13.207C26.3191 13.106 26.4727 13.2887 26.2413 13.2898L26.2948 12.9845L26.2095 13.0641C26.1905 13.0458 26.1545 13.0077 26.1878 12.9765C26.065 12.9819 26.173 13.0265 26.0851 13.0528C26.0443 12.8932 25.7764 12.8835 25.8611 12.7212C25.7732 12.7637 25.9183 12.8464 25.7743 12.8142C25.8606 12.6347 25.6318 12.7443 25.5953 12.6013C25.6842 12.5438 25.7372 12.6535 25.7012 12.5105C25.5434 12.6024 25.5482 12.3434 25.4539 12.3084C25.3665 12.4116 25.2575 12.2171 25.1044 12.1478C25.1399 12.1209 24.918 11.8925 24.8381 11.7533L24.8566 11.7393C24.7459 11.8237 24.6453 11.7001 24.5416 11.6458C24.5993 11.5872 24.6358 11.577 24.7057 11.5899L24.6257 11.52C24.5776 11.5362 24.5384 11.5302 24.4775 11.4948L24.5649 11.4367C24.4584 11.3443 24.2757 11.3303 24.1884 11.1551C24.1153 11.2175 24.1153 11.4502 23.9294 11.3636C23.9591 11.3206 24.0142 11.2513 24.065 11.2707C24.0486 11.2642 23.993 11.2615 23.9834 11.2223L24.0989 11.2115C24.0639 11.1266 24.0179 11.2352 23.975 11.1831C24.0253 11.1304 23.9755 11.11 24.0216 11.0745C24.039 11.0809 24.0422 11.1374 24.0814 11.1336C24.0353 11.0723 24.0009 10.9756 24.0179 10.9143C23.994 10.9493 23.9501 10.9864 23.9045 10.9546C23.7992 10.8584 23.9305 10.8563 23.8977 10.7708C23.8378 10.7832 23.8103 10.6816 23.7325 10.759C23.7028 10.7289 23.733 10.687 23.7425 10.6542C23.653 10.6392 23.4926 10.4204 23.4682 10.5618L23.4751 10.5817L23.464 10.5758L23.4645 10.5763L23.464 10.5758C23.2247 10.4726 23.1754 10.163 22.9827 10.019L23.0107 9.99532C22.8921 9.90987 22.7984 9.761 22.674 9.72983C22.648 9.69597 22.6655 9.6089 22.7105 9.59654C22.6226 9.52775 22.5824 9.54226 22.5342 9.38157C22.6517 9.4294 22.5564 9.31761 22.6395 9.44176C22.5776 9.3117 22.6062 9.25204 22.441 9.18486C22.5453 9.17197 22.4759 9.02793 22.4156 8.98924L22.4171 9.11016C22.3637 9.05588 22.333 8.99623 22.3012 8.93657L22.423 8.89465C22.3843 8.57541 21.9168 8.61035 22.0131 8.2809C21.9009 8.26262 22.0454 8.44804 21.9247 8.44481C21.868 8.3212 21.9448 8.10838 21.9236 8.07291C21.8855 7.88212 21.6811 8.024 21.6202 7.83644C21.5964 7.87889 21.5048 7.96273 21.3989 7.85793C21.3465 7.73217 21.4757 7.61931 21.5477 7.67467C21.5667 7.701 21.5625 7.72142 21.5487 7.72787C21.5837 7.75743 21.6276 7.7972 21.6425 7.7268L21.5964 7.73432C21.6022 7.65317 21.5074 7.4957 21.5916 7.49624C21.5053 7.43013 21.5074 7.4957 21.5254 7.57202C21.4958 7.3909 21.3947 7.33823 21.3454 7.16357C21.338 7.19957 21.3062 7.24794 21.2925 7.22322C21.213 6.97063 21.1622 7.16625 21.0616 7.02007C21.0738 6.89861 21.2178 6.97385 21.0865 6.84433C21.0764 6.72663 21.1781 6.76801 21.2294 6.78843C21.0807 6.68632 21.1394 6.49607 21.1103 6.40739L21.1807 6.46544C21.1389 6.43104 21.1204 6.39396 21.1013 6.35634L21.0457 6.44071C21.0367 6.38966 21.0176 6.35204 21.0499 6.33591C20.9753 6.3171 20.9393 6.43964 20.8217 6.38536C20.8307 6.30582 20.6851 6.22843 20.7794 6.15318C20.8392 6.35795 20.872 6.07956 20.9705 6.22735C20.9424 6.20317 20.9229 6.16662 20.9144 6.11503C20.9229 6.10213 20.9387 6.11019 20.9509 6.11933C20.9552 5.89199 20.7937 6.09783 20.7047 5.91026C20.7746 5.90381 20.7947 5.8103 20.7672 5.78612C20.8021 5.86189 20.6872 5.8721 20.6083 5.82535C20.5956 5.68293 20.5109 5.71249 20.4855 5.64746L20.4987 5.72968C20.4278 5.73452 20.4061 5.6711 20.3467 5.5964C20.3891 5.56684 20.4156 5.65659 20.4214 5.61682C20.2716 5.57544 20.4251 5.35455 20.2959 5.25781C20.3086 5.17774 20.4045 5.19816 20.4071 5.13205C20.2631 5.02296 20.4156 4.93535 20.2811 4.81228C20.2218 4.89397 20.2451 4.8929 20.1169 4.82088L20.2901 5.04714L20.0989 4.93965C20.1334 5.01704 20.2239 5.07724 20.2308 5.12991C20.1307 5.08369 20.154 5.08154 20.1048 5.15033C20.1762 4.98856 19.9385 4.97512 19.9634 4.8155L20.1635 4.72683C20.1667 4.5054 19.9173 4.44897 19.8622 4.18832L19.8612 4.28022C19.768 4.28398 19.7855 4.13833 19.7193 4.07545C19.7897 4.05288 19.7923 3.99376 19.8199 3.94271C19.7717 3.9685 19.7484 3.76643 19.607 3.80244L19.6504 3.65679C19.606 3.44773 19.3666 3.51759 19.3115 3.32089C19.4084 3.34615 19.4201 3.24135 19.5244 3.344C19.499 3.28166 19.4884 3.22039 19.4413 3.23866C19.4678 3.18546 19.2798 3.10377 19.3205 3.01939C19.2808 3.00488 19.2067 3.02584 19.1845 2.95275C19.1945 2.93931 19.2173 2.93931 19.2173 2.93931C19.1845 2.95329 19.1278 2.84741 19.0775 2.94039C19.2146 2.67382 18.8472 2.40134 18.9033 1.99396C18.8117 1.82521 18.7132 1.61507 18.6475 1.44793C18.6613 1.42213 18.6639 1.38612 18.673 1.43395C18.6084 1.04539 18.5337 1.6758 18.4765 1.28508C18.4611 0.882005 18.5448 1.28616 18.5279 1.10235C18.5591 0.823962 18.5199 0.734747 18.4749 0.667568C18.4283 0.596626 18.3812 0.56438 18.3499 0.256429L18.3701 0.269327C18.3304 -0.0214263 18.2583 -0.0246509 18.2075 0.0226436C18.1932 0.11992 18.1763 0.204297 18.1588 0.254279C18.1588 0.254279 18.1593 0.170976 18.1535 0.133893C18.1207 0.733672 18.0502 1.12815 18.0042 1.40762C17.9835 1.13621 18.0137 1.19264 17.9613 1.02443C17.9359 1.16201 18.0317 1.35011 17.9899 1.57799C17.9491 1.52693 17.8829 1.5839 17.8194 1.4404L17.8808 1.21575C17.7802 1.08462 17.7966 1.51457 17.7521 1.58175L17.7219 1.4834C17.625 1.88325 17.7257 2.01868 17.615 2.30782L17.6616 2.30675C17.732 2.53516 17.5409 2.40241 17.5864 2.59267L17.4371 2.57708C17.4439 2.67006 17.462 2.90545 17.4323 3.05862C17.3635 2.93716 17.3778 2.75175 17.3566 2.62599C17.3259 2.70392 17.2629 2.89471 17.3137 2.96242C17.3132 2.92588 17.2957 2.87321 17.3285 2.8501C17.3984 2.98822 17.4005 3.13655 17.3365 3.29241C17.0902 3.15751 17.1035 3.66915 16.8535 3.69226C16.8371 4.00774 16.5793 4.20874 16.4479 4.52421C16.6973 4.51024 16.4109 4.61719 16.6237 4.69781C16.6026 4.77735 16.5856 4.80368 16.5697 4.80368L16.3431 4.96115C16.2578 4.98265 16.3336 4.8714 16.2848 4.85474C16.189 5.002 16.1657 4.87623 16.0593 4.95094C16.1429 4.96706 16.135 5.05789 16.0619 5.13152L16.2187 5.0552C16.2134 5.32876 15.9544 5.15355 15.9475 5.42764L15.9205 5.32499C15.9009 5.45774 15.7077 5.73452 15.8009 5.92961C15.767 5.93606 15.6987 5.93122 15.7119 5.87479C15.5382 6.11879 15.5515 6.55895 15.3296 6.69815L15.2952 6.64978C15.2793 6.70513 15.3312 6.78736 15.2459 6.81692C15.229 6.80133 15.212 6.76801 15.1946 6.7879C15.1951 6.82337 15.1967 6.96633 15.13 7.01147L15.1114 6.92387C14.8933 7.12917 15.0008 7.38929 14.8933 7.61609C14.7593 7.52311 14.5825 7.67897 14.4951 7.75636L14.4787 7.73916C14.2626 7.99874 14.2642 8.29702 14.1107 8.57917C13.8485 8.61841 13.641 9.05051 13.3635 9.22195C13.4175 9.2069 13.453 9.31224 13.4276 9.36437C13.3535 9.39608 13.373 9.59063 13.2708 9.48046L13.2904 9.46326C13.1443 9.40414 13.0723 9.54065 12.9897 9.62395L13.1183 9.7739C12.7149 9.80829 12.6301 10.4333 12.3262 10.3565C12.3055 10.443 12.2383 10.5048 12.2166 10.5924L12.1499 10.5107C11.9794 10.6257 11.9074 10.6972 11.7257 10.8719L11.7178 10.7821C11.6034 10.8633 11.7691 11.1282 11.6675 11.2158L11.5393 11.1164C11.3439 11.2733 11.0681 11.3158 10.9574 11.584C10.9473 11.5625 10.9272 11.5206 10.9553 11.4905C10.8594 11.5587 10.5174 11.6721 10.6768 11.8253C10.5942 11.7108 10.4544 11.9661 10.3771 12.0972L10.3358 11.9989C10.3162 12.1757 10.3336 12.2079 10.2214 12.3321C10.1827 12.3434 10.1467 12.2832 10.2039 12.2757C10.0683 12.3047 10.178 12.4154 10.0186 12.4579L10.0292 12.3703C9.91638 12.4385 9.94444 12.4622 9.92803 12.5675C9.88302 12.6497 9.70722 12.6884 9.63891 12.6218C9.65692 12.6793 9.63944 12.7846 9.56055 12.8061C9.53195 12.7825 9.5436 12.7481 9.5489 12.7314C9.32809 12.7981 9.34662 13.0195 9.16447 13.02C9.14276 12.9926 9.12529 12.984 9.10887 12.9824C9.25555 12.8862 9.37363 12.8093 9.3678 12.8233C9.31432 12.7438 9.18883 12.8104 9.20789 12.6363C9.15494 12.7615 9.08134 13.0017 8.94207 13.041C8.93095 13.0372 8.92089 13.0334 8.90818 13.0238L8.91454 13.0066C8.88277 13.0163 8.86371 13.0399 8.85047 13.0684C8.80546 13.0797 8.77581 13.0856 8.74033 13.1082C8.68367 13.0512 8.58253 13.1635 8.52217 13.1995C8.58412 13.2839 8.49834 13.3221 8.61801 13.3457C8.60424 13.3457 8.62172 13.328 8.65825 13.2979C8.66514 13.2893 8.67467 13.2812 8.67732 13.2721L8.67838 13.2823C8.71597 13.2549 8.76469 13.2189 8.81976 13.178C8.80281 13.2538 8.77898 13.3242 8.68261 13.3194C8.68949 13.3957 8.69426 13.4763 8.6932 13.5161C8.53276 13.4478 8.33631 13.486 8.26588 13.4247C8.11762 13.5924 7.86398 13.7364 7.85657 13.9772C7.81897 14.032 7.76708 13.9681 7.7316 13.9546C7.75067 13.9186 7.78667 13.8976 7.78773 13.8633C7.71307 13.974 7.49491 14.0793 7.54363 14.211C7.38107 14.2421 7.54945 14.0567 7.38318 14.1906L7.38424 14.1395C6.9188 14.1787 6.99876 14.8059 6.45812 14.8102C6.49466 14.8081 6.51213 14.8065 6.52961 14.8226C6.01969 14.9962 5.66279 15.4933 5.11581 15.5857C4.9686 15.625 4.99825 15.7093 4.95324 15.8131L4.87011 15.7308L4.80022 15.9216C4.6546 16.1124 4.33901 15.8657 4.1828 16.156L4.25005 16.2059C4.1558 16.2403 3.99429 16.3962 3.96835 16.3102C3.9657 16.3274 3.97576 16.3957 3.92334 16.3785L3.89422 16.3274L3.72424 16.5311C3.53785 16.5784 3.64535 16.3086 3.39806 16.4215C3.31811 16.4876 3.21697 16.7004 3.26621 16.7203C3.30222 16.7074 3.37476 16.709 3.40283 16.7616L3.33134 16.8304C3.38588 16.996 3.39118 17.1927 3.66176 17.1964L3.76396 17.0271L3.84868 17.0782L3.72636 17.1459C3.83226 17.1819 3.84603 17.0959 3.8741 17.0271C3.90587 17.0615 3.94028 17.0787 3.97682 17.0787L4.04513 16.8562C4.09331 16.9078 4.04248 17.0099 4.15527 16.9933C4.18598 16.889 4.02183 16.8912 4.10867 16.7874C4.21351 16.8213 4.22357 16.889 4.27335 16.7864C4.30512 16.8197 4.30141 16.8546 4.27811 16.889C4.32577 16.8025 4.45815 16.7654 4.45127 16.6638C4.56935 16.7111 4.68055 16.5091 4.7515 16.6574C4.75574 16.6101 4.81504 16.473 4.87699 16.4306C4.85264 16.6708 5.1264 16.3038 5.19682 16.5053C5.19841 16.2989 5.47588 16.2543 5.58072 16.077C5.57913 16.0942 5.57595 16.1291 5.55848 16.1296C5.6522 16.0909 5.7041 16.1221 5.77611 16.1178C5.71469 15.9845 5.83277 15.8754 5.85977 15.7545C6.03663 15.8136 5.88148 15.941 5.98262 16.0388C5.91802 15.9394 6.10759 15.8265 6.02127 15.7626C6.14624 15.7889 6.11182 15.7566 6.21508 15.8356C6.13618 15.6696 6.27438 15.7636 6.28391 15.626C6.44647 15.6325 6.40147 15.755 6.50101 15.6293C6.5905 15.64 6.50949 15.7652 6.50949 15.7652" fill="white"/>
<path fill-rule="evenodd" clip-rule="evenodd" d="M5.19195 29.0597C5.2078 29.0769 5.18825 29.0845 5.16711 29.0888C5.16446 29.0807 5.16024 29.071 5.15284 29.0581L5.13962 29.057C5.15971 29.0581 5.17873 29.0592 5.19195 29.0597M4.4931 29.3556C4.49574 29.3421 4.49521 29.3255 4.49363 29.3072C4.52851 29.3008 4.56551 29.3024 4.56445 29.3137C4.54067 29.3094 4.52164 29.3373 4.4931 29.3556M4.02597 27.9816C4.03127 28.037 4.16153 27.9865 4.24043 27.9859C4.28808 28.0467 4.14512 28.0321 4.07946 28.0655C4.12129 28.1009 4.24943 28.1138 4.24837 28.1461C4.22666 28.1515 4.21925 28.1584 4.19012 28.1558C4.30344 28.1837 4.21342 28.2847 4.35586 28.317C4.34421 28.3224 4.33362 28.3261 4.32303 28.3283C4.38975 28.3111 4.45859 28.3003 4.50783 28.2955C4.51366 28.3202 4.59997 28.331 4.5126 28.3525C4.51313 28.3363 4.47712 28.3401 4.44853 28.3363L4.49089 28.3573C4.36645 28.3981 4.44164 28.3272 4.34739 28.3401C4.39611 28.3858 4.50995 28.432 4.47765 28.4766C4.35427 28.5003 4.42576 28.3895 4.32091 28.4562L4.36063 28.389C4.17053 28.461 4.36857 28.3508 4.16524 28.4207C4.14035 28.504 4.23831 28.5013 4.2113 28.5852C4.28279 28.5948 4.3135 28.5669 4.38446 28.5766C4.52107 28.6765 4.08051 28.7018 4.25525 28.7658C4.34104 28.7781 4.49936 28.7695 4.42258 28.8383L4.27908 28.8329C4.27432 28.9114 4.48718 28.8566 4.40087 28.9474C4.34368 28.9377 4.34739 28.891 4.33203 28.9039C4.22666 28.9678 4.4157 28.9334 4.42046 28.9737L4.29656 28.9942C4.3225 29.0742 4.41887 29.1575 4.44906 29.2478C4.41093 29.2457 4.37069 29.2333 4.33415 29.2575C4.40511 29.3682 4.33733 29.5053 4.27061 29.6197L4.38022 29.6557C4.37916 29.666 4.3315 29.6767 4.31032 29.667C4.27114 29.7122 4.37916 29.666 4.42258 29.6848C4.43105 29.709 4.36116 29.7202 4.32833 29.7063C4.42258 29.7772 4.53378 29.9169 4.42046 30.0013L4.3871 29.9868C4.3458 30.0508 4.61215 30.0513 4.51313 30.1131L4.49354 30.1024C4.45382 30.2399 4.55019 30.391 4.38604 30.4952C4.54172 30.5156 4.31509 30.6296 4.53272 30.6403C4.42417 30.7172 4.38551 30.6946 4.31191 30.8026C4.30185 30.8311 4.448 30.8489 4.47024 30.8859L4.35639 30.8838L4.47553 30.9365L4.33892 30.9585L4.36592 30.9929C4.37334 30.98 4.41887 30.966 4.4517 30.9692C4.49989 31.0241 4.36539 31.0955 4.30662 31.0945L4.39558 31.2234C4.35004 31.2181 4.33574 31.1966 4.30768 31.1788C4.41993 31.2509 4.18748 31.1848 4.2902 31.2509C4.31668 31.2439 4.35745 31.2589 4.38075 31.2616C4.30979 31.2885 4.30556 31.3567 4.3315 31.4099L4.2542 31.3954C4.22878 31.4857 4.28226 31.5921 4.27273 31.6953C4.31297 31.6615 4.448 31.6808 4.457 31.7131L4.33627 31.7147C4.40828 31.7405 4.38499 31.6867 4.4713 31.7351C4.45329 31.7727 4.33203 31.7491 4.2955 31.7238L4.33203 31.7743C4.29603 31.7738 4.27802 31.7609 4.23301 31.7539C4.30503 31.7802 4.10381 31.8232 4.23037 31.863L4.19436 31.8619C4.18218 31.964 4.21819 32.0151 4.21554 32.0995C4.3188 32.1129 4.29232 32.143 4.37281 32.1785C4.33309 32.2365 4.24466 32.2951 4.24572 32.3703C4.29126 32.4295 4.33097 32.3972 4.38922 32.4295C4.29709 32.4209 4.29232 32.4956 4.23196 32.4477C4.23249 32.5386 4.23143 32.5627 4.28861 32.6874C4.32886 32.681 4.34739 32.6702 4.37863 32.6821C4.39028 32.7052 4.3315 32.7229 4.28703 32.7121L4.27802 32.7057C4.39663 32.8573 3.95873 32.947 4.13611 33.0819L4.12711 33.0749L4.21078 33.1991C4.18483 33.2426 4.1467 33.1561 4.0821 33.1797C4.21078 33.3221 4.01909 33.3479 4.10064 33.4608C3.81258 33.4672 4.06145 33.715 3.86659 33.7655L3.93172 33.7768C3.98891 33.8177 3.8883 33.7967 3.86977 33.8107C3.92007 33.8209 3.93278 33.7994 3.96402 33.8236C3.99526 34.0541 3.74639 34.217 3.63149 34.4024C3.59177 34.4712 3.94019 34.5545 3.76228 34.5991L3.65532 34.5324C3.75116 34.7361 3.54094 34.835 3.60025 35.0258C3.57748 35.0065 3.54359 34.9925 3.54941 34.9785C3.45516 34.9758 3.5007 35.0892 3.56742 35.1177C3.55047 35.1376 3.5044 35.0984 3.46469 35.0978C3.40433 35.108 3.53882 35.2188 3.45092 35.2005C3.43663 35.1978 3.42815 35.1811 3.42392 35.1725C3.45569 35.2091 3.37679 35.2612 3.47846 35.2827C3.41227 35.3176 3.47899 35.4058 3.40591 35.4241C3.50017 35.5025 3.31696 35.4912 3.45887 35.5675C3.30848 35.4928 3.29313 35.595 3.34714 35.6632C3.30742 35.6294 3.28624 35.6664 3.23065 35.6218C3.21529 35.6578 3.22588 35.7051 3.30531 35.7395C3.09721 35.7078 3.37838 35.9545 3.1311 35.861C3.14592 36.0093 3.13692 36.1399 3.11097 36.2576C2.97489 36.1603 3.16181 36.1437 3.01196 36.0518C3.01831 36.177 3.1025 36.3103 3.00613 36.3732C2.97171 36.3823 2.95583 36.3183 2.93782 36.2947C2.932 36.421 2.80756 36.4511 2.82557 36.5838C2.81339 36.5736 2.80597 36.5548 2.80121 36.5398C2.79538 36.558 2.75673 36.5597 2.81868 36.6048L2.81286 36.5769C2.91876 36.6198 2.95053 36.7789 2.99289 36.8176C2.84145 36.6575 2.88964 36.859 2.7059 36.6473C2.7096 36.6655 2.72814 36.7005 2.76944 36.73C2.74614 36.7349 2.71966 36.7209 2.6863 36.6704C2.67624 36.7483 2.75461 36.7811 2.71437 36.8278C2.6863 36.8042 2.68313 36.7859 2.65295 36.7531C2.68948 36.823 2.72549 36.8934 2.66883 36.9144C2.65347 36.8977 2.62753 36.8837 2.63812 36.8719C2.59152 36.9482 2.68895 37.1164 2.56981 37.1444C2.46867 37.017 2.50839 37.1353 2.40143 37.0471L2.39719 37.1138L2.46126 37.1428C2.42896 37.1761 2.47662 37.275 2.41678 37.2744L2.39772 37.21L2.35907 37.2933L2.43055 37.2916C2.45226 37.3755 2.56346 37.4067 2.49356 37.4276C2.49144 37.4083 2.46126 37.462 2.38501 37.4244V37.4244C2.40196 37.4722 2.41943 37.5217 2.37018 37.5233C2.33206 37.4991 2.26428 37.412 2.23834 37.3959C2.30717 37.4926 2.18644 37.4975 2.25528 37.6044C2.24151 37.577 2.18909 37.526 2.17691 37.5179L2.23092 37.5974C2.19439 37.5921 2.18115 37.5845 2.14249 37.5416C2.08531 37.5765 2.28282 37.6496 2.17479 37.6528C2.17374 37.6431 2.16156 37.6351 2.15997 37.6157C2.07842 37.6442 2.09907 37.7678 2.01594 37.7861C1.90368 37.7012 2.03606 37.7173 1.93651 37.6501C1.88197 37.7404 1.90157 37.9199 1.80731 37.9667L1.83114 37.9645C1.95716 38.1177 1.71147 37.9462 1.739 38.0494C1.73795 38.0295 1.67546 37.9575 1.6887 37.9758C1.61933 38.0011 1.62039 38.1069 1.58545 38.2241L1.56162 38.1779C1.50125 38.172 1.4663 38.2305 1.41865 38.2429C1.44301 38.2897 1.41918 38.3004 1.47901 38.345C1.19149 38.2198 1.38794 38.6331 1.14277 38.531C1.15283 38.5213 1.13907 38.4745 1.13059 38.4821L1.08453 38.5847C1.14542 38.6449 1.12795 38.6159 1.18778 38.653C1.21002 38.7003 1.21373 38.7497 1.19466 38.7669C1.19308 38.6922 1.10571 38.661 1.06017 38.6368C1.07976 38.6551 1.09353 38.682 1.11153 38.7013C0.972798 38.618 1.21532 38.84 1.09406 38.8078L1.06811 38.7707C1.06176 38.8061 1.08029 38.8685 1.04958 38.8776C0.977034 38.8083 1.04216 38.8228 0.99186 38.7583C0.964326 38.7889 1.04905 38.9572 0.957442 38.904C0.953206 38.8712 0.972268 38.8545 0.968032 38.8223C0.863188 38.7572 0.879074 38.7836 0.844126 38.7884L0.847832 38.7889L0.761522 38.7922L0.794881 38.8056C0.918787 39.0415 0.744048 38.9093 0.795411 39.0861C0.748284 38.9174 0.746695 39.0061 0.680506 38.9142C0.647147 38.9013 0.604786 38.8905 0.591548 38.8604C0.62173 38.9523 0.504707 38.8379 0.550775 38.9717C0.526947 38.9443 0.521652 38.991 0.471348 38.9142C0.456522 38.9636 0.517945 38.9582 0.543362 38.9959C0.568249 39.1361 0.331556 38.9722 0.36068 39.1657C0.33897 39.2716 0.400923 39.3796 0.376036 39.4742C0.320966 39.443 0.314082 39.3554 0.314082 39.3554C0.249482 39.3371 0.230419 39.3635 0.224065 39.4204C0.211886 39.3903 0.189647 39.3737 0.155758 39.3479C0.136695 39.3742 0.217181 39.4672 0.152581 39.4489C0.134577 39.4118 0.103865 39.3538 0.0916866 39.3119C0.0826848 39.3608 0.0932751 39.4382 0.0821553 39.4865C0.0371466 39.4409 0.0440303 39.3952 0.0307925 39.3538C0.0133185 39.4016 -0.024277 39.465 0.0228498 39.5548L0.0657404 39.5677C0.0562091 39.5811 0.00961192 39.5021 0.00802337 39.4806C-0.00786204 39.3952 0.070506 39.4779 0.0938046 39.5064L0.0853324 39.5414C0.232537 39.6983 0.15311 39.4489 0.203414 39.4258L0.277016 39.565L0.245775 39.4274C0.279134 39.4527 0.336852 39.5177 0.328909 39.5521C0.405688 39.5903 0.324143 39.4871 0.401982 39.5354C0.413102 39.5435 0.415749 39.551 0.416808 39.5575L0.419985 39.4973C0.433753 39.5279 0.490411 39.5811 0.45864 39.5779C0.56772 39.6075 0.477702 39.4161 0.568779 39.4941L0.569838 39.5053C0.614317 39.4038 0.508414 39.4081 0.484586 39.2576L0.693214 39.4511L0.631791 39.3549C0.641852 39.3522 0.662503 39.3468 0.68739 39.385C0.669386 39.3006 0.652442 39.35 0.624378 39.278C0.724985 39.3307 0.696921 39.1576 0.816591 39.2941C0.776878 39.2151 0.740341 39.2699 0.742989 39.1904C0.874308 39.335 0.768405 39.127 0.856834 39.17C0.909256 39.2576 0.843596 39.242 0.933614 39.2845C0.848891 39.1345 1.0231 39.2603 1.0321 39.2114C0.94897 39.1044 1.05805 39.1152 1.07764 39.0405C1.10306 39.0781 1.21373 39.0227 1.28945 39.0227L1.30268 39.0415C1.22432 38.9287 1.2868 38.9109 1.30057 38.8599C1.35193 38.9244 1.36676 38.9539 1.37258 38.9975L1.40329 38.9701C1.38211 38.9303 1.37682 38.904 1.38688 38.8744L1.44459 38.9593C1.48219 38.919 1.44989 38.7949 1.54626 38.8008C1.48696 38.7255 1.33234 38.6352 1.34505 38.539C1.38105 38.5761 1.44089 38.6411 1.43983 38.6696C1.44036 38.6605 1.42924 38.6223 1.45307 38.6309L1.48749 38.7159C1.5362 38.7239 1.45307 38.6503 1.47689 38.6395C1.52455 38.6954 1.52508 38.6669 1.56109 38.7132C1.56056 38.7228 1.52402 38.7051 1.5362 38.7336C1.56585 38.7239 1.62092 38.7341 1.66593 38.7685C1.63628 38.7384 1.6008 38.6938 1.61033 38.6729C1.64793 38.6326 1.68235 38.7266 1.73106 38.7336C1.70723 38.6863 1.7676 38.7019 1.69558 38.6191C1.70776 38.6089 1.74377 38.6449 1.76813 38.6632C1.75701 38.6078 1.85603 38.5627 1.75489 38.4977L1.7443 38.4966V38.4901C1.73847 38.3461 1.92751 38.4068 1.9614 38.3079L1.98629 38.3348C1.99741 38.2655 2.05671 38.2311 2.03024 38.1467C2.04189 38.1354 2.10384 38.1682 2.12926 38.2048C2.13985 38.1553 2.11496 38.1225 2.20021 38.1236C2.21451 38.1994 2.24946 38.1542 2.2018 38.1876C2.26269 38.1725 2.313 38.2058 2.2844 38.0924C2.33524 38.1736 2.39719 38.1489 2.3956 38.1091L2.32094 38.0887C2.33259 38.0586 2.35589 38.0451 2.37919 38.0322L2.4565 38.13C2.64236 38.1532 2.41466 37.8033 2.654 37.9167C2.61217 37.835 2.56822 37.9188 2.51368 37.8291C2.56081 37.8033 2.72655 37.8866 2.7382 37.8748C2.83775 37.8705 2.65242 37.7022 2.73555 37.6786C2.6969 37.656 2.60529 37.5819 2.61058 37.5131C2.65612 37.4857 2.78903 37.5905 2.79327 37.6388C2.78797 37.6507 2.77367 37.6458 2.76255 37.6351C2.76361 37.6587 2.76255 37.6883 2.8118 37.7049L2.78374 37.67C2.83404 37.6813 2.87799 37.6238 2.92035 37.685C2.91505 37.627 2.87799 37.6238 2.84198 37.6302C2.93306 37.6227 2.91188 37.5528 2.98972 37.5297C2.9643 37.5217 2.91876 37.4948 2.9267 37.4873C3.0342 37.447 2.89282 37.3986 2.923 37.3346C2.99872 37.3497 3.03631 37.4513 3.03684 37.3604C3.09774 37.3572 3.1311 37.4292 3.14804 37.4663C3.12315 37.361 3.26506 37.4093 3.30054 37.39L3.30584 37.4394C3.30319 37.4099 3.31378 37.397 3.3249 37.3841L3.24441 37.3427C3.26877 37.3373 3.27989 37.3244 3.30742 37.3481C3.27565 37.2954 3.18458 37.2669 3.1491 37.1852C3.1994 37.1933 3.16075 37.0933 3.25712 37.1594C3.17505 37.1992 3.35402 37.2261 3.32543 37.2933C3.32278 37.2739 3.33337 37.261 3.35773 37.2556C3.37044 37.261 3.3752 37.2728 3.37679 37.2809C3.50811 37.2841 3.29683 37.1696 3.35032 37.1073C3.39479 37.1562 3.46045 37.1696 3.45728 37.1503C3.43557 37.1761 3.36091 37.0949 3.34025 37.0407C3.41227 37.0299 3.34343 36.9708 3.36408 36.9525L3.32702 36.9633C3.28095 36.9144 3.30266 36.8982 3.30637 36.8563C3.34979 36.8848 3.3159 36.9047 3.34131 36.9079C3.27195 36.8053 3.49011 36.9052 3.46045 36.8123C3.51182 36.8171 3.56212 36.8832 3.60025 36.8816C3.56795 36.7795 3.71409 36.8767 3.69609 36.7805C3.61242 36.7456 3.62831 36.7607 3.58489 36.6731L3.57165 36.7988L3.50705 36.6666C3.48746 36.6929 3.51288 36.7558 3.48905 36.7633C3.44986 36.694 3.46522 36.7096 3.39638 36.6795C3.53088 36.7198 3.38473 36.5629 3.48746 36.5726L3.66696 36.6983C3.79352 36.6865 3.64949 36.5145 3.7501 36.4575L3.70085 36.4656C3.63466 36.4065 3.72362 36.4049 3.71091 36.3576C3.77128 36.399 3.80517 36.3952 3.85176 36.4065C3.80411 36.3802 3.89624 36.3436 3.77551 36.2608L3.88195 36.2705C3.96032 36.2173 3.74692 36.0819 3.80464 36.0249C3.86341 36.0846 3.9259 36.0765 3.95078 36.1528C3.96402 36.1286 3.98732 36.113 3.94284 36.0883C3.98997 36.0953 3.88936 35.9755 3.9619 35.9857C3.93861 35.9604 3.87242 35.9228 3.89095 35.8986C3.90525 35.9024 3.92325 35.9153 3.92325 35.9153C3.89095 35.8986 3.90048 35.8519 3.81576 35.8384C4.06145 35.8669 3.89995 35.6294 4.10011 35.6449C4.09905 35.5821 4.10275 35.509 4.11705 35.459C4.13611 35.4703 4.15041 35.4735 4.13982 35.4794C4.22931 35.4391 3.96296 35.3574 4.06251 35.3123C4.18748 35.3187 4.1054 35.3762 4.15676 35.3692C4.3834 35.4504 4.16259 35.266 4.31297 35.2671L4.32091 35.2849C4.41252 35.2752 4.27485 35.1559 4.31562 35.0989C4.31562 35.0989 4.33468 35.1097 4.34951 35.1123C4.25102 35.0247 4.25049 34.9312 4.2346 34.8565C4.31721 34.9076 4.27273 34.9017 4.36592 34.9221C4.36222 34.8898 4.21925 34.8786 4.2113 34.8141C4.26532 34.8135 4.32091 34.7883 4.41834 34.8157L4.40722 34.871C4.54013 34.8872 4.42417 34.8006 4.45435 34.7802L4.50783 34.8028C4.51577 34.7146 4.37863 34.6673 4.41517 34.5835L4.37069 34.5792C4.2489 34.4878 4.46018 34.5642 4.37281 34.4846L4.51683 34.5142C4.49301 34.4717 4.4157 34.3621 4.40722 34.2992C4.50042 34.3615 4.53325 34.4438 4.58196 34.504C4.59255 34.4728 4.60473 34.3938 4.54119 34.3572C4.55019 34.3739 4.57985 34.4002 4.55443 34.4061C4.45647 34.3341 4.41781 34.2686 4.439 34.2078C4.70905 34.2976 4.55761 34.0665 4.77683 34.0772C4.70216 33.9375 4.87267 33.8639 4.88749 33.7263C4.66245 33.7225 4.89014 33.6865 4.6688 33.643C4.66139 33.6091 4.66775 33.5989 4.68257 33.5995L4.8356 33.5371C4.90497 33.5291 4.87743 33.5769 4.92774 33.5849C4.96057 33.5215 5.02729 33.5774 5.09665 33.5452C5.01564 33.5371 4.98916 33.4968 5.02834 33.4646L4.9145 33.4973C4.8176 33.378 5.12048 33.4549 5.02252 33.3345L5.08659 33.3791C5.05376 33.3216 5.11889 33.1953 4.94892 33.1142C4.97592 33.1104 5.03841 33.1099 5.05058 33.1346C5.09771 33.0201 4.90444 32.8395 5.0294 32.7664L5.08288 32.7842C5.07124 32.7594 4.98651 32.7299 5.04635 32.7111C5.06859 32.7159 5.0993 32.7283 5.10406 32.7186C5.08765 32.7041 5.01828 32.6455 5.05482 32.6213L5.11254 32.6552C5.20467 32.5504 4.98757 32.4569 4.9611 32.3569C5.12154 32.3779 5.18402 32.2935 5.21526 32.251L5.23803 32.2548C5.27245 32.1215 5.12895 32.0103 5.07812 31.8807C5.26557 31.8195 5.17555 31.6255 5.27933 31.5078C5.24862 31.5244 5.15331 31.4959 5.13795 31.4728C5.1729 31.4454 5.02993 31.3858 5.17873 31.3992L5.17555 31.4094C5.32223 31.396 5.28728 31.3331 5.2931 31.2863L5.0993 31.2686C5.38841 31.1584 5.01458 30.9451 5.2661 30.8865C5.21738 30.8553 5.21791 30.8188 5.16972 30.7887L5.27404 30.7924C5.30157 30.7102 5.31481 30.6694 5.29098 30.5672L5.36512 30.5882C5.37253 30.5302 5.06488 30.5146 5.05853 30.4624L5.21473 30.4469C5.21262 30.3474 5.35294 30.2437 5.20573 30.1475C5.22903 30.1486 5.27404 30.1507 5.28092 30.1668C5.28357 30.1201 5.37994 29.9814 5.16655 30.0051C5.30634 29.9997 5.17714 29.9014 5.11413 29.8508L5.21685 29.8551C5.08394 29.8148 5.04794 29.8148 5.00928 29.7541C5.02252 29.7385 5.09136 29.7369 5.06594 29.7579C5.1173 29.7057 4.96692 29.724 5.01934 29.6617L5.08606 29.6805C5.09242 29.6289 5.05694 29.6348 4.97963 29.6106C4.93833 29.581 4.99975 29.5133 5.09242 29.4999C5.03523 29.4967 4.95739 29.4736 4.98228 29.4418C5.0167 29.4354 5.03946 29.4451 5.05005 29.4499C5.11413 29.3596 4.92138 29.3317 5.01828 29.2656C5.05217 29.2618 5.06912 29.257 5.07865 29.2511C5.0813 29.3193 5.07971 29.3741 5.07176 29.3698C5.16655 29.3634 5.17926 29.3069 5.31322 29.3419C5.23856 29.3021 5.07759 29.2382 5.11836 29.1817C5.12736 29.1785 5.1369 29.1758 5.15066 29.1721L5.16125 29.1764C5.17025 29.1635 5.16019 29.1527 5.14378 29.1436C5.15861 29.1253 5.16867 29.1135 5.1692 29.0968C5.24703 29.0839 5.20626 29.0296 5.20838 29.0022C5.10512 29.0135 5.11889 28.9764 5.03629 29.0173C5.04317 29.0124 5.049 29.0216 5.05429 29.0393C5.058 29.0431 5.06012 29.0479 5.06647 29.0501L5.05694 29.049C5.06012 29.0673 5.06435 29.0904 5.06912 29.1162C5.01458 29.099 4.96904 29.0807 5.02411 29.0452C4.95686 29.0361 4.88749 29.0269 4.85413 29.0221C4.99657 28.9721 5.06806 28.8926 5.15543 28.8743C5.08818 28.7964 5.09559 28.6803 4.89597 28.6502C4.86896 28.6298 4.94892 28.6169 4.97857 28.6045C4.99922 28.6158 4.99816 28.6325 5.02676 28.6368C4.97169 28.5954 4.99234 28.4992 4.85572 28.504C4.91079 28.4374 4.98387 28.5228 4.95315 28.4438L4.99551 28.4497C5.19461 28.2589 4.61585 28.2358 4.87002 28.0203C4.85413 28.0354 4.84778 28.0424 4.82501 28.0483C4.92138 27.8263 4.64551 27.6549 4.80542 27.4216C4.83295 27.3577 4.74611 27.3679 4.67463 27.3464L4.78212 27.3131L4.64445 27.2792C4.53537 27.2163 4.88538 27.0793 4.68734 27.011L4.61691 27.0406C4.62274 27.0003 4.54755 26.932 4.6328 26.9186C4.61903 26.918 4.55443 26.924 4.58885 26.9003L4.64604 26.8858L4.52742 26.8165C4.55125 26.7348 4.75565 26.7729 4.74029 26.6633C4.70958 26.6294 4.54596 26.5902 4.51313 26.6176C4.51472 26.6348 4.48877 26.6687 4.43264 26.6848L4.39399 26.6574C4.22666 26.6966 4.05192 26.7246 3.95449 26.8288L4.07045 26.8589L3.99367 26.8982L3.97726 26.8519C3.90736 26.8982 3.97885 26.8976 4.03021 26.9057C3.98838 26.9207 3.95979 26.9358 3.94602 26.9508L4.11917 26.9686C4.05563 26.9906 3.98361 26.9739 3.95555 27.0207C4.03551 27.0293 4.09746 26.96 4.15571 26.9927C4.08528 27.0384 4.02174 27.0449 4.09428 27.0621C4.05192 27.0766 4.0228 27.076 4.00109 27.0675C4.0588 27.0846 4.03974 27.1384 4.13241 27.1341C4.04451 27.183 4.17795 27.2265 4.0175 27.2577C4.05722 27.2588 4.15306 27.283 4.16524 27.3088C3.96455 27.2991 4.17318 27.4114 3.96614 27.4394C4.14459 27.4415 4.06887 27.5538 4.17424 27.6011C4.15994 27.6 4.13082 27.5979 4.13876 27.5909C4.13082 27.6296 4.08051 27.6495 4.05192 27.6791C4.19489 27.6581 4.23725 27.7086 4.33045 27.7242C4.20018 27.793 4.15835 27.7263 4.02862 27.7634C4.14406 27.7409 4.15729 27.8209 4.25102 27.7892C4.17106 27.8381 4.21448 27.8258 4.09958 27.8629C4.27855 27.8392 4.13453 27.8897 4.24943 27.8999C4.16894 27.9639 4.08422 27.9397 4.14723 27.9854C4.0964 28.0198 4.02597 27.9816 4.02597 27.9816" fill="white"/>
<path fill-rule="evenodd" clip-rule="evenodd" d="M10.2642 43.9393C10.2949 43.941 10.2906 43.9625 10.2822 43.9829C10.2711 43.9775 10.2563 43.9727 10.2362 43.9689L10.2272 43.978C10.2399 43.9625 10.2526 43.9485 10.2642 43.9393M10.1864 44.7488C10.17 44.7338 10.1472 44.7187 10.1229 44.7042C10.1367 44.6698 10.162 44.6419 10.1758 44.6531C10.1552 44.6682 10.1795 44.7085 10.1864 44.7488M8.16526 43.5326C8.22933 43.603 8.29181 43.4697 8.36171 43.4283C8.46655 43.4799 8.32623 43.5369 8.30346 43.6143C8.37812 43.639 8.50309 43.5858 8.53539 43.6266C8.52268 43.646 8.52427 43.6594 8.49621 43.6713C8.61958 43.6471 8.66088 43.8148 8.81444 43.7691C8.81074 43.7825 8.80544 43.7933 8.80015 43.8024C8.83509 43.7411 8.8801 43.6874 8.91505 43.6519C8.94682 43.6772 9.02784 43.6358 8.98018 43.7137C8.96377 43.6954 8.93835 43.7212 8.91081 43.7352L8.96906 43.7336C8.91293 43.8567 8.89599 43.7288 8.83298 43.8008C8.92405 43.8255 9.0649 43.8072 9.08926 43.8771C9.01884 43.984 8.95 43.811 8.94206 43.9539L8.89864 43.8508C8.82609 44.0534 8.86157 43.7997 8.77579 44.0088C8.8531 44.1259 8.92988 44.0582 9.00613 44.1748C9.07232 44.1394 9.06331 44.0872 9.1295 44.0518C9.35243 44.0652 9.05167 44.3925 9.26453 44.3425C9.34396 44.2968 9.44933 44.1754 9.47686 44.3022L9.3662 44.3979C9.46045 44.4865 9.54411 44.2743 9.59442 44.4323C9.54358 44.4645 9.48693 44.4113 9.49275 44.4371C9.49752 44.5817 9.58859 44.4075 9.64101 44.4468L9.58012 44.5596C9.69873 44.6295 9.88035 44.6225 10.0164 44.6854C9.98943 44.7128 9.94654 44.7332 9.95555 44.7848C10.1509 44.8284 10.2849 45.0208 10.4136 45.1702L10.5274 45.1062C10.5412 45.1148 10.5311 45.1637 10.5052 45.1739C10.5491 45.2438 10.5412 45.1148 10.592 45.0922C10.6307 45.1041 10.6095 45.1723 10.5714 45.1901C10.7276 45.1664 10.9764 45.1745 11.0426 45.3411L11.0056 45.3588C11.0786 45.4453 11.2015 45.2105 11.2449 45.3411L11.22 45.3518C11.4048 45.4808 11.6659 45.4808 11.7617 45.6995C11.8475 45.5641 11.9402 45.85 12.0291 45.6485C12.1075 45.8006 12.0625 45.8205 12.2081 45.9462C12.2505 45.9704 12.3198 45.8371 12.3823 45.8328L12.3479 45.9435L12.4607 45.8522L12.4591 45.9967L12.5205 45.9855C12.502 45.972 12.4919 45.9215 12.5046 45.8909C12.6015 45.8672 12.6804 46.0311 12.6656 46.0886L12.8869 46.0569C12.8705 46.1005 12.834 46.1053 12.7996 46.1252C12.9357 46.0451 12.7853 46.2483 12.9102 46.1752C12.9044 46.1456 12.9351 46.1112 12.9441 46.0892C12.9717 46.173 13.0807 46.2063 13.1697 46.1934L13.1347 46.2671C13.2772 46.3208 13.4546 46.3015 13.6198 46.3407C13.5679 46.2907 13.6124 46.1596 13.6632 46.1574L13.6558 46.281C13.7029 46.2144 13.6155 46.2246 13.6992 46.1488C13.7569 46.1768 13.7114 46.2939 13.6669 46.3246L13.7506 46.3004C13.7474 46.3369 13.7262 46.352 13.7119 46.3961C13.758 46.3289 13.8168 46.546 13.8882 46.4272L13.8851 46.4638C14.0513 46.5009 14.1334 46.4842 14.2706 46.4944C14.2912 46.3912 14.3405 46.4219 14.395 46.3439C14.4882 46.3912 14.5861 46.489 14.7079 46.4976C14.799 46.4579 14.745 46.4133 14.7916 46.3563C14.7842 46.452 14.9054 46.4606 14.834 46.5197C14.9796 46.5256 15.0209 46.5277 15.2115 46.4767C15.1961 46.4348 15.176 46.4143 15.1914 46.3837C15.2258 46.3724 15.2618 46.4342 15.2517 46.4794L15.2417 46.488C15.4577 46.3832 15.6886 46.8067 15.8702 46.6229L15.8602 46.632L16.0365 46.539C16.1138 46.5611 15.9857 46.6083 16.0386 46.6712C16.2324 46.5234 16.3272 46.7137 16.4834 46.6164C16.5898 46.912 16.8975 46.6207 17.051 46.7938L17.0431 46.7271C17.0849 46.661 17.0923 46.7647 17.122 46.7798C17.1183 46.7282 17.0786 46.7201 17.104 46.6836C17.4482 46.6008 17.8157 46.775 18.1752 46.8319C18.307 46.847 18.2334 46.4912 18.4039 46.6352L18.3637 46.7631C18.6163 46.5928 18.9006 46.7217 19.1453 46.574C19.1331 46.604 19.1357 46.6406 19.1108 46.6427C19.1733 46.7271 19.3115 46.6293 19.3041 46.5562C19.3449 46.5611 19.3211 46.6218 19.3491 46.6567C19.4095 46.7045 19.4725 46.5304 19.5112 46.6169C19.518 46.6309 19.499 46.647 19.4905 46.6551C19.5207 46.6083 19.6562 46.6513 19.6102 46.5514C19.7129 46.5949 19.7865 46.4778 19.8712 46.5283C19.9041 46.4047 20.0423 46.5557 20.0333 46.3907C20.0513 46.5594 20.2218 46.4976 20.2689 46.4084C20.2567 46.4627 20.3298 46.452 20.3176 46.5256C20.3864 46.5116 20.4447 46.4697 20.4172 46.3864C20.5802 46.5637 20.6406 46.1827 20.7603 46.4256C20.9493 46.3085 21.1188 46.187 21.2887 46.1053C21.3221 46.2714 21.0944 46.1736 21.141 46.3445C21.2988 46.2316 21.3618 46.0655 21.5408 46.0612C21.5906 46.072 21.5339 46.1386 21.5265 46.1703C21.68 46.0586 21.8622 46.0989 21.9888 45.9704C21.9925 45.986 21.9813 46.0064 21.9692 46.0225C21.9978 46.0096 22.0459 46.0285 22.0205 45.9559L21.9972 45.9833C21.9199 45.8919 22.0475 45.7243 22.0343 45.6641C22.0496 45.8919 22.1947 45.6657 22.2 45.9586C22.2149 45.9376 22.2281 45.8946 22.208 45.8473C22.2408 45.8516 22.2593 45.8764 22.2482 45.9425C22.3403 45.8651 22.2779 45.8011 22.3721 45.7694C22.3843 45.8043 22.3689 45.8248 22.3732 45.8699C22.3986 45.7839 22.423 45.6985 22.513 45.6995C22.5156 45.7227 22.5341 45.7468 22.5103 45.7549C22.6448 45.6952 22.6771 45.4905 22.8508 45.5028C22.864 45.6689 22.9202 45.534 22.9795 45.6614C23.0017 45.6388 23.0234 45.6168 23.0441 45.5904L22.9874 45.5421C23.0573 45.5131 23.0785 45.3911 23.1547 45.4066L23.1261 45.483L23.2437 45.3997L23.151 45.3841C23.1913 45.2863 23.0748 45.225 23.1796 45.2191C23.1669 45.2406 23.2474 45.1901 23.3152 45.2492V45.2497C23.3311 45.1933 23.3459 45.1352 23.41 45.1438C23.4417 45.1788 23.4634 45.2889 23.4841 45.3121C23.4693 45.1911 23.6302 45.2094 23.6191 45.0777C23.6175 45.1105 23.6482 45.1772 23.6594 45.1884L23.6461 45.0901C23.6901 45.103 23.7017 45.1143 23.7218 45.1691C23.824 45.1406 23.6144 45.024 23.7594 45.0406C23.7547 45.0514 23.7647 45.0621 23.7531 45.0836C23.8844 45.0675 23.9347 44.9138 24.0565 44.9009C24.1529 45.0073 23.9861 44.9805 24.075 45.0659C24.209 44.96 24.2916 44.7483 24.4457 44.6978L24.4123 44.6994C24.3292 44.5172 24.567 44.7268 24.586 44.601C24.577 44.6252 24.622 44.7096 24.6151 44.6881C24.7226 44.6521 24.7751 44.5177 24.8757 44.3721L24.8873 44.4258C24.9662 44.4264 25.0419 44.35 25.1129 44.3291C25.1007 44.2759 25.1383 44.2597 25.0753 44.2135C25.4269 44.3242 25.2987 43.8352 25.5969 43.9067C25.5799 43.9217 25.5831 43.976 25.5974 43.9642L25.6938 43.8239C25.6281 43.7664 25.6429 43.7981 25.5736 43.7685C25.5566 43.7164 25.5656 43.6573 25.5963 43.6326C25.5778 43.7212 25.6863 43.7368 25.7425 43.7524C25.7213 43.7363 25.7107 43.7073 25.6911 43.689C25.8542 43.747 25.5873 43.5493 25.7382 43.5476L25.7642 43.5853C25.7795 43.538 25.7668 43.4665 25.8087 43.4439C25.8902 43.5036 25.8081 43.51 25.8606 43.5724C25.9045 43.5218 25.8245 43.345 25.9347 43.3762C25.9342 43.4154 25.9056 43.4434 25.9045 43.4826C26.0305 43.5229 26.0162 43.4955 26.0639 43.4751L26.0586 43.4767L26.1761 43.4359L26.1338 43.4337C26.0104 43.1929 26.2217 43.2832 26.1703 43.0812C26.2159 43.2719 26.2259 43.1585 26.3022 43.2424C26.3435 43.2424 26.3985 43.2332 26.4134 43.2644C26.3821 43.1628 26.5256 43.2451 26.4774 43.0994C26.5066 43.1215 26.5177 43.0591 26.578 43.1284C26.6024 43.057 26.5198 43.0994 26.4901 43.0645C26.4679 42.9065 26.7708 42.9721 26.7311 42.7393C26.7565 42.5905 26.6744 42.4986 26.6956 42.3674C26.7644 42.368 26.783 42.4722 26.783 42.4722C26.864 42.4502 26.8836 42.4013 26.8841 42.3261C26.9032 42.3545 26.9323 42.3594 26.9762 42.3664C26.9969 42.3185 26.8862 42.2642 26.9667 42.239C26.9942 42.2707 27.0398 42.3185 27.0594 42.3615C27.0652 42.2922 27.0435 42.2078 27.0461 42.1369C27.1081 42.1562 27.1091 42.2213 27.1303 42.261C27.1446 42.1863 27.1759 42.0724 27.1007 42.0041L27.0477 42.0246C27.0562 42.0004 27.1282 42.0573 27.1335 42.0826C27.1706 42.1756 27.061 42.1396 27.0287 42.1224L27.0308 42.0724C26.8312 41.9998 26.9688 42.2374 26.9079 42.3046L26.8004 42.1885L26.8571 42.3341C26.8137 42.3271 26.7358 42.2879 26.7401 42.2395C26.6448 42.2465 26.7554 42.3164 26.6569 42.3105C26.6432 42.3072 26.6384 42.3008 26.6363 42.2927L26.6405 42.3685C26.6209 42.3395 26.5473 42.3121 26.5855 42.296C26.452 42.3261 26.5749 42.5007 26.4584 42.4615L26.4563 42.4486C26.4081 42.5969 26.5373 42.5292 26.5728 42.7017L26.3112 42.5835L26.3895 42.6673C26.3774 42.6765 26.3525 42.6953 26.3212 42.6614C26.3435 42.7544 26.3652 42.6861 26.4001 42.7587C26.2725 42.7458 26.3011 42.943 26.1555 42.8345C26.2021 42.9119 26.2513 42.8264 26.2445 42.9253C26.0856 42.8114 26.2084 43.0161 26.0983 43.0059C26.039 42.9215 26.119 42.9113 26.0099 42.8995C26.1057 43.0451 25.9003 42.9721 25.8833 43.0317C25.9776 43.1284 25.8362 43.1559 25.8007 43.2531C25.7732 43.2166 25.6233 43.3225 25.5291 43.3461L25.5158 43.3273C25.5947 43.4407 25.5143 43.4853 25.4798 43.5466C25.429 43.4826 25.4168 43.4509 25.42 43.4009L25.3734 43.4402C25.3909 43.4821 25.3909 43.5122 25.3708 43.5493L25.3167 43.4611C25.2585 43.5165 25.2675 43.6584 25.1447 43.6718C25.1981 43.7508 25.375 43.8255 25.3263 43.9486C25.2913 43.9104 25.2341 43.8438 25.2431 43.8083C25.24 43.8196 25.2431 43.8642 25.2145 43.8594L25.1955 43.7621C25.1351 43.7626 25.2209 43.8352 25.1865 43.8534C25.142 43.7949 25.1319 43.8303 25.1012 43.7804C25.1039 43.7685 25.1452 43.783 25.1388 43.7508C25.0975 43.768 25.0308 43.7664 24.9842 43.7331C25.0123 43.7637 25.044 43.8121 25.0255 43.8395C24.9657 43.8954 24.9519 43.7879 24.8915 43.7852C24.9053 43.8373 24.8322 43.8239 24.8958 43.9136C24.8757 43.9271 24.8423 43.8878 24.8169 43.8685C24.8116 43.9319 24.6649 43.9916 24.7703 44.0609H24.7835C24.7835 44.0609 24.7819 44.0652 24.7809 44.069V44.0684V44.069C24.7269 44.2393 24.5087 44.1818 24.4219 44.2995L24.4028 44.2678C24.3589 44.3527 24.2593 44.3823 24.2492 44.4817C24.2275 44.4935 24.1651 44.4522 24.1523 44.4092C24.1116 44.464 24.1259 44.5037 24.0178 44.4957C24.0406 44.4086 23.9707 44.4565 24.0501 44.4226C23.9638 44.435 23.9204 44.392 23.8929 44.5236C23.8733 44.4264 23.7843 44.4495 23.7642 44.493L23.8452 44.5247C23.8145 44.5586 23.7774 44.5699 23.7404 44.5817L23.7007 44.4613C23.4952 44.4118 23.5524 44.8289 23.3284 44.6537C23.3258 44.751 23.4359 44.672 23.4444 44.78C23.3671 44.7972 23.2209 44.6677 23.1997 44.6773C23.078 44.6569 23.186 44.8832 23.0684 44.8859C23.0981 44.9208 23.1579 45.024 23.0986 45.0971C23.0218 45.1143 22.9408 44.9649 22.9705 44.9122C22.9853 44.9009 22.9996 44.91 23.0044 44.9246C23.0208 44.8993 23.0425 44.8681 22.9959 44.8364L23.0049 44.8816C22.9525 44.8558 22.8603 44.9036 22.8545 44.8257C22.819 44.8891 22.8598 44.9036 22.9075 44.9068C22.7947 44.8875 22.7703 44.9719 22.6591 44.9627C22.6829 44.9805 22.7158 45.024 22.7004 45.0288C22.5421 45.0267 22.6697 45.1293 22.5818 45.1815C22.504 45.1374 22.5442 45.0229 22.4695 45.11C22.3959 45.0874 22.4171 45.0036 22.4277 44.9616C22.3711 45.0724 22.2493 44.9654 22.1963 44.9676L22.2292 44.9176C22.2096 44.9471 22.1878 44.9547 22.1656 44.9622L22.2196 45.0369C22.1884 45.032 22.1661 45.0396 22.1545 45.0041C22.1455 45.0691 22.2228 45.1368 22.1937 45.2314C22.1444 45.2013 22.1005 45.3164 22.0518 45.2083C22.1751 45.2067 22.003 45.1003 22.0904 45.0487C22.0772 45.0686 22.0549 45.0761 22.0237 45.0702C22.0152 45.0595 22.0195 45.046 22.0248 45.0369C21.8876 44.974 22.0173 45.1815 21.9061 45.218C21.9009 45.1492 21.8437 45.1067 21.8304 45.1266C21.8749 45.1121 21.8839 45.225 21.858 45.2884C21.7716 45.2637 21.7902 45.3475 21.7499 45.3529L21.8008 45.3647C21.805 45.4324 21.7658 45.4335 21.7203 45.4668C21.7018 45.4185 21.7568 45.4206 21.7319 45.404C21.707 45.5308 21.571 45.3206 21.5132 45.4169C21.4651 45.383 21.4772 45.297 21.4375 45.276C21.3719 45.3825 21.32 45.2126 21.2458 45.3056C21.294 45.3851 21.294 45.3626 21.2495 45.4641L21.3867 45.3636L21.321 45.5147C21.3676 45.5039 21.4042 45.4351 21.4359 45.4426C21.4079 45.5249 21.4068 45.5023 21.4476 45.5684C21.3507 45.455 21.3406 45.677 21.2443 45.6082L21.1939 45.3932C21.0626 45.3255 21.0261 45.5539 20.8709 45.5372L20.9255 45.5625C20.925 45.6533 20.8397 45.5974 20.8005 45.6442C20.7899 45.5711 20.7555 45.5523 20.7264 45.5098C20.7396 45.563 20.62 45.5227 20.6353 45.67L20.5516 45.5856C20.4272 45.5663 20.4563 45.8156 20.3372 45.8103C20.3578 45.7253 20.297 45.6823 20.3621 45.613C20.325 45.6184 20.289 45.6109 20.297 45.6614C20.2673 45.6195 20.2091 45.7775 20.1625 45.7141C20.1524 45.749 20.1598 45.8264 20.1159 45.8275C20.109 45.8135 20.11 45.7914 20.11 45.7914C20.1159 45.8275 20.0507 45.8522 20.101 45.9263C19.9491 45.7184 19.7749 45.9989 19.6462 45.8205C19.5673 45.8618 19.4683 45.8871 19.3931 45.9011C19.3957 45.8785 19.3888 45.8645 19.4047 45.871C19.2925 45.8113 19.3634 46.0876 19.2347 46.022C19.1617 45.9081 19.2919 45.9521 19.249 45.9102C19.2077 45.6694 19.1082 45.9554 19.0145 45.821L19.033 45.8054C18.9647 45.728 18.8922 45.9102 18.7905 45.9016C18.7905 45.9016 18.7931 45.8796 18.7884 45.8651C18.7291 45.9946 18.6014 46.0467 18.5061 46.0897C18.531 45.9919 18.5474 46.0354 18.5236 45.9409C18.4807 45.958 18.5459 46.0946 18.4606 46.129C18.4288 46.0795 18.3637 46.0397 18.3505 45.9371L18.4315 45.9242C18.3822 45.7947 18.3266 45.9382 18.2827 45.9188L18.2848 45.8597C18.162 45.8844 18.1657 46.0285 18.0301 46.0199L18.0455 46.0639C17.9766 46.2106 17.9809 45.9828 17.9104 46.0913L17.8845 45.9435C17.8374 45.9801 17.7177 46.0886 17.6298 46.1166C17.678 46.007 17.7786 45.95 17.84 45.8844C17.7924 45.8833 17.6774 45.8968 17.6536 45.9699C17.6727 45.9548 17.6965 45.9188 17.7156 45.9414C17.6594 46.058 17.5816 46.1161 17.4852 46.1144C17.5001 45.8275 17.2332 46.0446 17.1654 45.8221C16.996 45.9263 16.8313 45.7893 16.637 45.7871C16.6984 46.0145 16.5798 45.7898 16.5829 46.0193C16.5363 46.0311 16.5194 46.0258 16.5157 46.0107L16.3833 45.8651C16.3537 45.7963 16.4289 45.8178 16.4273 45.7656C16.3288 45.742 16.3902 45.6662 16.3282 45.6012C16.3372 45.684 16.2875 45.7162 16.2329 45.6813L16.306 45.792C16.1599 45.9043 16.198 45.5921 16.0513 45.7033L16.1 45.6345C16.0254 45.6721 15.8369 45.6157 15.7505 45.7947C15.7405 45.7673 15.7288 45.7038 15.7622 45.6893C15.5933 45.6565 15.3608 45.8543 15.2406 45.7184L15.2607 45.6641C15.2269 45.6759 15.193 45.7608 15.1596 45.699C15.1649 45.6764 15.1792 45.6453 15.1649 45.6399C15.1464 45.6565 15.0685 45.7253 15.0304 45.6866L15.0749 45.6297C14.9197 45.5329 14.7995 45.7447 14.6523 45.7624C14.6783 45.599 14.5565 45.5276 14.4967 45.4921L14.503 45.4695C14.3134 45.4281 14.1572 45.5399 13.9656 45.5657C13.8941 45.3658 13.6118 45.4077 13.4609 45.2707C13.4805 45.3056 13.4255 45.3943 13.39 45.4029C13.3577 45.3615 13.247 45.4878 13.292 45.3432L13.3058 45.3491C13.3116 45.2013 13.2216 45.2099 13.1586 45.1868L13.0945 45.3733C13.0071 45.0439 12.6195 45.3325 12.6058 45.0584C12.5496 45.0922 12.4999 45.0756 12.4432 45.1094L12.4803 45.01C12.376 44.9514 12.3278 44.916 12.1859 44.8832L12.2393 44.8235C12.1679 44.7864 12.036 45.0697 11.9624 45.0455L11.9989 44.8896C11.865 44.8364 11.7871 44.6542 11.5997 44.7311C11.6113 44.7112 11.6336 44.6709 11.6574 44.6736C11.5949 44.6483 11.4673 44.4704 11.3985 44.6757C11.4562 44.5467 11.274 44.5956 11.1771 44.615L11.2333 44.5274C11.1168 44.6166 11.0982 44.6478 10.9997 44.6381C10.986 44.6155 11.0209 44.5553 11.0342 44.5919C10.9945 44.5102 10.9383 44.6537 10.8854 44.5634L10.9452 44.5199C10.8827 44.4779 10.8716 44.5123 10.798 44.5618C10.736 44.5763 10.6831 44.4731 10.7202 44.385C10.6836 44.4296 10.6111 44.4747 10.5867 44.4269C10.6 44.393 10.6243 44.3823 10.636 44.3774C10.5666 44.2495 10.4173 44.3817 10.3966 44.2479C10.413 44.2178 10.4173 44.2001 10.4168 44.1872C10.4988 44.242 10.5634 44.2898 10.5534 44.2925C10.6016 44.2092 10.5438 44.1528 10.664 44.0727C10.5751 44.1017 10.4009 44.1775 10.359 44.0974C10.3606 44.0878 10.3622 44.0781 10.3675 44.0641L10.3802 44.0593C10.3702 44.0416 10.3522 44.0405 10.3304 44.0464C10.3183 44.0195 10.3114 44.0018 10.2923 43.9878C10.3273 43.9163 10.2388 43.904 10.2081 43.8798C10.1525 43.969 10.1181 43.9271 10.1112 44.0254C10.1102 44.0158 10.1245 44.0184 10.1493 44.0292C10.1562 44.0297 10.1631 44.0324 10.1695 44.0292L10.1626 44.0356C10.1864 44.048 10.2161 44.0641 10.2505 44.0824C10.1949 44.1103 10.1419 44.1302 10.1366 44.0582C10.08 44.1023 10.0228 44.1474 9.99526 44.1689C10.0297 44.0174 9.99208 43.8862 10.0323 43.8051C9.90154 43.7804 9.78398 43.667 9.60289 43.7771C9.55947 43.7761 9.60501 43.7078 9.61401 43.6761C9.64154 43.6723 9.65849 43.689 9.68443 43.6729C9.59865 43.6713 9.50811 43.567 9.41173 43.66C9.38473 43.5536 9.5277 43.5939 9.42338 43.5321L9.46204 43.51C9.4345 43.187 8.9357 43.5251 8.93835 43.1279C8.93941 43.1537 8.93994 43.1661 8.92723 43.1854C8.80121 42.8887 8.40778 42.8157 8.37018 42.4561C8.34688 42.3674 8.27646 42.4131 8.19279 42.4137L8.26957 42.3293L8.11496 42.3384C7.96193 42.2917 8.20762 42.0047 7.97887 41.9767L7.92751 42.0358C7.90844 41.9799 7.79089 41.9085 7.86979 41.8703C7.85443 41.873 7.79301 41.8961 7.81578 41.8563L7.86449 41.8235L7.70935 41.7558C7.69399 41.6419 7.9148 41.6526 7.85655 41.5183C7.81048 41.4796 7.63839 41.4613 7.61033 41.4925C7.61668 41.5124 7.6008 41.5575 7.54943 41.5865L7.49913 41.5511C7.33975 41.6134 7.15124 41.6333 7.11682 41.837L7.25767 41.8821L7.20048 41.9531L7.15495 41.8757C7.10835 41.9579 7.18513 41.9558 7.2439 41.9611C7.20896 41.9902 7.18936 42.0181 7.18566 42.0444L7.37787 42.0477C7.32598 42.0933 7.2402 42.0772 7.24232 42.1562C7.33127 42.1568 7.34928 42.0385 7.43029 42.0788C7.38793 42.1616 7.32651 42.1847 7.41388 42.196C7.38105 42.2261 7.35087 42.232 7.32174 42.2234C7.39429 42.2374 7.41388 42.3239 7.50443 42.2943C7.452 42.3905 7.61774 42.4212 7.48113 42.5115C7.52084 42.5034 7.63786 42.5077 7.67016 42.5405C7.46259 42.5899 7.7623 42.6851 7.58332 42.7952C7.75965 42.7383 7.77977 42.9301 7.92804 42.9489C7.91374 42.9532 7.88409 42.9624 7.88462 42.9489C7.91321 43.0054 7.88462 43.0537 7.88515 43.1064C8.00058 43.0172 8.08742 43.0677 8.18697 43.0462C8.13137 43.1978 8.03023 43.1263 7.94498 43.2343C8.03076 43.1526 8.11813 43.2558 8.17373 43.1693C8.14726 43.2719 8.17426 43.2359 8.10754 43.3402C8.24627 43.2225 8.16738 43.3574 8.28122 43.3144C8.27434 43.4359 8.17426 43.4488 8.27752 43.4756C8.26851 43.5466 8.16526 43.5326 8.16526 43.5326" fill="white"/>
<path fill-rule="evenodd" clip-rule="evenodd" d="M29.4704 28.6675C29.4704 28.6385 29.4661 28.603 29.4598 28.5659C29.4947 28.553 29.5322 28.5568 29.5338 28.5804C29.5079 28.5708 29.4952 28.6283 29.4704 28.6675V28.6675ZM30.1229 28.1077C30.1398 28.1416 30.1203 28.155 30.0991 28.162C30.0965 28.1453 30.0917 28.1265 30.0833 28.1018L30.0706 28.0991C30.0907 28.1007 30.1092 28.1029 30.1229 28.1077V28.1077ZM29.4344 28.435C29.4286 28.4113 29.4233 28.3914 29.4201 28.378C29.4238 28.3898 29.4281 28.406 29.4365 28.4344L29.4344 28.435ZM29.3249 25.7286C29.3524 25.8742 29.2195 25.785 29.147 25.8275C29.1761 25.921 29.2968 25.9994 29.2868 26.065C29.264 26.0682 29.255 26.0806 29.228 26.0634C29.3297 26.165 29.2142 26.3439 29.3429 26.4606C29.3297 26.4681 29.3186 26.4713 29.308 26.4729C29.3773 26.4584 29.4467 26.4595 29.4959 26.4654C29.4938 26.5181 29.5759 26.5664 29.4875 26.5831C29.4907 26.5509 29.4541 26.5466 29.4271 26.5299L29.4647 26.5869C29.336 26.632 29.4208 26.5095 29.3281 26.5052C29.3657 26.6164 29.4721 26.7459 29.4345 26.8282C29.3085 26.8427 29.3943 26.6315 29.282 26.7406L29.3307 26.6121C29.1322 26.7046 29.3461 26.5331 29.1332 26.6175C29.0946 26.7895 29.1952 26.812 29.156 26.984C29.2254 27.0227 29.2598 26.9722 29.3286 27.0109C29.4515 27.2517 29.0109 27.2044 29.1766 27.3823C29.263 27.4274 29.4223 27.4403 29.3461 27.5698L29.2015 27.5311C29.1968 27.6999 29.4107 27.6177 29.3254 27.7961C29.2677 27.7687 29.2709 27.6676 29.2555 27.694C29.1502 27.8133 29.3403 27.7698 29.345 27.8557L29.2206 27.8821C29.2518 28.0594 29.3461 28.247 29.4022 28.4383C29.3636 28.4319 29.3201 28.4023 29.2884 28.4534C29.389 28.6931 29.3387 28.9838 29.3164 29.2402L29.4446 29.3084C29.4483 29.3299 29.4065 29.3584 29.38 29.3396C29.3625 29.4417 29.4483 29.3299 29.5007 29.3649C29.5208 29.4154 29.4568 29.4482 29.4165 29.4224C29.5484 29.5669 29.7173 29.8324 29.6548 30.0351L29.6124 30.0125C29.6183 30.1576 29.8777 30.0877 29.8258 30.2387L29.7988 30.2226C29.8693 30.5161 30.0445 30.7907 30.027 31.0583C30.1864 31.0234 30.1118 31.3566 30.3103 31.2642C30.2997 31.4689 30.2426 31.4464 30.3024 31.7016C30.3294 31.764 30.4745 31.7033 30.5407 31.7527L30.4496 31.822L30.6137 31.836L30.5417 31.9655L30.6127 32.0069C30.5989 31.979 30.6127 31.9247 30.6418 31.908C30.7546 31.9666 30.7599 32.1832 30.7181 32.2256L30.9669 32.3799C30.9304 32.4073 30.8896 32.3815 30.8446 32.3724C31.0268 32.4062 30.7689 32.4847 30.9463 32.5056C30.9505 32.475 31.0024 32.4637 31.0209 32.4492C31.0236 32.5433 31.1438 32.6491 31.2508 32.7029L31.1819 32.7475C31.3355 32.898 31.5399 33.0227 31.7347 33.1511C31.6823 33.0786 31.7771 32.9754 31.8422 32.9969L31.7988 33.1119C31.8772 33.0705 31.7628 33.0388 31.8899 33.0055C31.9561 33.0592 31.866 33.1511 31.8009 33.1592L31.9153 33.1764C31.9021 33.2102 31.8698 33.214 31.8401 33.25C31.9164 33.207 31.9397 33.4478 32.0614 33.3655L32.0487 33.3999C32.2558 33.5182 32.3686 33.5332 32.5385 33.6208C32.5857 33.5289 32.6381 33.5821 32.7186 33.5241C32.8208 33.6079 32.915 33.7423 33.0569 33.7987C33.1761 33.796 33.1226 33.7305 33.192 33.6939C33.1602 33.7842 33.3021 33.8401 33.202 33.8697C33.3741 33.9331 33.4234 33.9487 33.6648 33.9793C33.659 33.9325 33.641 33.9046 33.668 33.8815C33.7125 33.8858 33.7368 33.961 33.7114 33.9997L33.6971 34.0035C33.9931 33.9917 34.1091 34.5226 34.3812 34.4361L34.3669 34.4399L34.6015 34.449C34.6794 34.5119 34.5168 34.484 34.5528 34.5721C34.8271 34.5431 34.8562 34.7688 35.0723 34.7677C35.0627 35.0767 35.516 35.0241 35.5864 35.2783L35.6134 35.217C35.6913 35.1891 35.6436 35.281 35.6658 35.3138C35.6902 35.2675 35.6531 35.2342 35.6992 35.2213C36.0953 35.3954 36.3463 35.8141 36.5951 36.1409C36.6936 36.2537 36.9023 35.9538 36.9176 36.2107L36.7932 36.2548C36.9451 36.3182 37.0505 36.4381 37.149 36.5579C37.2332 36.6896 37.3137 36.8186 37.4514 36.9089C37.4175 36.9094 37.3862 36.9293 37.3703 36.9051C37.3365 37.0013 37.4905 37.1023 37.5509 37.0701C37.5657 37.1163 37.4995 37.1131 37.4805 37.1566C37.4635 37.2378 37.6536 37.2432 37.5917 37.3152C37.5811 37.327 37.5578 37.313 37.5467 37.306C37.6033 37.3222 37.6256 37.4802 37.6992 37.4001C37.7129 37.5172 37.8268 37.5834 37.8077 37.6914C37.9359 37.7037 37.8284 37.8945 37.9867 37.8542C37.8284 37.9058 37.9343 38.0864 38.0243 38.1374C37.9698 38.1294 37.9931 38.2159 37.9179 38.2095C37.9433 38.289 37.9946 38.3535 38.0725 38.3153C37.9216 38.5196 38.3214 38.5738 38.0868 38.7281C38.2239 38.9565 38.3425 39.1747 38.4177 39.4004C38.2557 39.4203 38.3558 39.1489 38.1842 39.1935C38.2986 39.3913 38.45 39.4993 38.4474 39.7229C38.4341 39.7831 38.3717 39.7025 38.3399 39.688C38.4426 39.8965 38.3928 40.1125 38.5035 40.2996C38.4876 40.3012 38.468 40.2818 38.4532 40.2635C38.4633 40.3017 38.4394 40.3571 38.5141 40.3431L38.4892 40.3076C38.5914 40.2308 38.7354 40.4339 38.7937 40.4345C38.5713 40.3941 38.7635 40.6376 38.4786 40.565C38.4961 40.5892 38.5353 40.6172 38.5851 40.6048C38.5745 40.6451 38.5469 40.6607 38.485 40.6285C38.5427 40.7634 38.6163 40.7048 38.6301 40.8322C38.5941 40.8359 38.5766 40.8117 38.5321 40.8031C38.6115 40.8596 38.6894 40.9165 38.6682 41.0283C38.6454 41.024 38.6179 41.0396 38.6163 41.0074C38.6444 41.1917 38.8355 41.3051 38.7857 41.5158C38.6216 41.4712 38.7402 41.5905 38.6041 41.6141L38.6555 41.72L38.718 41.6695C38.7248 41.7657 38.8329 41.8415 38.7942 41.9285L38.7317 41.8619L38.7725 42.0403L38.8159 41.9339C38.8953 42.0247 38.9896 41.9076 38.9615 42.0398C38.9457 42.0145 38.9679 42.1365 38.8911 42.1935H38.8906C38.9382 42.2376 38.9885 42.2827 38.9599 42.3569C38.9176 42.3794 38.8069 42.3553 38.7789 42.3698C38.8975 42.4068 38.8292 42.5928 38.9562 42.6422C38.9255 42.625 38.854 42.6299 38.8392 42.6374L38.9361 42.6691C38.9102 42.7164 38.8964 42.7245 38.8376 42.7218C38.8323 42.8578 39.0087 42.6648 38.9472 42.8309C38.9382 42.8185 38.925 42.8255 38.9081 42.8008C38.8837 42.9669 39.0076 43.1136 38.9806 43.2705C38.8503 43.3398 38.9287 43.1415 38.8202 43.2114C38.8694 43.4398 39.077 43.6322 39.0881 43.8482L39.0929 43.8053C39.2872 43.7821 39.0447 43.9826 39.1643 44.06C39.1426 44.0396 39.05 44.0589 39.0727 44.0595C39.0801 44.1465 39.1273 44.2282 39.1887 44.3137C39.4217 44.4867 39.6552 44.6592 39.8765 44.8393C39.9004 44.8221 39.9374 44.8119 39.9422 44.771C39.8861 44.7673 39.9072 44.684 39.8061 44.7243C39.7939 44.6952 39.8389 44.67 39.8617 44.648C39.7971 44.6146 39.7595 44.4109 39.6727 44.512L39.67 44.5281L39.6626 44.5217C39.4958 44.3873 39.5869 44.1433 39.4953 43.9853L39.5297 43.9745C39.4609 43.8832 39.4323 43.7537 39.3428 43.6978C39.3359 43.6666 39.3904 43.6075 39.4355 43.6107C39.391 43.5376 39.3486 43.5371 39.382 43.4092C39.4619 43.4753 39.4307 43.3694 39.446 43.4806C39.4545 43.3705 39.5032 43.3382 39.3846 43.2463C39.481 43.2667 39.4905 43.1501 39.4566 43.1066L39.4 43.1883C39.3793 43.1356 39.3814 43.0862 39.3825 43.0367L39.5075 43.0459C39.6266 42.8363 39.2109 42.6868 39.4466 42.4939C39.356 42.4418 39.3963 42.6207 39.2914 42.5761C39.2999 42.4719 39.4667 42.3493 39.464 42.3171C39.5207 42.1698 39.275 42.2005 39.3089 42.0484C39.2671 42.0715 39.1516 42.0994 39.1013 41.9925C39.1093 41.8882 39.2745 41.8495 39.3147 41.9119C39.3205 41.936 39.3073 41.9495 39.2925 41.9495C39.311 41.9812 39.3333 42.0237 39.3772 41.9785L39.3327 41.9688C39.373 41.914 39.3566 41.7721 39.4312 41.799C39.3825 41.7248 39.3566 41.7721 39.3391 41.8323C39.3904 41.6937 39.3216 41.6243 39.3507 41.4841C39.329 41.5082 39.2798 41.5324 39.2782 41.5109C39.3131 41.3056 39.1871 41.4309 39.1553 41.297C39.2141 41.2137 39.3168 41.3089 39.248 41.1783C39.2845 41.0901 39.3618 41.1487 39.4005 41.1783C39.3047 41.0622 39.4333 40.9391 39.4423 40.866L39.4836 40.9284C39.4588 40.8913 39.4561 40.859 39.454 40.8262L39.3698 40.873C39.382 40.8327 39.3788 40.7999 39.4148 40.7967C39.3528 40.7628 39.2734 40.8429 39.1866 40.7725C39.2242 40.7161 39.1204 40.6215 39.2337 40.5903C39.2136 40.7569 39.347 40.5586 39.3825 40.694C39.3656 40.6693 39.3624 40.6365 39.373 40.5962C39.3851 40.5887 39.3973 40.5989 39.4053 40.6086C39.49 40.4404 39.266 40.5521 39.2496 40.3909C39.3174 40.4033 39.3682 40.3383 39.3518 40.3135C39.3581 40.3791 39.2469 40.3581 39.1898 40.3055C39.2284 40.1958 39.1389 40.1985 39.1384 40.1437L39.122 40.2082C39.0547 40.1958 39.0574 40.1437 39.0283 40.0749C39.078 40.062 39.0706 40.1351 39.0897 40.1066C38.9674 40.0432 39.1866 39.9105 39.0907 39.8094C39.1262 39.7519 39.212 39.7863 39.2342 39.7363C39.1305 39.624 39.3015 39.5864 39.212 39.4649C39.1305 39.5176 39.1527 39.5203 39.0537 39.4423L39.1485 39.6482L39.0007 39.5305C39.0097 39.595 39.077 39.6584 39.068 39.6998C38.987 39.645 39.0097 39.6487 38.9419 39.6906C39.0584 39.5815 38.8387 39.5283 38.9107 39.4117L39.1262 39.3773C39.1998 39.2043 38.9721 39.1215 38.9811 38.9108L38.9578 38.9828C38.8668 38.9737 38.9197 38.8619 38.8715 38.8044C38.9441 38.7947 38.961 38.7485 38.9997 38.7104C38.9472 38.7259 38.9727 38.5609 38.8276 38.5771L38.9017 38.4642C38.8975 38.2917 38.6491 38.3347 38.6301 38.1767C38.7195 38.2003 38.7487 38.1154 38.8334 38.2036C38.8186 38.1514 38.818 38.1009 38.7699 38.1143C38.8043 38.0708 38.6343 38.0009 38.6862 37.9327C38.6497 37.9209 38.575 37.9381 38.5644 37.8789C38.5766 37.8682 38.5983 37.8677 38.5983 37.8677C38.5644 37.8789 38.5263 37.794 38.4638 37.8703C38.6226 37.6392 38.2853 37.4549 38.413 37.2437C38.3499 37.1432 38.253 37.0319 38.2017 36.9395C38.2245 36.9352 38.2345 36.9223 38.2372 36.9438C38.2276 36.7799 38.0116 36.9653 38.001 36.7831C38.064 36.6477 38.0974 36.8288 38.1111 36.7589C38.3102 36.6127 37.9883 36.5972 38.037 36.4311L38.0645 36.4461C38.0825 36.3268 37.8681 36.3204 37.8024 36.1946C37.8024 36.1946 37.8236 36.1876 37.8321 36.1737C37.6849 36.1624 37.5334 36.0565 37.4207 35.9796C37.5186 35.9485 37.498 35.9925 37.5536 35.9103C37.5038 35.8738 37.4487 36.0242 37.3513 35.9538C37.3645 35.8904 37.3407 35.7948 37.4069 35.7152L37.4874 35.798C37.5451 35.6631 37.3846 35.6883 37.3619 35.6276L37.4085 35.5927C37.275 35.4739 37.1654 35.5868 37.0389 35.4519L37.0235 35.497C36.8525 35.5368 37.015 35.3788 36.87 35.3922L36.943 35.26C36.8705 35.2396 36.6804 35.209 36.5671 35.1649C36.6883 35.1165 36.8329 35.16 36.9377 35.174C36.8906 35.124 36.7588 35.0311 36.6846 35.0708C36.7148 35.0757 36.7635 35.0676 36.7709 35.1015C36.6338 35.1423 36.5162 35.1246 36.414 35.0445C36.601 34.8306 36.1879 34.7779 36.2314 34.5441C35.9777 34.5065 35.866 34.2555 35.6261 34.1223C35.5954 34.3657 35.5562 34.0862 35.4556 34.2942C35.3942 34.2765 35.3751 34.262 35.3778 34.2459L35.2809 34.0352C35.2735 33.9551 35.3566 34.0201 35.3767 33.9729C35.265 33.8901 35.373 33.86 35.3227 33.7622C35.2999 33.8428 35.2248 33.8412 35.1713 33.7751L35.2173 33.9218C34.9928 33.9352 35.1628 33.6719 34.9367 33.6832L35.0235 33.6499C34.9182 33.6348 34.7 33.4768 34.5322 33.5983C34.5284 33.5665 34.5353 33.5004 34.5814 33.5053C34.3823 33.3741 34.0291 33.4456 33.9147 33.2629L33.9545 33.2199C33.9079 33.2156 33.8411 33.2828 33.8152 33.2092C33.8279 33.1893 33.8544 33.1656 33.838 33.1543C33.8083 33.1619 33.6918 33.1946 33.6526 33.1409L33.7236 33.1044C33.5467 32.942 33.3429 33.0974 33.1554 33.0528C33.2227 32.9023 33.0808 32.7781 33.0103 32.7163L33.022 32.6959C32.8192 32.5621 32.6143 32.6201 32.3786 32.5637C32.3654 32.4498 32.2674 32.3869 32.171 32.3057C32.081 32.2154 31.9762 32.1262 31.9259 32.0171C31.9317 32.0612 31.8406 32.1117 31.7988 32.0983C31.7813 32.0392 31.6119 32.0881 31.7194 31.9816L31.7316 31.9962C31.8004 31.8613 31.6955 31.8236 31.6352 31.7683L31.4853 31.8973C31.5595 31.5313 31.0395 31.5039 31.1639 31.2534C31.0893 31.2427 31.0501 31.1895 30.9871 31.1669L31.076 31.1115C31.0278 30.9675 31.0051 30.8982 30.8955 30.752L30.9791 30.7477C30.9373 30.6579 30.6503 30.7789 30.5963 30.6939L30.7218 30.5988C30.6307 30.4387 30.7117 30.206 30.5105 30.092C30.5333 30.0872 30.5772 30.0759 30.5936 30.1012C30.5666 30.0184 30.5772 29.7593 30.3845 29.855C30.51 29.812 30.341 29.6707 30.26 29.5858L30.3633 29.5734C30.2161 29.5261 30.1806 29.532 30.1171 29.4234C30.1224 29.3923 30.1907 29.3788 30.1743 29.4224C30.2039 29.317 30.0615 29.3729 30.0874 29.2477L30.1621 29.2746C30.1462 29.1778 30.1139 29.1934 30.026 29.1569C29.9688 29.1047 30.008 28.9682 30.1012 28.9365C30.0435 28.9344 29.9614 28.8935 29.9799 28.8307C30.0133 28.8167 30.0376 28.8344 30.0498 28.843C30.0964 28.6694 29.8978 28.6173 29.982 28.4899C30.0149 28.4835 30.0313 28.4738 30.0398 28.463C30.0556 28.5926 30.0646 28.6979 30.0556 28.6893C30.1494 28.6737 30.1515 28.5689 30.2929 28.6307C30.2103 28.5609 30.0366 28.4389 30.0668 28.3314C30.0752 28.3255 30.0832 28.3196 30.0975 28.3142L30.1091 28.3233C30.1155 28.2991 30.1033 28.2792 30.0853 28.2615C30.0964 28.2277 30.1044 28.2062 30.1012 28.175C30.178 28.1556 30.1372 28.0514 30.1377 27.9992C30.0339 28.0121 30.0472 27.9417 29.9656 28.0132C29.972 28.0041 29.9783 28.0224 29.9847 28.0567C29.9884 28.0648 29.99 28.0739 29.9963 28.0782L29.9873 28.0756C29.9916 28.1105 29.9974 28.1551 30.0037 28.2062C29.9444 28.1707 29.901 28.1298 29.954 28.0659C29.8862 28.0449 29.8158 28.0202 29.7829 28.0057C29.9233 27.9202 29.9932 27.7762 30.0811 27.752C30.0165 27.5951 30.0159 27.379 29.8264 27.2791C29.802 27.2323 29.883 27.2243 29.9137 27.2071C29.9328 27.2339 29.9296 27.2656 29.9577 27.2791C29.9084 27.1877 29.9418 27.0066 29.8057 26.9829C29.8682 26.8663 29.9301 27.0501 29.9095 26.8894L29.9508 26.9115C30.1663 26.6084 29.6172 26.3826 29.9222 26.0473C29.9031 26.0698 29.8947 26.0817 29.8714 26.0849C30.0165 25.6985 29.8354 25.2449 30.0874 24.8816C30.1441 24.7768 30.0593 24.751 30.0053 24.672L30.1192 24.6666L30.0106 24.5279C29.9455 24.3447 30.3331 24.2968 30.1976 24.055L30.1187 24.0663C30.1451 23.9948 30.1245 23.8217 30.2066 23.8529C30.1949 23.8422 30.1361 23.8115 30.1806 23.7911L30.2378 23.8024L30.1817 23.5971C30.2553 23.4676 30.4009 23.6734 30.4612 23.4767C30.4575 23.3961 30.3522 23.2241 30.3077 23.2386C30.2971 23.2676 30.2521 23.3047 30.1949 23.2918L30.1848 23.2144C30.0228 23.1543 29.8698 23.0425 29.704 23.1962L29.7745 23.3477L29.6834 23.3676L29.7051 23.2607C29.6146 23.3004 29.6717 23.3563 29.7072 23.4101C29.6617 23.4095 29.6273 23.4192 29.6056 23.4402L29.7379 23.6009C29.6691 23.6003 29.6199 23.5154 29.5658 23.589C29.6273 23.6632 29.7247 23.5686 29.7522 23.674C29.6627 23.7159 29.6045 23.6847 29.6543 23.7691C29.6087 23.7691 29.5844 23.7481 29.5717 23.7164C29.6087 23.79 29.5568 23.8862 29.641 23.9373C29.5346 23.9798 29.6251 24.1523 29.4668 24.1141C29.5012 24.1415 29.5706 24.2485 29.5664 24.3065C29.3937 24.1662 29.5161 24.5188 29.317 24.4554C29.4774 24.5634 29.3493 24.7515 29.4234 24.9047C29.4112 24.8945 29.3853 24.8751 29.3959 24.8644C29.3699 24.9396 29.3133 24.9547 29.273 25.0003C29.4155 25.031 29.434 25.1573 29.5145 25.2336C29.3652 25.3115 29.353 25.1541 29.2169 25.1659C29.3334 25.1766 29.3127 25.3486 29.4139 25.3276C29.3196 25.3905 29.3652 25.3857 29.2412 25.4093C29.4192 25.4432 29.2635 25.4814 29.3673 25.5544C29.2661 25.6506 29.1952 25.5641 29.237 25.6867C29.1745 25.7366 29.1237 25.6259 29.1237 25.6259C29.1068 25.7458 29.2497 25.6953 29.3249 25.7286V25.7286Z" fill="white"/>
</mask>
<g mask="url(#mask0_18_140)">
<rect x="-13.2717" y="-10.1476" width="59.3056" height="63.4175" fill="white"/>
</g>
</svg>
