<svg width="36" height="48" viewBox="0 0 36 48" fill="none" xmlns="http://www.w3.org/2000/svg">
<path fill-rule="evenodd" clip-rule="evenodd" d="M24.9918 17.2958L14.4381 27.7414L11.1084 24.4458L21.6621 14.0002L24.9918 17.2958ZM3.88428 17.2958L14.438 6.85025L21.1612 13.5045L10.6075 23.9501L3.88428 17.2958ZM34.7018 0.102488L21.6618 13.0088L14.4378 5.85877L2.88226 17.2958L10.1063 24.4458L0 34.4491L13.0612 47.377C13.1303 47.4453 13.2211 47.4797 13.3114 47.4797C13.4023 47.4797 13.4931 47.4453 13.5616 47.377C13.7002 47.2403 13.7002 47.0184 13.5616 46.8812L1.00124 34.4491L10.6072 24.9411L14.4378 28.7329L25.9933 17.2958L22.1622 13.5045L35.2027 0.598232C35.3407 0.461068 35.3407 0.239139 35.2027 0.102488C35.0641 -0.0341627 34.8404 -0.0341627 34.7018 0.102488Z" fill="white"/>
</svg>
