<svg width="47" height="33" viewBox="0 0 47 33" fill="none" xmlns="http://www.w3.org/2000/svg">
<path fill-rule="evenodd" clip-rule="evenodd" d="M36.3345 25.6826L26.6564 16.1032L34.0263 8.80831L45.6914 20.3538L34.0263 31.9002L22.3613 20.3538L26.1555 16.5989L35.8337 26.1784C35.9032 26.2467 35.9935 26.2811 36.0844 26.2811C36.1747 26.2811 36.2655 26.2467 36.3345 26.1784C36.4731 26.0412 36.4731 25.8198 36.3345 25.6826ZM34.0263 32.8912L46.693 20.3538L34.0263 7.81735L26.1555 15.6075L10.3864 0L0.103549 10.1769C-0.0345165 10.314 -0.0345165 10.536 0.103549 10.6726C0.242134 10.8093 0.466362 10.8093 0.604428 10.6726L10.3864 0.991488L25.6546 16.1032L21.3595 20.3538L34.0263 32.8912Z" fill="white"/>
</svg>
