<svg width="39" height="41" viewBox="0 0 39 41" fill="none" xmlns="http://www.w3.org/2000/svg">
<path fill-rule="evenodd" clip-rule="evenodd" d="M38.4572 16.5209C38.4572 16.5209 32.7443 7.87756 28.6063 4.09011C24.4698 0.302656 20.401 -0.561113 16.4606 0.312915C15.983 0.419091 15.5117 0.581176 15.0487 0.794041C15.0757 0.647343 15.1054 0.480129 15.1392 0.290859C13.5634 0.801734 10.6807 1.8558 7.52797 3.60437C4.79772 5.11853 1.74595 7.70214 0 9.26913L6.13267 16.9056C4.62655 25.4253 4.27123 39.5795 4.27123 39.5795C4.27123 39.5795 8.8083 40.0996 17.4761 40.1971C26.1445 40.294 31.3506 39.9191 31.3506 39.9191C31.3506 39.9191 31.0083 36.4584 30.5785 33.069C29.9875 28.4075 29.074 22.1918 29.074 22.1918C29.074 22.1918 29.69 21.9595 32.7443 20.4053C35.7977 18.8516 38.4572 16.5209 38.4572 16.5209Z" fill="#5AE2E2"/>
</svg>
