<svg width="27" height="47" viewBox="0 0 27 47" fill="none" xmlns="http://www.w3.org/2000/svg">
<path fill-rule="evenodd" clip-rule="evenodd" d="M25.0577 25.1413C24.8099 19.3769 24.87 5.80441 24.9063 0.331563C22.8496 0.435754 18.4903 0.601023 12.4117 0.532246C12.1831 0.52968 11.9638 0.526087 11.7403 0.523008V0.522494C5.68566 0.436781 1.75774 0.146278 0.12405 0C-0.0340828 5.20647 -0.171995 15.1595 0.585487 25.3353C1.68464 40.1027 3.41218 55.5214 3.41218 55.5214C3.41218 55.5214 6.39544 55.8325 8.90794 55.677C11.4199 55.5214 12.8333 55.0554 12.8333 55.0554L13.1428 43.1017C14.8387 49.4866 16.2878 54.7146 16.2878 54.7146C16.2878 54.7146 17.5441 55.6472 21.6265 55.4917C25.7094 55.3362 26.9657 53.782 26.9657 53.782C26.9657 53.782 25.3714 32.447 25.0577 25.1413Z" fill="white"/>
</svg>
