<svg width="13" height="21" viewBox="0 0 13 21" fill="none" xmlns="http://www.w3.org/2000/svg">
<path fill-rule="evenodd" clip-rule="evenodd" d="M11.4771 6.78869C10.2483 6.49613 9.46647 7.45182 9.46647 7.45182C9.46647 7.45182 10.6501 5.19657 9.44832 2.89051C8.24651 0.584968 3.18782 -1.26121 1.16527 1.09258C1.16527 1.09258 -0.883714 5.97672 0.452379 10.1587C1.4608 13.3147 2.51329 13.6838 3.2267 13.8193C3.20959 14.4803 3.16708 15.2523 3.07168 15.9775C2.99287 16.5755 2.64394 18.4801 2.64394 18.4801C2.64394 18.4801 0.972403 20.0615 6.01762 20.4228C10.0565 20.7123 10.3842 18.2492 10.3842 18.2492C10.3842 18.2492 9.84547 16.4189 9.87813 14.8222C9.90043 13.7438 9.97353 12.2143 10.0321 11.1C10.4106 11.2232 11.6808 11.5101 12.4103 10.1459C13.3244 8.43521 12.4217 7.0135 11.4771 6.78869Z" fill="white"/>
</svg>
