<svg width="15" height="15" viewBox="0 0 15 15" fill="none" xmlns="http://www.w3.org/2000/svg">
<path fill-rule="evenodd" clip-rule="evenodd" d="M13.6059 10.7985C13.6059 12.2665 12.3987 13.4613 10.9138 13.4613H3.39961C1.91577 13.4613 0.70752 12.2665 0.70752 10.7985V3.36418C0.70752 1.89569 1.91577 0.700874 3.39961 0.700874H10.9138C12.3987 0.700874 13.6059 1.89569 13.6059 3.36418V10.7985ZM14.3142 3.36417C14.3142 1.50957 12.7899 0 10.9142 0H3.40002C1.52536 0 0 1.50957 0 3.36417V10.7985C0 12.6531 1.52536 14.1617 3.40002 14.1617H10.9142C12.7899 14.1617 14.3142 12.6531 14.3142 10.7985V3.36417Z" fill="#393F49"/>
</svg>
