<svg width="15" height="15" viewBox="0 0 15 15" fill="none" xmlns="http://www.w3.org/2000/svg">
<path fill-rule="evenodd" clip-rule="evenodd" d="M13.6059 10.7975C13.6059 12.266 12.3987 13.4608 10.9138 13.4608H3.39961C1.91577 13.4608 0.70752 12.266 0.70752 10.7975V3.36317C0.70752 1.89519 1.91577 0.700379 3.39961 0.700379H10.9138C12.3987 0.700379 13.6059 1.89519 13.6059 3.36317V10.7975ZM14.3142 3.36315C14.3142 1.50905 12.7899 0 10.9142 0H3.40002C1.52536 0 0 1.50905 0 3.36315V10.7975C0 12.6526 1.52536 14.1612 3.40002 14.1612H10.9142C12.7899 14.1612 14.3142 12.6526 14.3142 10.7975V3.36315Z" fill="#393F49"/>
</svg>
