<svg width="140" height="116" viewBox="0 0 140 116" fill="none" xmlns="http://www.w3.org/2000/svg">
<path fill-rule="evenodd" clip-rule="evenodd" d="M135.455 125.985C135.185 126.196 134.907 126.391 134.623 126.57C134.496 126.65 134.363 126.716 134.233 126.79C134.074 126.882 133.916 126.979 133.753 127.061C129.611 129.129 124.417 128.109 121.425 124.371L117.753 119.782C118.424 119.75 119.416 119.558 120.711 119.011C120.891 118.935 120.975 118.73 120.898 118.552C120.821 118.375 120.614 118.292 120.434 118.367C118.498 119.183 117.462 119.107 117.174 119.06L110.177 110.318C109.757 104.293 109.317 97.6391 109.169 94.1856C109.004 90.3665 108.975 83.097 108.986 76.9976L132.803 106.755C132.617 107.378 131.711 109.819 128.232 113.034C128.089 113.166 128.081 113.388 128.215 113.529C128.348 113.67 128.573 113.678 128.715 113.546C131.759 110.733 132.913 108.483 133.326 107.409L137.085 112.105C137.917 113.145 138.499 114.302 138.847 115.504C139.93 119.24 138.72 123.425 135.455 125.985ZM108.976 128.168C109.009 128.093 109.053 127.992 109.022 127.992C109.297 127.948 109.891 128.538 110.44 129.938C110.894 131.092 110.944 133.164 110.532 133.76C110.455 133.872 110.402 133.872 110.379 133.872H91.8042C91.8276 133.276 91.9942 132.038 92.9315 131.598C93.2195 131.463 93.5979 131.296 94.0297 131.106C95.8561 130.302 98.6157 129.087 99.6096 128.038C100.41 127.193 101.453 127.171 101.758 127.193C102.164 127.213 102.383 127.327 102.419 127.374C102.449 127.419 102.496 127.591 102.529 127.717C102.749 128.525 103.208 130.209 105.957 129.927C108.312 129.688 108.745 128.7 108.976 128.168ZM91.0946 133.872H78.0493C78.0711 133.278 78.2346 132.04 79.1776 131.598C79.4657 131.463 79.8451 131.296 80.2774 131.105C82.1028 130.301 84.8613 129.087 85.8547 128.038C86.6565 127.193 87.6987 127.171 88.0028 127.193C88.4097 127.213 88.6282 127.326 88.6651 127.374C88.6947 127.419 88.7419 127.592 88.7756 127.717C88.9941 128.526 89.4524 130.208 92.2026 129.927C94.5574 129.688 94.9897 128.699 95.2222 128.167C95.2549 128.093 95.299 127.992 95.2669 127.992C95.5025 127.956 95.9322 128.353 96.3807 129.257C95.4786 129.701 94.5221 130.122 93.7415 130.467C93.3035 130.659 92.9199 130.828 92.6288 130.965C91.3224 131.577 91.1179 133.148 91.0946 133.872ZM91.0965 125.142C91.6196 125.142 92.1527 125.13 92.6691 125.098C93.3189 125.057 93.8939 124.997 94.3937 124.929V128.239C94.1399 128.641 93.6183 129.08 92.1303 129.231C89.978 129.443 89.6791 128.343 89.4595 127.536C89.4336 127.439 89.4092 127.356 89.3832 127.276L89.104 125.088C89.704 125.119 90.3896 125.142 91.0965 125.142ZM104.493 124.93C104.777 124.93 105.077 124.925 105.394 124.913C106.503 124.871 107.408 124.726 108.148 124.536V128.239C107.895 128.64 107.374 129.08 105.885 129.231C103.731 129.443 103.432 128.343 103.214 127.535C103.188 127.439 103.163 127.355 103.137 127.276L102.829 124.857C103.313 124.902 103.863 124.93 104.493 124.93ZM67.1097 59.0549C66.8325 58.944 66.6996 58.7468 66.6348 58.5738C67.6297 58.526 70.2029 58.1815 72.9231 56.0855C72.9329 56.16 72.9366 56.2468 72.9231 56.3566C72.8779 56.7197 72.4918 57.0591 72.1824 57.3312C72.102 57.4026 72.0273 57.4683 71.9645 57.5284C71.2269 58.2349 68.4933 59.6079 67.1097 59.0549ZM66.2758 57.8811C66.1653 57.8477 65.7345 57.6967 65.4205 57.2906C65.2715 57.0975 65.2456 56.9337 65.2477 56.8213C65.9623 56.7725 69.2861 56.4424 72.3498 54.4311C72.4235 54.4085 72.6767 54.3474 72.7852 54.5718C72.9638 54.9405 72.8221 55.2296 72.7779 55.3066C69.6681 57.8477 66.6303 57.8888 66.2758 57.8811ZM65.0748 56.1302C65.0701 56.1302 65.0665 56.1327 65.0613 56.1333C64.836 55.8544 64.5604 55.5007 64.4795 55.3569C64.058 54.6088 64.0887 54.2247 64.1452 54.0625C64.1452 54.0609 64.1458 54.0599 64.1468 54.0584C64.5942 54.5949 65.4381 55.1982 66.5913 55.0103C67.1539 54.9184 67.7368 54.7264 68.3554 54.5225C69.3836 54.1847 70.4491 53.8345 71.4113 53.9644C71.4824 53.9736 71.5541 54.0111 71.6231 54.0558C68.4987 55.9628 65.1101 56.1281 65.0748 56.1302ZM49.7255 20.4819C49.5402 19.7856 49.6274 19.2146 49.9586 18.9554C50.0323 18.8978 50.1189 18.8588 50.2129 18.8326C50.2477 18.8229 50.2871 18.8224 50.3245 18.8172C50.3862 18.808 50.449 18.8003 50.517 18.8023C50.6052 18.8049 50.7007 18.8234 50.7983 18.8455C50.8398 18.8547 50.8788 18.8573 50.9218 18.8701C51.0651 18.9132 51.214 18.9723 51.3687 19.0534L59.3557 23.9128C59.1107 24.6814 58.4236 25.999 56.4944 27.509C54.7179 28.9015 53.4411 29.302 52.6273 29.3672L49.7255 20.4819ZM97.2891 62.5109C98.0842 62.2254 100.546 61.3746 101.653 61.3746H102.675C102.057 61.5451 100.605 61.9882 99.1663 62.7368C98.2736 62.7892 97.5117 62.7332 97.2891 62.5109ZM103.764 67.3076C103.764 67.3071 106.125 66.4527 109.217 65.339C109.402 66.9677 109.545 68.351 109.609 68.9779C108.409 69.0508 104.291 69.2659 98.125 69.2454C101.071 67.9494 103.698 67.3256 103.764 67.3076ZM137.639 111.67L133.467 106.457H133.467L108.987 75.8726C108.992 74.17 108.998 72.5808 109.006 71.2284C109.007 71.0353 108.849 70.8777 108.654 70.8767H108.652C108.456 70.8767 108.299 71.0322 108.298 71.2253C108.263 77.5927 108.238 89.0469 108.46 94.2154C108.757 101.117 110.213 120.759 110.359 122.721C110.015 123.038 108.634 124.088 105.366 124.212C102.093 124.342 100.689 123.742 100.34 123.558C99.8617 121.831 94.9654 104.083 92.8893 94.8366C91.5186 88.7378 90.0192 79.476 89.0025 72.78C88.9734 72.5885 88.7918 72.4612 88.6003 72.4853C88.4067 72.5141 88.2738 72.6928 88.3024 72.8843C89.3206 79.5911 90.8232 88.8703 92.1975 94.9886C94.3753 104.682 99.6411 123.687 99.694 123.878C99.7148 123.953 99.7605 124.018 99.8233 124.066C99.8601 124.093 100.475 124.527 102.103 124.77L102.335 126.58C102.197 126.542 102.05 126.512 101.885 126.499C101.074 126.432 99.9276 126.679 99.092 127.559C98.6835 127.991 97.9019 128.47 97.0066 128.939C96.4368 127.808 95.7818 127.213 95.1673 127.297C95.1413 127.301 95.1252 127.314 95.1019 127.32V124.82C96.0999 124.648 96.6527 124.47 96.6895 124.459C96.8302 124.412 96.9272 124.283 96.9314 124.135L97.1203 116.853C97.125 116.66 96.9708 116.499 96.7751 116.494C96.566 116.498 96.4165 116.643 96.4118 116.836L96.2302 123.861C95.7366 123.994 94.4832 124.283 92.6252 124.398C90.6151 124.521 88.2676 124.341 87.4662 124.271C87.227 122.101 85.6757 107.877 84.6698 94.3689C84.0076 85.4763 84.0257 76.766 84.157 71.0235C84.1612 70.8304 84.006 70.6697 83.8114 70.6656C83.6048 70.6666 83.4533 70.814 83.4491 71.0081C83.4097 72.7117 83.3811 74.6814 83.377 76.8343L69.5563 59.5672C70.8352 59.157 72.0315 58.4392 72.4565 58.032C72.5142 57.9776 72.5806 57.9185 72.6532 57.8554C73.0311 57.5226 73.5485 57.0677 73.6253 56.4413C73.6814 55.9967 73.575 55.6922 73.4645 55.5048C73.5729 55.2414 73.6747 54.7869 73.424 54.2694C73.1728 53.7503 72.6782 53.6743 72.3273 53.721C72.156 53.5521 71.8623 53.3179 71.5062 53.2697C70.3805 53.1198 69.2366 53.4941 68.1311 53.8581C67.54 54.0522 66.9826 54.236 66.475 54.3197C65.8667 54.4193 65.4084 54.2211 65.0846 53.9798L58.0717 45.2182C58.8461 45.1832 60.1431 44.9378 62.0395 43.9859C62.2139 43.8981 62.284 43.6875 62.1952 43.515C62.106 43.3425 61.8942 43.2732 61.7188 43.361C59.3314 44.5599 58.0079 44.5599 57.5709 44.5106L52.8479 30.0445C53.7738 29.933 55.1347 29.4684 56.9346 28.0584C58.8201 26.5817 59.6308 25.2534 59.9734 24.2886L73.1178 32.2857C72.9242 33.0595 71.8695 36.0283 66.5274 40.213C66.3738 40.3331 66.3483 40.5534 66.4703 40.7054C66.5399 40.7927 66.6431 40.8378 66.7475 40.8378C66.8253 40.8378 66.9021 40.8137 66.9675 40.7624C71.7849 36.9885 73.2408 34.1583 73.6783 32.8859L84.4643 46.3621C82.9965 54.8722 82.6327 68.7956 82.6286 68.9553C82.6244 69.136 82.7599 69.2906 82.9415 69.3116C82.9872 69.3168 87.5851 69.8359 96.1518 69.9319C97.1333 69.9432 98.0711 69.9478 98.9622 69.9478C105.851 69.9478 109.977 69.6567 110.022 69.6531C110.118 69.6464 110.207 69.6017 110.267 69.5293C110.329 69.4575 110.358 69.364 110.35 69.27C110.347 69.2444 110.164 67.3928 109.901 65.0926C114.427 63.4634 119.092 61.2293 120.305 60.1094C121.604 58.9095 122.632 57.5293 120.962 53.8663C119.306 50.231 117.424 47.9549 117.344 47.8599C117.219 47.7094 116.997 47.6894 116.846 47.8121C116.695 47.9349 116.673 48.1556 116.798 48.3051C116.817 48.3277 118.702 50.6105 120.317 54.1544C121.916 57.6628 120.803 58.6908 119.822 59.597C118.809 60.532 114.477 62.7014 109.643 64.4405C106.252 65.6599 103.559 66.6355 103.56 66.6376C103.512 66.6488 100.795 67.2958 97.7711 68.6334C97.6242 68.6981 97.3398 68.6816 97.3035 68.678C97.2573 68.5948 97.2438 68.4947 97.2407 68.4131C97.2469 68.4069 97.2552 68.4049 97.2609 68.3982C97.277 68.3807 98.8787 66.6165 101.402 65.9808C101.592 65.9331 101.707 65.7421 101.658 65.5552C101.61 65.3683 101.419 65.2522 101.228 65.302C98.7484 65.9264 97.1385 67.5043 96.799 67.8606C96.7508 67.8365 96.6838 67.7831 96.6189 67.648C96.498 67.398 96.6615 67.1911 96.6765 67.1721C96.6854 67.1628 96.6885 67.15 96.6952 67.1397C96.7009 67.1315 96.7108 67.1284 96.7155 67.1202C96.7269 67.1007 97.8926 65.2117 100.664 64.6094C100.855 64.5683 100.976 64.3814 100.933 64.1925C100.892 64.004 100.707 63.8839 100.512 63.9255C98.3021 64.405 97.0217 65.6168 96.4565 66.2915C96.4523 66.2417 96.4461 66.1934 96.4544 66.1338C96.5011 65.8206 97.1883 64.9816 97.5962 64.6212C99.596 62.8482 103.114 61.9836 103.15 61.9743C103.191 61.9646 103.231 61.9471 103.266 61.9235C103.293 61.905 106.044 60.0386 108.336 58.126C109.855 56.8572 110.717 56.3895 110.726 56.3843C110.894 56.2939 110.96 56.0855 110.871 55.916L109.51 53.2995C109.419 53.1275 109.206 53.0607 109.033 53.1485C108.859 53.2368 108.79 53.4484 108.88 53.6204L110.09 55.9453C109.833 56.106 109.399 56.3992 108.833 56.831C108.511 54.5107 108.224 52.5236 108.119 51.8022C108.168 51.7817 108.208 51.7514 108.242 51.7144C108.245 51.7129 108.248 51.7113 108.252 51.7093L108.249 51.7041C108.258 51.6939 108.265 51.6831 108.272 51.6723C108.338 51.6466 108.508 51.5784 108.76 51.471C109.317 51.2046 110.19 50.7753 111.549 50.0811C114.599 48.5233 117.212 46.2394 117.322 46.1429C117.453 46.0279 117.479 45.8353 117.383 45.69C117.326 45.6032 111.612 36.9582 107.501 33.1812C105.512 31.3538 103.466 30.0614 101.421 29.3395C101.336 29.3092 101.248 29.3164 101.17 29.3477C101.232 29.6419 101.291 29.8868 101.335 30.0578C103.239 30.7582 105.15 31.9781 107.019 33.6941C110.671 37.0496 115.641 44.3571 116.62 45.8163C115.913 46.4083 113.685 48.2024 111.224 49.4588C108.264 50.9699 107.624 51.2215 107.597 51.2318C107.591 51.2338 107.588 51.2384 107.582 51.241C105.255 52.0189 102.985 51.8649 102.248 51.7807C102.205 51.4998 102.128 50.9571 102.01 50.018C101.816 48.4776 100.451 38.9293 100.437 38.8328C100.41 38.6413 100.233 38.5062 100.037 38.535C99.843 38.5622 99.7081 38.7393 99.7361 38.9309C99.7496 39.0274 101.114 48.57 101.307 50.1047C101.505 51.6723 101.588 52.1524 101.588 52.1524C101.614 52.2987 101.73 52.4132 101.878 52.4384C101.937 52.4487 102.626 52.5611 103.661 52.5611C104.677 52.5611 106.025 52.4512 107.437 52.0307C107.561 52.8897 107.861 54.9718 108.189 57.3399C108.084 57.4251 107.991 57.497 107.879 57.5899C106.446 58.7863 104.83 59.9652 103.829 60.6743H101.653C100.2 60.6743 96.9241 61.8963 96.7855 61.9481C96.6734 61.9902 96.5904 62.0852 96.5644 62.2008C96.4783 62.591 96.634 62.8503 96.7798 62.9982C97.0295 63.2523 97.4815 63.3766 97.9979 63.4284C97.6896 63.6359 97.3943 63.8587 97.1234 64.099C96.8037 64.3819 95.8472 65.4073 95.7543 66.0317C95.693 66.4399 95.8191 66.7654 95.9722 66.9816C95.8586 67.2311 95.8015 67.5792 95.9795 67.9499C96.13 68.2632 96.3407 68.4326 96.5364 68.5153C96.5494 68.6642 96.5873 68.8423 96.6812 69.0123C96.7352 69.1114 96.8239 69.1812 96.9251 69.2382C96.6703 69.2362 96.4207 69.2346 96.1601 69.2315C88.9106 69.1504 84.524 68.7658 83.3458 68.6493C83.4195 66.1754 83.9624 50.2095 85.8381 43.3132C86.8076 39.7483 88.0122 36.7841 89.4161 34.5038C89.5179 34.339 89.4654 34.1234 89.2978 34.0227C89.1317 33.9221 88.9132 33.9745 88.8115 34.1398C87.3723 36.4765 86.1417 39.5018 85.1551 43.1315C84.9677 43.82 84.7939 44.5989 84.6319 45.4425L79.2062 38.6639C80.9693 37.0906 83.8415 34.6835 86.4038 33.2572C89.3907 31.5951 92.1581 30.5574 93.754 30.028C93.795 29.8006 93.8438 29.5248 93.8926 29.245C92.3428 29.742 89.3269 30.8265 86.0566 32.6467C83.4559 34.0941 80.5588 36.5171 78.7656 38.114L73.7899 31.897L73.7515 31.8493L71.0511 30.2062V8.76626C71.0511 3.93257 67.0765 0 62.1906 0H56.7566C56.5609 0 56.4026 0.156605 56.4026 0.350178C56.4026 0.544265 56.5609 0.70087 56.7566 0.70087H62.1906C66.6857 0.70087 70.3431 4.31869 70.3431 8.76626V29.7754L60.1716 23.5872L60.1722 23.5867L51.7206 18.4454C50.8643 17.9946 50.0619 17.9813 49.5195 18.4059C48.9528 18.8506 48.7784 19.6716 49.0467 20.679L52.1146 30.0773H52.1151L56.9616 44.9239L56.9813 44.984L63.7372 53.4253C63.6448 53.5172 63.553 53.6306 63.4886 53.798C63.3007 54.2868 63.4258 54.9261 63.8607 55.6983C63.9874 55.9227 64.3595 56.3889 64.5526 56.6262C64.5079 56.9044 64.5474 57.3142 64.8583 57.7162C65.1946 58.1521 65.6197 58.3786 65.8864 58.4864C65.9414 58.8335 66.1402 59.4219 66.8445 59.7043C67.1487 59.826 67.4896 59.8789 67.8503 59.8789C68.1597 59.8789 68.4835 59.8301 68.81 59.7629L70.3431 61.6791V125.675C70.3431 130.123 66.6857 133.741 62.1906 133.741H8.86101C4.36537 133.741 0.707926 130.123 0.707926 125.675V8.76626C0.707926 4.31869 4.36537 0.70087 8.86101 0.70087H39.3921C39.5878 0.70087 39.7466 0.544265 39.7466 0.350178C39.7466 0.156605 39.5878 0 39.3921 0H8.86101C3.97456 0 0 3.93257 0 8.76626V125.675C0 130.51 3.97456 134.442 8.86101 134.442H62.1906C67.0765 134.442 71.0511 130.51 71.0511 125.675V62.5638L83.3775 77.9639C83.3879 82.8536 83.5296 88.595 83.9635 94.4207C85.0523 109.031 86.777 124.477 86.7941 124.631C86.8128 124.795 86.9436 124.924 87.1092 124.941C87.1579 124.946 87.651 124.997 88.3849 125.045L88.5811 126.58C88.4435 126.542 88.2972 126.512 88.1332 126.499C87.3334 126.431 86.1755 126.678 85.3373 127.559C84.4425 128.505 81.7634 129.684 79.9899 130.465C79.5508 130.659 79.1663 130.827 78.8751 130.965C77.1894 131.755 77.3357 134.145 77.343 134.246L77.3658 134.572H91.12H96.6252H110.379C110.584 134.572 110.878 134.5 111.116 134.156C111.76 133.224 111.553 130.838 111.1 129.684C110.463 128.061 109.656 127.195 108.921 127.297C108.896 127.301 108.879 127.314 108.857 127.32V124.325C110.385 123.8 110.965 123.115 111.001 123.071C111.057 123.002 111.084 122.915 111.078 122.826C111.07 122.722 110.688 117.603 110.263 111.555L120.87 124.807C120.88 124.819 120.891 124.83 120.902 124.842C121.137 125.134 121.388 125.409 121.65 125.672C121.733 125.756 121.821 125.831 121.906 125.911C122.107 126.1 122.311 126.283 122.524 126.454C122.615 126.527 122.708 126.596 122.801 126.665C123.026 126.834 123.255 126.993 123.491 127.143C123.574 127.196 123.658 127.248 123.742 127.298C124.005 127.455 124.276 127.6 124.552 127.733C124.615 127.764 124.676 127.796 124.74 127.825C125.061 127.973 125.389 128.105 125.725 128.22C125.748 128.228 125.769 128.238 125.792 128.245C126.508 128.486 127.251 128.66 128.02 128.748C128.44 128.797 128.86 128.82 129.276 128.82C131.336 128.82 133.332 128.232 135.064 127.118C135.091 127.101 135.119 127.087 135.145 127.069C135.401 126.902 135.651 126.723 135.894 126.533C138.495 124.496 139.88 121.495 139.943 118.444C139.992 116.072 139.241 113.671 137.639 111.67Z" fill="#393F49"/>
</svg>
