<svg width="50" height="16" viewBox="0 0 50 16" fill="none" xmlns="http://www.w3.org/2000/svg">
<path fill-rule="evenodd" clip-rule="evenodd" d="M2.48017 0C2.48017 0 0.498277 3.27165 0.0867798 7.46613C-0.324718 11.6601 0.772609 13.8299 2.4181 14.5527C4.06409 15.2765 5.29858 15.2765 5.29858 15.2765H47.2648C47.2648 15.2765 48.1003 14.5896 48.0733 13.6488C48.0458 12.708 47.803 12.5655 47.803 12.5655C47.803 12.5655 48.7756 12.5085 49.1005 11.5962C49.4249 10.6839 48.695 9.9427 48.695 9.9427C48.695 9.9427 49.5231 9.95801 49.8019 8.95651C50.0652 8.01466 49.1416 7.30933 46.9109 6.20752C44.1496 4.84385 41.0573 4.32014 41.0573 4.32014C41.0573 4.32014 40.0476 2.71045 39.7883 2.76482C36.696 3.41736 31.8277 5.90554 31.8277 5.90554C31.8277 5.90554 27.2651 5.90554 21.9757 5.79626C16.6874 5.68697 12.7421 5.2113 9.16876 3.82757C5.07281 2.24216 2.48017 0 2.48017 0Z" fill="white"/>
</svg>
