<svg width="27" height="27" viewBox="0 0 27 27" fill="none" xmlns="http://www.w3.org/2000/svg">
<path d="M19.2803 0C24.1001 8.29526e-05 26.9869 2.63454 27 7.0332V19.9668C27 24.3655 24.126 27 19.293 27H15.0088C14.4593 26.9447 14.043 26.5211 14.043 26.0166C14.043 25.5122 14.4594 25.0885 15.0088 25.0332H19.2803C22.9637 25.0331 24.8184 23.3284 24.8184 19.9668V7.0332C24.8184 3.67164 22.9637 1.96687 19.2803 1.9668H7.70703C4.02345 1.9668 2.15527 3.67157 2.15527 7.0332V19.9668C2.15527 23.3284 4.02345 25.0332 7.70703 25.0332C8.25634 25.0886 8.67182 25.5122 8.67188 26.0166C8.67188 26.521 8.25636 26.9446 7.70703 27C2.88702 27 0 24.3655 0 19.9668V7.0332C0 2.62255 2.88702 0 7.70703 0H19.2803ZM18.8877 18.2383C19.4792 18.2383 19.9588 18.6761 19.959 19.2158C19.959 19.7557 19.4793 20.1934 18.8877 20.1934H8.07227C7.48071 20.1934 7.00098 19.7557 7.00098 19.2158C7.00112 18.6761 7.48079 18.2383 8.07227 18.2383H18.8877ZM18.8896 12.5146C19.3029 12.4732 19.7058 12.6512 19.9268 12.9727C20.1475 13.294 20.1475 13.7021 19.9268 14.0234C19.7058 14.3449 19.3029 14.5229 18.8896 14.4814H8.07422C7.52477 14.4262 7.10841 14.0025 7.1084 13.498C7.1084 12.9936 7.52476 12.5699 8.07422 12.5146H18.8896ZM12.2021 6.80566C12.7515 6.86098 13.1669 7.28467 13.167 7.78906C13.167 8.2935 12.7516 8.71713 12.2021 8.77246H8.08789C7.53843 8.71717 7.12207 8.29354 7.12207 7.78906C7.12215 7.28465 7.53848 6.86095 8.08789 6.80566H12.2021Z" fill="black"/>
</svg>
