<svg width="3" height="6" viewBox="0 0 3 6" fill="none" xmlns="http://www.w3.org/2000/svg">
<path fill-rule="evenodd" clip-rule="evenodd" d="M0.324562 5.72649C0.342565 5.72649 0.361069 5.72491 0.379572 5.72174L1.59229 5.50316C1.87685 5.45617 2.09989 5.27929 2.20191 5.01741C2.30542 4.75289 2.26742 4.44191 2.12689 4.24498L1.52578 3.08025C0.936674 1.68057 0.904668 0.348996 0.904668 0.335797C0.900667 0.148891 0.756141 0 0.580109 0H0.573608C0.395075 0.00316789 0.252049 0.159451 0.255049 0.34794C0.25655 0.407602 0.287555 1.82682 0.943675 3.38331L1.57929 4.61139C1.6098 4.65522 1.6188 4.7133 1.6023 4.75606C1.59629 4.76979 1.57979 4.8115 1.48777 4.82681L0.270552 5.04592C0.09352 5.0776 -0.0250017 5.25501 0.00450373 5.44138C0.0320088 5.60823 0.169034 5.72649 0.324562 5.72649Z" fill="#393F49"/>
</svg>
