<svg width="36" height="32" viewBox="0 0 36 32" fill="none" xmlns="http://www.w3.org/2000/svg">
<path d="M22.7168 3.97327H13.7236C10.0139 3.97327 7.68686 6.34036 7.68686 10.1382V25.8137C7.68686 26.9176 8.64313 27.8125 9.82276 27.8125C10.1799 27.8123 10.5314 27.7292 10.8457 27.5706L18.164 23.8569L26.6851 27.5916C26.9161 27.6824 27.1763 27.6835 27.4082 27.5947C27.6401 27.5059 27.8249 27.3345 27.9217 27.1182C28.0645 26.7196 27.8914 26.2817 27.5057 26.0662L19.0408 22.363C18.4878 22.0785 17.8177 22.0785 17.2647 22.363L9.93517 26.0662C9.85112 26.1092 9.74943 26.1092 9.66537 26.0662C9.58545 26.018 9.53848 25.9341 9.54172 25.8452V10.1382C9.55296 7.32928 11.0593 5.73018 13.7573 5.73018H22.7505C26.2129 5.73018 26.7188 8.36028 26.7188 9.93835V10.6537H16.9836C16.7361 10.662 16.5022 10.7619 16.3336 10.9316C16.1649 11.1014 16.0752 11.3269 16.0843 11.5585C16.0962 12.0186 16.4919 12.389 16.9836 12.4001H26.6851V21.6055C26.6851 22.0877 27.1028 22.4787 27.6181 22.4787C28.1291 22.4787 28.545 22.0942 28.5512 21.616V9.93835C28.5512 6.2562 26.3254 3.97327 22.7168 3.97327Z" fill="#161616"/>
</svg>
