<svg width="2" height="4" viewBox="0 0 2 4" fill="none" xmlns="http://www.w3.org/2000/svg">
<path fill-rule="evenodd" clip-rule="evenodd" d="M1.58136 3.00105L0.752209 3.0417L0.883233 2.51847C1.13578 1.51161 1.13028 0.387539 1.12978 0.34002C1.12828 0.151531 0.965248 0.0195353 0.802218 0C0.622686 0.00158395 0.47866 0.156283 0.48016 0.345828C0.48016 0.356388 0.485161 1.42714 0.255619 2.34318L0.0105741 3.31784C-0.0154307 3.42291 0.00707342 3.53537 0.0720853 3.62037C0.133597 3.70168 0.227114 3.74814 0.324631 3.74814C0.329632 3.74814 0.335133 3.74814 0.340134 3.74762L1.61237 3.68584C1.7909 3.67687 1.92892 3.51689 1.92092 3.32787C1.91292 3.13833 1.76139 2.99313 1.58136 3.00105Z" fill="#393F49"/>
</svg>
