<svg width="136" height="60" viewBox="0 0 136 60" fill="none" xmlns="http://www.w3.org/2000/svg">
<path fill-rule="evenodd" clip-rule="evenodd" d="M135.513 17.9446C135.544 16.595 135.343 18.4679 135.084 19.943C134.794 21.4181 134.517 22.4989 134.653 19.6532C134.46 20.633 134.314 21.88 134.196 23.2805C134.048 24.6779 133.872 26.2237 133.727 27.8078C133.5 29.381 133.322 30.998 133.058 32.5159C132.766 34.0273 132.519 35.4646 132.187 36.6729C131.753 36.865 131.659 35.8564 131.318 35.8639C131.151 35.8673 130.921 36.1227 130.562 36.8989C130.382 37.2872 130.17 37.8054 129.917 38.487C129.794 38.8285 129.657 39.2098 129.504 39.6355C129.34 40.0572 129.16 40.5226 128.96 41.0354C128.019 43.8164 127.473 45.273 127.295 46.1204C127.112 46.9652 127.249 47.1788 127.415 47.361C127.735 47.7219 128.254 47.9878 126.084 52.887C126.663 51.8097 127.131 50.6806 127.661 49.5774C128.199 48.4766 128.635 47.3356 129.092 46.2005C128.429 49.8606 126.083 55.7545 122.29 61.5962C121.811 62.3216 121.326 63.0549 120.837 63.7947C120.349 64.534 119.776 65.224 119.243 65.9448C118.692 66.6523 118.176 67.3901 117.591 68.0731C117.002 68.7531 116.414 69.4322 115.829 70.1078L114.955 71.1184C114.652 71.443 114.335 71.7531 114.028 72.0697C113.412 72.6995 112.801 73.3233 112.199 73.9391C111.617 74.5749 110.953 75.1086 110.345 75.6796C109.73 76.2431 109.127 76.7962 108.538 77.3364C107.553 78.0229 106.519 78.6173 105.518 79.2327C105.01 79.5304 104.52 79.848 104.001 80.1193L102.427 80.9049C101.905 81.1633 101.381 81.4227 100.855 81.6825C100.333 81.9444 99.81 82.2063 99.2559 82.4168C98.1729 82.8694 97.0776 83.3264 95.9636 83.7914C91.4573 85.5059 86.6574 87.1095 80.9312 88.8733C81.5419 88.5861 84.2718 87.457 83.5912 87.2608C83.0445 87.3355 82.4092 87.4724 81.7305 87.6486C81.3902 87.7323 81.0435 87.8443 80.683 87.9294C80.323 88.0145 79.9551 88.1012 79.5867 88.1878C78.1191 88.5487 76.6554 88.9853 75.5679 89.303C72.5893 90.22 73.0488 90.442 74.0112 90.558C74.9676 90.675 76.4219 90.6855 75.3113 91.2022C74.0269 91.5248 72.7597 91.8434 71.4694 92.168C71.1449 92.2477 70.8193 92.3283 70.4913 92.409C70.1609 92.4682 69.8284 92.528 69.4925 92.5882C68.8188 92.6982 68.1342 92.8097 67.4339 92.9242C64.6252 93.4231 61.5112 93.5311 57.8076 93.4126C54.7482 92.7998 51.7243 92.285 48.7625 91.4526C45.6597 92.2781 41.707 91.9345 37.0711 91.029C32.4254 90.1378 27.104 88.7787 21.0843 87.3176C20.5819 86.877 19.4211 86.3911 17.9294 85.8813C16.4396 85.3566 14.6434 84.7243 12.8468 84.0911C9.27968 82.7384 5.78051 81.1145 4.9738 80.0397C2.41973 78.6343 2.54433 77.8815 2.84968 77.0969C3.15207 76.3218 3.60763 75.5188 1.92576 73.9839C1.13284 73.405 0.655122 72.9564 0.362088 72.6746C0.0700386 72.3918 -0.0264903 72.2609 0.00601436 72.2305C0.0720086 72.1698 0.654629 72.5098 1.23479 72.8494C1.82332 73.1764 2.43401 73.4692 2.49311 73.4089C2.56994 73.3273 2.04593 72.9559 0.592083 71.6794C1.03188 71.9602 1.4175 72.2231 1.75979 72.465C2.11537 72.6896 2.42416 72.8991 2.69356 73.0973C3.23136 73.4931 3.61354 73.8416 3.89869 74.1632C4.4621 74.8158 4.66107 75.3246 4.9413 75.8862C5.50767 76.9799 6.34639 78.4789 11.75 80.7063L11.3812 80.1228C13.6811 80.8103 16.6297 82.1659 19.5275 83.2004C20.974 83.7187 22.3786 84.2235 23.6635 84.5023C24.942 84.7985 26.059 85.0011 26.9208 84.923C29.9374 85.6862 31.4178 86.1531 32.0408 86.4185C32.6584 86.7067 32.3988 86.871 31.9354 87.0174C31.0125 87.3111 29.2543 87.5272 32.2275 88.5398C34.092 88.4631 38.554 88.961 42.6481 89.0416C43.6715 89.0645 44.6669 89.1098 45.5938 89.0884C46.5216 89.0575 47.3761 89.0142 48.1109 88.953C49.5815 88.8305 50.5709 88.6344 50.7157 88.3128L45.8912 87.9653C44.2847 87.8264 42.6806 87.6073 41.0746 87.4331C42.6403 87.5804 41.4706 87.1657 42.1192 87.1254C42.9294 87.3793 43.9232 87.5536 45.0284 87.671C46.135 87.7706 47.3539 87.7552 48.6108 87.7318C49.8681 87.6915 51.1634 87.6591 52.4286 87.5322C53.6874 87.3773 54.9231 87.2255 56.0676 87.0841C58.3503 86.8556 60.2351 86.4643 61.2758 86.5185C62.312 86.5579 62.5149 86.9507 61.3358 87.9603C60.7054 88.1002 59.5422 88.1719 58.4119 88.2675C57.2797 88.3172 56.1789 88.3566 55.6746 88.5652C55.7948 88.7922 56.3006 88.942 57.0708 89.0421C57.4555 89.0884 57.9071 89.1402 58.408 89.1491C58.9088 89.1486 59.4599 89.1362 60.0465 89.1158C61.2181 89.0615 62.5301 89.0008 63.8604 88.9385C65.1871 88.8365 66.5248 88.6583 67.7678 88.5672C68.3898 88.3839 69.0237 88.1968 69.6723 88.0056C70.314 87.7955 70.9592 87.5336 71.6221 87.2957C72.282 87.0577 72.9582 86.8143 73.6516 86.5643C74.3426 86.3179 75.0587 86.1063 75.7723 85.8041C77.2055 85.2286 78.7411 84.7452 80.3643 84.2101C81.1686 83.9183 82.0039 83.64 82.8761 83.3797C83.7483 83.1188 84.6658 82.8973 85.5843 82.5816C88.1802 81.8339 86.885 82.9301 89.5095 82.1555C90.3979 81.68 91.2278 81.2355 92.0069 80.8183C92.787 80.4066 93.5322 80.0551 94.1867 79.6359C95.511 78.8314 96.7196 78.2171 97.7671 77.5793C98.8053 76.9257 99.7533 76.3651 100.663 75.8489C101.572 75.3316 102.369 74.7546 103.221 74.2344C103.642 73.967 104.065 73.6987 104.497 73.4249C104.933 73.1555 105.33 72.8195 105.767 72.5014C106.617 71.8383 107.571 71.1706 108.534 70.2979C109.006 69.8504 109.504 69.3779 110.034 68.8761C110.55 68.3594 111.138 67.8486 111.663 67.2054C112.744 65.9488 113.997 64.5578 115.199 62.7691C118.866 58.8063 121.987 53.5426 124.383 47.9853C126.804 42.4214 128.54 36.5902 130.081 31.2862C129.547 32.034 129.767 30.2253 130.16 27.9557C130.511 25.6806 130.971 22.9166 131.08 21.7989C131.2 21.4171 131.355 20.7544 131.522 19.9046C131.7 19.0553 131.802 18.0133 131.932 16.8817C132.073 15.7497 132.127 14.5245 132.142 13.3073C132.152 12.6984 132.155 12.0915 132.144 11.4996C132.111 10.9082 132.067 10.3312 132.013 9.78205C132.153 12.3803 132.465 10.7837 132.685 12.5988C132.381 7.60649 132.253 4.65978 132.375 2.83968C132.484 1.02356 132.888 0.342514 133.215 0C134.022 3.86921 134.641 6.00594 135.111 8.35026C135.544 10.6916 135.914 13.2605 135.513 17.9446Z" fill="#FFDDD4"/>
</svg>
