<svg width="47" height="122" viewBox="0 0 47 122" fill="none" xmlns="http://www.w3.org/2000/svg">
<path fill-rule="evenodd" clip-rule="evenodd" d="M10.1987 121.315C10.509 121.416 10.5967 121.261 10.5282 120.93C10.4952 120.763 10.4194 120.555 10.3184 120.308C10.2273 120.055 10.1071 119.766 9.96579 119.45C9.6831 118.819 9.3152 118.081 8.91875 117.313C8.54248 116.535 8.18247 115.703 7.82639 114.932C7.65353 114.545 7.48608 114.17 7.32897 113.818C7.19846 113.455 7.07583 113.116 6.9665 112.812C6.7562 112.202 6.6183 111.725 6.60107 111.464C6.56462 110.941 7.01329 111.295 8.30067 113.117C6.11301 107.505 5.15067 104.96 3.83719 101.795C3.97804 102.658 4.0795 103.28 4.15042 103.714C4.23513 104.145 4.27354 104.393 4.27846 104.509C4.28831 104.743 4.16273 104.454 4.00267 104.067C3.83226 103.684 3.67073 103.192 3.55056 103.04C3.43728 102.887 3.34371 103.077 3.43088 104.036C1.6845 98.6464 0.70985 93.0806 0.268083 87.5545C-0.167774 82.022 -0.0490832 76.5194 0.457201 71.1238C1.45696 60.3192 4.12579 49.8865 8.17606 40.2244C9.93722 36.7286 11.7363 33.403 13.5827 30.183C15.4276 26.9635 17.3374 23.8525 19.4133 20.8625C23.5182 14.861 28.2201 9.23642 34.0364 4.24558C36.0168 2.9736 37.2697 2.3742 37.9572 2.13673C38.6688 1.9351 38.8235 2.09989 38.6836 2.45485C38.3862 3.14535 37.0205 4.73744 36.4078 5.65347C39.51 3.46546 42.8368 1.62246 46.2533 0C42.9521 1.959 39.8055 4.12809 36.9259 6.59239C36.955 6.94984 38.0237 6.43408 39.3943 5.68981C40.07 5.30149 40.8811 4.95101 41.646 4.57216C42.4187 4.20674 43.1663 3.84581 43.84 3.64817C44.7315 3.12992 45.6125 2.58379 46.5192 2.08396C46.2567 2.59872 45.7815 3.18119 45.1053 3.75172C44.433 4.32971 43.5593 4.90173 42.595 5.59024C42.1065 5.9228 41.5824 6.26133 41.0269 6.60384C40.4704 6.94486 39.9193 7.3506 39.3239 7.72946C38.7388 8.12624 38.101 8.48816 37.4938 8.92776C36.8772 9.3564 36.2448 9.79549 35.6016 10.2426C33.0712 12.0846 30.3856 14.1381 28.0965 16.4412C27.4991 16.9903 26.9544 17.5812 26.4215 18.1637C25.894 18.7506 25.3518 19.3062 24.8829 19.9011C23.9413 21.087 23.0528 22.2146 22.3816 23.3527C23.2769 22.0488 24.0093 21.1597 24.484 20.4876C24.9647 19.821 25.2351 19.4113 25.3636 19.1967C25.6128 18.7611 25.1868 19.016 24.6298 19.468C23.5301 20.3766 21.7871 22.006 23.269 19.706L21.9649 21.2458L20.7283 22.8434C21.2582 22.116 21.8561 21.1642 22.6377 20.0973C23.0189 19.5546 23.4291 18.9717 23.8669 18.3494C24.3309 17.746 24.8243 17.1048 25.3449 16.4282C27.4666 13.7563 30.2546 10.6408 33.9291 7.68814C31.3277 9.66804 28.8436 11.8177 26.5954 14.1854C25.4316 15.3315 24.3919 16.5905 23.3144 17.8072L21.7965 19.713L21.0474 20.6693L20.3392 21.6555C16.5263 26.8863 13.525 32.5751 11.1537 38.3252C6.45726 49.878 4.43655 61.7037 4.12136 72.2828C4.00858 71.6555 3.96031 69.9748 3.54366 71.8666C3.34814 73.7669 3.31712 75.4854 3.3708 77.0342C3.47324 78.584 3.60128 79.966 3.8234 81.2041C4.05487 82.4422 4.3021 83.538 4.52176 84.5262C4.77687 85.5114 5.01524 86.3876 5.17086 87.1951C4.97387 86.1178 4.71875 85.0385 4.56608 83.9452C4.39863 85.1121 4.44739 86.4598 4.50797 87.9145C4.52865 88.6433 4.65424 89.3871 4.74486 90.1518C4.85321 90.914 4.94432 91.6961 5.096 92.4747C5.42893 94.026 5.71409 95.6131 6.15043 97.1096C6.34743 97.8613 6.54148 98.6011 6.7301 99.32C6.94828 100.029 7.15266 100.719 7.33587 101.382C7.38069 101.758 7.42501 102.127 7.46835 102.49C7.52794 102.849 7.58655 103.202 7.64466 103.552C7.76434 104.254 7.88155 104.941 7.99877 105.628C8.11549 106.318 8.30707 106.984 8.47304 107.681C8.66019 108.368 8.80843 109.094 9.07191 109.808C9.3221 110.528 9.59494 111.277 9.89979 112.066C10.1968 112.86 10.6198 113.647 11.0355 114.512C11.4408 115.382 11.9737 116.257 12.5588 117.193C12.8557 117.658 13.1394 118.155 13.4876 118.637C13.8407 119.114 14.2076 119.609 14.5888 120.123L13.8831 120.188C15.3177 122.585 17.0291 124.8 18.8006 126.972C17.3567 125.47 17.7226 126.288 17.9176 126.71C17.3793 126.367 17.1882 125.95 16.2732 124.778C15.7383 124.875 15.9333 125.951 16.6292 127.553C16.807 127.949 16.9971 128.396 17.2498 128.833C17.5029 129.271 17.7836 129.731 18.089 130.206C18.3934 130.682 18.7218 131.173 19.0686 131.67C19.4305 132.151 19.825 132.623 20.2249 133.101C19.0971 132.029 18.0831 130.846 17.2724 130.096C18.4766 131.735 21.6374 134.982 23.9512 137.168C26.2861 139.297 27.5611 140.67 24.3786 138.997C21.9664 137.207 20.3279 135.648 19.1139 134.242C17.856 132.884 17.0705 131.619 16.2633 130.449C15.8521 129.871 15.5014 129.25 15.1064 128.624C14.7144 127.995 14.2884 127.351 13.8043 126.652C13.3532 125.925 12.8395 125.147 12.2283 124.286C11.9126 123.862 11.6033 123.395 11.2778 122.893C10.9468 122.395 10.5888 121.871 10.1987 121.315Z" fill="#FFDDD4"/>
</svg>
