<svg width="45" height="65" viewBox="0 0 45 65" fill="none" xmlns="http://www.w3.org/2000/svg">
<path fill-rule="evenodd" clip-rule="evenodd" d="M34.8863 30.0665C35.1877 30.6012 35.4744 31.1085 35.7477 31.5929C36.0063 32.0838 36.2525 32.5507 36.4884 32.9988C36.9632 33.8929 37.4109 34.7024 37.8398 35.4611C38.6239 37.0069 39.3552 38.3441 40.0501 39.756C41.3454 42.6016 42.6904 45.7206 43.767 51.3412C44.0664 53.8155 42.4225 48.5528 43.0514 52.0815C43.3873 53.8299 43.6114 54.8933 43.9275 55.7137C44.227 56.5362 44.5412 57.1271 44.8416 57.956L44.9288 56.5352C44.883 57.953 44.9963 60.8265 44.9327 62.7975C44.851 64.759 44.5161 65.8149 43.5523 63.7638C42.6303 56.8568 40.7519 52.0342 38.9445 47.7354C37.1232 43.4166 35.3005 39.6315 33.6063 34.5466C33.7167 33.8043 33.8516 33.0396 33.9289 32.2919L32.2599 29.4985C31.7004 28.5715 31.0636 27.6898 30.4711 26.7868C30.4115 26.5617 30.4711 26.4467 30.3943 26.163C30.3224 25.8757 30.1081 25.4202 29.4433 24.5559C27.955 22.8309 28.3076 23.6135 28.9281 24.8143C29.5846 25.9972 30.3426 27.7073 29.9968 27.7048C27.6304 24.322 25.0443 21.1079 22.1169 18.2627C21.1979 17.0739 23.1955 18.9592 23.0064 18.5405C22.1967 17.3074 21.2432 16.3779 20.3395 15.5261C19.4511 14.6564 18.4621 14.0152 17.5643 13.3267C16.6729 12.6287 15.7263 12.0472 14.8576 11.3259C13.9987 10.5895 13.1048 9.85722 12.2592 8.88594C13.3451 9.5396 14.4488 10.1818 15.484 10.9261L17.0669 12.0099C17.5865 12.3838 18.0834 12.787 18.5946 13.1758C15.2353 9.97621 12.0316 7.45664 8.97472 5.30747C5.8858 3.20907 2.94659 1.48456 0 0C4.30686 1.85296 8.03061 3.74973 11.4244 5.70275C14.8034 7.67071 17.9091 9.64813 20.7247 11.9486C23.554 14.2238 26.212 16.7055 28.5735 19.6811C29.8097 21.1293 30.8666 22.7667 31.9786 24.4569C32.9887 26.2078 34.0353 28.0324 34.8863 30.0665Z" fill="#FFDDD4"/>
</svg>
