<svg width="36" height="32" viewBox="0 0 36 32" fill="none" xmlns="http://www.w3.org/2000/svg">
<path d="M16.284 25.9022H10.834C9.06804 25.8965 7.63621 24.6358 7.62323 23.0751V13.4946C7.6267 12.9722 7.89123 12.4778 8.34595 12.1439L9.30563 11.5157C9.65599 11.1858 9.69161 10.6824 9.3905 10.3165C9.08939 9.95061 8.53653 9.82547 8.07345 10.0184L7.09008 10.6676C6.09812 11.3459 5.50947 12.3863 5.49062 13.4946V23.0856C5.49713 25.6912 7.88564 27.802 10.834 27.8078H16.284C16.8729 27.8078 17.3503 27.3859 17.3503 26.8655C17.3503 26.345 16.8729 25.9231 16.284 25.9231V25.9022Z" fill="#161616"/>
<path d="M30.5278 13.5124C30.5157 12.414 29.9612 11.3784 29.0166 10.69L21.0453 4.93019C19.2936 3.65429 16.7984 3.65429 15.0467 4.93019L12.5203 6.59227C12.0457 6.90114 11.9372 7.50019 12.2781 7.9303C12.6189 8.3604 13.28 8.45868 13.7547 8.14982L16.3156 6.41456C17.3208 5.66468 18.7712 5.66468 19.7764 6.41456L27.7477 12.1744C28.2064 12.5039 28.4775 13.0028 28.486 13.5333V23.1085C28.486 24.6673 27.0915 25.9309 25.3713 25.9309H23.0064C22.7643 25.9309 22.5681 25.7531 22.5681 25.5337V21.2165C22.5681 19.8408 21.3407 18.7239 19.8225 18.7181H16.3618C15.6305 18.7181 14.9293 18.9814 14.4122 19.4499C13.8952 19.9184 13.6047 20.5539 13.6047 21.2165V22.8681C13.6047 23.3877 14.0695 23.8089 14.6429 23.8089C15.2163 23.8089 15.6811 23.3877 15.6811 22.8681V21.2165C15.6781 21.0539 15.7472 20.897 15.873 20.781C15.9988 20.665 16.1708 20.5997 16.3502 20.5997H19.811C20.1805 20.5997 20.4801 20.8712 20.4801 21.206V25.5337C20.4864 26.794 21.6156 27.8126 23.0064 27.8125H25.3136C28.187 27.8125 30.5163 25.7018 30.5163 23.0981L30.5278 13.5124Z" fill="#161616"/>
</svg>
