<svg width="73" height="55" viewBox="0 0 73 55" fill="none" xmlns="http://www.w3.org/2000/svg">
<path fill-rule="evenodd" clip-rule="evenodd" d="M0 26.8407C0 26.8407 2.05446 19.824 12.3228 11.2791C22.8663 2.50602 30.7692 0.284932 30.7692 0.284932L46.1057 1.1005C46.1057 1.1005 56.1492 1.60411 63.4569 0.0253884C64.9754 -0.302535 69.9255 2.50802 71.6054 10.6826C73.3867 19.3469 69.6434 23.6982 69.6434 23.6982L56.5065 24.7883C56.5065 24.7883 57.7242 29.9512 59.3928 39.8433C60.5829 46.8994 63.9162 60.9282 63.9162 60.9282C63.9162 60.9282 60.8719 67.2246 36.368 67.1692C26.3162 67.1468 14.5638 64.481 11.7499 63.9005C11.2493 63.7972 10.9205 63.3135 11.0013 62.8024L16.575 36.1758C16.575 36.1758 10.5017 33.5075 0 26.8407Z" fill="#FC77A0"/>
</svg>
