<svg width="26" height="39" viewBox="0 0 26 39" fill="none" xmlns="http://www.w3.org/2000/svg">
<path fill-rule="evenodd" clip-rule="evenodd" d="M24.6438 12.8936C23.1017 7.13526 18.8214 1.44208 18.8214 1.44208C17.1833 0.413162 14.2386 0 14.2386 0C14.2386 0 12.3611 5.68521 10.8329 10.5695C9.31448 15.4224 4.80114 16.1467 4.80114 16.1467C4.80114 16.1467 3.53441 15.6827 2.00911 16.3513C0.108528 17.1851 -1.19859 20.6566 1.67027 22.7578C3.41325 24.0346 5.33896 23.606 6.58796 23.0719C6.74359 24.7604 6.92532 26.6669 7.04944 27.7884C7.31047 30.1364 6.81057 32.0375 6.81057 32.0375C6.81057 32.0375 6.42641 37.8944 15.4043 38.1154C19.6182 38.2195 21.9389 36.6853 22.886 34.7604C23.2303 34.0605 22.983 33.5468 22.2201 32.9215C21.5213 32.3486 20.5171 31.3147 20.322 30.0613C20.1378 28.88 20.0068 26.6365 19.9241 24.7678C20.5796 24.5797 21.2066 24.3263 21.7616 23.9798C24.2847 22.4058 26.1853 18.6515 24.6438 12.8936Z" fill="white"/>
</svg>
