<svg width="43" height="22" viewBox="0 0 43 22" fill="none" xmlns="http://www.w3.org/2000/svg">
<path fill-rule="evenodd" clip-rule="evenodd" d="M1.71735 0C1.71735 0 -0.634862 2.34457 0.166448 7.66142C0.96825 12.9773 4.56011 16.2811 12.0334 18.6047C19.5062 20.9289 25.8862 22.1126 30.8359 21.5262C35.7861 20.9394 38.7579 17.9591 40.6737 15.0127C42.5891 12.0663 42.596 8.73813 41.7883 8.17862C41.2165 7.78238 40.6949 8.44742 40.6949 8.44742C40.6949 8.44742 40.7284 6.1815 39.898 5.57669C39.0278 4.94251 38.3181 6.13073 38.3181 6.13073C38.3181 6.13073 38.3181 5.18195 37.3848 4.93206C36.9701 4.82105 36.3081 5.28997 35.7698 6.47121C35.4438 7.18553 34.5587 8.64454 33.061 9.85665C31.5638 11.0693 30.2212 11.1121 30.2212 11.1121C30.2212 11.1121 30.7251 8.83271 30.1321 6.26463C29.5396 3.69705 28.2714 4.06094 28.032 4.5861C27.7927 5.11126 27.606 7.31596 27.0076 8.62862C26.4092 9.94128 25.4208 11.0727 25.1937 11.9852C24.9667 12.8981 24.783 13.1624 24.783 13.1624C24.783 13.1624 21.0823 11.4705 14.4979 7.60816C7.91408 3.74584 1.71735 0 1.71735 0Z" fill="white"/>
</svg>
