<svg width="11" height="14" viewBox="0 0 11 14" fill="none" xmlns="http://www.w3.org/2000/svg">
<path fill-rule="evenodd" clip-rule="evenodd" d="M4.8983 0.148795C3.97534 -0.305185 3.11641 0.310576 1.96788 1.57495C0.818858 2.83982 -0.576908 4.38396 0.24952 5.66575C1.04393 6.89827 2.39144 5.93157 2.39144 5.93157C2.39144 5.93157 0.911942 7.18748 1.82899 8.50711C2.50077 9.47431 3.75864 9.01784 3.75864 9.01784C3.75864 9.01784 2.73718 10.1184 3.53849 11.1006C4.3398 12.0832 5.43119 11.4436 5.43119 11.4436C5.43119 11.4436 4.66583 12.2589 5.26719 12.9852C5.86854 13.7115 7.52927 13.0484 8.92553 12.2047C10.6473 11.1643 11.4152 10.224 10.6198 9.03277C9.82387 7.84207 9.31117 8.49666 9.31117 8.49666C9.31117 8.49666 10.4164 7.31442 9.62292 6.04009C8.98316 5.01266 7.78242 5.28096 7.78242 5.28096C7.78242 5.28096 8.58915 4.63783 8.07005 3.74281C7.16039 2.17229 5.98526 2.85177 5.98526 2.85177C5.98526 2.85177 7.14315 1.25288 4.8983 0.148795Z" fill="white"/>
</svg>
