<svg width="32" height="41" viewBox="0 0 32 41" fill="none" xmlns="http://www.w3.org/2000/svg">
<path fill-rule="evenodd" clip-rule="evenodd" d="M30.382 34.9321C29.3355 33.9396 23.5273 26.7978 22.0774 24.499C20.8382 22.5353 20.0059 21.6278 19.7877 21.4033L20.4935 20.8991C22.3832 19.5481 20.6865 13.8395 16.7041 8.14778C12.7212 2.4566 7.96063 -1.06225 6.07087 0.288743L0.772479 4.07639C-1.11727 5.42738 0.579416 11.136 4.56183 16.8277C8.54474 22.5189 13.3053 26.0377 15.1951 24.6867L15.9127 24.174C16.5578 24.8958 20.5678 29.4331 22.7068 32.9803C24.0075 35.1372 24.4222 36.8093 24.8192 37.896C25.2161 38.9826 27.0231 41.0529 29.2325 39.8791C31.7285 38.553 31.4281 35.9242 30.382 34.9321Z" fill="white"/>
</svg>
