<svg width="11" height="21" viewBox="0 0 11 21" fill="none" xmlns="http://www.w3.org/2000/svg">
<path fill-rule="evenodd" clip-rule="evenodd" d="M9.23781 7.86371C8.52318 8.82593 7.48005 9.44965 6.3005 9.6189C5.12291 9.78666 3.94828 9.4835 2.99577 8.76022C2.04375 8.03793 1.42713 6.98313 1.25919 5.79143C1.09173 4.59973 1.39315 3.414 2.10827 2.45129C2.98346 1.27452 4.32308 0.653285 5.67846 0.653285C6.61077 0.653285 7.54999 0.94648 8.3508 1.55477C10.3159 3.04714 10.7143 5.87705 9.23781 7.86371ZM8.73905 1.03211C6.4878 -0.676783 3.28158 -0.215336 1.59129 2.05905C-0.0994865 4.33442 0.356575 7.57501 2.60734 9.28391C2.97031 9.55968 3.36727 9.76776 3.77803 9.93451L0 20.1177L0.606277 20.3477L4.39317 10.1391C4.80687 10.2481 5.22994 10.3188 5.66285 10.3188C5.90418 10.3188 6.14846 10.3014 6.39226 10.2665C7.74173 10.0729 8.93655 9.35858 9.75559 8.25698C11.4454 5.9821 10.9903 2.74101 8.73905 1.03211Z" fill="white"/>
</svg>
