<svg width="12" height="10" viewBox="0 0 12 10" fill="none" xmlns="http://www.w3.org/2000/svg">
<path fill-rule="evenodd" clip-rule="evenodd" d="M9.17268 0.968837C7.0613 -0.634032 4.06341 -0.203448 2.47753 1.93056C1.691 2.98935 1.40091 4.26766 1.56442 5.48375C1.52404 5.47031 1.4807 5.46434 1.43637 5.46782L0.295233 5.56838C0.117437 5.58381 -0.014062 5.7426 0.00120572 5.9218C0.0154884 6.09254 0.156838 6.22097 0.322813 6.22097C0.332663 6.22097 0.342021 6.21998 0.351379 6.21948L1.49252 6.11943C1.56344 6.11295 1.62303 6.0801 1.67228 6.03629C1.93331 7.06323 2.52531 8.01101 3.42955 8.69746C5.54093 10.3003 8.53833 9.86974 10.1247 7.73573C11.7101 5.60123 11.2841 2.57171 9.17268 0.968837Z" fill="white"/>
</svg>
