<svg width="14" height="12" viewBox="0 0 14 12" fill="none" xmlns="http://www.w3.org/2000/svg">
<path fill-rule="evenodd" clip-rule="evenodd" d="M13.266 4.97275L11.3324 5.14249C11.325 5.14299 11.3186 5.14797 11.3113 5.14896C11.1551 3.61529 10.3972 2.14881 9.08118 1.14975C6.5758 -0.752286 3.01891 -0.241558 1.13753 2.29068C-0.744342 4.82291 -0.23903 8.41742 2.26685 10.3195C4.77223 12.2215 8.32863 11.7108 10.21 9.17804C10.966 8.16106 11.33 6.97285 11.3408 5.7916C11.3472 5.7921 11.3536 5.79509 11.3605 5.79509C11.3694 5.79509 11.3792 5.79459 11.3886 5.79359L13.3222 5.62435C13.5005 5.60892 13.632 5.44963 13.6167 5.27042C13.6014 5.09022 13.4389 4.95682 13.266 4.97275Z" fill="white"/>
</svg>
