<svg width="9" height="10" viewBox="0 0 9 10" fill="none" xmlns="http://www.w3.org/2000/svg">
<path fill-rule="evenodd" clip-rule="evenodd" d="M8.03563 2.10914C7.80415 1.77214 7.53179 1.48094 7.23432 1.23005C7.28849 1.21064 7.33971 1.18127 7.37862 1.13249L7.85734 0.532158C7.96963 0.391285 7.94796 0.185699 7.80907 0.0722041C7.6692 -0.0407932 7.4658 -0.0188907 7.354 0.121983L6.87528 0.722312C6.83046 0.778064 6.81322 0.843772 6.80928 0.909977C5.35195 -0.0432821 3.41049 -0.0736471 1.89652 0.989125C-0.105031 2.39338 -0.601479 5.17152 0.787885 7.19402C2.17725 9.21702 4.92593 9.71879 6.92748 8.31454C8.92854 6.91028 9.42499 4.13214 8.03563 2.10914Z" fill="white"/>
</svg>
