<svg width="8" height="9" viewBox="0 0 8 9" fill="none" xmlns="http://www.w3.org/2000/svg">
<path fill-rule="evenodd" clip-rule="evenodd" d="M0.323149 8.7038C0.417711 8.7038 0.511287 8.66248 0.575313 8.58184L1.79328 7.05464C1.81791 7.02377 1.83318 6.98943 1.845 6.95408C3.06543 7.71569 4.66608 7.72465 5.91951 6.84507C7.60635 5.66183 8.02498 3.32025 6.8538 1.61533C5.68311 -0.0895838 3.36635 -0.512204 1.67952 0.671033C-0.00732357 1.85477 -0.425955 4.19635 0.745228 5.90127C0.924008 6.16111 1.13185 6.3876 1.35791 6.58721C1.33377 6.60414 1.30915 6.62007 1.28994 6.64396L0.0714776 8.17216C-0.0403216 8.31254 -0.0186512 8.51812 0.120236 8.63162C0.180322 8.6804 0.251735 8.7038 0.323149 8.7038Z" fill="white"/>
</svg>
