<svg width="173" height="137" viewBox="0 0 173 137" fill="none" xmlns="http://www.w3.org/2000/svg">
<path fill-rule="evenodd" clip-rule="evenodd" d="M170.422 97.2674C170.063 99.0825 170.038 102.042 169.524 107.098C169.549 106.165 169.417 106.089 169.322 105.916C169.246 105.795 169.218 105.622 169.235 105.095C169.213 105.361 169.186 105.63 169.146 105.901C169.066 106.492 168.993 107.1 168.875 107.701C168.743 108.3 168.6 108.899 168.455 109.485C168.32 110.073 168.098 110.628 167.923 111.169C167.622 112.14 167.199 112.978 166.858 113.699C168.897 108.146 169.389 101.788 168.941 94.6834C168.191 82.8021 164.958 66.8081 158.271 51.5147C159.227 53.3774 160.141 55.2686 161.027 57.1788C161.745 57.2818 158.938 50.0468 161.072 53.975C161.965 55.9291 161.609 55.8852 161.651 56.3455C162.099 57.3172 162.486 58.3159 162.908 59.3025L163.527 60.7878L164.103 62.2922L163.475 64.4931C164.44 69.774 165.842 73.7308 167.296 78.1753C168.717 82.6081 170.203 87.5514 170.524 94.5719C170.66 94.9471 170.785 95.2203 170.9 95.4127C170.719 95.8349 170.549 96.4198 170.422 97.2674ZM156.03 46.6941C155.111 44.8277 154.139 42.9799 153.109 41.1595C153.234 41.3265 153.359 41.4929 153.479 41.6662C153.803 42.1492 154.13 42.648 154.45 43.1738C155.091 44.2264 155.728 45.3805 156.204 46.7723C156.223 46.8875 156.146 46.8267 156.03 46.6941ZM119.792 8.76275C120.083 8.43989 120.303 8.09853 121.807 8.48005C123.128 9.1189 124.959 10.3934 126.399 11.3721C127.127 11.8482 127.678 12.3972 128.038 12.7406C128.39 13.0994 128.512 13.3198 128.285 13.323C128.544 13.5528 128.81 13.7774 129.078 14.0004C126.172 12.0167 123.078 10.2582 119.792 8.76275ZM52.5113 11.2706C43.5983 14.8617 35.9116 19.562 29.4173 25.3872C29.4568 25.3486 29.4958 25.3106 29.5349 25.272L30.3521 24.4767L31.2079 23.7237C31.7801 23.2212 32.3553 22.7176 32.931 22.2125C33.5303 21.738 34.1315 21.2629 34.7332 20.7863L35.6405 20.0719L36.5793 19.4008C37.2085 18.9559 37.8387 18.5094 38.4705 18.0623C39.1212 17.6465 39.7729 17.2295 40.4261 16.8116C41.7211 15.9518 43.0971 15.2348 44.448 14.4548C49.9315 11.4973 55.8175 9.22725 61.8376 7.54795C58.2563 8.64335 55.1468 9.99609 52.5113 11.2706ZM45.9502 137.81C44.1649 137.722 42.6473 137.656 41.7514 137.749C40.5069 137.352 40.1237 137.038 40.1522 136.815C42.0866 137.179 44.1134 137.514 46.2363 137.819C46.1423 137.817 46.0422 137.813 45.9502 137.81ZM172.552 103.156C172.364 100.881 172.051 98.7909 171.624 95.3927C171.776 95.036 171.897 94.4453 171.996 93.7234C172.285 91.734 172.319 88.8351 172.54 87.4079L172.31 88.8346C172.102 87.9743 171.844 87.3566 171.6 86.5122C171.348 85.6688 171.191 84.583 171.016 82.8122C170.697 79.2391 171.877 84.6162 171.795 82.1211C171.143 76.4396 170.216 73.2363 169.183 70.319C168.921 69.5919 168.662 68.8759 168.397 68.1398C168.114 67.4116 167.823 66.6639 167.513 65.866C166.931 64.2591 166.202 62.4768 165.426 60.1977C163.177 51.8166 159.832 45.6156 155.865 39.7703C153.824 36.8741 151.698 34.0037 149.242 31.0584C146.851 28.0617 144.108 25.0212 140.987 21.631C145.191 26.5954 149.014 32.4005 153.485 40.4134L151.263 37.3444L148.924 34.389C148.926 34.3958 148.929 34.4016 148.931 34.408C145.58 29.4557 141.753 24.822 137.405 20.7173C138.158 21.3488 138.868 21.9802 139.555 22.5446C140.65 23.427 141.533 24.3311 142.279 25.0641C140.742 22.3612 137.383 18.7331 135.103 16.1967C132.745 13.7793 131.575 12.2284 134.773 13.5726C133.93 12.8699 133.165 12.2495 132.464 11.6973C131.737 11.1821 131.066 10.7472 130.452 10.3504C129.836 9.95618 129.271 9.60954 128.739 9.2962C128.212 8.97334 127.675 8.75933 127.179 8.51943C126.174 8.05971 125.234 7.6671 124.208 7.23327C123.159 6.84911 122.004 6.46813 120.616 5.93707C120.282 5.76058 119.917 5.56507 119.522 5.38118C119.119 5.22107 118.695 5.05198 118.262 4.88024C117.393 4.54153 116.492 4.19067 115.656 3.86516C115.448 3.78167 115.244 3.7003 115.045 3.62051C114.843 3.5534 114.647 3.4884 114.458 3.42552C114.081 3.29712 113.736 3.17188 113.435 3.05088C112.835 2.80939 112.414 2.58535 112.282 2.38983C111.603 2.27041 111.015 2.16684 110.492 2.07437C109.966 1.99828 109.497 1.96869 109.069 1.91637C108.213 1.82179 107.502 1.7235 106.711 1.56815C106.315 1.49047 105.9 1.398 105.436 1.28492C104.969 1.19562 104.451 1.0968 103.855 0.982667C103.259 0.860075 102.585 0.721631 101.803 0.560993C101.021 0.402469 100.133 0.174195 99.0995 0.0579438C97.6695 0.00827297 96.257 -0.00863626 95.0051 0.00404566C93.7546 0.056887 92.6657 0.210127 91.877 0.323736C90.2989 0.57209 89.9243 0.838939 91.8249 1.02758L93.7781 0.993236C94.1032 0.991122 94.4288 0.974741 94.7545 0.984253L95.7318 1.03815L99.6407 1.25639C100.942 1.36947 102.237 1.5803 103.535 1.73988C104.182 1.83553 104.835 1.8889 105.478 2.02047L107.404 2.42629C110.933 3.7933 109.047 3.8937 106.63 3.81708C106.022 3.80122 105.382 3.75631 104.772 3.74785C104.159 3.76582 103.582 3.7859 103.113 3.81761C103.02 3.82395 102.936 3.83082 102.853 3.83821C96.8787 2.98271 90.426 2.89024 83.4565 3.72302C78.5558 4.3085 73.8982 5.10482 69.4572 6.09137C69.6652 6.02109 69.8733 5.95187 70.0814 5.88106C71.8245 5.33362 73.5781 4.7957 75.3442 4.30375C73.5651 4.60706 71.7935 4.96003 70.0229 5.31883C68.2617 5.72835 66.4896 6.08556 64.7445 6.57328C65.1672 6.22928 65.8069 5.79229 66.4036 5.38488C67.0023 4.98646 67.554 4.5949 67.7841 4.29054C68.0142 3.98617 67.9221 3.77005 67.2294 3.72355C66.8833 3.70294 66.3851 3.71562 65.7049 3.79805C65.0266 3.8937 64.1648 4.04852 63.0834 4.27468L61.819 4.73335L60.5711 5.23534C59.7433 5.56824 58.918 5.90008 58.0962 6.23034C57.2839 6.58861 56.4746 6.94581 55.6669 7.30249C54.8586 7.65019 54.0583 8.01109 53.2695 8.40476C52.4783 8.78311 51.6885 9.16145 50.8997 9.53927L48.5694 10.7499L47.406 11.3501L46.2606 11.9927L43.9688 13.2704C40.9372 15.0348 37.9637 16.926 34.9812 18.9429C32.0286 21.0101 29.0826 23.2157 26.1126 25.6432C18.6355 32.7387 12.6279 41.8089 8.629 51.9011C6.6248 56.9469 5.09477 62.2321 3.97688 67.6431C2.84849 73.0482 2.18176 78.6151 1.76111 84.1724C2.89851 80.5549 1.59556 89.1009 2.95103 82.2727C2.96803 83.4115 2.97904 84.4852 2.95803 85.6223C2.63592 88.5704 2.39183 91.4048 2.25829 94.125C1.93467 92.1837 1.75161 91.7472 1.53954 92.199C1.31646 92.6735 1.1589 94.1383 1.02286 95.8281C0.735256 99.2026 0.857798 103.522 0 102.564C0.248586 105.316 0.434151 107.364 0.589705 109.088C0.69024 109.96 0.757263 110.758 0.808281 111.527C0.902814 112.297 0.993345 113.03 1.08438 113.771C1.1499 114.526 1.33246 115.269 1.50802 116.08C1.60506 116.485 1.70609 116.904 1.81063 117.342C1.94618 117.771 2.11023 118.214 2.28429 118.683C2.45936 119.152 2.65292 119.644 2.868 120.164C3.11808 120.664 3.40018 121.186 3.70729 121.741C4.28249 122.882 5.1613 123.993 6.13764 125.287C7.60264 126.52 8.06831 126.678 7.92276 126.219C7.79171 125.743 6.97993 124.721 6.14064 123.249C5.92056 122.893 5.68898 122.518 5.4499 122.131C5.22332 121.736 5.02025 121.305 4.79817 120.883C4.58109 120.46 4.36052 120.031 4.14094 119.604C3.93287 119.171 3.76831 118.716 3.58525 118.285C3.40969 117.852 3.23663 117.427 3.07057 117.019C2.90801 116.61 2.80548 116.196 2.68293 115.82C2.45836 115.058 2.23778 114.404 2.13274 113.888C2.32981 114.424 2.5984 115.061 2.84299 115.77C2.97403 116.122 3.08657 116.498 3.23863 116.866C3.39868 117.231 3.56224 117.603 3.7258 117.975C3.25913 116.757 3.03506 115.484 2.83299 114.341C2.65742 113.189 2.65592 112.112 2.65592 111.238C2.72595 110.223 2.876 109.458 3.08507 109.007C4.49556 115.974 7.66067 121.82 13.6282 126.496C13.4587 126.854 13.3396 127.216 13.5192 127.683C13.6157 127.934 13.7983 128.215 14.1039 128.541C14.4085 128.868 14.8322 129.249 15.4529 129.607C16.1856 130.725 19.5203 132.647 23.0185 133.874C23.8763 134.242 24.7651 134.485 25.5979 134.78C26.4372 135.051 27.224 135.371 27.9522 135.587C29.4012 136.051 30.5296 136.505 31.0243 136.942C36.8553 138.19 41.9776 139.368 46.4307 140.202C50.8787 140.995 54.6385 141.334 57.601 140.515C60.423 141.298 63.264 142.094 66.118 142.784C73.0649 143.619 77.7645 143.029 82.7033 142.654C84.9315 141.993 77.3759 141.543 83.2895 140.738C85.4407 140.597 89.0995 140.387 91.1767 140.747C91.7409 141.16 88.964 141.453 88.3407 141.572C99.6347 141.134 107.52 142.687 116.362 142.776C122.178 142.081 129.164 141.274 135.514 139.838C138.689 139.153 141.692 138.239 144.286 137.29C145.577 136.775 146.768 136.26 147.823 135.749C148.871 135.192 149.788 134.66 150.544 134.159C149.439 134.589 148.341 135.044 147.234 135.446C146.119 135.812 145.011 136.205 143.895 136.543C146.305 135.664 147.481 135.094 148.038 134.622C148.601 134.172 148.573 133.917 148.587 133.662C148.6 133.407 148.654 133.152 149.362 132.708C149.721 132.498 150.226 132.197 150.967 131.809C151.338 131.617 151.768 131.402 152.267 131.163C152.768 130.929 153.31 130.601 153.945 130.273C157.755 128.322 158.74 127.697 159.018 127.952C159.286 128.171 158.732 129.071 159.183 129.205C161.258 127.728 163.709 125.203 165.61 122.408C167.549 119.627 168.847 116.625 169.782 114.732C169.567 115.464 169.373 115.927 169.29 116.213C169.203 116.498 169.202 116.597 169.262 116.562C169.367 116.489 169.771 115.9 170.111 115.173C170.45 114.439 170.832 113.613 171.054 113.134C171.249 112.648 171.327 112.523 171.142 113.227C171.935 110.821 172.324 108.901 172.477 107.298C172.659 105.69 172.617 104.396 172.552 103.156Z" fill="#BB87AC" fill-opacity="0.42"/>
</svg>
