<svg width="28" height="25" viewBox="0 0 28 25" fill="none" xmlns="http://www.w3.org/2000/svg">
<path fill-rule="evenodd" clip-rule="evenodd" d="M19.8831 9.22918C19.5393 10.0953 19.003 10.8251 18.347 11.395C18.1707 10.7569 17.9953 10.1456 17.8259 9.58012C17.7742 9.40789 17.5944 9.31032 17.4225 9.36209C17.2516 9.41436 17.1551 9.59705 17.2063 9.76978C17.4196 10.4806 17.6122 11.1581 17.7944 11.8207C16.3154 12.8127 14.3946 13.0806 12.627 12.3637C10.689 11.5782 9.42865 9.8096 9.175 7.85231C10.3354 6.91647 11.5661 5.98561 12.8604 5.08014C12.8944 5.05625 12.9289 5.03434 12.9629 5.01095C13.676 5.2917 14.4084 5.58987 15.1708 5.9219C16.9463 6.69546 18.6292 7.52029 20.1461 8.35308C20.0806 8.64877 19.9969 8.94246 19.8831 9.22918ZM9.52585 5.02926C9.67607 4.64995 9.86765 4.29453 10.0888 3.9635C10.7724 4.19049 11.4875 4.44387 12.2351 4.72711C11.1551 5.48971 10.1188 6.26875 9.13086 7.05376C9.13923 6.37826 9.26236 5.69331 9.52585 5.02926ZM12.5113 1.9435C13.8416 1.36806 15.3093 1.34068 16.6597 1.8524C15.4058 2.59908 14.1386 3.41246 12.8847 4.27711C12.0843 3.96699 11.2894 3.67728 10.5123 3.41346C11.0555 2.78625 11.7307 2.28099 12.5113 1.9435ZM19.8351 4.9135C20.2084 5.79657 20.3483 6.73938 20.2587 7.66924C18.7757 6.86432 17.1416 6.06886 15.4262 5.32168C14.8258 5.06035 14.2215 4.81096 13.6172 4.56853C14.8721 3.71483 16.1354 2.91638 17.3824 2.18613C18.4773 2.78945 19.3377 3.73624 19.8351 4.9135ZM24.1922 10.0833C23.2372 9.4053 22.1079 8.70541 20.8653 8.00851C21.0243 6.88202 20.884 5.72965 20.4299 4.65642C19.9265 3.46522 19.0908 2.48558 18.0279 1.81058C18.7721 1.38747 19.5094 0.982766 20.2255 0.618885C20.3861 0.538244 20.4501 0.341618 20.3698 0.180336C20.29 0.019551 20.0965 -0.0461567 19.9354 0.0344846C19.0982 0.459594 18.2328 0.940952 17.3601 1.44521C17.2478 1.39195 17.1385 1.3357 17.0222 1.2889C15.4787 0.661694 13.7869 0.682104 12.2572 1.34267C11.2978 1.75732 10.4748 2.39349 9.84196 3.19443C5.39412 1.75234 1.65796 1.21921 1.06055 2.61998C0.512882 3.90626 2.96409 5.84364 5.11734 7.24192C5.26804 7.34098 5.46751 7.29568 5.56404 7.14436C5.66057 6.99203 5.61723 6.78944 5.46702 6.69237C2.10565 4.50858 1.48903 3.2676 1.65451 2.87883C1.96578 2.15007 4.89472 2.31534 9.44894 3.75792C9.24652 4.08148 9.06922 4.42396 8.9254 4.78684C8.5644 5.6963 8.43634 6.6411 8.50037 7.55951C6.23188 9.40928 4.26431 11.276 2.77792 13.0118C1.08419 14.989 -0.721835 17.6571 0.294701 19.141C0.70693 19.7438 1.46588 19.9738 2.38687 19.9738C4.21309 19.9738 6.67317 19.0653 8.31322 18.3575C8.47771 18.2863 8.55356 18.0946 8.48363 17.9284C8.4132 17.7616 8.22112 17.685 8.05908 17.7557C4.28598 19.3849 1.51366 19.7737 0.826609 18.7686C0.235108 17.9055 1.14772 15.9138 3.26698 13.4399C4.66226 11.8106 6.48946 10.0619 8.5969 8.32013C8.98746 10.3491 10.3512 12.1456 12.3858 12.9709C13.1432 13.2781 13.9258 13.4239 14.6966 13.4239C15.8619 13.4239 16.9927 13.0805 17.9708 12.4712C19.9034 19.6995 19.9994 23.8441 19.2223 24.1044C18.8401 24.2299 17.533 23.2373 15.3029 18.5651C15.2261 18.4023 15.032 18.3351 14.871 18.4127C14.7104 18.4909 14.6429 18.6865 14.7207 18.8493C16.5972 22.7808 18.089 24.768 19.1627 24.7675C19.2538 24.7675 19.341 24.7535 19.4257 24.7252C21.2317 24.1203 19.9364 17.334 18.5308 12.0719C19.369 11.4114 20.06 10.5398 20.4836 9.473C20.587 9.21315 20.6658 8.94833 20.7333 8.68152C21.8833 9.33312 22.9294 9.98572 23.8203 10.6184C26.1779 12.293 26.8138 13.3572 26.6429 13.7604C26.4705 14.1616 25.0979 14.5634 21.0386 13.5175C20.8638 13.4712 20.6889 13.5777 20.6451 13.7535C20.6008 13.9282 20.7052 14.1059 20.8786 14.1507C22.295 14.5161 23.8957 14.8371 25.1471 14.8366C26.1843 14.8366 26.9817 14.6166 27.2363 14.0193C27.622 13.1158 26.5976 11.7917 24.1922 10.0833Z" fill="white"/>
</svg>
