<svg width="28" height="34" viewBox="0 0 28 34" fill="none" xmlns="http://www.w3.org/2000/svg">
<path fill-rule="evenodd" clip-rule="evenodd" d="M8.49776 19.9598C6.65185 16.8898 8.2035 13.8093 9.90549 10.5541C13.5505 10.5312 16.9722 10.5601 18.8181 13.6301C20.6645 16.7001 19.1124 19.7805 17.4104 23.0352C13.7639 23.0576 10.3437 23.0298 8.49776 19.9598ZM27.2679 26.422C25.2978 23.1464 21.7035 23.0095 18.1443 23.03C19.8014 19.8465 21.3412 16.5654 19.3711 13.2893C17.401 10.0132 13.8087 9.8778 10.2475 9.89771C11.9047 6.71371 13.444 3.43314 11.4744 0.157047C11.3827 0.00372154 11.183 -0.0465573 11.0298 0.0475289C10.877 0.141117 10.8282 0.342233 10.9213 0.496554C12.7672 3.56655 11.2156 6.647 9.51359 9.90169C5.86612 9.92409 2.44687 9.89621 0.600463 6.82622C0.507798 6.67239 0.310638 6.62311 0.155867 6.7167C0.00306737 6.81029 -0.0457298 7.0114 0.0469356 7.16622C2.01706 10.4418 5.60834 10.5762 9.17103 10.5578C7.51389 13.7418 5.97407 17.0229 7.9442 20.299C9.91383 23.5746 13.5061 23.711 17.0678 23.691C15.4102 26.8745 13.8703 30.1556 15.8405 33.4312C15.9011 33.5328 16.0081 33.5885 16.1175 33.5885C16.1747 33.5885 16.2323 33.5731 16.2856 33.5412C16.4379 33.4476 16.4867 33.246 16.394 33.0917C14.5476 30.0212 16.0997 26.9408 17.8017 23.6861C21.4467 23.6627 24.8684 23.692 26.7144 26.762C26.775 26.8631 26.8819 26.9188 26.9914 26.9188C27.0485 26.9188 27.1067 26.9034 27.159 26.8716C27.3122 26.778 27.361 26.5764 27.2679 26.422Z" fill="#393F49"/>
</svg>
