<svg width="18" height="9" viewBox="0 0 18 9" fill="none" xmlns="http://www.w3.org/2000/svg">
<path fill-rule="evenodd" clip-rule="evenodd" d="M0.621299 8.5331C0.795786 8.49327 0.904717 8.31804 0.865285 8.14182C0.467514 6.36662 0.615877 5.12608 1.28474 4.64868L5.40293 1.70612C5.20429 2.63752 5.32555 3.90445 5.78592 5.44767C5.83718 5.61991 6.01659 5.71897 6.18911 5.6667C6.36064 5.61443 6.45725 5.43223 6.40549 5.25949C5.7386 3.02283 5.80514 1.41938 6.58688 0.86034C8.11586 -0.227874 12.5722 2.63802 16.7771 8.64212C16.8402 8.73222 16.9403 8.78051 17.0418 8.78051C17.1064 8.78051 17.1719 8.7611 17.2281 8.72027C17.3745 8.61573 17.4095 8.41163 17.306 8.26428C13.3332 2.59222 8.70635 -0.831719 6.50358 0.174855L6.47746 0.138017L6.21375 0.326687C6.21326 0.326687 6.21326 0.326687 6.21326 0.326687C6.21277 0.326687 6.21277 0.327185 6.21277 0.327185L0.910631 4.11453C0.00122915 4.76417 -0.232406 6.20683 0.233878 8.28618C0.27331 8.46241 0.446812 8.57292 0.621299 8.5331Z" fill="#393F49"/>
</svg>
