<svg width="14" height="19" viewBox="0 0 14 19" fill="none" xmlns="http://www.w3.org/2000/svg">
<path fill-rule="evenodd" clip-rule="evenodd" d="M12.8002 17.8196C12.574 17.9824 11.7297 17.8326 9.99662 16.257C8.47306 14.8726 6.73213 12.8221 5.09472 10.4844C1.38169 5.18171 0.0981799 1.21366 0.812886 0.702904C0.87302 0.660092 0.950899 0.638686 1.04554 0.638686C2.08112 0.638686 5.1169 3.18101 8.51792 8.03864C10.1558 10.3769 11.4901 12.7171 12.2753 14.6287C13.1689 16.8051 13.0255 17.6583 12.8002 17.8196ZM0.439613 0.16853C-1.0312 1.21891 1.40274 6.34288 4.56667 10.861C6.2312 13.2376 8.00564 15.3264 9.5637 16.7421C10.8699 17.9299 11.8867 18.5263 12.5985 18.5263C12.8198 18.5263 13.012 18.4685 13.1742 18.3531C13.8579 17.8647 13.7563 16.5276 12.873 14.3775C12.0706 12.4226 10.7117 10.0371 9.04714 7.66058C5.88321 3.14245 1.90994 -0.88185 0.439613 0.16853Z" fill="#393F49"/>
</svg>
