<svg width="4" height="6" viewBox="0 0 4 6" fill="none" xmlns="http://www.w3.org/2000/svg">
<path fill-rule="evenodd" clip-rule="evenodd" d="M1.87545 2.7959L2.94258 3.58393C2.98743 3.60783 3.01849 3.65462 3.02046 3.69843C3.02144 3.71286 3.02342 3.75617 2.94603 3.80844L1.93608 4.51981C1.78919 4.62336 1.7537 4.82746 1.85573 4.97531C1.91883 5.06641 2.01888 5.1152 2.12141 5.1152C2.18548 5.1152 2.25005 5.09628 2.30625 5.05646L3.31226 4.34807C3.55082 4.18529 3.67996 3.93738 3.66764 3.66756C3.65433 3.39576 3.49512 3.14287 3.2886 3.03335L2.27864 2.28514C1.1844 1.32935 0.619538 0.193342 0.613623 0.181892C0.533773 0.0201036 0.340556 -0.0461052 0.180363 0.0340423C0.0196776 0.113692 -0.0453853 0.309829 0.0334789 0.471618C0.057631 0.522892 0.657492 1.73407 1.87545 2.7959Z" fill="#393F49"/>
</svg>
