<svg width="4" height="5" viewBox="0 0 4 5" fill="none" xmlns="http://www.w3.org/2000/svg">
<path fill-rule="evenodd" clip-rule="evenodd" d="M2.68985 3.34406C1.99584 3.69701 1.14904 3.41624 0.799079 2.71781C0.448627 2.01839 0.727116 1.16215 1.41964 0.808708C1.75432 0.637461 2.13484 0.607094 2.49318 0.726071C2.66323 0.782324 2.8456 0.689233 2.9018 0.517488C2.95749 0.345744 2.86483 0.161056 2.69478 0.104803C2.17279 -0.0689325 1.61582 -0.0251252 1.12686 0.224776C0.115918 0.741503 -0.290232 1.992 0.220906 3.01301C0.468836 3.50784 0.892731 3.87522 1.41422 4.04796C1.62469 4.11766 1.84058 4.1525 2.05647 4.1525C2.3739 4.1525 2.69034 4.07684 2.98214 3.92749C3.14135 3.84585 3.20542 3.64922 3.12508 3.48842C3.04375 3.32663 2.84906 3.26142 2.68985 3.34406Z" fill="#393F49"/>
</svg>
