<svg width="12" height="7" viewBox="0 0 12 7" fill="none" xmlns="http://www.w3.org/2000/svg">
<path fill-rule="evenodd" clip-rule="evenodd" d="M11.0542 6.00755C10.4159 6.07326 9.70219 6.09765 8.93573 6.07823C5.70229 5.99859 3.3551 5.17969 1.95871 3.64444C0.561337 2.10819 0.649073 0.364861 0.650059 0.347437C0.66041 0.167728 0.525355 0.0124106 0.346925 0.00145872C0.167016 -0.0159647 0.0152025 0.124916 0.00337291 0.305123C-0.002049 0.386764 -0.109501 2.32723 1.47025 4.07405C2.98887 5.75316 5.49528 6.64773 8.91995 6.73236C9.09493 6.73634 9.26745 6.73833 9.43701 6.73833C10.0369 6.73833 10.6007 6.71195 11.1203 6.65818C11.2977 6.63976 11.4273 6.47947 11.4096 6.29976C11.3914 6.12055 11.241 5.99211 11.0542 6.00755Z" fill="#393F49"/>
</svg>
