<svg width="85" height="89" viewBox="0 0 85 89" fill="none" xmlns="http://www.w3.org/2000/svg">
<path fill-rule="evenodd" clip-rule="evenodd" d="M75.8668 57.5412L63.1209 58.5941C59.9274 46.2554 56.2395 39.0177 56.202 38.9455C56.1197 38.7852 55.924 38.7235 55.7658 38.8061C55.6066 38.8893 55.545 39.0869 55.6273 39.2467C55.6648 39.3194 59.3729 46.5974 62.5614 59.0147L62.5619 59.0182C62.5743 59.07 63.7991 64.2731 65.4489 74.0128C66.5673 80.6167 69.6085 93.4861 69.9515 94.9318C69.7149 95.2827 68.6631 96.5865 65.442 97.8748C61.9705 99.2642 55.2221 100.89 42.7104 100.886C33.4689 100.864 22.9194 98.6415 18.9476 97.8042L18.122 97.6314C17.7907 97.5632 17.5734 97.2456 17.6241 96.924L20.7531 82.0365C26.6235 84.0447 32.3441 85.0149 36.3219 85.0149C37.1139 85.0149 37.838 84.9766 38.4788 84.9009C42.668 84.4041 45.9645 82.2267 48.5571 78.2417C50.5366 75.1986 50.5958 71.6576 49.5853 70.9582C49.2378 70.7178 48.8933 70.7402 48.6109 70.8626C48.5566 70.0866 48.3639 68.844 47.6995 68.3606C47.4067 68.1471 47.0824 68.0699 46.7615 68.1356C46.4929 68.1914 46.2651 68.3372 46.0867 68.4946C45.9211 68.1506 45.613 67.8081 45.0782 67.6652C44.6834 67.5592 44.2433 67.7663 43.8332 68.2118L36.2602 54.9606C35.6101 53.8231 34.2743 53.2476 33.0115 53.5587L28.9766 54.5559L28.4699 53.7618C27.9144 52.8927 26.8705 52.4571 25.8699 52.6806L19.4084 54.1203C18.921 54.2293 18.5296 54.5578 18.3339 55.0223C18.1392 55.4868 18.1767 56 18.4384 56.4301L18.8249 57.0653L15.6037 57.8618C15.0606 57.9962 14.6273 58.3726 14.4159 58.8963C14.2044 59.42 14.2532 59.9959 14.5494 60.4763L19.2941 68.165C16.4954 66.7084 12.2047 64.3338 6.68076 60.8497C7.14507 59.5728 9.80033 53.2113 18.8367 45.7217C25.9877 39.7953 31.9636 36.8686 35.0122 35.6152C35.027 35.4982 35.0398 35.3722 35.0521 35.2418C35.0521 35.2413 35.0526 35.2413 35.0526 35.2413C35.0541 35.2244 35.0551 35.205 35.0566 35.188C35.0659 35.089 35.0743 34.9894 35.0817 34.8839C35.0807 34.8839 35.0797 34.8844 35.0788 34.8849C35.1256 34.2183 35.134 33.4303 35.0388 32.5735C34.9225 31.5246 34.7564 29.7898 34.6075 28.1878C35.5007 27.8219 36.0932 27.3933 36.1074 27.3829C36.2509 27.2758 36.2809 27.0712 36.1755 26.9259C36.0695 26.7805 35.8664 26.7496 35.723 26.8572C35.6904 26.8811 32.491 29.2148 29.8451 27.2783C28.7336 26.4644 28.1944 25.3413 28.327 24.1152C28.4537 22.9459 29.1925 21.8442 30.1231 21.436C31.5033 20.8312 32.6675 21.2344 32.6798 21.2389L32.7582 21.2668L32.8395 21.2538C32.8868 21.2463 37.5723 20.4404 39.1339 15.4523C39.191 15.2691 39.2492 15.0839 39.3074 14.8988C39.5607 14.3288 40.1828 13.472 41.658 13.3909C41.8359 13.3814 41.973 13.2271 41.9631 13.0469C41.9537 12.8662 41.7945 12.7198 41.622 12.7383C40.8373 12.7811 40.2508 13.0145 39.8067 13.3212C40.9571 9.70361 42.1312 6.13082 42.454 5.14963C43.1944 5.27558 45.3109 5.68827 46.5979 6.47182C46.762 6.69534 47.4728 7.67851 48.3565 9.10823C46.659 8.7513 45.651 9.9555 45.3543 10.6564C45.2833 10.8222 45.3597 11.0148 45.5238 11.0855C45.5652 11.1039 45.6086 11.1119 45.6515 11.1119C45.7767 11.1119 45.8965 11.0377 45.9492 10.9138C45.9758 10.8506 46.6294 9.3641 48.2974 9.76135C48.4433 9.7957 48.5857 9.72103 48.6533 9.5926C49.9555 11.7561 51.5303 14.7629 52.3342 17.7637C53.8608 23.4586 51.9187 27.0369 49.5927 28.4865C47.6748 29.6827 45.0625 29.7763 43.2589 29.4662C41.517 29.166 40.233 28.6667 38.8278 27.7443C38.6789 27.6452 38.4778 27.689 38.3802 27.8398C38.2826 27.9917 38.325 28.1938 38.4753 28.2924C39.9402 29.2546 41.3386 29.7987 43.15 30.1104C43.7277 30.2099 44.3837 30.2697 45.0753 30.2697C46.0014 30.2697 46.9897 30.1572 47.9395 29.8938C48.0228 31.6884 48.1485 33.7354 48.3215 34.8465C48.3531 35.0491 48.4117 35.2433 48.4807 35.4335L52.4456 35.6435C52.5467 35.648 62.63 36.1294 69.9042 34.5643C70.2635 34.4866 71.0522 34.6409 72.0976 35.3294C73.3501 36.1548 76.4021 38.7424 77.6812 44.9406C79.2624 52.6019 76.3873 56.8508 75.8668 57.5412ZM20.0163 57.7751L18.9901 56.088C18.8402 55.8411 18.8181 55.5454 18.9304 55.2786C19.0428 55.0112 19.2676 54.8221 19.5485 54.7594L26.0105 53.3197C26.1386 53.2908 26.2682 53.2774 26.3969 53.2774C27.0046 53.2774 27.5882 53.5875 27.9254 54.1167L28.9585 55.7366L20.0163 57.7751ZM82.5926 20.3017C82.4146 20.3236 82.2885 20.4863 82.3102 20.6656C83.5858 31.1315 83.7386 41.9061 82.666 45.7283C82.0465 47.9351 80.2247 49.4778 78.78 50.3998C78.8628 48.7899 78.7539 46.9291 78.3162 44.8069C76.9873 38.3692 73.7726 35.6512 72.4516 34.7815C71.4244 34.1055 70.4219 33.7878 69.7708 33.9247C67.9524 34.3155 65.9557 34.5774 63.9836 34.7501C64.3173 29.1721 63.2186 25.4849 59.5209 23.4523C55.587 21.2903 55.7768 18.8605 54.4001 13.2502C53.0235 7.63984 48.8717 2.79167 44.8088 0.768065C40.7458 -1.25554 38.9501 1.35946 38.9501 1.35946C38.9501 1.35946 30.8823 -1.20824 25.7458 5.01588C20.6103 11.2395 23.1808 16.6771 23.5657 20.4341C23.9507 24.1916 22.7041 26.9245 18.3641 28.8142C14.0241 30.7039 11.1205 31.6049 10.666 38.3518C10.212 45.0981 7.97181 45.8478 5.23473 47.8206C2.49765 49.7935 -2.41362 56.7309 1.39207 65.577C3.24784 69.8896 5.93366 72.8715 9.23807 74.9394C8.47802 73.6884 7.98659 72.29 7.74803 70.7105C7.05058 66.0873 8.73876 63.7132 9.19125 63.1721C9.25877 63.091 9.30018 63.0487 9.30018 63.0487C9.30018 63.0487 9.764 63.3284 10.5521 63.8028C10.6192 63.8432 10.6852 63.8825 10.7562 63.9253C10.8829 64.0015 11.0165 64.0816 11.1579 64.1663C11.1584 64.1667 11.1594 64.1672 11.1604 64.1682C12.3084 64.8572 13.9147 65.8185 15.7803 66.9281C15.8188 66.9515 15.8567 66.9739 15.8957 66.9973C16.1397 67.1427 16.3881 67.29 16.64 67.4394L16.7627 67.5125C17.8274 68.1448 18.9541 68.8118 20.1164 69.4963C20.1248 69.5013 20.1341 69.5068 20.1425 69.5117C20.4486 69.6925 20.7577 69.8741 21.0672 70.0564C20.9637 69.798 20.8523 69.5227 20.7483 69.2753C20.7458 69.2738 20.7434 69.2728 20.7404 69.2713L20.0099 68.0875L15.1001 60.1305C14.9153 59.8308 14.8843 59.4704 15.0168 59.1438C15.1489 58.8163 15.419 58.5808 15.7592 58.4967L19.1823 57.6504L19.7083 58.5161L30.0055 56.1679L29.3484 55.138L33.1664 54.1946C34.1503 53.9497 35.1933 54.4002 35.7009 55.2878L43.4114 68.781C43.2975 68.9646 43.1871 69.1618 43.0856 69.3838C42.7036 70.2231 41.7878 71.5821 40.4668 72.6509C39.5574 73.3867 38.7057 73.6665 38.2236 73.7715C38.3429 72.9626 38.5041 71.1914 38.0531 69.2399C37.6149 67.3418 36.8129 66.9819 36.3733 66.9376C35.937 66.8913 35.5127 67.1232 35.3421 67.4986C35.2327 67.7385 35.1504 68.1806 35.036 68.7924C34.8714 69.6755 34.6668 70.7742 34.3169 71.5418C34.0586 72.1073 33.7259 72.637 33.4045 73.1492C33.0008 73.7919 32.6203 74.3987 32.4818 74.9548C32.3827 75.3511 32.294 75.6159 32.2285 75.7827C31.3398 75.37 28.3434 73.9203 22.9703 70.7702C22.9156 70.7383 22.8574 70.7299 22.7993 70.7314L22.8027 70.7164C22.7041 70.7065 22.5863 70.7368 22.5213 70.9076C22.4449 71.0609 22.4966 71.2486 22.645 71.3357C28.1492 74.5625 31.1722 76.0136 32.0076 76.3994L31.3279 79.3057C31.2865 79.4814 31.394 79.6576 31.5685 79.6994C31.5936 79.7054 31.6187 79.7079 31.6429 79.7079C31.7898 79.7079 31.9229 79.6068 31.9578 79.4565L32.6878 76.3352C32.7628 76.2028 32.923 75.8618 33.1093 75.1146C33.2226 74.6606 33.5765 74.0966 33.9511 73.4997C34.2691 72.9939 34.6284 72.421 34.9049 71.8151C35.2884 70.9743 35.5013 69.8313 35.6724 68.9139C35.766 68.4126 35.8537 67.9387 35.9301 67.7719C35.9706 67.6833 36.1135 67.5628 36.3077 67.5882C36.4758 67.6051 37.0525 67.7858 37.4226 69.3883C37.991 71.848 37.5153 74.0687 37.5114 74.0911L37.4202 74.5023L37.8372 74.4889C37.8963 74.4869 39.3065 74.4266 40.8715 73.1617C42.6893 71.6902 43.5248 69.9842 43.6741 69.6571C44.1887 68.5286 44.7427 68.2508 44.9133 68.2976C45.5259 68.4619 45.5964 69.0109 45.6053 69.1493C45.5235 69.4854 44.9202 71.8569 43.6835 73.5236C42.3659 75.3013 41.0598 76.0027 41.0465 76.0102C40.8882 76.0938 40.8266 76.2909 40.9084 76.4507C40.9661 76.5622 41.0795 76.6269 41.1958 76.6269C41.2466 76.6269 41.2968 76.6155 41.3447 76.5906C41.4028 76.5597 42.7884 75.8215 44.202 73.9159C45.5136 72.1476 46.1307 69.7363 46.2313 69.3156C46.3323 69.1613 46.596 68.8362 46.8942 68.7755C47.0357 68.7496 47.1767 68.7844 47.3221 68.8905C47.7258 69.1852 47.9131 70.1524 47.9668 70.9434C47.951 70.9748 47.9372 71.0072 47.9318 71.044C47.9274 71.0749 47.4832 74.1523 45.9962 75.9917C44.4839 77.863 43.8925 78.3852 43.8866 78.3902C43.752 78.5077 43.7362 78.7138 43.8525 78.8507C43.9166 78.9258 44.0068 78.9647 44.0985 78.9647C44.1724 78.9647 44.2474 78.9393 44.308 78.886C44.3326 78.8651 44.934 78.3404 46.4979 76.4054C47.6582 74.9702 48.2142 72.9267 48.441 71.8534L48.5627 71.6991C48.576 71.6822 48.9008 71.2755 49.2202 71.4975C49.8275 71.9177 49.8876 75.0081 48.0166 77.8829C45.5358 81.6962 42.3916 83.7795 38.4045 84.2514C33.3439 84.8553 23.0689 83.0482 14.002 78.5276C13.8423 78.4474 13.6481 78.5146 13.5682 78.6754C13.4888 78.8377 13.5554 79.0339 13.7156 79.1135C15.8168 80.1614 17.9831 81.061 20.1376 81.8236L16.9889 96.8052C16.8805 97.4902 17.3221 98.1344 17.994 98.2723L18.8171 98.445C19.4766 98.5839 20.3195 98.7611 21.3043 98.9602C19.6003 107.584 16.8475 116.019 16.8125 116.124C16.7563 116.295 16.849 116.481 17.018 116.537C17.0525 116.549 17.086 116.554 17.1205 116.554C17.2561 116.554 17.3823 116.467 17.4276 116.33C17.4626 116.224 20.2253 107.758 21.9391 99.0872C26.9914 100.09 35.2618 101.523 42.71 101.539C42.8189 101.539 42.9234 101.54 43.0319 101.54C53.782 101.54 60.3899 100.323 64.4312 98.9493C64.7303 100.908 65.0428 102.973 65.3361 104.945C66.3821 111.99 67.1012 117.128 67.1086 117.179C67.1313 117.342 67.2703 117.46 67.429 117.46C67.4438 117.46 67.459 117.459 67.4743 117.457C67.6513 117.431 67.7745 117.266 67.7494 117.087C67.7425 117.036 67.0228 111.896 65.9764 104.848C65.6772 102.835 65.3583 100.726 65.0537 98.7317C69.5657 97.074 70.5214 95.2715 70.5895 95.1311L70.6412 95.026L70.6136 94.911C70.5801 94.7712 67.2648 80.8494 66.0878 73.9034C64.683 65.6059 63.5839 60.589 63.2778 59.2374L76.1913 58.1706L76.278 58.0706C76.3904 57.9406 78.2827 55.6641 78.714 51.2212C80.2942 50.2928 82.5448 48.5579 83.2891 45.9066C84.3818 42.0122 84.2374 31.1261 82.9529 20.5859C82.9307 20.4067 82.7676 20.2753 82.5926 20.3017Z" fill="#393F49"/>
</svg>
