<svg width="7" height="7" viewBox="0 0 7 7" fill="none" xmlns="http://www.w3.org/2000/svg">
<path fill-rule="evenodd" clip-rule="evenodd" d="M5.93082 2.9867H3.50981V0.375219C3.50981 0.16772 3.34381 0 3.13963 0C2.93545 0 2.76998 0.16772 2.76998 0.375219V2.9867H0.370179C0.165467 2.9867 0 3.15442 0 3.36138C0 3.56888 0.165467 3.7366 0.370179 3.7366H2.76998V6.61902C2.76998 6.82598 2.93545 6.9937 3.13963 6.9937C3.34381 6.9937 3.50981 6.82598 3.50981 6.61902V3.7366H5.93082C6.13553 3.7366 6.30047 3.56888 6.30047 3.36138C6.30047 3.15442 6.13553 2.9867 5.93082 2.9867Z" fill="white"/>
</svg>
