<svg width="92" height="56" viewBox="0 0 92 56" fill="none" xmlns="http://www.w3.org/2000/svg">
<path fill-rule="evenodd" clip-rule="evenodd" d="M11.6857 34.798C11.3333 32.5936 13.0149 30.5939 15.2206 30.5939H89.0935C90.022 30.5939 90.8551 30.9511 91.4855 31.5263C88.8722 27.0767 86.0844 22.4326 84.3816 19.8973C80.4514 14.0467 78.3709 8.19623 72.1287 4.45183C65.8866 0.70743 60.8007 0.00538867 53.1721 0.00538867C45.543 0.00538867 43.8577 -0.226118 35.6019 2.3457C29.5912 4.21764 25.8923 8.66407 18.7258 18.0253C11.5594 27.3866 0 43.7683 0 43.7683C4.06661 49.9432 9.4953 53.5458 15.036 55.7513L11.6857 34.798Z" fill="#5AE2E2"/>
</svg>
