<svg width="14" height="20" viewBox="0 0 14 20" fill="none" xmlns="http://www.w3.org/2000/svg">
<path fill-rule="evenodd" clip-rule="evenodd" d="M11.6485 5.63266C10.9226 5.65692 10.3292 6.16959 10.3292 6.16959C10.3292 6.16959 10.1752 3.72225 8.72232 1.5207C7.27049 -0.681376 1.77585 -0.514176 0.131405 2.16788C0.131405 2.16788 -0.245811 6.91962 0.277989 10.0136C0.716239 12.6039 2.15506 13.6535 3.2637 14.0069C3.23618 14.4077 3.20266 14.8086 3.16514 15.1678C3.0996 15.787 2.64284 16.43 2.64284 16.43C2.64284 16.43 2.20009 19.2402 7.1064 19.4C11.0341 19.5276 11.3033 16.8424 11.3033 16.8424C11.3033 16.8424 11.2953 15.2316 11.1947 13.5849C11.1452 12.7816 11.1057 11.2399 11.0782 9.87067C11.7561 9.82478 12.6681 9.57055 13.1699 8.60849C14.0324 6.95496 12.591 5.60101 11.6485 5.63266Z" fill="white"/>
</svg>
