<svg width="97" height="36" viewBox="0 0 97 36" fill="none" xmlns="http://www.w3.org/2000/svg">
<path fill-rule="evenodd" clip-rule="evenodd" d="M95.628 24.9131C94.3013 21.1637 93.0234 18.0832 92.0393 15.8626C90.8207 17.3817 88.9536 19.2966 86.0781 21.4758L88.8329 4.20428C89.185 1.99981 87.5074 0 85.3068 0H11.6066C9.40604 0 7.72847 1.99981 8.07997 4.20428L10.4891 19.3063L11.4229 25.158C8.43253 23.965 5.47758 22.3584 2.75078 20.162C1.79051 22.4599 0.69153 25.5926 0.227271 28.7848C-0.676366 35.0008 1.11132 39.4892 5.65015 41.5223C7.57018 42.3823 10.9518 42.385 14.1286 42.1207L14.7913 46.2782H82.1216L82.7796 42.1583C87.3025 41.084 92.3972 39.6579 93.5189 38.4654C95.628 36.2239 98.44 32.8607 95.628 24.9131Z" fill="white"/>
</svg>
