<svg width="37" height="3" viewBox="0 0 37 3" fill="none" xmlns="http://www.w3.org/2000/svg">
<path fill-rule="evenodd" clip-rule="evenodd" d="M36.5237 1.50046C35.3298 1.50046 34.7442 1.15991 34.1231 0.799456C33.4459 0.406722 32.7452 0 31.3546 0C29.9639 0 29.2638 0.406722 28.5865 0.799456C27.9654 1.15991 27.3794 1.50046 26.1855 1.50046C24.9921 1.50046 24.406 1.15991 23.7855 0.799456C23.1092 0.406722 22.4097 0 21.0201 0C19.6305 0 18.9314 0.406722 18.2552 0.799994C17.6352 1.15991 17.0502 1.50046 15.8584 1.50046C14.6661 1.50046 14.0806 1.15991 13.4606 0.799456C12.7838 0.406722 12.0842 0 10.6946 0C9.30554 0 8.60544 0.406722 7.92867 0.799994C7.30919 1.15991 6.72365 1.50046 5.53135 1.50046C4.33958 1.50046 3.7551 1.15991 3.13508 0.799994C2.45832 0.406722 1.75874 0 0.369676 0C0.165479 0 0 0.167853 0 0.37498C0 0.582107 0.165479 0.749961 0.369676 0.749961C1.56197 0.749961 2.14751 1.09051 2.767 1.45096C3.44377 1.84424 4.14281 2.25096 5.53135 2.25096C6.92095 2.25096 7.62052 1.84424 8.29729 1.45043C8.91677 1.09051 9.50178 0.749961 10.6946 0.749961C11.8869 0.749961 12.4725 1.09051 13.0919 1.45096C13.7692 1.84424 14.4688 2.25096 15.8584 2.25096C17.2469 2.25096 17.9465 1.84424 18.6233 1.45043C19.2428 1.09051 19.8278 0.749961 21.0201 0.749961C22.2129 0.749961 22.7984 1.09051 23.419 1.45096C24.0958 1.84424 24.7959 2.25096 26.1855 2.25096C27.5761 2.25096 28.2768 1.84424 28.9541 1.45096C29.5746 1.09051 30.1607 0.749961 31.3546 0.749961C32.5484 0.749961 33.1345 1.09051 33.7556 1.45096C34.4329 1.84424 35.133 2.25096 36.5237 2.25096C36.7279 2.25096 36.8933 2.0831 36.8933 1.87544C36.8933 1.66831 36.7279 1.50046 36.5237 1.50046Z" fill="#393F49"/>
</svg>
