<svg width="15" height="30" viewBox="0 0 15 30" fill="none" xmlns="http://www.w3.org/2000/svg">
<path fill-rule="evenodd" clip-rule="evenodd" d="M13.8516 23.2872C13.1222 19.9148 11.5479 19.2222 11.5479 19.2222C11.5479 19.2222 10.7926 19.3451 9.85759 16.9257C9.00167 14.7094 7.64949 11.4493 7.42788 10.916C7.65499 10.6586 8.04669 10.156 8.24379 9.54837C8.52993 8.66543 8.70652 6.38951 9.01467 5.62314C9.32333 4.85676 10.2043 3.34722 9.69751 2.97537C9.19126 2.60405 8.55194 3.41684 7.8696 4.48544C7.37085 5.26553 6.96815 5.8684 6.78656 6.13898C6.58696 5.5994 6.48191 5.64054 6.48191 5.64054C6.48191 5.64054 6.40287 2.34138 6.30982 1.11613C6.21678 -0.108596 5.4624 0.270108 5.39287 0.735314C5.32333 1.20105 5.25029 5.44486 5.25029 5.44486C5.25029 5.44486 4.53344 0.574444 4.43689 0.37296C4.14824 -0.229381 3.49692 -0.1471 3.54845 0.951566C3.58596 1.73482 4.01868 5.86101 4.01868 5.86101H3.78656C3.78656 5.86101 2.04369 0.96106 1.32284 1.47532C0.793571 1.8535 2.79357 6.25238 2.79357 6.25238L2.53144 6.40006C2.53144 6.40006 0.416883 4.09724 0.0446977 4.53818C-0.326988 4.97913 1.74154 7.47816 1.74154 7.47816C1.74154 7.47816 1.81108 7.72342 2.2523 8.92388C2.69402 10.1243 3.31483 11.0126 3.31483 11.0126C3.31483 11.0126 3.82408 13.1629 4.41938 16.2986C5.01418 19.4348 6.37385 25.8854 8.58296 28.3945C10.7926 30.903 13.6815 29.3797 13.6815 29.3797C13.6815 29.3797 14.715 27.28 13.8516 23.2872Z" fill="white"/>
</svg>
