<svg width="3" height="4" viewBox="0 0 3 4" fill="none" xmlns="http://www.w3.org/2000/svg">
<path fill-rule="evenodd" clip-rule="evenodd" d="M0.767792 3.0859C1.0123 3.26182 1.2865 3.3522 1.55806 3.3522C1.71558 3.3522 1.87258 3.32207 2.02374 3.26074C2.21361 3.18381 2.30484 2.96539 2.22952 2.77332C2.15368 2.58126 1.93675 2.48711 1.74953 2.56404C1.5204 2.65712 1.32257 2.56512 1.19581 2.4742C0.901978 2.26223 0.72377 1.85228 0.741273 1.42942C0.753472 1.1459 0.870156 0.921554 1.06268 0.813956C1.22975 0.71927 1.43713 0.728415 1.62913 0.840318C1.80522 0.941998 2.03222 0.880129 2.13405 0.699902C2.23536 0.520213 2.17277 0.291028 1.99616 0.188272C1.58087 -0.0511348 1.09822 -0.0629706 0.704677 0.157068C0.282493 0.394322 0.0257883 0.846236 0.0019211 1.39768C-0.0267195 2.07824 0.266581 2.72544 0.767792 3.0859Z" fill="#393F49"/>
</svg>
