<svg width="153" height="114" viewBox="0 0 153 114" fill="none" xmlns="http://www.w3.org/2000/svg">
<path fill-rule="evenodd" clip-rule="evenodd" d="M59.6605 123.614L52.9862 81.7891C52.8361 80.846 53.0997 79.8873 53.7107 79.1594C54.3222 78.4315 55.2122 78.0134 56.1552 78.0134H129.995C130.938 78.0134 131.828 78.4309 132.439 79.1588C133.05 79.8867 133.315 80.8454 133.164 81.7891L126.49 123.614H59.6605ZM50.3364 118.882C46.0282 116.953 44.2243 112.68 45.1207 106.523C45.5503 103.568 46.5405 100.652 47.4501 98.4136C50.0691 100.448 52.8664 101.959 55.6376 103.094L58.2519 119.479C55.2372 119.708 52.1164 119.68 50.3364 118.882V118.882ZM41.3909 90.84C42.7677 88.8876 53.3128 73.968 59.951 65.2795C66.7861 56.3332 70.6319 51.5779 76.6363 49.7035C80.5829 48.4721 83.0269 47.8916 85.3409 47.6156C85.0275 47.9943 84.7214 48.2257 84.7156 48.23L84.3974 48.4629L84.6435 48.7712C84.7421 48.8949 87.0891 51.7474 92.7069 51.7474C92.8172 51.7474 92.9291 51.7463 93.0415 51.7441C99.3228 51.6188 100.835 47.9986 100.897 47.8442L100.953 47.7006C105.132 48.1783 108.728 49.299 112.849 51.7775C117.417 54.5234 119.752 58.4803 122.224 62.6702C123.084 64.1265 123.972 65.6324 124.98 67.1355C126.51 69.4182 128.939 73.4473 131.324 77.4999C130.903 77.3466 130.455 77.2632 129.995 77.2632H116.24C116.292 77.2051 116.332 77.133 116.339 77.0486L116.773 72.5122C116.793 72.3056 116.644 72.1227 116.44 72.1023C116.253 72.0888 116.056 72.233 116.036 72.4396L115.603 76.9759C115.592 77.0862 115.632 77.1874 115.7 77.2632H66.8375C66.8492 77.2223 66.8561 77.1793 66.8529 77.1347L66.2514 69.6528C66.235 69.4457 66.0706 69.2934 65.8526 69.309C65.6495 69.3262 65.4978 69.5075 65.5142 69.7136L66.1162 77.1954C66.1183 77.2197 66.1284 77.2406 66.1348 77.2632H56.1551C54.9946 77.2632 53.8994 77.777 53.1473 78.6728C52.3963 79.5685 52.0712 80.7478 52.2568 81.9088L55.4974 102.219C50.3946 100.058 45.2409 96.5917 41.3909 90.84V90.84ZM86.6711 42.4355C88.2834 43.3695 90.0814 43.858 92.0163 43.858C92.2003 43.858 92.3859 43.8536 92.5721 43.845C94.7886 43.7396 96.7939 43.0703 98.5224 41.9465V44.6407C98.5224 46.5129 99.5254 47.4673 100.066 47.8455C99.5933 48.6547 97.8489 50.8981 93.0272 50.9939C92.9216 50.9966 92.8182 50.9971 92.7153 50.9971C88.4627 50.9971 86.1937 49.2438 85.474 48.5632C85.893 48.1732 86.5767 47.3958 86.7246 46.3801C86.7946 45.898 86.7469 44.2012 86.6711 42.4355V42.4355ZM74.4427 27.4169C74.9449 26.8428 75.6816 26.5055 76.5181 26.4668C77.3704 26.4248 78.2476 26.6222 79.0565 27.0295L79.215 27.1091L79.3413 27.0505C79.2437 27.4938 79.188 27.9532 79.188 28.4261C79.188 31.9069 81.9805 34.7389 85.4126 34.7389C88.8436 34.7389 91.636 31.9069 91.636 28.4261C91.636 27.6627 91.495 26.9343 91.2494 26.2564C91.2547 26.2532 91.2611 26.2548 91.2664 26.251C91.2791 26.2446 92.4449 25.5156 93.2473 26.1617C93.2717 26.1816 93.3004 26.1908 93.3274 26.2031C93.2861 26.4953 93.258 26.7922 93.258 27.0962C93.258 30.577 96.0499 33.4095 99.4815 33.4095C101.256 33.4095 102.855 32.6483 103.99 31.4362C102.837 38.2934 98.4636 42.8136 92.5372 43.095C87.3601 43.3527 83.1266 39.8665 80.9446 33.5591L80.8184 33.1938L80.4625 33.3331C79.4505 33.7323 77.5465 33.8206 76.6162 33.5123C75.6196 33.183 73.9202 32.2625 73.7373 29.8023C73.6662 28.8511 73.9107 28.0264 74.4427 27.4169V27.4169ZM80.2376 26.6001C81.2151 26.0901 83.1186 25.0572 86.4351 23.1241C86.5003 23.0865 86.5608 23.0434 86.625 23.0047C89.0663 23.5664 90.8967 25.7813 90.8967 28.4261C90.8967 31.4937 88.4368 33.9889 85.4125 33.9889C82.3888 33.9889 79.9279 31.4937 79.9279 28.4261C79.9279 27.7858 80.0403 27.1731 80.2376 26.6001V26.6001ZM89.19 20.9814C89.2212 20.9809 89.2531 20.9825 89.2844 20.9728C89.8466 20.799 90.2465 21.2391 90.2661 21.2612C90.3398 21.3451 90.4417 21.3887 90.544 21.3887C90.6305 21.3887 90.7164 21.3586 90.7864 21.2967C90.9407 21.1611 90.9572 20.9244 90.8235 20.7678C90.8039 20.7442 90.4533 20.359 89.898 20.2293C91.9442 17.91 93.1132 15.2922 93.6287 13.9321C94.166 15.1308 95.2432 17.3112 96.6858 19.1404C94.6115 19.1248 93.8647 20.5419 93.8313 20.6075C93.7385 20.7904 93.8101 21.0137 93.9904 21.1089C94.044 21.138 94.1023 21.152 94.1596 21.152C94.2928 21.152 94.4211 21.0793 94.4885 20.9524C94.515 20.9013 95.1732 19.7005 97.1075 19.914C97.1754 19.9221 97.2411 19.9017 97.3032 19.8705C97.6368 20.2401 97.9842 20.5876 98.3475 20.8932C96.0006 21.3338 94.1151 23.1135 93.4871 25.4209C92.4587 24.7979 91.2759 25.3838 90.9545 25.5673C90.2268 24.1228 88.9693 23.001 87.4413 22.4641C88.0756 22.009 88.6596 21.5103 89.19 20.9814V20.9814ZM103.814 23.6983C104.533 24.6392 104.966 25.8158 104.966 27.0962C104.966 27.9845 104.755 28.821 104.388 29.5667L104.224 29.5764L104.194 29.897C104.193 29.9099 104.19 29.9223 104.189 29.9358C103.231 31.5632 101.482 32.6591 99.4816 32.6591C96.4573 32.6591 93.9974 30.1633 93.9974 27.0962C93.9974 24.1163 96.3205 21.6835 99.2259 21.5463C102.05 23.503 103.618 23.6832 103.814 23.6983V23.6983ZM105.507 22.3352H105.508C105.942 22.3352 106.365 22.6715 106.701 23.2815C107.075 23.961 107.281 24.8729 107.281 25.8488C107.281 27.9561 106.301 29.0563 105.384 29.384C105.344 29.3985 105.304 29.4055 105.264 29.4179C105.546 28.698 105.706 27.9163 105.706 27.0964C105.706 25.6277 105.204 24.2779 104.372 23.2041C104.726 22.6553 105.013 22.3357 105.507 22.3352V22.3352ZM133.894 81.9089C133.894 81.9052 133.894 81.9014 133.895 81.8982C136.209 85.8847 138.103 89.2122 138.517 89.9374C138.265 90.6309 136.834 93.8733 131.284 98.2644L133.894 81.9089ZM139.988 102.717C142.825 110.731 139.777 113.97 137.956 115.905C136.974 116.949 132.412 118.276 127.917 119.366L131.111 99.3504C133.653 97.4121 135.431 95.6738 136.647 94.2395C137.596 96.4103 138.774 99.2859 139.988 102.717V102.717ZM16.3792 123.736L14.272 109.599H32.9928L30.8862 123.736H16.3792ZM13.4128 108.849H12.7052C12.3265 108.849 12.0189 108.536 12.0189 108.153V103.263C12.0189 102.879 12.3265 102.567 12.7052 102.567H19.4649L20.8784 102.651V102.567H34.5601C34.9388 102.567 35.2464 102.879 35.2464 103.263V108.153C35.2464 108.536 34.9388 108.849 34.5601 108.849H33.8526H13.4128ZM18.3485 94.4607C17.0857 93.0044 14.621 91.0477 10.056 90.0018C6.70029 89.2336 2.65984 86.4834 2.31138 81.2611C2.01437 76.8043 1.71788 74.6938 1.1106 73.0002C2.87305 73.0836 8.44259 73.5231 12.0158 75.7951C15.7931 78.1967 18.2186 81.8012 19.2242 86.5076C19.9694 89.9975 20.111 99.6475 20.1333 101.817H19.7609C19.7631 100.472 19.6686 95.9816 18.3485 94.4607V94.4607ZM22.7857 86.5738C22.9124 82.7767 25.2392 79.1603 29.3353 76.3902C32.5399 74.2226 35.3817 71.078 36.5225 69.7411C36.8429 72.0841 37.5801 78.9478 35.8999 82.9418C34.2955 86.7562 31.1413 88.9006 28.3594 90.7922C27.5517 91.3415 26.7879 91.8607 26.0767 92.4051C23.1357 94.6582 23.0036 100.205 23.0238 101.703L22.7809 101.719C22.7602 99.6481 22.669 90.0498 22.7857 86.5738V86.5738ZM151.75 123.801H127.209L127.789 120.17C132.311 119.086 137.33 117.657 138.491 116.423C140.999 113.758 143.444 110.261 140.685 102.464C139.399 98.8315 138.153 95.815 137.174 93.5942C138.874 91.4325 139.251 90.0924 139.277 89.9918L139.316 89.8428L139.24 89.7093C139.191 89.6233 136.743 85.3107 133.823 80.2982C133.677 79.7065 133.403 79.1486 133.003 78.6719C132.899 78.5482 132.786 78.4336 132.67 78.3244C130.06 73.8719 127.281 69.235 125.592 66.714C124.597 65.2291 123.713 63.7324 122.859 62.2852C122.312 61.3588 121.771 60.4447 121.212 59.5501C122.367 58.8254 123.205 57.9969 123.636 57.093C124.069 56.1855 124.092 55.2467 123.705 54.3036C123.2 53.0726 122.156 52.2011 121.149 51.3586C119.64 50.0975 118.736 49.254 119.171 47.8772C119.45 46.9933 119.939 46.0798 120.457 45.1125C121.579 43.0186 122.852 40.645 122.248 37.8851C121.52 34.5657 118.383 33.7318 115.615 32.9959C114.685 32.7484 113.806 32.5149 113.05 32.2023C112.237 31.8661 111.675 31.2963 111.384 30.5098C110.925 29.274 111.181 27.5611 112.104 25.6867C113.867 22.1101 113.202 19.7978 109.807 17.7067C106.87 15.8985 106.374 13.52 105.625 9.91976L105.545 9.53618C104.703 5.50769 103.704 2.84194 101.329 1.99837C99.3336 1.29037 96.8599 2.65687 95.9794 3.21262C95.2974 2.1942 92.9658 -0.660385 88.6411 0.139609C85.7213 0.678139 83.8628 2.55896 81.8946 4.5506C80.3332 6.13069 78.7192 7.76511 76.3739 9.0536C75.6266 9.46408 74.9217 9.83799 74.2608 10.1877C70.0549 12.4193 67.516 13.7659 67.2057 17.6512C66.9967 20.2605 67.5828 21.2235 68.0989 22.0725C68.4489 22.6481 68.7518 23.1447 68.7947 24.1523C68.8944 26.4738 66.4807 28.2986 63.8585 29.9245C62.6768 30.6567 61.9475 31.8897 61.9077 33.2218C61.86 34.8315 62.8285 36.4207 64.6349 37.6979C66.9166 39.3108 67.9477 40.588 67.979 41.8388C68.0082 43.0229 67.133 44.2985 65.3016 45.7382C59.3635 50.4058 59.4971 54.0851 60.6544 56.3495C61.4076 57.822 62.437 58.9201 63.3466 59.7028C62.1172 61.2356 60.8098 62.9308 59.3656 64.8202C52.2808 74.0947 40.7545 90.4512 40.6394 90.6159L40.4914 90.8262L40.6331 91.0419C42.4592 93.8207 44.577 96.0862 46.8449 97.939C45.8955 100.246 44.8406 103.305 44.3882 106.414C43.4388 112.94 45.3927 117.489 50.0372 119.569C51.3361 120.151 53.2508 120.357 55.3188 120.357C56.3191 120.357 57.3517 120.302 58.3706 120.224L58.9418 123.801H31.624L33.7407 109.599H34.5602C35.3462 109.599 35.9859 108.95 35.9859 108.153V103.263C35.9859 102.465 35.3462 101.816 34.5602 101.816H23.7664C23.7468 100.68 23.7919 95.0957 26.5228 93.004C27.2171 92.4719 27.9718 91.9592 28.7716 91.4153C31.6394 89.4656 34.8896 87.2556 36.5804 83.2362C38.7051 78.1845 37.1967 69.1828 37.1304 68.8024L36.9909 67.9847L36.4786 68.6319C36.4441 68.6755 32.9754 73.0273 28.9254 75.7662C24.6245 78.674 22.1816 82.5035 22.0458 86.5486C21.9276 90.0935 22.023 99.9511 22.0427 101.816H20.8726C20.8519 99.6213 20.7178 89.9595 19.9461 86.3485C18.9118 81.506 16.3055 77.6368 12.4088 75.1588C7.95997 72.3306 0.863991 72.2337 0.563795 72.2305L0 72.2257L0.220108 72.7518C0.935063 74.4659 1.25117 76.4661 1.57311 81.3113C1.88232 85.9488 5.14788 89.6469 9.89267 90.7337C14.2651 91.7354 16.602 93.5823 17.7938 94.9558C18.8269 96.147 19.0285 100.019 19.0221 101.816H12.7053C11.9187 101.816 11.2791 102.465 11.2791 103.263V108.153C11.2791 108.95 11.9187 109.599 12.7053 109.599H13.5247L15.6415 123.801H10.5138C10.309 123.801 10.1441 123.969 10.1441 124.176C10.1441 124.384 10.309 124.552 10.5138 124.552H151.75C151.954 124.552 152.119 124.384 152.119 124.176C152.119 123.969 151.954 123.801 151.75 123.801V123.801Z" fill="#393F49"/>
</svg>
