<svg width="40" height="47" viewBox="0 0 40 47" fill="none" xmlns="http://www.w3.org/2000/svg">
<mask id="mask0_18_497" style="mask-type:alpha" maskUnits="userSpaceOnUse" x="0" y="0" width="40" height="47">
<path fill-rule="evenodd" clip-rule="evenodd" d="M8.65251 13.1355C8.68317 13.0969 8.70748 13.1055 8.72439 13.1194C8.70748 13.1339 8.6874 13.1511 8.66361 13.1764L8.66573 13.1898C8.65886 13.1705 8.65251 13.1522 8.65251 13.1355M9.57309 13.3888C9.54138 13.406 9.50333 13.4312 9.46422 13.4586C9.43568 13.4344 9.42458 13.3968 9.45047 13.3818C9.45047 13.4108 9.51971 13.3888 9.57309 13.3888M9.327 13.558L9.32859 13.5596C9.30427 13.579 9.28419 13.5951 9.27098 13.6059C9.2826 13.5956 9.29899 13.5822 9.327 13.558M6.50943 15.7652C6.6418 15.6878 6.50201 15.6115 6.48877 15.5272C6.6238 15.3982 6.61268 15.5702 6.70217 15.5981C6.78001 15.5062 6.78848 15.3514 6.86261 15.3111C6.87956 15.3272 6.89862 15.3256 6.89703 15.36C6.94151 15.2025 7.1962 15.166 7.24227 14.9736C7.2571 14.9784 7.26769 14.9854 7.2751 14.9929C7.22003 14.9467 7.18032 14.8887 7.15808 14.8435C7.21421 14.8048 7.21844 14.7017 7.28728 14.764C7.25127 14.7844 7.26716 14.8172 7.26557 14.8516L7.30476 14.7796C7.4276 14.8548 7.24704 14.8709 7.29681 14.9521C7.39212 14.8408 7.47208 14.6619 7.58116 14.6355C7.66694 14.7307 7.39371 14.8065 7.57322 14.8253L7.40854 14.8736C7.62035 14.9747 7.31693 14.9161 7.52715 15.0349C7.73048 14.9478 7.69818 14.8478 7.90046 14.7613C7.90417 14.6753 7.83162 14.6818 7.8348 14.5963C8.02542 14.3217 8.20864 14.7317 8.30871 14.4646C8.31136 14.3609 8.24464 14.2137 8.42468 14.1959L8.45645 14.3469C8.64019 14.2427 8.4448 14.1078 8.68149 14.0669C8.67937 14.1357 8.56923 14.1981 8.60471 14.1949C8.78581 14.2104 8.64548 14.0712 8.73656 14.01L8.82446 14.1035C8.99973 13.9611 9.15382 13.7461 9.34709 13.5875C9.35609 13.6268 9.34285 13.6837 9.41275 13.6837C9.63779 13.4559 9.97139 13.3161 10.2631 13.207L10.2965 13.0506C10.3193 13.0361 10.3653 13.063 10.3532 13.0974C10.4734 13.0646 10.3193 13.0361 10.3415 12.9684C10.3924 12.9238 10.4501 12.97 10.4331 13.0216C10.5523 12.826 10.8038 12.5148 11.0489 12.4847L11.0325 12.5363C11.1972 12.4745 11.0622 12.2402 11.2486 12.2332L11.2353 12.2665C11.5647 12.0886 11.8273 11.7393 12.1578 11.6942C12.1011 11.5367 12.5009 11.5179 12.3717 11.3266C12.5999 11.2631 12.5803 11.3346 12.8535 11.1809C12.9203 11.132 12.8504 10.996 12.9081 10.9106L12.988 10.9933L13.0055 10.8122L13.1527 10.8622L13.202 10.7762C13.1691 10.7972 13.1077 10.7934 13.0892 10.7655C13.1644 10.6316 13.4021 10.5731 13.4445 10.6096L13.6123 10.2845C13.6404 10.3226 13.6118 10.3764 13.6017 10.4312C13.6446 10.2124 13.7113 10.4898 13.7505 10.2893C13.7166 10.2882 13.7098 10.2334 13.6955 10.2141C13.8035 10.1995 13.9364 10.0566 14.0116 9.93136L14.0513 10.005C14.2504 9.83248 14.3732 9.55785 14.5612 9.33588C14.467 9.39393 14.378 9.28698 14.4204 9.21335L14.5347 9.26387C14.5114 9.17358 14.4447 9.30364 14.4442 9.15799C14.522 9.08275 14.5962 9.18809 14.5872 9.26172L14.638 9.13273C14.6703 9.14939 14.6655 9.1854 14.6968 9.22087C14.6719 9.13166 14.9351 9.11769 14.8826 8.9758L14.9155 8.99193C15.0897 8.75814 15.1299 8.62324 15.2633 8.42708C15.1818 8.36205 15.2543 8.30024 15.2263 8.19383C15.3528 8.07237 15.536 7.96435 15.6372 7.78054C15.6727 7.62737 15.5869 7.69455 15.5705 7.6048C15.6552 7.64887 15.76 7.46775 15.7584 7.5962C15.8797 7.37639 15.9152 7.31458 16.0184 7.00717C15.9671 7.01523 15.9321 7.03888 15.9157 7.00502C15.9337 6.94913 16.0168 6.91473 16.0518 6.9459L16.0529 6.96418C16.1032 6.58421 16.701 6.39234 16.6634 6.04355L16.665 6.06236L16.7084 5.75279C16.7846 5.64047 16.7343 5.85813 16.8318 5.7974C16.8344 5.44054 17.087 5.36476 17.1018 5.07992C17.4359 5.01812 17.3946 4.42533 17.6589 4.24743L17.5927 4.23454C17.5609 4.14371 17.6605 4.17166 17.6943 4.12974C17.6446 4.11576 17.6107 4.17649 17.5953 4.12167C17.6769 3.83146 17.8198 3.55898 17.9686 3.28327C18.0449 3.14784 18.1233 3.01025 18.2006 2.87321C18.2487 2.77324 18.245 2.81678 18.2599 2.80764C18.2699 2.80925 18.2773 2.8157 18.2832 2.82269C18.289 2.85923 18.0703 2.40456 18.1905 2.5314C18.2085 2.60341 18.2281 2.67113 18.2493 2.73347C18.2106 2.53032 18.262 2.50829 18.2726 2.44165C18.2805 2.41961 18.289 2.43358 18.3059 2.36855C18.3001 2.43197 18.2959 2.52656 18.2932 2.51796C18.2874 2.75712 18.3075 2.57117 18.3345 2.43788C18.3393 2.47335 18.3176 2.57762 18.3086 2.65877C18.2901 2.75873 18.3684 2.497 18.3335 2.65608C18.3276 2.67382 18.3197 2.69424 18.3149 2.7066C18.3382 2.64748 18.3218 2.75605 18.3774 2.6147C18.361 2.70983 18.4494 2.67489 18.4187 2.76518C18.4711 2.74154 18.4711 2.77916 18.4717 2.80334C18.477 2.8372 18.504 2.91029 18.5813 2.88611C18.4219 2.9377 18.5638 3.20534 18.675 3.27145C18.6152 3.25909 18.6597 3.37571 18.5802 3.36496C18.6263 3.4746 18.6967 3.56328 18.7682 3.51061C18.6681 3.79169 19.0854 3.85296 18.8974 4.06847C19.1172 4.35815 19.3062 4.63063 19.4688 4.90472C19.3115 4.96437 19.3131 4.59032 19.1585 4.67577C19.3406 4.9246 19.5439 5.02081 19.6329 5.30833C19.6445 5.38841 19.5492 5.29973 19.5127 5.28791C19.6991 5.53244 19.7425 5.82427 19.9437 6.02312C19.93 6.02957 19.9019 6.0113 19.8786 5.99195C19.9067 6.0371 19.9109 6.11395 19.976 6.07418L19.9353 6.0371C19.9967 5.91241 20.2323 6.12148 20.2884 6.1032C20.0549 6.12148 20.3557 6.3644 20.0486 6.36225C20.0761 6.38697 20.1275 6.41008 20.1693 6.37945C20.1788 6.43265 20.1592 6.46114 20.0851 6.44018C20.2048 6.59173 20.2482 6.49338 20.325 6.64601C20.2921 6.66267 20.2641 6.63849 20.2175 6.64279C20.3213 6.68632 20.4245 6.72985 20.4642 6.87227C20.4409 6.8755 20.4235 6.90398 20.4033 6.86529C20.5315 7.07973 20.7618 7.15067 20.8381 7.41939C20.6596 7.42852 20.8375 7.5258 20.7248 7.60749L20.8328 7.71498L20.8619 7.63006C20.9233 7.74346 21.0658 7.79075 21.0811 7.90953L20.9853 7.85578L21.1261 8.05195L21.1044 7.9063C21.2289 7.98262 21.2474 7.80473 21.2982 7.97241C21.2675 7.95037 21.3618 8.08205 21.3279 8.18147V8.18147C21.3983 8.2121 21.4714 8.24274 21.492 8.34109C21.4677 8.3857 21.3522 8.40612 21.3358 8.43514C21.4661 8.42654 21.5211 8.6743 21.6657 8.6743C21.6276 8.66785 21.5662 8.70655 21.5582 8.72213L21.6641 8.71461C21.6705 8.78179 21.6631 8.79737 21.6096 8.82102C21.6916 8.98171 21.7224 8.67806 21.778 8.89519C21.7626 8.88605 21.7552 8.90056 21.7239 8.8796C21.8124 9.07845 22.0057 9.1854 22.0782 9.37351C21.9982 9.50303 21.9532 9.25151 21.8955 9.37512C22.0718 9.6003 22.3731 9.7524 22.5156 9.98833L22.496 9.93835C22.6718 9.84376 22.5452 10.1609 22.702 10.2119C22.6707 10.1947 22.5913 10.2474 22.6135 10.2404C22.7078 10.4091 22.9085 10.5 23.1415 10.6693L23.0811 10.6784C23.1229 10.7929 23.2585 10.9159 23.3289 11.0127C23.3887 11.0009 23.4311 11.0546 23.4533 10.9729C23.5121 11.4405 24.0538 11.347 24.129 11.7425C24.1004 11.7167 24.0316 11.7124 24.0543 11.7339L24.2868 11.8876C24.3281 11.8086 24.2953 11.8237 24.2974 11.7345C24.3562 11.7205 24.4393 11.7436 24.4907 11.7877C24.3609 11.7484 24.4001 11.8925 24.4086 11.964C24.4192 11.9382 24.4525 11.9285 24.4663 11.9054C24.4737 12.1166 24.5976 11.7904 24.677 11.9983L24.6395 12.0258C24.7093 12.0569 24.7983 12.0559 24.8491 12.1182C24.81 12.216 24.7612 12.1021 24.7041 12.1612C24.7914 12.2316 24.9905 12.1601 25.0043 12.3004C24.9503 12.2918 24.8984 12.2488 24.8444 12.2397C24.8539 12.3998 24.8825 12.3853 24.9339 12.4525L24.9291 12.445L25.0408 12.6078L25.0239 12.5524C25.2929 12.4401 25.2722 12.6976 25.5243 12.6782C25.2833 12.6933 25.4438 12.733 25.3644 12.8142C25.3829 12.8685 25.4189 12.9426 25.3834 12.9544C25.5089 12.9367 25.457 13.106 25.6376 13.0754C25.6206 13.1082 25.7122 13.1356 25.6424 13.1968C25.753 13.2436 25.6572 13.1291 25.6927 13.0985C25.9071 13.1044 25.9431 13.4747 26.2539 13.4801C26.4742 13.5499 26.5785 13.4645 26.7787 13.5252C26.8057 13.6123 26.6617 13.6069 26.6617 13.6069C26.7263 13.7144 26.8046 13.7493 26.9153 13.7681C26.8814 13.7848 26.8862 13.8192 26.8931 13.8713C26.9709 13.9068 27.0069 13.7875 27.0773 13.889C27.0413 13.9148 26.9863 13.96 26.9312 13.9734C27.035 13.996 27.1552 13.9853 27.2605 14.0073C27.2542 14.0772 27.1605 14.061 27.1086 14.0788C27.223 14.1142 27.4046 14.1744 27.4803 14.1013L27.4305 14.0347C27.4697 14.0497 27.4109 14.1218 27.3744 14.1234C27.2494 14.1459 27.2627 14.025 27.2754 13.9895L27.3511 14.0035C27.385 13.7805 27.0784 13.8923 26.9561 13.8031L27.0869 13.7004L26.8931 13.7332C26.8862 13.6821 26.9121 13.5961 26.9857 13.6139C26.936 13.4935 26.8782 13.6128 26.8465 13.493C26.8449 13.4758 26.8528 13.472 26.8639 13.472L26.7543 13.4553C26.7882 13.4387 26.7988 13.3532 26.8385 13.4064C26.7353 13.2312 26.5298 13.3452 26.5378 13.2065L26.5558 13.207C26.3191 13.106 26.4726 13.2887 26.2412 13.2898L26.2947 12.9845L26.2095 13.0641C26.1904 13.0458 26.1544 13.0077 26.1878 12.9765C26.0649 12.9819 26.1729 13.0265 26.085 13.0528C26.0443 12.8932 25.7763 12.8835 25.861 12.7212C25.7731 12.7637 25.9182 12.8464 25.7742 12.8142C25.8605 12.6347 25.6318 12.7443 25.5952 12.6013C25.6842 12.5438 25.7371 12.6535 25.7011 12.5105C25.5433 12.6024 25.5481 12.3434 25.4538 12.3084C25.3665 12.4116 25.2574 12.2171 25.1044 12.1478C25.1398 12.1209 24.918 11.8925 24.838 11.7533L24.8566 11.7393C24.7459 11.8237 24.6453 11.7001 24.5415 11.6458C24.5992 11.5872 24.6357 11.577 24.7056 11.5899L24.6257 11.52C24.5775 11.5362 24.5383 11.5302 24.4774 11.4948L24.5648 11.4367C24.4584 11.3443 24.2757 11.3303 24.1883 11.1551C24.1152 11.2175 24.1152 11.4502 23.9294 11.3636C23.959 11.3206 24.0141 11.2513 24.0649 11.2707C24.0485 11.2642 23.9929 11.2615 23.9834 11.2223L24.0988 11.2115C24.0639 11.1266 24.0178 11.2352 23.9749 11.1831C24.0252 11.1304 23.9754 11.11 24.0215 11.0745C24.039 11.0809 24.0422 11.1374 24.0813 11.1336C24.0353 11.0723 24.0009 10.9756 24.0178 10.9143C23.994 10.9493 23.95 10.9864 23.9045 10.9546C23.7991 10.8584 23.9304 10.8563 23.8976 10.7708C23.8378 10.7832 23.8102 10.6816 23.7324 10.759C23.7027 10.7289 23.7329 10.687 23.7425 10.6542C23.653 10.6392 23.4925 10.4204 23.4682 10.5618L23.4751 10.5817L23.4639 10.5758L23.4645 10.5763L23.4639 10.5758C23.2246 10.4726 23.1753 10.163 22.9826 10.019L23.0107 9.99532C22.8921 9.90987 22.7983 9.761 22.6739 9.72983C22.648 9.69597 22.6654 9.6089 22.7104 9.59654C22.6225 9.52775 22.5823 9.54226 22.5341 9.38157C22.6517 9.4294 22.5563 9.31761 22.6395 9.44176C22.5775 9.3117 22.6061 9.25204 22.4409 9.18486C22.5452 9.17197 22.4759 9.02793 22.4155 8.98924L22.4171 9.11016C22.3636 9.05588 22.3329 8.99623 22.3011 8.93657L22.4229 8.89465C22.3843 8.57541 21.9167 8.61035 22.0131 8.2809C21.9008 8.26262 22.0454 8.44804 21.9246 8.44481C21.868 8.3212 21.9448 8.10838 21.9236 8.07291C21.8855 7.88212 21.6811 8.024 21.6202 7.83644C21.5963 7.87889 21.5047 7.96273 21.3988 7.85793C21.3464 7.73217 21.4756 7.61931 21.5476 7.67467C21.5667 7.701 21.5624 7.72142 21.5487 7.72787C21.5836 7.75743 21.6276 7.7972 21.6424 7.7268L21.5963 7.73432C21.6022 7.65317 21.5074 7.4957 21.5916 7.49624C21.5053 7.43013 21.5074 7.4957 21.5254 7.57202C21.4957 7.3909 21.3946 7.33823 21.3453 7.16357C21.3379 7.19957 21.3062 7.24794 21.2924 7.22322C21.213 6.97063 21.1621 7.16625 21.0615 7.02007C21.0737 6.89861 21.2177 6.97385 21.0864 6.84433C21.0764 6.72663 21.178 6.76801 21.2294 6.78843C21.0806 6.68632 21.1394 6.49607 21.1102 6.40739L21.1807 6.46544C21.1388 6.43104 21.1203 6.39396 21.1012 6.35634L21.0456 6.44071C21.0366 6.38966 21.0176 6.35204 21.0499 6.33591C20.9752 6.3171 20.9392 6.43964 20.8217 6.38536C20.8307 6.30582 20.685 6.22843 20.7793 6.15318C20.8391 6.35795 20.872 6.07956 20.9705 6.22735C20.9424 6.20317 20.9228 6.16662 20.9143 6.11503C20.9228 6.10213 20.9387 6.11019 20.9509 6.11933C20.9551 5.89199 20.7936 6.09783 20.7046 5.91026C20.7745 5.90381 20.7947 5.8103 20.7671 5.78612C20.8021 5.86189 20.6872 5.8721 20.6083 5.82535C20.5956 5.68293 20.5108 5.71249 20.4854 5.64746L20.4987 5.72968C20.4277 5.73452 20.406 5.6711 20.3467 5.5964C20.389 5.56684 20.4155 5.65659 20.4213 5.61682C20.2715 5.57544 20.4251 5.35455 20.2959 5.25781C20.3086 5.17774 20.4044 5.19816 20.407 5.13205C20.263 5.02296 20.4155 4.93535 20.281 4.81228C20.2217 4.89397 20.245 4.8929 20.1169 4.82088L20.29 5.04714L20.0989 4.93965C20.1333 5.01704 20.2238 5.07724 20.2307 5.12991C20.1306 5.08369 20.1539 5.08154 20.1047 5.15033C20.1762 4.98856 19.9384 4.97512 19.9633 4.8155L20.1635 4.72683C20.1666 4.5054 19.9172 4.44897 19.8622 4.18832L19.8611 4.28022C19.7679 4.28398 19.7854 4.13833 19.7192 4.07545C19.7896 4.05288 19.7923 3.99376 19.8198 3.94271C19.7716 3.9685 19.7483 3.76643 19.607 3.80244L19.6504 3.65679C19.6059 3.44773 19.3666 3.51759 19.3115 3.32089C19.4084 3.34615 19.42 3.24135 19.5243 3.344C19.4989 3.28166 19.4883 3.22039 19.4412 3.23866C19.4677 3.18546 19.2797 3.10377 19.3205 3.01939C19.2808 3.00488 19.2066 3.02584 19.1844 2.95275C19.1945 2.93931 19.2172 2.93931 19.2172 2.93931C19.1844 2.95329 19.1277 2.84741 19.0774 2.94039C19.2146 2.67382 18.8471 2.40134 18.9032 1.99396C18.8116 1.82521 18.7131 1.61507 18.6475 1.44793C18.6612 1.42213 18.6639 1.38612 18.6729 1.43395C18.6083 1.04539 18.5336 1.6758 18.4764 1.28508C18.4611 0.882005 18.5447 1.28616 18.5278 1.10235C18.559 0.823962 18.5199 0.734747 18.4749 0.667568C18.4283 0.596626 18.3811 0.56438 18.3499 0.256429L18.37 0.269327C18.3303 -0.0214263 18.2583 -0.0246509 18.2074 0.0226436C18.1932 0.11992 18.1762 0.204297 18.1587 0.254279C18.1587 0.254279 18.1593 0.170976 18.1534 0.133893C18.1206 0.733672 18.0502 1.12815 18.0041 1.40762C17.9835 1.13621 18.0136 1.19264 17.9612 1.02443C17.9358 1.16201 18.0316 1.35011 17.9898 1.57799C17.949 1.52693 17.8829 1.5839 17.8193 1.4404L17.8807 1.21575C17.7801 1.08462 17.7965 1.51457 17.7521 1.58175L17.7219 1.4834C17.625 1.88325 17.7256 2.01868 17.6149 2.30782L17.6615 2.30675C17.7319 2.53516 17.5408 2.40241 17.5863 2.59267L17.437 2.57708C17.4439 2.67006 17.4619 2.90545 17.4322 3.05862C17.3634 2.93716 17.3777 2.75175 17.3565 2.62599C17.3258 2.70392 17.2628 2.89471 17.3136 2.96242C17.3131 2.92588 17.2956 2.87321 17.3285 2.8501C17.3984 2.98822 17.4005 3.13655 17.3364 3.29241C17.0902 3.15751 17.1034 3.66915 16.8535 3.69226C16.8371 4.00774 16.5792 4.20874 16.4479 4.52421C16.6973 4.51024 16.4108 4.61719 16.6237 4.69781C16.6025 4.77735 16.5855 4.80368 16.5697 4.80368L16.343 4.96115C16.2578 4.98265 16.3335 4.8714 16.2848 4.85474C16.1889 5.002 16.1656 4.87623 16.0592 4.95094C16.1429 4.96706 16.1349 5.05789 16.0619 5.13152L16.2186 5.0552C16.2133 5.32876 15.9544 5.15355 15.9475 5.42764L15.9205 5.32499C15.9009 5.45774 15.7076 5.73452 15.8008 5.92961C15.7669 5.93606 15.6986 5.93122 15.7118 5.87479C15.5382 6.11879 15.5514 6.55895 15.3295 6.69815L15.2951 6.64978C15.2792 6.70513 15.3311 6.78736 15.2459 6.81692C15.2289 6.80133 15.212 6.76801 15.1945 6.7879C15.195 6.82337 15.1966 6.96633 15.1299 7.01147L15.1114 6.92387C14.8932 7.12917 15.0007 7.38929 14.8932 7.61609C14.7593 7.52311 14.5824 7.67897 14.495 7.75636L14.4786 7.73916C14.2626 7.99874 14.2642 8.29702 14.1106 8.57917C13.8485 8.61841 13.6409 9.05051 13.3635 9.22195C13.4175 9.2069 13.4529 9.31224 13.4275 9.36437C13.3534 9.39608 13.373 9.59063 13.2708 9.48046L13.2904 9.46326C13.1442 9.40414 13.0722 9.54065 12.9896 9.62395L13.1183 9.7739C12.7148 9.80829 12.6301 10.4333 12.3261 10.3565C12.3055 10.443 12.2382 10.5048 12.2165 10.5924L12.1498 10.5107C11.9793 10.6257 11.9073 10.6972 11.7257 10.8719L11.7177 10.7821C11.6033 10.8633 11.7691 11.1282 11.6674 11.2158L11.5393 11.1164C11.3439 11.2733 11.068 11.3158 10.9573 11.584C10.9473 11.5625 10.9272 11.5206 10.9552 11.4905C10.8594 11.5587 10.5173 11.6721 10.6767 11.8253C10.5941 11.7108 10.4543 11.9661 10.377 12.0972L10.3357 11.9989C10.3161 12.1757 10.3336 12.2079 10.2213 12.3321C10.1827 12.3434 10.1467 12.2832 10.2038 12.2757C10.0683 12.3047 10.1779 12.4154 10.0185 12.4579L10.0291 12.3703C9.91632 12.4385 9.94438 12.4622 9.92797 12.5675C9.88296 12.6497 9.70716 12.6884 9.63885 12.6218C9.65686 12.6793 9.63938 12.7846 9.56048 12.8061C9.53189 12.7825 9.54354 12.7481 9.54884 12.7314C9.32803 12.7981 9.34656 13.0195 9.16441 13.02C9.1427 12.9926 9.12522 12.984 9.10881 12.9824C9.25548 12.8862 9.37357 12.8093 9.36774 12.8233C9.31426 12.7438 9.18877 12.8104 9.20783 12.6363C9.15488 12.7615 9.08127 13.0017 8.94201 13.041C8.93089 13.0372 8.92083 13.0334 8.90812 13.0238L8.91448 13.0066C8.88271 13.0163 8.86364 13.0399 8.85041 13.0684C8.8054 13.0797 8.77575 13.0856 8.74027 13.1082C8.68361 13.0512 8.58247 13.1635 8.52211 13.1995C8.58406 13.2839 8.49828 13.3221 8.61795 13.3457C8.60418 13.3457 8.62166 13.328 8.65819 13.2979C8.66508 13.2893 8.67461 13.2812 8.67726 13.2721L8.67831 13.2823C8.71591 13.2549 8.76463 13.2189 8.81969 13.178C8.80275 13.2538 8.77892 13.3242 8.68255 13.3194C8.68943 13.3957 8.6942 13.4763 8.69314 13.5161C8.5327 13.4478 8.33625 13.486 8.26582 13.4247C8.11756 13.5924 7.86392 13.7364 7.85651 13.9772C7.81891 14.032 7.76702 13.9681 7.73154 13.9546C7.75061 13.9186 7.78661 13.8976 7.78767 13.8633C7.71301 13.974 7.49485 14.0793 7.54357 14.211C7.38101 14.2421 7.54939 14.0567 7.38312 14.1906L7.38418 14.1395C6.91874 14.1787 6.9987 14.8059 6.45806 14.8102C6.4946 14.8081 6.51207 14.8065 6.52955 14.8226C6.01962 14.9962 5.66273 15.4933 5.11574 15.5857C4.96854 15.625 4.99819 15.7093 4.95318 15.8131L4.87005 15.7308L4.80015 15.9216C4.65454 16.1124 4.33895 15.8657 4.18274 16.156L4.24999 16.2059C4.15574 16.2403 3.99423 16.3962 3.96829 16.3102C3.96564 16.3274 3.9757 16.3957 3.92328 16.3785L3.89416 16.3274L3.72418 16.5311C3.53779 16.5784 3.64528 16.3086 3.398 16.4215C3.31804 16.4876 3.21691 16.7004 3.26615 16.7203C3.30216 16.7074 3.3747 16.709 3.40277 16.7616L3.33128 16.8304C3.38582 16.996 3.39112 17.1927 3.6617 17.1964L3.7639 17.0271L3.84862 17.0782L3.7263 17.1459C3.8322 17.1819 3.84597 17.0959 3.87403 17.0271C3.90581 17.0615 3.94022 17.0787 3.97676 17.0787L4.04507 16.8562C4.09325 16.9078 4.04242 17.0099 4.15521 16.9933C4.18592 16.889 4.02177 16.8912 4.10861 16.7874C4.21345 16.8213 4.22351 16.889 4.27329 16.7864C4.30506 16.8197 4.30135 16.8546 4.27805 16.889C4.32571 16.8025 4.45809 16.7654 4.4512 16.6638C4.56929 16.7111 4.68048 16.5091 4.75144 16.6574C4.75568 16.6101 4.81498 16.473 4.87693 16.4306C4.85258 16.6708 5.12633 16.3038 5.19676 16.5053C5.19835 16.2989 5.47581 16.2543 5.58066 16.077C5.57907 16.0942 5.57589 16.1291 5.55842 16.1296C5.65214 16.0909 5.70403 16.1221 5.77605 16.1178C5.71462 15.9845 5.83271 15.8754 5.85971 15.7545C6.03657 15.8136 5.88142 15.941 5.98256 16.0388C5.91796 15.9394 6.10752 15.8265 6.02121 15.7626C6.14618 15.7889 6.11176 15.7566 6.21502 15.8356C6.13612 15.6696 6.27432 15.7636 6.28385 15.626C6.44641 15.6325 6.4014 15.755 6.50095 15.6293C6.59044 15.64 6.50943 15.7652 6.50943 15.7652" fill="white"/>
<path fill-rule="evenodd" clip-rule="evenodd" d="M5.19195 29.0597C5.2078 29.0769 5.18825 29.0845 5.16711 29.0888C5.16446 29.0807 5.16024 29.071 5.15284 29.0581L5.13962 29.057C5.15971 29.0581 5.17873 29.0592 5.19195 29.0597M4.4931 29.3556C4.49574 29.3421 4.49521 29.3255 4.49363 29.3072C4.52851 29.3008 4.56551 29.3024 4.56445 29.3137C4.54067 29.3094 4.52164 29.3373 4.4931 29.3556M4.02597 27.9816C4.03127 28.037 4.16153 27.9865 4.24043 27.9859C4.28808 28.0467 4.14512 28.0321 4.07946 28.0655C4.12129 28.1009 4.24943 28.1138 4.24837 28.1461C4.22666 28.1515 4.21925 28.1584 4.19012 28.1558C4.30344 28.1837 4.21342 28.2847 4.35586 28.317C4.34421 28.3224 4.33362 28.3261 4.32303 28.3283C4.38975 28.3111 4.45859 28.3003 4.50783 28.2955C4.51366 28.3202 4.59997 28.331 4.5126 28.3525C4.51313 28.3363 4.47712 28.3401 4.44853 28.3363L4.49089 28.3573C4.36645 28.3981 4.44164 28.3272 4.34739 28.3401C4.39611 28.3858 4.50995 28.432 4.47765 28.4766C4.35427 28.5003 4.42576 28.3895 4.32091 28.4562L4.36063 28.389C4.17053 28.461 4.36857 28.3508 4.16524 28.4207C4.14035 28.504 4.23831 28.5013 4.2113 28.5852C4.28279 28.5948 4.3135 28.5669 4.38446 28.5766C4.52107 28.6765 4.08051 28.7018 4.25525 28.7658C4.34104 28.7781 4.49936 28.7695 4.42258 28.8383L4.27908 28.8329C4.27432 28.9114 4.48718 28.8566 4.40087 28.9474C4.34368 28.9377 4.34739 28.891 4.33203 28.9039C4.22666 28.9678 4.4157 28.9334 4.42046 28.9737L4.29656 28.9942C4.3225 29.0742 4.41887 29.1575 4.44906 29.2478C4.41093 29.2457 4.37069 29.2333 4.33415 29.2575C4.40511 29.3682 4.33733 29.5053 4.27061 29.6197L4.38022 29.6557C4.37916 29.666 4.3315 29.6767 4.31032 29.667C4.27114 29.7122 4.37916 29.666 4.42258 29.6848C4.43105 29.709 4.36116 29.7202 4.32833 29.7063C4.42258 29.7772 4.53378 29.9169 4.42046 30.0013L4.3871 29.9868C4.3458 30.0508 4.61215 30.0513 4.51313 30.1131L4.49354 30.1024C4.45382 30.2399 4.55019 30.391 4.38604 30.4952C4.54172 30.5156 4.31509 30.6296 4.53272 30.6403C4.42417 30.7172 4.38551 30.6946 4.31191 30.8026C4.30185 30.8311 4.448 30.8489 4.47024 30.8859L4.35639 30.8838L4.47553 30.9365L4.33892 30.9585L4.36592 30.9929C4.37334 30.98 4.41887 30.966 4.4517 30.9692C4.49989 31.0241 4.36539 31.0955 4.30662 31.0945L4.39558 31.2234C4.35004 31.2181 4.33574 31.1966 4.30768 31.1788C4.41993 31.2509 4.18748 31.1848 4.2902 31.2509C4.31668 31.2439 4.35745 31.2589 4.38075 31.2616C4.30979 31.2885 4.30556 31.3567 4.3315 31.4099L4.2542 31.3954C4.22878 31.4857 4.28226 31.5921 4.27273 31.6953C4.31297 31.6615 4.448 31.6808 4.457 31.7131L4.33627 31.7147C4.40828 31.7405 4.38499 31.6867 4.4713 31.7351C4.45329 31.7727 4.33203 31.7491 4.2955 31.7238L4.33203 31.7743C4.29603 31.7738 4.27802 31.7609 4.23301 31.7539C4.30503 31.7802 4.10381 31.8232 4.23037 31.863L4.19436 31.8619C4.18218 31.964 4.21819 32.0151 4.21554 32.0995C4.3188 32.1129 4.29232 32.143 4.37281 32.1785C4.33309 32.2365 4.24466 32.2951 4.24572 32.3703C4.29126 32.4295 4.33097 32.3972 4.38922 32.4295C4.29709 32.4209 4.29232 32.4956 4.23196 32.4477C4.23249 32.5386 4.23143 32.5627 4.28861 32.6874C4.32886 32.681 4.34739 32.6702 4.37863 32.6821C4.39028 32.7052 4.3315 32.7229 4.28703 32.7121L4.27802 32.7057C4.39663 32.8573 3.95873 32.947 4.13611 33.0819L4.12711 33.0749L4.21078 33.1991C4.18483 33.2426 4.1467 33.1561 4.0821 33.1797C4.21078 33.3221 4.01909 33.3479 4.10064 33.4608C3.81258 33.4672 4.06145 33.715 3.86659 33.7655L3.93172 33.7768C3.98891 33.8177 3.8883 33.7967 3.86977 33.8107C3.92007 33.8209 3.93278 33.7994 3.96402 33.8236C3.99526 34.0541 3.74639 34.217 3.63149 34.4024C3.59177 34.4712 3.94019 34.5545 3.76228 34.5991L3.65532 34.5324C3.75116 34.7361 3.54094 34.835 3.60025 35.0258C3.57748 35.0065 3.54359 34.9925 3.54941 34.9785C3.45516 34.9758 3.5007 35.0892 3.56742 35.1177C3.55047 35.1376 3.5044 35.0984 3.46469 35.0978C3.40433 35.108 3.53882 35.2188 3.45092 35.2005C3.43663 35.1978 3.42815 35.1811 3.42392 35.1725C3.45569 35.2091 3.37679 35.2612 3.47846 35.2827C3.41227 35.3176 3.47899 35.4058 3.40591 35.4241C3.50017 35.5025 3.31696 35.4912 3.45887 35.5675C3.30848 35.4928 3.29313 35.595 3.34714 35.6632C3.30742 35.6294 3.28624 35.6664 3.23065 35.6218C3.21529 35.6578 3.22588 35.7051 3.30531 35.7395C3.09721 35.7078 3.37838 35.9545 3.1311 35.861C3.14592 36.0093 3.13692 36.1399 3.11097 36.2576C2.97489 36.1603 3.16181 36.1437 3.01196 36.0518C3.01831 36.177 3.1025 36.3103 3.00613 36.3732C2.97171 36.3823 2.95583 36.3183 2.93782 36.2947C2.932 36.421 2.80756 36.4511 2.82557 36.5838C2.81339 36.5736 2.80597 36.5548 2.80121 36.5398C2.79538 36.558 2.75673 36.5597 2.81868 36.6048L2.81286 36.5769C2.91876 36.6198 2.95053 36.7789 2.99289 36.8176C2.84145 36.6575 2.88964 36.859 2.7059 36.6473C2.7096 36.6655 2.72814 36.7005 2.76944 36.73C2.74614 36.7349 2.71966 36.7209 2.6863 36.6704C2.67624 36.7483 2.75461 36.7811 2.71437 36.8278C2.6863 36.8042 2.68313 36.7859 2.65295 36.7531C2.68948 36.823 2.72549 36.8934 2.66883 36.9144C2.65347 36.8977 2.62753 36.8837 2.63812 36.8719C2.59152 36.9482 2.68895 37.1164 2.56981 37.1444C2.46867 37.017 2.50839 37.1353 2.40143 37.0471L2.39719 37.1138L2.46126 37.1428C2.42896 37.1761 2.47662 37.275 2.41678 37.2744L2.39772 37.21L2.35907 37.2933L2.43055 37.2916C2.45226 37.3755 2.56346 37.4067 2.49356 37.4276C2.49144 37.4083 2.46126 37.462 2.38501 37.4244V37.4244C2.40196 37.4722 2.41943 37.5217 2.37018 37.5233C2.33206 37.4991 2.26428 37.412 2.23834 37.3959C2.30717 37.4926 2.18644 37.4975 2.25528 37.6044C2.24151 37.577 2.18909 37.526 2.17691 37.5179L2.23092 37.5974C2.19439 37.5921 2.18115 37.5845 2.14249 37.5416C2.08531 37.5765 2.28282 37.6496 2.17479 37.6528C2.17374 37.6431 2.16156 37.6351 2.15997 37.6157C2.07842 37.6442 2.09907 37.7678 2.01594 37.7861C1.90368 37.7012 2.03606 37.7173 1.93651 37.6501C1.88197 37.7404 1.90157 37.9199 1.80731 37.9667L1.83114 37.9645C1.95716 38.1177 1.71147 37.9462 1.739 38.0494C1.73795 38.0295 1.67546 37.9575 1.6887 37.9758C1.61933 38.0011 1.62039 38.1069 1.58545 38.2241L1.56162 38.1779C1.50125 38.172 1.4663 38.2305 1.41865 38.2429C1.44301 38.2897 1.41918 38.3004 1.47901 38.345C1.19149 38.2198 1.38794 38.6331 1.14277 38.531C1.15283 38.5213 1.13907 38.4745 1.13059 38.4821L1.08453 38.5847C1.14542 38.6449 1.12795 38.6159 1.18778 38.653C1.21002 38.7003 1.21373 38.7497 1.19466 38.7669C1.19308 38.6922 1.10571 38.661 1.06017 38.6368C1.07976 38.6551 1.09353 38.682 1.11153 38.7013C0.972798 38.618 1.21532 38.84 1.09406 38.8078L1.06811 38.7707C1.06176 38.8061 1.08029 38.8685 1.04958 38.8776C0.977034 38.8083 1.04216 38.8228 0.99186 38.7583C0.964326 38.7889 1.04905 38.9572 0.957442 38.904C0.953206 38.8712 0.972268 38.8545 0.968032 38.8223C0.863188 38.7572 0.879074 38.7836 0.844126 38.7884L0.847832 38.7889L0.761522 38.7922L0.794881 38.8056C0.918787 39.0415 0.744048 38.9093 0.795411 39.0861C0.748284 38.9174 0.746695 39.0061 0.680506 38.9142C0.647147 38.9013 0.604786 38.8905 0.591548 38.8604C0.62173 38.9523 0.504707 38.8379 0.550775 38.9717C0.526947 38.9443 0.521652 38.991 0.471348 38.9142C0.456522 38.9636 0.517945 38.9582 0.543362 38.9959C0.568249 39.1361 0.331556 38.9722 0.36068 39.1657C0.33897 39.2716 0.400923 39.3796 0.376036 39.4742C0.320966 39.443 0.314082 39.3554 0.314082 39.3554C0.249482 39.3371 0.230419 39.3635 0.224065 39.4204C0.211886 39.3903 0.189647 39.3737 0.155758 39.3479C0.136695 39.3742 0.217181 39.4672 0.152581 39.4489C0.134577 39.4118 0.103865 39.3538 0.0916866 39.3119C0.0826848 39.3608 0.0932751 39.4382 0.0821553 39.4865C0.0371466 39.4409 0.0440303 39.3952 0.0307925 39.3538C0.0133185 39.4016 -0.024277 39.465 0.0228498 39.5548L0.0657404 39.5677C0.0562091 39.5811 0.00961192 39.5021 0.00802337 39.4806C-0.00786204 39.3952 0.070506 39.4779 0.0938046 39.5064L0.0853324 39.5414C0.232537 39.6983 0.15311 39.4489 0.203414 39.4258L0.277016 39.565L0.245775 39.4274C0.279134 39.4527 0.336852 39.5177 0.328909 39.5521C0.405688 39.5903 0.324143 39.4871 0.401982 39.5354C0.413102 39.5435 0.415749 39.551 0.416808 39.5575L0.419985 39.4973C0.433753 39.5279 0.490411 39.5811 0.45864 39.5779C0.56772 39.6075 0.477702 39.4161 0.568779 39.4941L0.569838 39.5053C0.614317 39.4038 0.508414 39.4081 0.484586 39.2576L0.693214 39.4511L0.631791 39.3549C0.641852 39.3522 0.662503 39.3468 0.68739 39.385C0.669386 39.3006 0.652442 39.35 0.624378 39.278C0.724985 39.3307 0.696921 39.1576 0.816591 39.2941C0.776878 39.2151 0.740341 39.2699 0.742989 39.1904C0.874308 39.335 0.768405 39.127 0.856834 39.17C0.909256 39.2576 0.843596 39.242 0.933614 39.2845C0.848891 39.1345 1.0231 39.2603 1.0321 39.2114C0.94897 39.1044 1.05805 39.1152 1.07764 39.0405C1.10306 39.0781 1.21373 39.0227 1.28945 39.0227L1.30268 39.0415C1.22432 38.9287 1.2868 38.9109 1.30057 38.8599C1.35193 38.9244 1.36676 38.9539 1.37258 38.9975L1.40329 38.9701C1.38211 38.9303 1.37682 38.904 1.38688 38.8744L1.44459 38.9593C1.48219 38.919 1.44989 38.7949 1.54626 38.8008C1.48696 38.7255 1.33234 38.6352 1.34505 38.539C1.38105 38.5761 1.44089 38.6411 1.43983 38.6696C1.44036 38.6605 1.42924 38.6223 1.45307 38.6309L1.48749 38.7159C1.5362 38.7239 1.45307 38.6503 1.47689 38.6395C1.52455 38.6954 1.52508 38.6669 1.56109 38.7132C1.56056 38.7228 1.52402 38.7051 1.5362 38.7336C1.56585 38.7239 1.62092 38.7341 1.66593 38.7685C1.63628 38.7384 1.6008 38.6938 1.61033 38.6729C1.64793 38.6326 1.68235 38.7266 1.73106 38.7336C1.70723 38.6863 1.7676 38.7019 1.69558 38.6191C1.70776 38.6089 1.74377 38.6449 1.76813 38.6632C1.75701 38.6078 1.85603 38.5627 1.75489 38.4977L1.7443 38.4966V38.4901C1.73847 38.3461 1.92751 38.4068 1.9614 38.3079L1.98629 38.3348C1.99741 38.2655 2.05671 38.2311 2.03024 38.1467C2.04189 38.1354 2.10384 38.1682 2.12926 38.2048C2.13985 38.1553 2.11496 38.1225 2.20021 38.1236C2.21451 38.1994 2.24946 38.1542 2.2018 38.1876C2.26269 38.1725 2.313 38.2058 2.2844 38.0924C2.33524 38.1736 2.39719 38.1489 2.3956 38.1091L2.32094 38.0887C2.33259 38.0586 2.35589 38.0451 2.37919 38.0322L2.4565 38.13C2.64236 38.1532 2.41466 37.8033 2.654 37.9167C2.61217 37.835 2.56822 37.9188 2.51368 37.8291C2.56081 37.8033 2.72655 37.8866 2.7382 37.8748C2.83775 37.8705 2.65242 37.7022 2.73555 37.6786C2.6969 37.656 2.60529 37.5819 2.61058 37.5131C2.65612 37.4857 2.78903 37.5905 2.79327 37.6388C2.78797 37.6507 2.77367 37.6458 2.76255 37.6351C2.76361 37.6587 2.76255 37.6883 2.8118 37.7049L2.78374 37.67C2.83404 37.6813 2.87799 37.6238 2.92035 37.685C2.91505 37.627 2.87799 37.6238 2.84198 37.6302C2.93306 37.6227 2.91188 37.5528 2.98972 37.5297C2.9643 37.5217 2.91876 37.4948 2.9267 37.4873C3.0342 37.447 2.89282 37.3986 2.923 37.3346C2.99872 37.3497 3.03631 37.4513 3.03684 37.3604C3.09774 37.3572 3.1311 37.4292 3.14804 37.4663C3.12315 37.361 3.26506 37.4093 3.30054 37.39L3.30584 37.4394C3.30319 37.4099 3.31378 37.397 3.3249 37.3841L3.24441 37.3427C3.26877 37.3373 3.27989 37.3244 3.30742 37.3481C3.27565 37.2954 3.18458 37.2669 3.1491 37.1852C3.1994 37.1933 3.16075 37.0933 3.25712 37.1594C3.17505 37.1992 3.35402 37.2261 3.32543 37.2933C3.32278 37.2739 3.33337 37.261 3.35773 37.2556C3.37044 37.261 3.3752 37.2728 3.37679 37.2809C3.50811 37.2841 3.29683 37.1696 3.35032 37.1073C3.39479 37.1562 3.46045 37.1696 3.45728 37.1503C3.43557 37.1761 3.36091 37.0949 3.34025 37.0407C3.41227 37.0299 3.34343 36.9708 3.36408 36.9525L3.32702 36.9633C3.28095 36.9144 3.30266 36.8982 3.30637 36.8563C3.34979 36.8848 3.3159 36.9047 3.34131 36.9079C3.27195 36.8053 3.49011 36.9052 3.46045 36.8123C3.51182 36.8171 3.56212 36.8832 3.60025 36.8816C3.56795 36.7795 3.71409 36.8767 3.69609 36.7805C3.61242 36.7456 3.62831 36.7607 3.58489 36.6731L3.57165 36.7988L3.50705 36.6666C3.48746 36.6929 3.51288 36.7558 3.48905 36.7633C3.44986 36.694 3.46522 36.7096 3.39638 36.6795C3.53088 36.7198 3.38473 36.5629 3.48746 36.5726L3.66696 36.6983C3.79352 36.6865 3.64949 36.5145 3.7501 36.4575L3.70085 36.4656C3.63466 36.4065 3.72362 36.4049 3.71091 36.3576C3.77128 36.399 3.80517 36.3952 3.85176 36.4065C3.80411 36.3802 3.89624 36.3436 3.77551 36.2608L3.88195 36.2705C3.96032 36.2173 3.74692 36.0819 3.80464 36.0249C3.86341 36.0846 3.9259 36.0765 3.95078 36.1528C3.96402 36.1286 3.98732 36.113 3.94284 36.0883C3.98997 36.0953 3.88936 35.9755 3.9619 35.9857C3.93861 35.9604 3.87242 35.9228 3.89095 35.8986C3.90525 35.9024 3.92325 35.9153 3.92325 35.9153C3.89095 35.8986 3.90048 35.8519 3.81576 35.8384C4.06145 35.8669 3.89995 35.6294 4.10011 35.6449C4.09905 35.5821 4.10275 35.509 4.11705 35.459C4.13611 35.4703 4.15041 35.4735 4.13982 35.4794C4.22931 35.4391 3.96296 35.3574 4.06251 35.3123C4.18748 35.3187 4.1054 35.3762 4.15676 35.3692C4.3834 35.4504 4.16259 35.266 4.31297 35.2671L4.32091 35.2849C4.41252 35.2752 4.27485 35.1559 4.31562 35.0989C4.31562 35.0989 4.33468 35.1097 4.34951 35.1123C4.25102 35.0247 4.25049 34.9312 4.2346 34.8565C4.31721 34.9076 4.27273 34.9017 4.36592 34.9221C4.36222 34.8898 4.21925 34.8786 4.2113 34.8141C4.26532 34.8135 4.32091 34.7883 4.41834 34.8157L4.40722 34.871C4.54013 34.8872 4.42417 34.8006 4.45435 34.7802L4.50783 34.8028C4.51577 34.7146 4.37863 34.6673 4.41517 34.5835L4.37069 34.5792C4.2489 34.4878 4.46018 34.5642 4.37281 34.4846L4.51683 34.5142C4.49301 34.4717 4.4157 34.3621 4.40722 34.2992C4.50042 34.3615 4.53325 34.4438 4.58196 34.504C4.59255 34.4728 4.60473 34.3938 4.54119 34.3572C4.55019 34.3739 4.57985 34.4002 4.55443 34.4061C4.45647 34.3341 4.41781 34.2686 4.439 34.2078C4.70905 34.2976 4.55761 34.0665 4.77683 34.0772C4.70216 33.9375 4.87267 33.8639 4.88749 33.7263C4.66245 33.7225 4.89014 33.6865 4.6688 33.643C4.66139 33.6091 4.66775 33.5989 4.68257 33.5995L4.8356 33.5371C4.90497 33.5291 4.87743 33.5769 4.92774 33.5849C4.96057 33.5215 5.02729 33.5774 5.09665 33.5452C5.01564 33.5371 4.98916 33.4968 5.02834 33.4646L4.9145 33.4973C4.8176 33.378 5.12048 33.4549 5.02252 33.3345L5.08659 33.3791C5.05376 33.3216 5.11889 33.1953 4.94892 33.1142C4.97592 33.1104 5.03841 33.1099 5.05058 33.1346C5.09771 33.0201 4.90444 32.8395 5.0294 32.7664L5.08288 32.7842C5.07124 32.7594 4.98651 32.7299 5.04635 32.7111C5.06859 32.7159 5.0993 32.7283 5.10406 32.7186C5.08765 32.7041 5.01828 32.6455 5.05482 32.6213L5.11254 32.6552C5.20467 32.5504 4.98757 32.4569 4.9611 32.3569C5.12154 32.3779 5.18402 32.2935 5.21526 32.251L5.23803 32.2548C5.27245 32.1215 5.12895 32.0103 5.07812 31.8807C5.26557 31.8195 5.17555 31.6255 5.27933 31.5078C5.24862 31.5244 5.15331 31.4959 5.13795 31.4728C5.1729 31.4454 5.02993 31.3858 5.17873 31.3992L5.17555 31.4094C5.32223 31.396 5.28728 31.3331 5.2931 31.2863L5.0993 31.2686C5.38841 31.1584 5.01458 30.9451 5.2661 30.8865C5.21738 30.8553 5.21791 30.8188 5.16972 30.7887L5.27404 30.7924C5.30157 30.7102 5.31481 30.6694 5.29098 30.5672L5.36512 30.5882C5.37253 30.5302 5.06488 30.5146 5.05853 30.4624L5.21473 30.4469C5.21262 30.3474 5.35294 30.2437 5.20573 30.1475C5.22903 30.1486 5.27404 30.1507 5.28092 30.1668C5.28357 30.1201 5.37994 29.9814 5.16655 30.0051C5.30634 29.9997 5.17714 29.9014 5.11413 29.8508L5.21685 29.8551C5.08394 29.8148 5.04794 29.8148 5.00928 29.7541C5.02252 29.7385 5.09136 29.7369 5.06594 29.7579C5.1173 29.7057 4.96692 29.724 5.01934 29.6617L5.08606 29.6805C5.09242 29.6289 5.05694 29.6348 4.97963 29.6106C4.93833 29.581 4.99975 29.5133 5.09242 29.4999C5.03523 29.4967 4.95739 29.4736 4.98228 29.4418C5.0167 29.4354 5.03946 29.4451 5.05005 29.4499C5.11413 29.3596 4.92138 29.3317 5.01828 29.2656C5.05217 29.2618 5.06912 29.257 5.07865 29.2511C5.0813 29.3193 5.07971 29.3741 5.07176 29.3698C5.16655 29.3634 5.17926 29.3069 5.31322 29.3419C5.23856 29.3021 5.07759 29.2382 5.11836 29.1817C5.12736 29.1785 5.1369 29.1758 5.15066 29.1721L5.16125 29.1764C5.17025 29.1635 5.16019 29.1527 5.14378 29.1436C5.15861 29.1253 5.16867 29.1135 5.1692 29.0968C5.24703 29.0839 5.20626 29.0296 5.20838 29.0022C5.10512 29.0135 5.11889 28.9764 5.03629 29.0173C5.04317 29.0124 5.049 29.0216 5.05429 29.0393C5.058 29.0431 5.06012 29.0479 5.06647 29.0501L5.05694 29.049C5.06012 29.0673 5.06435 29.0904 5.06912 29.1162C5.01458 29.099 4.96904 29.0807 5.02411 29.0452C4.95686 29.0361 4.88749 29.0269 4.85413 29.0221C4.99657 28.9721 5.06806 28.8926 5.15543 28.8743C5.08818 28.7964 5.09559 28.6803 4.89597 28.6502C4.86896 28.6298 4.94892 28.6169 4.97857 28.6045C4.99922 28.6158 4.99816 28.6325 5.02676 28.6368C4.97169 28.5954 4.99234 28.4992 4.85572 28.504C4.91079 28.4374 4.98387 28.5228 4.95315 28.4438L4.99551 28.4497C5.19461 28.2589 4.61585 28.2358 4.87002 28.0203C4.85413 28.0354 4.84778 28.0424 4.82501 28.0483C4.92138 27.8263 4.64551 27.6549 4.80542 27.4216C4.83295 27.3577 4.74611 27.3679 4.67463 27.3464L4.78212 27.3131L4.64445 27.2792C4.53537 27.2163 4.88538 27.0793 4.68734 27.011L4.61691 27.0406C4.62274 27.0003 4.54755 26.932 4.6328 26.9186C4.61903 26.918 4.55443 26.924 4.58885 26.9003L4.64604 26.8858L4.52742 26.8165C4.55125 26.7348 4.75565 26.7729 4.74029 26.6633C4.70958 26.6294 4.54596 26.5902 4.51313 26.6176C4.51472 26.6348 4.48877 26.6687 4.43264 26.6848L4.39399 26.6574C4.22666 26.6966 4.05192 26.7246 3.95449 26.8288L4.07045 26.8589L3.99367 26.8982L3.97726 26.8519C3.90736 26.8982 3.97885 26.8976 4.03021 26.9057C3.98838 26.9207 3.95979 26.9358 3.94602 26.9508L4.11917 26.9686C4.05563 26.9906 3.98361 26.9739 3.95555 27.0207C4.03551 27.0293 4.09746 26.96 4.15571 26.9927C4.08528 27.0384 4.02174 27.0449 4.09428 27.0621C4.05192 27.0766 4.0228 27.076 4.00109 27.0675C4.0588 27.0846 4.03974 27.1384 4.13241 27.1341C4.04451 27.183 4.17795 27.2265 4.0175 27.2577C4.05722 27.2588 4.15306 27.283 4.16524 27.3088C3.96455 27.2991 4.17318 27.4114 3.96614 27.4394C4.14459 27.4415 4.06887 27.5538 4.17424 27.6011C4.15994 27.6 4.13082 27.5979 4.13876 27.5909C4.13082 27.6296 4.08051 27.6495 4.05192 27.6791C4.19489 27.6581 4.23725 27.7086 4.33045 27.7242C4.20018 27.793 4.15835 27.7263 4.02862 27.7634C4.14406 27.7409 4.15729 27.8209 4.25102 27.7892C4.17106 27.8381 4.21448 27.8258 4.09958 27.8629C4.27855 27.8392 4.13453 27.8897 4.24943 27.8999C4.16894 27.9639 4.08422 27.9397 4.14723 27.9854C4.0964 28.0198 4.02597 27.9816 4.02597 27.9816" fill="white"/>
<path fill-rule="evenodd" clip-rule="evenodd" d="M10.2641 43.9392C10.2948 43.9408 10.2905 43.9623 10.2821 43.9828C10.271 43.9774 10.2562 43.9725 10.2361 43.9688L10.2271 43.9779C10.2398 43.9623 10.2525 43.9484 10.2641 43.9392M10.1862 44.7487C10.1698 44.7336 10.1471 44.7186 10.1228 44.7041C10.1365 44.6697 10.1619 44.6417 10.1757 44.653C10.155 44.6681 10.1794 44.7084 10.1862 44.7487M8.16514 43.5325C8.22921 43.6029 8.29169 43.4696 8.36159 43.4282C8.46643 43.4798 8.32611 43.5368 8.30334 43.6142C8.378 43.6389 8.50297 43.5857 8.53527 43.6265C8.52256 43.6459 8.52415 43.6593 8.49608 43.6711C8.61946 43.6469 8.66076 43.8146 8.81432 43.7689C8.81061 43.7824 8.80532 43.7931 8.80002 43.8023C8.83497 43.741 8.87998 43.6873 8.91493 43.6518C8.9467 43.677 9.02772 43.6357 8.98006 43.7136C8.96364 43.6953 8.93823 43.7211 8.91069 43.7351L8.96894 43.7335C8.91281 43.8566 8.89587 43.7286 8.83285 43.8007C8.92393 43.8254 9.06478 43.8071 9.08914 43.877C9.01871 43.9839 8.94988 43.8109 8.94193 43.9538L8.89851 43.8506C8.82597 44.0533 8.86145 43.7996 8.77567 44.0086C8.85298 44.1258 8.92976 44.0581 9.00601 44.1747C9.07219 44.1392 9.06319 44.0871 9.12938 44.0516C9.35231 44.0651 9.05154 44.3924 9.26441 44.3424C9.34383 44.2967 9.44921 44.1753 9.47674 44.3021L9.36607 44.3977C9.46033 44.4864 9.54399 44.2741 9.5943 44.4321C9.54346 44.4644 9.4868 44.4112 9.49263 44.437C9.49739 44.5816 9.58847 44.4074 9.64089 44.4467L9.58 44.5595C9.69861 44.6294 9.88023 44.6224 10.0163 44.6853C9.98931 44.7127 9.94642 44.7331 9.95542 44.7847C10.1508 44.8282 10.2848 45.0206 10.4135 45.17L10.5273 45.1061C10.5411 45.1147 10.531 45.1636 10.5051 45.1738C10.549 45.2437 10.5411 45.1147 10.5919 45.0921C10.6306 45.1039 10.6094 45.1722 10.5712 45.1899C10.7275 45.1663 10.9763 45.1743 11.0425 45.341L11.0054 45.3587C11.0785 45.4452 11.2014 45.2104 11.2448 45.341L11.2199 45.3517C11.4047 45.4807 11.6658 45.4807 11.7616 45.6994C11.8474 45.564 11.94 45.8499 12.029 45.6484C12.1074 45.8005 12.0624 45.8203 12.208 45.9461C12.2503 45.9703 12.3197 45.837 12.3822 45.8327L12.3478 45.9434L12.4606 45.8521L12.459 45.9966L12.5204 45.9853C12.5019 45.9719 12.4918 45.9214 12.5045 45.8907C12.6014 45.8671 12.6803 46.031 12.6655 46.0885L12.8868 46.0568C12.8704 46.1003 12.8339 46.1052 12.7994 46.1251C12.9355 46.045 12.7851 46.2481 12.9101 46.1751C12.9043 46.1455 12.935 46.1111 12.944 46.0891C12.9715 46.1729 13.0806 46.2062 13.1696 46.1933L13.1346 46.267C13.2771 46.3207 13.4545 46.3013 13.6197 46.3406C13.5678 46.2906 13.6122 46.1595 13.6631 46.1573L13.6557 46.2809C13.7028 46.2143 13.6154 46.2245 13.6991 46.1487C13.7568 46.1767 13.7113 46.2938 13.6668 46.3245L13.7505 46.3003C13.7473 46.3368 13.7261 46.3519 13.7118 46.3959C13.7579 46.3288 13.8166 46.5459 13.8881 46.4271L13.8849 46.4637C14.0512 46.5007 14.1333 46.4841 14.2704 46.4943C14.2911 46.3911 14.3403 46.4217 14.3949 46.3438C14.4881 46.3911 14.586 46.4889 14.7078 46.4975C14.7989 46.4577 14.7449 46.4131 14.7915 46.3562C14.7841 46.4518 14.9053 46.4604 14.8338 46.5195C14.9795 46.5255 15.0208 46.5276 15.2114 46.4766C15.196 46.4346 15.1759 46.4142 15.1913 46.3836C15.2257 46.3723 15.2617 46.4341 15.2516 46.4792L15.2416 46.4878C15.4576 46.383 15.6885 46.8065 15.8701 46.6227L15.86 46.6319L16.0364 46.5389C16.1137 46.5609 15.9855 46.6082 16.0385 46.6711C16.2323 46.5233 16.3271 46.7136 16.4833 46.6163C16.5897 46.9119 16.8974 46.6206 17.0509 46.7936L17.043 46.727C17.0848 46.6609 17.0922 46.7646 17.1219 46.7797C17.1182 46.7281 17.0784 46.72 17.1039 46.6835C17.448 46.6007 17.8155 46.7748 18.1751 46.8318C18.3069 46.8468 18.2333 46.4911 18.4038 46.6351L18.3636 46.763C18.6162 46.5926 18.9005 46.7216 19.1451 46.5738C19.133 46.6039 19.1356 46.6405 19.1107 46.6426C19.1732 46.727 19.3114 46.6292 19.304 46.5561C19.3448 46.5609 19.3209 46.6217 19.349 46.6566C19.4094 46.7044 19.4724 46.5303 19.511 46.6168C19.5179 46.6308 19.4989 46.6469 19.4904 46.655C19.5206 46.6082 19.6561 46.6512 19.6101 46.5513C19.7128 46.5948 19.7864 46.4776 19.8711 46.5281C19.9039 46.4045 20.0421 46.5556 20.0331 46.3906C20.0511 46.5593 20.2216 46.4975 20.2688 46.4083C20.2566 46.4626 20.3297 46.4518 20.3175 46.5255C20.3863 46.5115 20.4446 46.4696 20.417 46.3863C20.5801 46.5636 20.6405 46.1826 20.7602 46.4255C20.9492 46.3083 21.1186 46.1869 21.2886 46.1052C21.322 46.2713 21.0943 46.1734 21.1409 46.3443C21.2987 46.2315 21.3617 46.0654 21.5407 46.0611C21.5904 46.0719 21.5338 46.1385 21.5264 46.1702C21.6799 46.0584 21.8621 46.0987 21.9886 45.9703C21.9923 45.9859 21.9812 46.0063 21.969 46.0224C21.9976 46.0095 22.0458 46.0283 22.0204 45.9558L21.9971 45.9832C21.9198 45.8918 22.0474 45.7241 22.0342 45.6639C22.0495 45.8918 22.1946 45.6656 22.1999 45.9585C22.2147 45.9375 22.228 45.8945 22.2078 45.8472C22.2407 45.8515 22.2592 45.8762 22.2481 45.9423C22.3402 45.865 22.2777 45.801 22.372 45.7693C22.3842 45.8042 22.3688 45.8246 22.3731 45.8698C22.3985 45.7838 22.4228 45.6983 22.5128 45.6994C22.5155 45.7225 22.534 45.7467 22.5102 45.7548C22.6447 45.6951 22.677 45.4904 22.8507 45.5027C22.8639 45.6688 22.92 45.5339 22.9793 45.6613C23.0016 45.6387 23.0233 45.6167 23.0439 45.5903L22.9873 45.542C23.0572 45.5129 23.0784 45.3909 23.1546 45.4065L23.126 45.4828L23.2436 45.3995L23.1509 45.3839C23.1912 45.2861 23.0747 45.2249 23.1795 45.219C23.1668 45.2404 23.2473 45.1899 23.3151 45.249V45.2496C23.3309 45.1932 23.3458 45.1351 23.4098 45.1437C23.4416 45.1786 23.4633 45.2888 23.484 45.3119C23.4691 45.191 23.6301 45.2093 23.619 45.0776C23.6174 45.1104 23.6481 45.177 23.6592 45.1883L23.646 45.09C23.69 45.1029 23.7016 45.1142 23.7217 45.169C23.8239 45.1405 23.6142 45.0239 23.7593 45.0405C23.7546 45.0513 23.7646 45.062 23.753 45.0835C23.8843 45.0674 23.9346 44.9137 24.0564 44.9008C24.1528 45.0072 23.986 44.9803 24.0749 45.0658C24.2089 44.9599 24.2915 44.7482 24.4456 44.6976L24.4122 44.6993C24.3291 44.5171 24.5668 44.7267 24.5859 44.6009C24.5769 44.6251 24.6219 44.7095 24.615 44.688C24.7225 44.652 24.7749 44.5176 24.8755 44.372L24.8872 44.4257C24.9661 44.4262 25.0418 44.3499 25.1128 44.329C25.1006 44.2758 25.1382 44.2596 25.0752 44.2134C25.4268 44.3241 25.2986 43.8351 25.5967 43.9065C25.5798 43.9216 25.583 43.9759 25.5973 43.964L25.6936 43.8238C25.628 43.7663 25.6428 43.798 25.5734 43.7684C25.5565 43.7163 25.5655 43.6572 25.5962 43.6324C25.5777 43.7211 25.6862 43.7367 25.7424 43.7523C25.7212 43.7362 25.7106 43.7071 25.691 43.6889C25.8541 43.7469 25.5872 43.5491 25.7381 43.5475L25.7641 43.5851C25.7794 43.5379 25.7667 43.4664 25.8085 43.4438C25.8901 43.5035 25.808 43.5099 25.8604 43.5722C25.9044 43.5217 25.8244 43.3449 25.9346 43.3761C25.934 43.4153 25.9054 43.4433 25.9044 43.4825C26.0304 43.5228 26.0161 43.4954 26.0638 43.475L26.0585 43.4766L26.176 43.4357L26.1337 43.4336C26.0103 43.1928 26.2216 43.2831 26.1702 43.081C26.2157 43.2718 26.2258 43.1584 26.302 43.2423C26.3434 43.2423 26.3984 43.2331 26.4132 43.2643C26.382 43.1627 26.5255 43.2449 26.4773 43.0993C26.5064 43.1213 26.5176 43.059 26.5779 43.1283C26.6023 43.0568 26.5197 43.0993 26.49 43.0644C26.4678 42.9064 26.7707 42.9719 26.731 42.7392C26.7564 42.5903 26.6743 42.4984 26.6955 42.3673C26.7643 42.3679 26.7828 42.4721 26.7828 42.4721C26.8639 42.4501 26.8835 42.4012 26.884 42.3259C26.903 42.3544 26.9322 42.3593 26.9761 42.3662C26.9968 42.3184 26.8861 42.2641 26.9666 42.2389C26.9941 42.2706 27.0397 42.3184 27.0593 42.3614C27.0651 42.2921 27.0434 42.2077 27.046 42.1368C27.108 42.1561 27.109 42.2211 27.1302 42.2609C27.1445 42.1862 27.1757 42.0723 27.1006 42.004L27.0476 42.0244C27.0561 42.0002 27.1281 42.0572 27.1334 42.0825C27.1705 42.1754 27.0608 42.1394 27.0285 42.1222L27.0307 42.0723C26.831 41.9997 26.9687 42.2373 26.9078 42.3044L26.8003 42.1883L26.857 42.334C26.8136 42.327 26.7357 42.2878 26.74 42.2394C26.6446 42.2464 26.7553 42.3163 26.6568 42.3103C26.6431 42.3071 26.6383 42.3007 26.6362 42.2926L26.6404 42.3684C26.6208 42.3394 26.5472 42.312 26.5853 42.2958C26.4519 42.3259 26.5747 42.5006 26.4583 42.4614L26.4561 42.4485C26.408 42.5968 26.5372 42.5291 26.5726 42.7016L26.3111 42.5834L26.3894 42.6672C26.3772 42.6763 26.3524 42.6951 26.3211 42.6613C26.3434 42.7543 26.3651 42.686 26.4 42.7586C26.2724 42.7457 26.301 42.9429 26.1554 42.8343C26.202 42.9117 26.2512 42.8263 26.2443 42.9252C26.0855 42.8112 26.2083 43.016 26.0982 43.0058C26.0389 42.9214 26.1188 42.9112 26.0098 42.8994C26.1056 43.045 25.9001 42.9719 25.8832 43.0316C25.9775 43.1283 25.8361 43.1557 25.8006 43.253C25.7731 43.2165 25.6232 43.3223 25.529 43.346L25.5157 43.3272C25.5946 43.4406 25.5141 43.4852 25.4797 43.5464C25.4289 43.4825 25.4167 43.4508 25.4199 43.4008L25.3733 43.44C25.3908 43.482 25.3908 43.5121 25.3706 43.5491L25.3166 43.461C25.2584 43.5164 25.2674 43.6582 25.1445 43.6717C25.198 43.7507 25.3749 43.8254 25.3262 43.9485C25.2912 43.9103 25.234 43.8437 25.243 43.8082C25.2398 43.8195 25.243 43.8641 25.2144 43.8592L25.1954 43.762C25.135 43.7625 25.2208 43.8351 25.1864 43.8533C25.1419 43.7947 25.1318 43.8302 25.1011 43.7802C25.1038 43.7684 25.1451 43.7829 25.1387 43.7507C25.0974 43.7679 25.0307 43.7663 24.9841 43.7329C25.0122 43.7636 25.0439 43.8119 25.0254 43.8394C24.9656 43.8952 24.9518 43.7878 24.8914 43.7851C24.9052 43.8372 24.8321 43.8238 24.8957 43.9135C24.8755 43.927 24.8422 43.8877 24.8168 43.8684C24.8115 43.9318 24.6648 43.9914 24.7702 44.0608H24.7834C24.7834 44.0608 24.7818 44.0651 24.7808 44.0688V44.0683V44.0688C24.7267 44.2392 24.5086 44.1817 24.4217 44.2994L24.4027 44.2677C24.3587 44.3526 24.2592 44.3822 24.2491 44.4816C24.2274 44.4934 24.1649 44.452 24.1522 44.409C24.1115 44.4639 24.1257 44.5036 24.0177 44.4956C24.0405 44.4085 23.9706 44.4563 24.05 44.4225C23.9637 44.4348 23.9203 44.3918 23.8928 44.5235C23.8732 44.4262 23.7842 44.4493 23.7641 44.4929L23.8451 44.5246C23.8144 44.5584 23.7773 44.5697 23.7403 44.5816L23.7005 44.4612C23.4951 44.4117 23.5523 44.8288 23.3283 44.6536C23.3257 44.7508 23.4358 44.6718 23.4443 44.7799C23.367 44.7971 23.2208 44.6675 23.1996 44.6772C23.0778 44.6568 23.1859 44.8831 23.0683 44.8857C23.098 44.9207 23.1578 45.0239 23.0985 45.097C23.0217 45.1142 22.9407 44.9647 22.9703 44.9121C22.9852 44.9008 22.9995 44.9099 23.0042 44.9244C23.0207 44.8992 23.0424 44.868 22.9958 44.8363L23.0048 44.8814C22.9523 44.8556 22.8602 44.9035 22.8544 44.8255C22.8189 44.889 22.8597 44.9035 22.9073 44.9067C22.7945 44.8874 22.7702 44.9717 22.659 44.9626C22.6828 44.9803 22.7157 45.0239 22.7003 45.0287C22.542 45.0265 22.6696 45.1292 22.5817 45.1813C22.5038 45.1373 22.5441 45.0228 22.4694 45.1099C22.3958 45.0873 22.417 45.0034 22.4276 44.9615C22.3709 45.0722 22.2491 44.9653 22.1962 44.9674L22.229 44.9175C22.2094 44.947 22.1877 44.9545 22.1655 44.9621L22.2195 45.0368C22.1883 45.0319 22.166 45.0394 22.1544 45.004C22.1454 45.069 22.2227 45.1367 22.1936 45.2313C22.1443 45.2012 22.1004 45.3162 22.0516 45.2082C22.175 45.2066 22.0029 45.1002 22.0903 45.0486C22.0771 45.0685 22.0548 45.076 22.0236 45.0701C22.0151 45.0593 22.0193 45.0459 22.0246 45.0368C21.8875 44.9739 22.0172 45.1813 21.906 45.2179C21.9007 45.1491 21.8435 45.1066 21.8303 45.1265C21.8748 45.112 21.8838 45.2249 21.8578 45.2883C21.7715 45.2636 21.7901 45.3474 21.7498 45.3528L21.8007 45.3646C21.8049 45.4323 21.7657 45.4334 21.7202 45.4667C21.7016 45.4183 21.7567 45.4205 21.7318 45.4038C21.7069 45.5307 21.5708 45.3205 21.5131 45.4167C21.4649 45.3829 21.4771 45.2969 21.4374 45.2759C21.3717 45.3823 21.3199 45.2125 21.2457 45.3055C21.2939 45.385 21.2939 45.3624 21.2494 45.464L21.3866 45.3635L21.3209 45.5145C21.3675 45.5038 21.404 45.435 21.4358 45.4425C21.4078 45.5248 21.4067 45.5022 21.4475 45.5683C21.3506 45.4549 21.3405 45.6768 21.2441 45.6081L21.1938 45.3931C21.0625 45.3254 21.026 45.5538 20.8708 45.5371L20.9254 45.5624C20.9248 45.6532 20.8396 45.5973 20.8004 45.6441C20.7898 45.571 20.7554 45.5522 20.7263 45.5097C20.7395 45.5629 20.6198 45.5226 20.6352 45.6699L20.5515 45.5855C20.4271 45.5661 20.4562 45.8155 20.3371 45.8101C20.3577 45.7252 20.2968 45.6822 20.362 45.6129C20.3249 45.6183 20.2889 45.6107 20.2968 45.6613C20.2672 45.6193 20.2089 45.7773 20.1623 45.7139C20.1523 45.7489 20.1597 45.8263 20.1157 45.8273C20.1089 45.8134 20.1099 45.7913 20.1099 45.7913C20.1157 45.8273 20.0506 45.8521 20.1009 45.9262C19.9489 45.7182 19.7747 45.9988 19.6461 45.8203C19.5672 45.8617 19.4681 45.887 19.393 45.901C19.3956 45.8784 19.3887 45.8644 19.4046 45.8709C19.2923 45.8112 19.3633 46.0874 19.2346 46.0219C19.1616 45.9079 19.2918 45.952 19.2489 45.9101C19.2076 45.6693 19.1081 45.9552 19.0143 45.8209L19.0329 45.8053C18.9646 45.7279 18.892 45.9101 18.7904 45.9015C18.7904 45.9015 18.793 45.8795 18.7882 45.865C18.7289 45.9945 18.6013 46.0466 18.506 46.0896C18.5309 45.9918 18.5473 46.0353 18.5235 45.9407C18.4806 45.9579 18.5457 46.0944 18.4605 46.1288C18.4287 46.0794 18.3636 46.0396 18.3503 45.937L18.4314 45.9241C18.3821 45.7945 18.3265 45.938 18.2826 45.9187L18.2847 45.8596C18.1618 45.8843 18.1655 46.0283 18.03 46.0197L18.0453 46.0638C17.9765 46.2105 17.9807 45.9826 17.9103 46.0912L17.8844 45.9434C17.8372 45.98 17.7176 46.0885 17.6297 46.1165C17.6779 46.0068 17.7785 45.9499 17.8399 45.8843C17.7922 45.8832 17.6773 45.8967 17.6535 45.9698C17.6726 45.9547 17.6964 45.9187 17.7155 45.9413C17.6593 46.0579 17.5815 46.1159 17.4851 46.1143C17.4999 45.8273 17.2331 46.0445 17.1653 45.822C16.9958 45.9262 16.8312 45.7892 16.6368 45.787C16.6983 46.0144 16.5796 45.7897 16.5828 46.0192C16.5362 46.031 16.5193 46.0256 16.5156 46.0106L16.3832 45.865C16.3535 45.7962 16.4287 45.8177 16.4271 45.7655C16.3287 45.7419 16.3901 45.6661 16.3281 45.6011C16.3371 45.6838 16.2874 45.7161 16.2328 45.6811L16.3059 45.7919C16.1597 45.9042 16.1979 45.5919 16.0512 45.7032L16.0999 45.6344C16.0252 45.672 15.8367 45.6156 15.7504 45.7945C15.7404 45.7671 15.7287 45.7037 15.7621 45.6892C15.5932 45.6564 15.3607 45.8542 15.2405 45.7182L15.2606 45.6639C15.2267 45.6758 15.1928 45.7607 15.1595 45.6989C15.1648 45.6763 15.1791 45.6451 15.1648 45.6398C15.1462 45.6564 15.0684 45.7252 15.0303 45.6865L15.0748 45.6296C14.9196 45.5328 14.7994 45.7446 14.6522 45.7623C14.6782 45.5989 14.5564 45.5274 14.4965 45.492L14.5029 45.4694C14.3133 45.428 14.1571 45.5398 13.9654 45.5656C13.8939 45.3657 13.6117 45.4076 13.4608 45.2705C13.4804 45.3055 13.4253 45.3942 13.3899 45.4028C13.3576 45.3614 13.2469 45.4877 13.2919 45.3431L13.3057 45.349C13.3115 45.2012 13.2215 45.2098 13.1585 45.1867L13.0944 45.3732C13.007 45.0437 12.6194 45.3324 12.6056 45.0583C12.5495 45.0921 12.4997 45.0755 12.4431 45.1093L12.4801 45.0099C12.3758 44.9513 12.3276 44.9158 12.1857 44.8831L12.2392 44.8234C12.1677 44.7863 12.0359 45.0695 11.9623 45.0454L11.9988 44.8895C11.8649 44.8363 11.787 44.6541 11.5996 44.731C11.6112 44.7111 11.6335 44.6708 11.6573 44.6735C11.5948 44.6482 11.4672 44.4703 11.3983 44.6756C11.4561 44.5466 11.2739 44.5955 11.177 44.6149L11.2331 44.5273C11.1166 44.6165 11.0981 44.6477 10.9996 44.638C10.9859 44.6154 11.0208 44.5552 11.034 44.5918C10.9943 44.5101 10.9382 44.6536 10.8853 44.5633L10.9451 44.5197C10.8826 44.4778 10.8715 44.5122 10.7979 44.5617C10.7359 44.5762 10.683 44.473 10.72 44.3849C10.6835 44.4295 10.611 44.4746 10.5866 44.4268C10.5998 44.3929 10.6242 44.3822 10.6358 44.3773C10.5665 44.2494 10.4172 44.3816 10.3965 44.2478C10.4129 44.2177 10.4172 44.2 10.4166 44.1871C10.4987 44.2419 10.5633 44.2897 10.5532 44.2924C10.6014 44.2091 10.5437 44.1527 10.6639 44.0726C10.575 44.1016 10.4007 44.1774 10.3589 44.0973C10.3605 44.0876 10.3621 44.078 10.3674 44.064L10.3801 44.0592C10.37 44.0414 10.352 44.0404 10.3303 44.0463C10.3181 44.0194 10.3113 44.0017 10.2922 43.9877C10.3271 43.9162 10.2387 43.9038 10.208 43.8797C10.1524 43.9689 10.118 43.927 10.1111 44.0253C10.11 44.0156 10.1243 44.0183 10.1492 44.0291C10.1561 44.0296 10.163 44.0323 10.1693 44.0291L10.1625 44.0355C10.1863 44.0479 10.2159 44.064 10.2504 44.0823C10.1948 44.1102 10.1418 44.1301 10.1365 44.0581C10.0799 44.1022 10.0227 44.1473 9.99514 44.1688C10.0296 44.0172 9.99196 43.8861 10.0322 43.805C9.90141 43.7802 9.78386 43.6668 9.60277 43.777C9.55935 43.7759 9.60489 43.7077 9.61389 43.676C9.64142 43.6722 9.65837 43.6889 9.68431 43.6727C9.59853 43.6711 9.50798 43.5669 9.41161 43.6598C9.38461 43.5534 9.52758 43.5937 9.42326 43.5319L9.46192 43.5099C9.43438 43.1869 8.93558 43.525 8.93823 43.1278C8.93929 43.1536 8.93982 43.1659 8.92711 43.1853C8.80108 42.8886 8.40765 42.8155 8.37006 42.456C8.34676 42.3673 8.27633 42.413 8.19267 42.4135L8.26945 42.3292L8.11483 42.3383C7.9618 42.2915 8.2075 42.0045 7.97875 41.9766L7.92739 42.0357C7.90832 41.9798 7.79077 41.9083 7.86967 41.8702C7.85431 41.8729 7.79289 41.896 7.81566 41.8562L7.86437 41.8234L7.70923 41.7557C7.69387 41.6418 7.91468 41.6525 7.85643 41.5182C7.81036 41.4795 7.63827 41.4612 7.61021 41.4924C7.61656 41.5123 7.60067 41.5574 7.54931 41.5864L7.49901 41.5509C7.33962 41.6133 7.15112 41.6332 7.1167 41.8369L7.25755 41.882L7.20036 41.9529L7.15482 41.8756C7.10823 41.9578 7.18501 41.9556 7.24378 41.961C7.20883 41.99 7.18924 42.018 7.18554 42.0443L7.37775 42.0475C7.32586 42.0932 7.24008 42.0771 7.24219 42.1561C7.33115 42.1566 7.34916 42.0384 7.43017 42.0787C7.38781 42.1615 7.32639 42.1846 7.41376 42.1959C7.38093 42.226 7.35074 42.2319 7.32162 42.2233C7.39416 42.2373 7.41376 42.3238 7.5043 42.2942C7.45188 42.3904 7.61762 42.4211 7.481 42.5113C7.52072 42.5033 7.63774 42.5076 7.67004 42.5404C7.46247 42.5898 7.76218 42.6849 7.5832 42.7951C7.75953 42.7381 7.77965 42.93 7.92791 42.9488C7.91362 42.9531 7.88396 42.9623 7.88449 42.9488C7.91309 43.0053 7.88449 43.0536 7.88502 43.1063C8.00046 43.0171 8.0873 43.0676 8.18685 43.0461C8.13125 43.1977 8.03011 43.1262 7.94486 43.2342C8.03064 43.1525 8.11801 43.2557 8.17361 43.1692C8.14713 43.2718 8.17414 43.2358 8.10742 43.3401C8.24615 43.2224 8.16725 43.3573 8.2811 43.3143C8.27422 43.4357 8.17414 43.4486 8.27739 43.4755C8.26839 43.5464 8.16514 43.5325 8.16514 43.5325" fill="white"/>
<path fill-rule="evenodd" clip-rule="evenodd" d="M29.4704 28.6676C29.4704 28.6386 29.4661 28.6031 29.4598 28.5661C29.4947 28.5532 29.5322 28.5569 29.5338 28.5806C29.5079 28.5709 29.4952 28.6284 29.4704 28.6676V28.6676ZM30.1229 28.1078C30.1398 28.1417 30.1203 28.1551 30.0991 28.1621C30.0965 28.1455 30.0917 28.1267 30.0833 28.1019L30.0706 28.0992C30.0907 28.1009 30.1092 28.103 30.1229 28.1078V28.1078ZM29.4344 28.4351C29.4286 28.4114 29.4233 28.3916 29.4201 28.3781C29.4238 28.39 29.4281 28.4061 29.4365 28.4346L29.4344 28.4351ZM29.3249 25.7287C29.3524 25.8743 29.2195 25.7851 29.147 25.8276C29.1761 25.9211 29.2968 25.9996 29.2868 26.0651C29.264 26.0684 29.255 26.0807 29.228 26.0635C29.3297 26.1651 29.2142 26.3441 29.3429 26.4607C29.3297 26.4682 29.3186 26.4714 29.308 26.473C29.3773 26.4585 29.4467 26.4596 29.4959 26.4655C29.4938 26.5182 29.5759 26.5666 29.4875 26.5832C29.4907 26.551 29.4541 26.5467 29.4271 26.53L29.4647 26.587C29.336 26.6321 29.4208 26.5096 29.3281 26.5053C29.3657 26.6165 29.4721 26.7461 29.4345 26.8283C29.3085 26.8428 29.3943 26.6316 29.282 26.7407L29.3307 26.6122C29.1322 26.7047 29.3461 26.5332 29.1332 26.6176C29.0946 26.7896 29.1952 26.8122 29.156 26.9841C29.2254 27.0228 29.2598 26.9723 29.3286 27.011C29.4515 27.2518 29.0109 27.2045 29.1766 27.3824C29.263 27.4275 29.4223 27.4404 29.3461 27.57L29.2015 27.5313C29.1968 27.7 29.4107 27.6178 29.3254 27.7962C29.2677 27.7688 29.2709 27.6678 29.2555 27.6941C29.1502 27.8134 29.3403 27.7699 29.345 27.8559L29.2206 27.8822C29.2518 28.0596 29.3461 28.2471 29.4022 28.4384C29.3636 28.432 29.3201 28.4024 29.2884 28.4535C29.389 28.6932 29.3387 28.9839 29.3164 29.2403L29.4446 29.3086C29.4483 29.3301 29.4065 29.3585 29.38 29.3397C29.3625 29.4418 29.4483 29.3301 29.5007 29.365C29.5208 29.4155 29.4568 29.4483 29.4165 29.4225C29.5484 29.5671 29.7173 29.8326 29.6548 30.0352L29.6124 30.0126C29.6183 30.1577 29.8777 30.0878 29.8258 30.2389L29.7988 30.2227C29.8693 30.5162 30.0445 30.7908 30.027 31.0585C30.1864 31.0235 30.1118 31.3567 30.3103 31.2643C30.2997 31.4691 30.2426 31.4465 30.3024 31.7018C30.3294 31.7641 30.4745 31.7034 30.5407 31.7528L30.4496 31.8222L30.6137 31.8361L30.5417 31.9656L30.6127 32.007C30.5989 31.9791 30.6127 31.9248 30.6418 31.9081C30.7546 31.9667 30.7599 32.1833 30.7181 32.2258L30.9669 32.38C30.9304 32.4074 30.8896 32.3816 30.8446 32.3725C31.0268 32.4063 30.7689 32.4848 30.9463 32.5058C30.9505 32.4751 31.0024 32.4639 31.0209 32.4493C31.0236 32.5434 31.1438 32.6493 31.2508 32.703L31.1819 32.7476C31.3355 32.8981 31.5399 33.0228 31.7347 33.1512C31.6823 33.0787 31.7771 32.9755 31.8422 32.997L31.7988 33.112C31.8772 33.0706 31.7628 33.0389 31.8899 33.0056C31.9561 33.0593 31.866 33.1512 31.8009 33.1593L31.9153 33.1765C31.9021 33.2103 31.8698 33.2141 31.8401 33.2501C31.9164 33.2071 31.9397 33.4479 32.0614 33.3657L32.0487 33.4001C32.2558 33.5183 32.3686 33.5333 32.5385 33.621C32.5857 33.529 32.6381 33.5823 32.7186 33.5242C32.8208 33.6081 32.915 33.7424 33.0569 33.7988C33.1761 33.7962 33.1226 33.7306 33.192 33.694C33.1602 33.7843 33.3021 33.8402 33.202 33.8698C33.3741 33.9332 33.4234 33.9488 33.6648 33.9794C33.659 33.9327 33.641 33.9047 33.668 33.8816C33.7125 33.8859 33.7368 33.9611 33.7114 33.9998L33.6971 34.0036C33.9931 33.9918 34.1091 34.5228 34.3812 34.4362L34.3669 34.44L34.6015 34.4491C34.6794 34.512 34.5168 34.4841 34.5528 34.5722C34.8271 34.5432 34.8562 34.7689 35.0723 34.7678C35.0627 35.0769 35.516 35.0242 35.5864 35.2784L35.6134 35.2171C35.6913 35.1892 35.6436 35.2811 35.6658 35.3139C35.6902 35.2677 35.6531 35.2343 35.6992 35.2214C36.0953 35.3956 36.3463 35.8142 36.5951 36.141C36.6936 36.2539 36.9023 35.954 36.9176 36.2109L36.7932 36.2549C36.9451 36.3183 37.0505 36.4382 37.149 36.558C37.2332 36.6897 37.3137 36.8187 37.4514 36.909C37.4175 36.9095 37.3862 36.9294 37.3703 36.9052C37.3365 37.0014 37.4905 37.1025 37.5509 37.0702C37.5657 37.1164 37.4995 37.1132 37.4805 37.1567C37.4635 37.2379 37.6536 37.2433 37.5917 37.3153C37.5811 37.3271 37.5578 37.3131 37.5467 37.3062C37.6033 37.3223 37.6256 37.4803 37.6992 37.4002C37.7129 37.5174 37.8268 37.5835 37.8077 37.6915C37.9359 37.7039 37.8284 37.8946 37.9867 37.8543C37.8284 37.9059 37.9343 38.0865 38.0243 38.1376C37.9698 38.1295 37.9931 38.216 37.9179 38.2096C37.9433 38.2891 37.9946 38.3536 38.0725 38.3155C37.9216 38.5197 38.3214 38.574 38.0868 38.7282C38.2239 38.9566 38.3425 39.1748 38.4177 39.4005C38.2557 39.4204 38.3558 39.149 38.1842 39.1936C38.2986 39.3914 38.45 39.4994 38.4474 39.723C38.4341 39.7832 38.3717 39.7026 38.3399 39.6881C38.4426 39.8966 38.3928 40.1126 38.5035 40.2997C38.4876 40.3013 38.468 40.2819 38.4532 40.2637C38.4633 40.3018 38.4394 40.3572 38.5141 40.3432L38.4892 40.3077C38.5914 40.2309 38.7354 40.434 38.7937 40.4346C38.5713 40.3943 38.7635 40.6377 38.4786 40.5652C38.4961 40.5894 38.5353 40.6173 38.5851 40.6049C38.5745 40.6452 38.5469 40.6608 38.485 40.6286C38.5427 40.7635 38.6163 40.7049 38.6301 40.8323C38.5941 40.836 38.5766 40.8119 38.5321 40.8033C38.6115 40.8597 38.6894 40.9167 38.6682 41.0284C38.6454 41.0241 38.6179 41.0397 38.6163 41.0075C38.6444 41.1918 38.8355 41.3052 38.7857 41.5159C38.6216 41.4713 38.7402 41.5906 38.6041 41.6142L38.6555 41.7201L38.718 41.6696C38.7248 41.7658 38.8329 41.8416 38.7942 41.9286L38.7317 41.862L38.7725 42.0404L38.8159 41.934C38.8953 42.0248 38.9896 41.9077 38.9615 42.0399C38.9457 42.0146 38.9679 42.1366 38.8911 42.1936H38.8906C38.9382 42.2377 38.9885 42.2828 38.9599 42.357C38.9176 42.3796 38.8069 42.3554 38.7789 42.3699C38.8975 42.407 38.8292 42.5929 38.9562 42.6424C38.9255 42.6252 38.854 42.63 38.8392 42.6375L38.9361 42.6692C38.9102 42.7165 38.8964 42.7246 38.8376 42.7219C38.8323 42.8579 39.0087 42.6649 38.9472 42.831C38.9382 42.8186 38.925 42.8256 38.9081 42.8009C38.8837 42.967 39.0076 43.1137 38.9806 43.2706C38.8503 43.34 38.9287 43.1416 38.8202 43.2115C38.8694 43.4399 39.077 43.6323 39.0881 43.8484L39.0929 43.8054C39.2872 43.7823 39.0447 43.9827 39.1643 44.0601C39.1426 44.0397 39.05 44.059 39.0727 44.0596C39.0801 44.1466 39.1273 44.2283 39.1887 44.3138C39.4217 44.4868 39.6552 44.6594 39.8765 44.8394C39.9004 44.8222 39.9374 44.812 39.9422 44.7711C39.8861 44.7674 39.9072 44.6841 39.8061 44.7244C39.7939 44.6954 39.8389 44.6701 39.8617 44.6481C39.7971 44.6148 39.7595 44.4111 39.6727 44.5121L39.67 44.5282L39.6626 44.5218C39.4958 44.3874 39.5869 44.1434 39.4953 43.9854L39.5297 43.9747C39.4609 43.8833 39.4323 43.7538 39.3428 43.6979C39.3359 43.6667 39.3904 43.6076 39.4355 43.6108C39.391 43.5377 39.3486 43.5372 39.382 43.4093C39.4619 43.4754 39.4307 43.3695 39.446 43.4808C39.4545 43.3706 39.5032 43.3383 39.3846 43.2464C39.481 43.2669 39.4905 43.1502 39.4566 43.1067L39.4 43.1884C39.3793 43.1357 39.3814 43.0863 39.3825 43.0368L39.5075 43.046C39.6266 42.8364 39.2109 42.687 39.4466 42.494C39.356 42.4419 39.3963 42.6209 39.2914 42.5763C39.2999 42.472 39.4667 42.3495 39.464 42.3172C39.5207 42.17 39.275 42.2006 39.3089 42.0485C39.2671 42.0716 39.1516 42.0996 39.1013 41.9926C39.1093 41.8883 39.2745 41.8496 39.3147 41.912C39.3205 41.9362 39.3073 41.9496 39.2925 41.9496C39.311 41.9813 39.3333 42.0238 39.3772 41.9786L39.3327 41.969C39.373 41.9141 39.3566 41.7723 39.4312 41.7991C39.3825 41.725 39.3566 41.7723 39.3391 41.8324C39.3904 41.6938 39.3216 41.6245 39.3507 41.4842C39.329 41.5084 39.2798 41.5326 39.2782 41.5111C39.3131 41.3058 39.1871 41.431 39.1553 41.2972C39.2141 41.2139 39.3168 41.309 39.248 41.1784C39.2845 41.0902 39.3618 41.1488 39.4005 41.1784C39.3047 41.0623 39.4333 40.9392 39.4423 40.8661L39.4836 40.9285C39.4588 40.8914 39.4561 40.8591 39.454 40.8264L39.3698 40.8731C39.382 40.8328 39.3788 40.8 39.4148 40.7968C39.3528 40.7629 39.2734 40.843 39.1866 40.7726C39.2242 40.7162 39.1204 40.6216 39.2337 40.5904C39.2136 40.757 39.347 40.5587 39.3825 40.6942C39.3656 40.6694 39.3624 40.6366 39.373 40.5963C39.3851 40.5888 39.3973 40.599 39.4053 40.6087C39.49 40.4405 39.266 40.5523 39.2496 40.391C39.3174 40.4034 39.3682 40.3384 39.3518 40.3137C39.3581 40.3792 39.2469 40.3583 39.1898 40.3056C39.2284 40.196 39.1389 40.1986 39.1384 40.1438L39.122 40.2083C39.0547 40.196 39.0574 40.1438 39.0283 40.075C39.078 40.0621 39.0706 40.1352 39.0897 40.1067C38.9674 40.0433 39.1866 39.9106 39.0907 39.8095C39.1262 39.752 39.212 39.7864 39.2342 39.7364C39.1305 39.6241 39.3015 39.5865 39.212 39.465C39.1305 39.5177 39.1527 39.5204 39.0537 39.4425L39.1485 39.6483L39.0007 39.5306C39.0097 39.5951 39.077 39.6585 39.068 39.6999C38.987 39.6451 39.0097 39.6488 38.9419 39.6908C39.0584 39.5817 38.8387 39.5285 38.9107 39.4118L39.1262 39.3774C39.1998 39.2044 38.9721 39.1216 38.9811 38.9109L38.9578 38.983C38.8668 38.9738 38.9197 38.862 38.8715 38.8045C38.9441 38.7949 38.961 38.7486 38.9997 38.7105C38.9472 38.7261 38.9727 38.5611 38.8276 38.5772L38.9017 38.4643C38.8975 38.2918 38.6491 38.3348 38.6301 38.1768C38.7195 38.2004 38.7487 38.1155 38.8334 38.2037C38.8186 38.1515 38.818 38.101 38.7699 38.1145C38.8043 38.0709 38.6343 38.0011 38.6862 37.9328C38.6497 37.921 38.575 37.9382 38.5644 37.8791C38.5766 37.8683 38.5983 37.8678 38.5983 37.8678C38.5644 37.8791 38.5263 37.7941 38.4638 37.8705C38.6226 37.6394 38.2853 37.455 38.413 37.2438C38.3499 37.1433 38.253 37.0321 38.2017 36.9396C38.2245 36.9353 38.2345 36.9224 38.2372 36.9439C38.2276 36.78 38.0116 36.9654 38.001 36.7832C38.064 36.6478 38.0974 36.8289 38.1111 36.759C38.3102 36.6129 37.9883 36.5973 38.037 36.4312L38.0645 36.4463C38.0825 36.3269 37.8681 36.3205 37.8024 36.1947C37.8024 36.1947 37.8236 36.1877 37.8321 36.1738C37.6849 36.1625 37.5334 36.0566 37.4207 35.9798C37.5186 35.9486 37.498 35.9927 37.5536 35.9104C37.5038 35.8739 37.4487 36.0244 37.3513 35.954C37.3645 35.8905 37.3407 35.7949 37.4069 35.7153L37.4874 35.7981C37.5451 35.6632 37.3846 35.6885 37.3619 35.6277L37.4085 35.5928C37.275 35.474 37.1654 35.5869 37.0389 35.452L37.0235 35.4971C36.8525 35.5369 37.015 35.3789 36.87 35.3923L36.943 35.2601C36.8705 35.2397 36.6804 35.2091 36.5671 35.165C36.6883 35.1166 36.8329 35.1602 36.9377 35.1741C36.8906 35.1242 36.7588 35.0312 36.6846 35.071C36.7148 35.0758 36.7635 35.0677 36.7709 35.1016C36.6338 35.1424 36.5162 35.1247 36.414 35.0446C36.601 34.8307 36.1879 34.7781 36.2314 34.5443C35.9777 34.5066 35.866 34.2557 35.6261 34.1224C35.5954 34.3658 35.5562 34.0864 35.4556 34.2944C35.3942 34.2766 35.3751 34.2621 35.3778 34.246L35.2809 34.0353C35.2735 33.9552 35.3566 34.0203 35.3767 33.973C35.265 33.8902 35.373 33.8601 35.3227 33.7623C35.2999 33.8429 35.2248 33.8413 35.1713 33.7752L35.2173 33.9219C34.9928 33.9354 35.1628 33.672 34.9367 33.6833L35.0235 33.65C34.9182 33.6349 34.7 33.4769 34.5322 33.5984C34.5284 33.5667 34.5353 33.5006 34.5814 33.5054C34.3823 33.3743 34.0291 33.4457 33.9147 33.263L33.9545 33.22C33.9079 33.2157 33.8411 33.2829 33.8152 33.2093C33.8279 33.1894 33.8544 33.1657 33.838 33.1545C33.8083 33.162 33.6918 33.1948 33.6526 33.141L33.7236 33.1045C33.5467 32.9422 33.3429 33.0975 33.1554 33.0529C33.2227 32.9024 33.0808 32.7783 33.0103 32.7164L33.022 32.696C32.8192 32.5622 32.6143 32.6202 32.3786 32.5638C32.3654 32.4499 32.2674 32.387 32.171 32.3058C32.081 32.2156 31.9762 32.1263 31.9259 32.0172C31.9317 32.0613 31.8406 32.1118 31.7988 32.0984C31.7813 32.0393 31.6119 32.0882 31.7194 31.9818L31.7316 31.9963C31.8004 31.8614 31.6955 31.8238 31.6352 31.7684L31.4853 31.8974C31.5595 31.5314 31.0395 31.504 31.1639 31.2535C31.0893 31.2428 31.0501 31.1896 30.9871 31.167L31.076 31.1117C31.0278 30.9676 31.0051 30.8983 30.8955 30.7521L30.9791 30.7478C30.9373 30.6581 30.6503 30.779 30.5963 30.6941L30.7218 30.5989C30.6307 30.4388 30.7117 30.2061 30.5105 30.0921C30.5333 30.0873 30.5772 30.076 30.5936 30.1013C30.5666 30.0185 30.5772 29.7595 30.3845 29.8551C30.51 29.8121 30.341 29.6708 30.26 29.5859L30.3633 29.5735C30.2161 29.5262 30.1806 29.5321 30.1171 29.4236C30.1224 29.3924 30.1907 29.379 30.1743 29.4225C30.2039 29.3172 30.0615 29.3731 30.0874 29.2478L30.1621 29.2747C30.1462 29.178 30.1139 29.1935 30.026 29.157C29.9688 29.1049 30.008 28.9684 30.1012 28.9367C30.0435 28.9345 29.9614 28.8937 29.9799 28.8308C30.0133 28.8168 30.0376 28.8345 30.0498 28.8431C30.0964 28.6695 29.8978 28.6174 29.982 28.49C30.0149 28.4836 30.0313 28.4739 30.0398 28.4632C30.0556 28.5927 30.0646 28.698 30.0556 28.6894C30.1494 28.6738 30.1515 28.569 30.2929 28.6309C30.2103 28.561 30.0366 28.439 30.0668 28.3315C30.0752 28.3256 30.0832 28.3197 30.0975 28.3143L30.1091 28.3234C30.1155 28.2993 30.1033 28.2794 30.0853 28.2616C30.0964 28.2278 30.1044 28.2063 30.1012 28.1751C30.178 28.1558 30.1372 28.0515 30.1377 27.9994C30.0339 28.0123 30.0472 27.9419 29.9656 28.0133C29.972 28.0042 29.9783 28.0225 29.9847 28.0569C29.9884 28.0649 29.99 28.0741 29.9963 28.0784L29.9873 28.0757C29.9916 28.1106 29.9974 28.1552 30.0037 28.2063C29.9444 28.1708 29.901 28.13 29.954 28.066C29.8862 28.045 29.8158 28.0203 29.7829 28.0058C29.9233 27.9204 29.9932 27.7763 30.0811 27.7521C30.0165 27.5952 30.0159 27.3792 29.8264 27.2792C29.802 27.2324 29.883 27.2244 29.9137 27.2072C29.9328 27.2341 29.9296 27.2658 29.9577 27.2792C29.9084 27.1878 29.9418 27.0067 29.8057 26.9831C29.8682 26.8664 29.9301 27.0503 29.9095 26.8896L29.9508 26.9116C30.1663 26.6085 29.6172 26.3828 29.9222 26.0474C29.9031 26.07 29.8947 26.0818 29.8714 26.085C30.0165 25.6986 29.8354 25.245 30.0874 24.8817C30.1441 24.7769 30.0593 24.7511 30.0053 24.6721L30.1192 24.6667L30.0106 24.5281C29.9455 24.3448 30.3331 24.297 30.1976 24.0551L30.1187 24.0664C30.1451 23.9949 30.1245 23.8219 30.2066 23.853C30.1949 23.8423 30.1361 23.8117 30.1806 23.7912L30.2378 23.8025L30.1817 23.5972C30.2553 23.4677 30.4009 23.6735 30.4612 23.4768C30.4575 23.3962 30.3522 23.2242 30.3077 23.2387C30.2971 23.2678 30.2521 23.3049 30.1949 23.292L30.1848 23.2146C30.0228 23.1544 29.8698 23.0426 29.704 23.1963L29.7745 23.3478L29.6834 23.3677L29.7051 23.2608C29.6146 23.3006 29.6717 23.3564 29.7072 23.4102C29.6617 23.4097 29.6273 23.4193 29.6056 23.4403L29.7379 23.601C29.6691 23.6004 29.6199 23.5155 29.5658 23.5892C29.6273 23.6633 29.7247 23.5687 29.7522 23.6741C29.6627 23.716 29.6045 23.6848 29.6543 23.7692C29.6087 23.7692 29.5844 23.7482 29.5717 23.7165C29.6087 23.7902 29.5568 23.8864 29.641 23.9374C29.5346 23.9799 29.6251 24.1524 29.4668 24.1142C29.5012 24.1416 29.5706 24.2486 29.5664 24.3066C29.3937 24.1664 29.5161 24.5189 29.317 24.4555C29.4774 24.5635 29.3493 24.7516 29.4234 24.9048C29.4112 24.8946 29.3853 24.8752 29.3959 24.8645C29.3699 24.9397 29.3133 24.9548 29.273 25.0005C29.4155 25.0311 29.434 25.1574 29.5145 25.2337C29.3652 25.3116 29.353 25.1542 29.2169 25.166C29.3334 25.1767 29.3127 25.3487 29.4139 25.3278C29.3196 25.3906 29.3652 25.3858 29.2412 25.4095C29.4192 25.4433 29.2635 25.4815 29.3673 25.5546C29.2661 25.6508 29.1952 25.5642 29.237 25.6868C29.1745 25.7368 29.1237 25.626 29.1237 25.626C29.1068 25.7459 29.2497 25.6954 29.3249 25.7287V25.7287Z" fill="white"/>
</mask>
<g mask="url(#mask0_18_497)">
<rect x="-13.2717" y="-10.1475" width="59.3056" height="63.4175" fill="white"/>
</g>
</svg>
