<svg width="178" height="137" viewBox="0 0 178 137" fill="none" xmlns="http://www.w3.org/2000/svg">
<path fill-rule="evenodd" clip-rule="evenodd" d="M175.225 85.6237C175.164 86.0825 175.125 86.6132 175.095 87.2296C175.032 87.8492 174.984 88.554 174.955 89.359C174.947 90.9701 174.824 92.9792 174.76 95.5217C174.689 94.0123 174.345 94.7649 174.286 93.699C174.215 95.6732 173.862 97.8468 173.399 99.7265C173.121 100.736 172.842 101.658 172.588 102.438C173.942 96.4279 174.315 89.9688 173.532 83.0885C171.635 66.4279 167.156 52.0914 160.176 40.3559C161.378 42.0979 162.52 43.8888 163.601 45.7212C164.421 45.7526 160.741 38.731 163.397 42.4832C164.53 44.3753 164.139 44.3634 164.222 44.8227C165.274 46.7394 166.345 48.6602 167.264 50.6504L166.709 52.9051C168.005 58.1672 169.605 62.0993 171.294 66.5322C172.955 70.9518 174.643 75.8979 175.252 82.8964C175.414 83.2621 175.561 83.5267 175.694 83.7137C175.507 84.1504 175.338 84.754 175.225 85.6237ZM157.184 35.702C155.983 33.9739 154.717 32.3145 153.393 30.7174C153.95 31.2599 154.514 31.8214 155.078 32.4332C155.886 33.4052 156.695 34.4876 157.416 35.7883C157.46 35.9055 157.349 35.8356 157.184 35.702ZM111.706 5.9651C111.957 5.58032 112.124 5.18989 113.786 5.24743C114.529 5.47295 115.448 5.79146 116.402 6.11151C116.877 6.2759 117.36 6.44389 117.833 6.60777C118.301 6.7886 118.753 6.9833 119.177 7.16311C120.869 7.88746 122.064 8.50752 121.581 8.63082C121.983 8.84915 122.404 9.04282 122.817 9.2478C119.287 7.9378 115.585 6.83946 111.706 5.9651ZM57.2528 152.736C55.3505 152.481 53.715 152.323 52.7599 152.261C51.521 151.696 51.1312 151.358 51.1618 151.135C53.1648 151.729 55.2353 152.268 57.3701 152.752C57.3322 152.746 57.2907 152.741 57.2528 152.736ZM39.8611 14.2777C31.5138 19.0204 24.4164 25.3757 18.6348 33.4037C18.6607 33.3641 18.6851 33.3235 18.7116 33.284L19.3661 32.2961L20.0684 31.338C20.5407 30.7004 21.0042 30.0521 21.4916 29.4187C22.5157 28.1935 23.4961 26.9127 24.6204 25.7486C26.7801 23.3372 29.2108 21.1277 31.7858 19.0707L33.7504 17.5589L35.7996 16.1502C36.4749 15.6663 37.1917 15.244 37.9028 14.8115C38.6201 14.3902 39.3114 13.9207 40.0558 13.542C42.9624 11.8997 46.0336 10.5439 49.152 9.32899C45.5099 10.828 42.4184 12.5834 39.8611 14.2777ZM177.829 91.4324C177.649 90.2082 177.419 89.039 177.204 87.6756C177.011 86.5341 176.725 85.2616 176.47 83.7081C176.629 83.3479 176.74 82.731 176.819 81.9778C177.024 79.9918 177.036 77.0928 177.197 75.6637L177.004 77.0939C176.733 76.2457 176.432 75.6364 176.163 74.7939C176.029 74.3732 175.902 73.8934 175.792 73.2959C175.666 72.7 175.544 71.988 175.445 71.0961C175.036 67.5067 176.413 72.889 176.281 70.379C175.47 64.673 174.353 61.4515 173.146 58.5284C172.516 57.0699 171.923 55.6633 171.152 54.0806C170.423 52.4849 169.603 50.6905 168.575 48.4429C165.625 40.06 161.26 34.0535 156.079 28.813C154.819 27.4671 153.39 26.2562 152.01 24.9668C150.543 23.7559 149.101 22.4762 147.491 21.2772C144.324 18.8303 140.857 16.327 136.772 13.7784C142.26 17.7325 147.638 22.5512 153.63 29.8379C152.722 28.8983 151.709 28.0553 150.761 27.1671C149.801 26.2896 148.756 25.4995 147.764 24.6693C147.767 24.6739 147.77 24.6775 147.773 24.6827C143.304 20.4136 138.286 16.7559 132.729 13.7373C132.945 13.841 133.164 13.9453 133.376 14.047C134.102 14.3871 134.803 14.7149 135.469 15.0262C136.776 15.6982 137.941 16.3234 138.894 16.8587C137.731 15.7973 136.157 14.4262 134.405 13.2297C133.544 12.606 132.668 11.9814 131.792 11.4435C130.927 10.8799 130.101 10.3426 129.36 9.8607C126.355 8.03082 124.806 6.74805 128.438 7.33164C126.383 6.29135 124.66 5.7057 123.224 5.16732C121.771 4.68031 120.55 4.39211 119.422 4.1224C118.293 3.85013 117.217 3.73351 116.057 3.53881C115.474 3.45353 114.872 3.34 114.213 3.25524C113.556 3.16739 112.849 3.07286 112.069 2.96858C110.55 2.50571 108.385 2.17333 106.533 1.81578C104.676 1.4834 103.116 1.22859 102.787 0.861794C96.949 0.868473 97.4613 0.913167 88.6826 0.000792008C87.1691 -0.0110237 85.6815 0.111756 84.3611 0.209364C83.0411 0.301321 81.8904 0.471364 81.0568 0.62394C79.3897 0.930633 78.9957 1.21575 81.0247 1.3447C86.5603 1.08732 92.1135 1.14332 97.6611 1.56919C101.541 2.54887 99.5784 2.87302 96.9957 3.07286C95.4956 3.22955 93.7864 3.36826 92.8194 3.53522C91.0012 3.45662 89.1576 3.41244 87.2807 3.41244C76.3366 3.41244 66.3211 4.64794 57.282 7.158C59.2938 6.38844 61.3373 5.67847 63.4109 5.03632C59.6109 5.81821 55.851 6.80404 52.1678 8.03904C53.0082 7.26588 54.7983 6.12798 55.2489 5.45449C55.4721 5.12057 55.3579 4.90789 54.6053 4.93049C54.2295 4.94179 53.6938 5.01166 52.9614 5.15602C52.2275 5.29524 51.2979 5.50997 50.155 5.88088C49.2731 6.30162 48.3824 6.67407 47.527 7.1282C46.6711 7.57206 45.8194 8.01489 44.9692 8.45567C43.3062 9.4076 41.6478 10.32 40.073 11.3633C36.8949 13.389 33.872 15.5769 31.0297 17.9904C28.1822 20.3931 25.4432 22.9324 22.8288 25.688C20.2237 28.4503 17.7038 31.3811 15.2129 34.5205C9.21478 43.4136 5.1574 53.6213 2.64937 64.2508C2.35819 65.5859 2.02496 66.916 1.77478 68.264C1.52772 69.6135 1.26301 70.959 1.03618 72.3209C0.84725 73.6971 0.627694 75.0713 0.4725 76.4574C0.356233 77.848 0.193772 79.2371 0.123701 80.637C-0.194473 86.2335 0.0910015 91.9261 1.09795 97.5509C1.3528 93.6928 2.20819 102.422 1.86198 95.3691C2.07012 96.2075 2.32964 96.9956 2.53467 97.8098C2.6011 98.0564 2.66079 98.3127 2.72204 98.566C3.16998 101.425 3.7866 104.242 4.58593 106.998C3.64646 105.289 3.30493 104.92 3.23538 105.423C3.20371 105.687 3.25925 106.186 3.36618 106.83C3.46998 107.474 3.69888 108.242 3.91117 109.074C4.73438 112.409 6.40726 116.424 5.1927 115.835C5.49167 116.454 5.76416 117.036 6.01227 117.588C6.25466 118.143 6.48564 118.661 6.73063 119.137C7.19829 120.1 7.57978 120.964 7.90522 121.767C8.61735 123.339 9.12602 124.658 9.66219 126.014C9.9596 126.674 10.2617 127.345 10.6048 128.059C10.9515 128.77 11.3133 129.545 11.8365 130.331C12.342 131.13 12.928 132.002 13.6329 132.974C14.3897 133.9 15.2751 134.919 16.321 136.057C17.8205 137.161 18.3193 137.288 18.1735 136.85C18.0339 136.404 17.2283 135.414 16.2914 134.076C14.2614 131.532 11.7768 127.618 10.8056 125.81C11.1539 126.253 11.5401 126.808 11.9455 127.421C12.3462 128.037 12.7702 128.708 13.2519 129.339C13.0931 129.065 12.9348 128.793 12.777 128.522C12.6332 128.243 12.5019 127.959 12.3706 127.681C12.1095 127.123 11.8671 126.576 11.6455 126.047C11.4306 125.514 11.2105 125.018 11.0641 124.519C10.9157 124.021 10.7906 123.552 10.6915 123.12C10.4594 122.128 10.3785 121.344 10.4594 120.846C13.9365 126.874 18.5052 132.389 24.2328 137.166C24.0273 137.516 23.8773 137.875 24.0221 138.357C24.1809 138.88 24.6709 139.576 25.8958 140.437C26.0604 140.735 26.3879 141.1 26.8374 141.514C27.2916 141.922 27.8459 142.412 28.5378 142.849C29.9049 143.747 31.5654 144.821 33.3379 145.687C34.2156 146.134 35.0736 146.618 35.9243 147.02C36.7797 147.414 37.591 147.798 38.3181 148.165C39.7606 148.929 40.9258 149.486 41.3899 149.995C42.1482 150.261 42.8909 150.531 43.6192 150.805C44.3469 151.083 45.0855 151.291 45.7976 151.543C47.2301 152.016 48.5926 152.563 49.9525 152.955C51.3047 153.374 52.6007 153.829 53.8661 154.212C55.1414 154.565 56.369 154.904 57.5472 155.231C58.7249 155.578 59.8782 155.777 60.9771 155.996C62.078 156.201 63.1306 156.382 64.138 156.493C66.1602 156.645 67.9888 156.609 69.6005 156.269C72.6249 157.124 75.693 158.025 78.8047 158.69C86.363 159.454 91.5078 158.675 96.8363 157.771C99.1731 156.894 90.9851 157.128 97.2791 155.756C98.4236 155.55 99.9724 155.315 101.511 155.107C103.047 154.866 104.582 154.708 105.718 154.725C106.388 155.064 103.456 155.764 102.801 155.981C108.841 154.962 113.968 154.24 118.815 153.5C123.652 152.743 128.191 151.91 132.823 150.471C133.556 150.142 134.306 149.804 135.071 149.46C135.826 149.092 136.595 148.717 137.374 148.336C138.95 147.612 140.506 146.727 142.107 145.898C145.251 144.125 148.428 142.228 151.259 140.103C152.709 139.093 154.026 137.967 155.302 136.912C156.563 135.84 157.69 134.715 158.753 133.687C159.755 132.59 160.683 131.568 161.46 130.594C162.207 129.59 162.841 128.67 163.333 127.855C162.472 128.772 161.629 129.705 160.752 130.601L158.03 133.192C159.947 131.232 160.831 130.165 161.139 129.468C161.469 128.791 161.323 128.573 161.217 128.334C161.11 128.095 161.043 127.838 161.516 127.098C161.756 126.731 162.13 126.243 162.649 125.531C162.913 125.18 163.225 124.781 163.591 124.327C163.955 123.871 164.391 123.372 164.822 122.76C165.517 121.879 166.097 121.168 166.581 120.6C167.048 120.019 167.392 119.563 167.688 119.238C168.269 118.581 168.576 118.398 168.754 118.447C169.11 118.543 168.937 119.58 169.44 119.523C170.848 117.339 172.193 114.152 173.347 111.073C173.6 110.29 173.851 109.515 174.094 108.762C174.333 108.009 174.606 107.291 174.779 106.584C175.153 105.179 175.592 103.949 175.911 102.97C175.645 104.421 175.548 104.867 175.679 104.786C175.785 104.7 176.083 104.08 176.341 103.344C176.828 101.869 177.37 99.9762 177.112 101.359C177.257 100.764 177.392 100.202 177.506 99.6685C177.584 99.1291 177.657 98.6205 177.726 98.1381C177.851 97.1718 177.945 96.3092 177.997 95.5206C178.015 93.9394 177.94 92.6582 177.829 91.4324Z" fill="#BB87AC" fill-opacity="0.46"/>
</svg>
