<svg width="26" height="22" viewBox="0 0 26 22" fill="none" xmlns="http://www.w3.org/2000/svg">
<path fill-rule="evenodd" clip-rule="evenodd" d="M20.0929 0C20.0929 0 22.8677 3.26636 24.5221 6.89867C26.1766 10.5315 25.0261 11.7418 23.9466 12.739C22.8677 13.7363 18.4063 15.9443 13.6576 17.6539C10.2466 18.8817 7.54231 19.862 7.54231 19.862C7.54231 19.862 4.85923 20.4907 1.82205 21.8354C1.55089 21.955 1.01427 21.9376 0.898654 21.7277C0.746224 21.4484 0.8017 21.1143 0.8017 21.1143C0.8017 21.1143 0.43981 21.1651 0.207017 20.6816C-0.0221456 20.2069 0.319007 19.824 0.319007 19.824C0.319007 19.824 -0.0729555 19.5335 0.0120733 18.9663C0.0810296 18.5024 0.892951 17.5759 1.26625 17.2444C3.35723 15.39 6.96681 14.52 6.96681 14.52C6.96681 14.52 9.70069 12.6682 12.0027 10.745C13.5757 9.43108 14.4493 8.96401 14.4493 8.96401L12.1349 4.57465C12.1349 4.57465 16.1395 3.04977 20.0929 0Z" fill="white"/>
</svg>
