<svg width="10" height="7" viewBox="0 0 10 7" fill="none" xmlns="http://www.w3.org/2000/svg">
<path fill-rule="evenodd" clip-rule="evenodd" d="M0.441726 0C0.441726 0 -0.531439 0.334643 0.411136 2.00837C0.565121 2.28091 1.18054 3.02256 1.18054 3.02256C1.18054 3.02256 0.987155 3.47474 1.38067 3.98389C1.82811 4.56387 2.46064 4.70964 2.46064 4.70964C2.46064 4.70964 2.42383 5.54111 3.21605 5.85933C4.80516 6.49679 7.70754 4.9678 8.4448 4.26054C8.77559 3.94283 9.43249 3.48398 9.50714 2.87988C9.58336 2.26397 9.28161 2.02274 9.28161 2.02274C9.28161 2.02274 9.63883 1.5254 9.33709 0.902304C9.07526 0.361332 8.43651 0.590244 8.43651 0.590244C8.43651 0.590244 8.10002 0.153463 7.69302 0.0990584C6.05674 -0.121642 4.25039 0.903843 2.77276 1.1461C1.20439 1.40375 0.441726 0 0.441726 0Z" fill="white"/>
</svg>
