<svg width="65" height="17" viewBox="0 0 65 17" fill="none" xmlns="http://www.w3.org/2000/svg">
<path fill-rule="evenodd" clip-rule="evenodd" d="M21.0857 5.33842C18.3059 5.33842 16.0436 3.10077 16.0436 0.350692V0H6.444C2.89087 0 0 2.85996 0 6.37509V12.8811C0 13.0747 0.158816 13.2313 0.354482 13.2313C0.550148 13.2313 0.708445 13.0747 0.708445 12.8811V6.37509C0.708445 3.24608 3.28117 0.70087 6.444 0.70087H15.3465C15.5303 3.67533 18.0334 6.03929 21.0857 6.03929H43.6397C46.692 6.03929 49.1957 3.67533 49.3789 0.70087H58.2814C61.4443 0.70087 64.0175 3.24608 64.0175 6.37509V16.3038C64.0175 16.4974 64.1753 16.6545 64.3709 16.6545C64.5666 16.6545 64.7254 16.4974 64.7254 16.3038V6.37509C64.7254 2.85996 61.8345 0 58.2814 0H48.6819V0.350692C48.6819 3.10077 46.42 5.33842 43.6397 5.33842H21.0857Z" fill="#393F49"/>
</svg>
