<svg width="26" height="38" viewBox="0 0 26 38" fill="none" xmlns="http://www.w3.org/2000/svg">
<path fill-rule="evenodd" clip-rule="evenodd" d="M25.1624 3.3086C24.1091 1.59385 22.6859 0 22.6859 0C22.6859 0 17.803 3.86347 13.0733 7.90538C7.9586 12.2767 6.01825 9.76531 6.01825 9.76531C6.01825 9.76531 5.23981 9.92105 3.57129 9.8672C1.49028 9.80068 -1.16694 12.5043 0.552141 15.7912C1.81266 18.2023 4.36725 18.3787 5.6473 18.3011C5.7259 20.6641 5.85605 25.0249 5.80549 26.7887C5.71388 29.9664 4.58902 31.895 4.45636 31.9531C4.51593 32.491 5.22529 37.0134 12.2908 37.6126C19.8054 38.2493 20.6299 33.2528 20.6299 33.2528C20.6299 33.2528 19.058 31.7039 18.7056 29.344C18.5854 28.5394 18.5844 27.2734 18.634 25.9557C21.5045 25.443 24.6132 22.7231 25.6099 16.7964C26.6447 10.6396 25.1624 3.3086 25.1624 3.3086Z" fill="white"/>
</svg>
