<svg width="15" height="15" viewBox="0 0 15 15" fill="none" xmlns="http://www.w3.org/2000/svg">
<path fill-rule="evenodd" clip-rule="evenodd" d="M0.70752 10.798V3.36367C0.70752 1.89569 1.91525 0.700877 3.39961 0.700877H10.9138C12.3982 0.700877 13.6059 1.89569 13.6059 3.36367V10.798C13.6059 12.2665 12.3982 13.4613 10.9138 13.4613H3.39961C1.91525 13.4613 0.70752 12.2665 0.70752 10.798ZM10.9142 14.1617C12.7894 14.1617 14.3142 12.6531 14.3142 10.798V3.36366C14.3142 1.50905 12.7894 0 10.9142 0H3.40002C1.52484 0 0 1.50905 0 3.36366V10.798C0 12.6531 1.52484 14.1617 3.40002 14.1617H10.9142Z" fill="#393F49"/>
</svg>
