<svg width="2" height="3" viewBox="0 0 2 3" fill="none" xmlns="http://www.w3.org/2000/svg">
<path fill-rule="evenodd" clip-rule="evenodd" d="M0.956083 1.43469C1.19379 1.01006 1.40347 0.504302 1.41281 0.48325C1.48651 0.304053 1.39983 0.0996971 1.21922 0.0262727C1.0412 -0.0471518 0.831002 0.0385956 0.756784 0.217792C0.754708 0.222413 0.553852 0.707117 0.336388 1.09529L0.253866 1.23752C0.0986828 1.50452 -0.0632475 1.77973 0.0249838 2.07394C0.0763655 2.24338 0.198851 2.37688 0.388289 2.47187C0.566827 2.56019 0.781697 2.58637 0.97321 2.58637C1.1969 2.58637 1.38634 2.55094 1.44499 2.53862C1.63598 2.49908 1.75847 2.31373 1.71902 2.12477C1.67958 1.93531 1.4891 1.81465 1.3007 1.85264C1.145 1.88499 0.883422 1.90091 0.726682 1.84905C0.756784 1.77665 0.821141 1.6678 0.866814 1.58872L0.956083 1.43469Z" fill="#393F49"/>
</svg>
