<svg width="24" height="20" viewBox="0 0 24 20" fill="none" xmlns="http://www.w3.org/2000/svg">
<path fill-rule="evenodd" clip-rule="evenodd" d="M6.81023 19.4715C7.81554 19.3719 8.14096 18.6422 8.25618 18.0446L8.48973 16.8313C8.63713 16.8503 8.78453 16.8693 8.94854 16.8693C10.1324 16.8693 11.72 16.345 13.1852 14.8447C13.3217 14.7056 13.3175 14.4843 13.1774 14.3492C13.0357 14.2152 12.8115 14.2198 12.6766 14.3579C11.133 15.9373 9.44367 16.2988 8.44873 16.1263C7.80101 16.0138 6.82164 15.8439 5.80906 12.6784C5.33728 11.2012 5.30926 9.62386 5.45925 8.21442C5.4743 8.21596 5.48831 8.22418 5.50337 8.22418C5.57758 8.22418 5.6518 8.20158 5.71512 8.15486C6.06182 7.89813 6.53982 8.01725 6.55124 8.02033C6.74016 8.07219 6.93271 7.96129 6.98513 7.77593C7.03703 7.58954 6.92752 7.39648 6.7386 7.34462C6.71058 7.33744 6.12566 7.18494 5.56098 7.43859C5.57706 7.33744 5.59056 7.23372 5.6082 7.13565C5.86408 6.72796 6.48014 5.77807 7.24723 4.80609C8.26241 3.51937 8.64699 3.33247 8.64699 3.33247C8.64699 3.33247 9.87652 4.67156 11.2254 6.53798C12.9828 8.96972 13.5999 11.2104 14.7033 10.3653C14.8699 10.2374 14.9841 10.1255 15.0801 10.0259C15.3645 9.82565 15.8301 9.61051 16.4248 9.75377C16.7762 9.83695 17.111 10.145 17.2994 10.5578C17.4592 10.907 17.6487 11.6371 17.1291 12.6076C16.4446 13.8876 15.2285 13.4224 15.0884 13.3639C14.9109 13.2879 14.7023 13.369 14.6239 13.5457C14.6088 13.5795 14.6052 13.615 14.6016 13.6499C14.34 14.0237 13.5205 15.3309 13.3139 17.3422C13.1333 19.1069 13.4084 19.8139 17.4737 19.9695C19.46 20.0455 21.7602 19.5351 23.1247 18.7167C24.2572 18.0374 24.2572 17.6359 23.0058 15.3402C22.1407 13.7526 20.7129 9.99869 19.3811 5.7945C18.1697 1.97283 17.0399 0.799067 13.5983 0.124898C10.6493 -0.452229 8.89456 1.15797 8.89456 1.15797C8.89456 1.15797 8.13525 0.917676 7.43096 1.2812C5.99902 2.02058 5.53139 2.97561 4.97138 5.0392C3.5109 10.4166 2.08466 12.7919 1.11049 14.8663C0.0823335 17.0536 -0.315745 18.0646 0.275404 18.5267C1.41203 19.414 6.25281 19.5264 6.81023 19.4715Z" fill="#393F49"/>
</svg>
