<svg width="36" height="32" viewBox="0 0 36 32" fill="none" xmlns="http://www.w3.org/2000/svg">
<ellipse cx="17.5699" cy="9.93296" rx="6.58874" ry="5.95982" stroke="#172239" stroke-width="1.71429" stroke-linecap="round" stroke-linejoin="round"/>
<path fill-rule="evenodd" clip-rule="evenodd" d="M7.68679 23.8359C7.68511 23.3938 7.78313 22.9571 7.97342 22.5589C8.57058 21.3541 10.2546 20.7156 11.6519 20.4264C12.6597 20.2095 13.6813 20.0645 14.7093 19.9927C16.6126 19.824 18.5268 19.824 20.4301 19.9927C21.458 20.0654 22.4796 20.2103 23.4875 20.4264C24.8848 20.7156 26.5688 21.2938 27.166 22.5589C27.5486 23.3707 27.5486 24.3132 27.166 25.125C26.5688 26.39 24.8848 26.9683 23.4875 27.2454C22.4809 27.4713 21.4589 27.6203 20.4301 27.6912C18.881 27.8236 17.3247 27.8478 15.7723 27.7635C15.414 27.7635 15.0676 27.7635 14.7093 27.6912C13.6844 27.6212 12.6662 27.4722 11.6638 27.2454C10.2546 26.9683 8.58252 26.39 7.97342 25.125C7.7841 24.7221 7.68618 24.2818 7.68679 23.8359Z" stroke="#172239" stroke-width="1.71429" stroke-linecap="round" stroke-linejoin="round"/>
</svg>
