<svg width="36" height="32" viewBox="0 0 36 32" fill="none" xmlns="http://www.w3.org/2000/svg">
<path d="M16.2841 25.9021H10.8341C9.06814 25.8964 7.63631 24.6356 7.62334 23.075V13.4945C7.62681 12.972 7.89134 12.4777 8.34606 12.1438L9.30574 11.5156C9.6561 11.1857 9.69172 10.6823 9.39061 10.3164C9.08949 9.95049 8.53663 9.82535 8.07356 10.0183L7.09019 10.6674C6.09823 11.3457 5.50957 12.3862 5.49072 13.4945V23.0855C5.49724 25.6911 7.88574 27.8019 10.8341 27.8077H16.2841C16.873 27.8077 17.3504 27.3858 17.3504 26.8653C17.3504 26.3449 16.873 25.923 16.2841 25.923V25.9021Z" fill="#161616"/>
<path d="M30.5278 13.5123C30.5157 12.4139 29.9612 11.3783 29.0166 10.6899L21.0453 4.93007C19.2936 3.65417 16.7984 3.65417 15.0467 4.93007L12.5203 6.59215C12.0457 6.90101 11.9372 7.50007 12.2781 7.93017C12.6189 8.36028 13.28 8.45856 13.7547 8.14969L16.3156 6.41444C17.3208 5.66455 18.7712 5.66455 19.7764 6.41444L27.7477 12.1742C28.2064 12.5038 28.4775 13.0027 28.486 13.5332V23.1084C28.486 24.6672 27.0915 25.9308 25.3713 25.9308H23.0064C22.7643 25.9308 22.5681 25.753 22.5681 25.5336V21.2164C22.5681 19.8406 21.3407 18.7238 19.8225 18.718H16.3618C15.6305 18.718 14.9293 18.9812 14.4122 19.4498C13.8952 19.9183 13.6047 20.5538 13.6047 21.2164V22.868C13.6047 23.3876 14.0695 23.8088 14.6429 23.8088C15.2163 23.8088 15.6811 23.3876 15.6811 22.868V21.2164C15.6781 21.0538 15.7472 20.8969 15.873 20.7809C15.9988 20.6649 16.1708 20.5996 16.3502 20.5996H19.811C20.1805 20.5996 20.4801 20.8711 20.4801 21.2059V25.5336C20.4864 26.7938 21.6156 27.8124 23.0064 27.8124H25.3136C28.187 27.8124 30.5163 25.7017 30.5163 23.098L30.5278 13.5123Z" fill="#161616"/>
</svg>
