<svg width="19" height="29" viewBox="0 0 19 29" fill="none" xmlns="http://www.w3.org/2000/svg">
<path fill-rule="evenodd" clip-rule="evenodd" d="M10.1673 28.7321L11.5229 24.0863C11.5229 24.0863 13.3301 21.9418 14.1776 18.725C15.0247 15.5083 14.9376 14.8748 14.9376 14.8748C14.9376 14.8748 17.4536 9.61119 17.9617 8.18153C18.4703 6.75239 17.7359 5.91825 16.8889 7.16894C16.0414 8.42016 13.1484 12.7588 13.1484 12.7588L12.6062 12.3016C12.6062 12.3016 13.6725 5.80527 14.1241 3.78009C14.5766 1.75491 13.8948 0.61667 13.1043 1.15306C12.027 1.8832 10.1473 11.3001 10.1473 11.3001L9.70073 11.1913C9.70073 11.1913 11.1605 2.34726 11.2406 1.21272C11.3532 -0.395919 9.64666 -0.391167 9.29824 1.14936C9.04944 2.24853 7.40045 11.5577 7.40045 11.5577C7.40045 11.5577 7.39995 3.89307 7.06054 2.46341C6.72163 1.03374 5.59176 1.51047 5.42256 2.94014C5.25335 4.3698 4.91444 11.279 4.91444 11.279L4.23612 15.0321C4.23612 15.0321 3.09925 11.9278 2.02595 10.439C0.953152 8.94968 0 9.7305 0 9.7305C0 9.7305 0.329398 11.3861 0.728381 13.018C1.09132 14.502 1.75112 15.9254 1.75112 17.7124C1.75112 19.4995 3.3891 22.5969 3.3891 22.5969L2.82441 28.3151L10.1673 28.7321Z" fill="white"/>
</svg>
