<svg width="31" height="19" viewBox="0 0 31 19" fill="none" xmlns="http://www.w3.org/2000/svg">
<path fill-rule="evenodd" clip-rule="evenodd" d="M28.601 4.50765C24.6424 1.06587 21.8407 0.208321 20.5294 0C20.5534 0.834339 20.5569 1.43188 20.5569 1.43188C20.5569 1.43188 20.2878 4.11685 16.3537 3.98869C11.4395 3.82889 11.883 1.01893 11.883 1.01893C11.883 1.01893 12.2252 0.536888 12.36 0.00527395C11.0958 0.0991503 9.09939 0.550073 6.71969 2.1734C5.02248 3.33156 1.43764 5.44008 0.513623 6.15259C0.523144 6.25596 0.517631 6.37041 0.509113 6.48644C0.784214 6.71005 0.953584 6.68632 0.953584 6.68632C0.953584 6.68632 2.53103 7.37879 3.26163 10.751C4.12652 14.7433 3.09126 16.8429 3.09126 16.8429C3.09126 16.8429 1.63558 17.6023 0 17.1535C0.799247 17.885 1.89965 18.3033 3.4786 17.7917C4.52038 17.4541 7.60713 15.0503 7.85667 15.2792C10.3085 17.5359 13.486 18.8976 16.9576 18.8976C23.7564 18.8976 29.4273 13.6748 30.7327 6.73589C30.0802 5.93531 29.3702 5.17638 28.601 4.50765Z" fill="#5AE2E2"/>
</svg>
