<svg width="158" height="91" viewBox="0 0 158 91" fill="none" xmlns="http://www.w3.org/2000/svg">
<path fill-rule="evenodd" clip-rule="evenodd" d="M151.273 95.8925H6.06233C3.18601 95.8925 0.827254 93.5129 0.658736 90.5203H156.677C156.509 93.5129 154.149 95.8925 151.273 95.8925ZM13.9915 89.0713C12.2663 88.3126 11.5097 85.9198 11.8603 82.3358C12.1848 79.0201 13.5284 76.2598 14.02 75.3427C14.8166 75.9736 17.1473 77.6854 20.4982 78.9842C23.8336 80.2762 27.571 80.8522 33.3961 80.9731C38.6227 81.0813 43.1977 81.0829 43.2437 81.0829C43.2922 81.0829 43.3412 81.0708 43.3847 81.0486C43.4332 81.0238 48.1522 78.6194 51.169 77.9541C51.3676 78.1236 51.8381 78.7783 52.1922 79.3432C52.2422 79.423 52.3217 79.4773 52.4117 79.4926C52.4417 79.4974 55.4895 80.0254 58.1723 81.3522C58.3063 81.4182 58.6579 81.5893 58.8934 81.7207C60.5126 82.5792 61.0461 83.123 60.8871 83.6943C60.7171 84.3057 60.3035 84.4108 60.152 84.4293C57.4037 83.0365 52.1101 82.4462 51.8831 82.4214C51.7186 82.4002 51.5461 82.538 51.5276 82.7276C51.5091 82.9156 51.6386 83.0835 51.8171 83.103C51.8716 83.1093 57.2642 83.7091 59.9 85.0613C60.021 85.2028 60.404 85.716 60.1935 86.3105C59.984 86.8992 59.4129 87.0259 59.2369 87.0512C56.6756 86.1003 52.4797 85.6415 52.1546 85.7582C51.9846 85.8179 51.8651 86.018 51.9211 86.1975C51.9781 86.3775 52.1361 86.4805 52.3042 86.4214C52.6687 86.4029 56.5211 86.7709 59.0144 87.6954C59.0514 87.7693 59.1319 87.9847 59.1469 88.4932C59.1639 89.0919 58.7254 89.5871 58.5423 89.7677H16.7443C16.7318 89.7677 15.5477 89.7561 13.9915 89.0713ZM46.7674 70.5945C46.6939 70.3838 46.4494 69.4947 47.3155 68.9456C48.2137 68.377 48.8523 68.7993 48.9773 68.8949L57.1213 80.1414C55.1195 79.341 53.2436 78.9514 52.684 78.8453L52.4195 78.4767C52.2544 78.2307 52.1104 78.03 51.9859 77.8722L46.7674 70.5945ZM60.3454 80.1205C60.2569 80.271 60.0864 80.4923 59.8133 80.6883C59.6238 80.8229 59.3503 80.9529 59.0117 81.0152C58.8292 80.9217 58.6421 80.8272 58.4486 80.7316C58.4061 80.7104 58.3631 80.6914 58.3201 80.6703L56.5197 78.1826C57.8555 78.8877 59.4588 79.7191 60.3454 80.1205ZM59.7911 88.401L62.269 89.8361H59.3515C59.585 89.5002 59.8126 89.0285 59.7966 88.4724C59.7956 88.4454 59.7926 88.4269 59.7911 88.401ZM62.3863 89.1214L59.7678 87.6056C60.1329 87.4625 60.583 87.1705 60.8025 86.5512C61.0131 85.9572 60.8705 85.4335 60.687 85.067L60.7825 85.1996L62.3863 89.1214ZM65.7503 88.8668C65.7503 88.3518 66.1474 87.9335 66.6349 87.9335H125.261C125.749 87.9335 126.145 88.3518 126.145 88.8668V89.1737C126.145 89.4319 126.045 89.6664 125.884 89.8354H66.0119C65.8508 89.6664 65.7503 89.4319 65.7503 89.1737V88.8668ZM44.9845 18.4646C47.4115 18.4646 49.3858 21.246 49.3858 24.6652C49.3858 28.0839 47.4115 30.8659 44.9845 30.8659C42.5586 30.8659 40.5837 28.0839 40.5837 24.6652C40.5837 21.246 42.5586 18.4646 44.9845 18.4646ZM48.536 4.05873C52.768 -0.0869876 57.423 0.468978 59.8213 1.17014C62.067 1.82589 63.8557 3.03761 64.7898 4.16644C62.443 2.76042 56.9239 0.315863 51.6224 4.27942C46.5968 8.03707 47.0069 15.8095 47.1309 17.2519C46.8638 17.4056 46.2853 17.6669 45.6717 17.507C44.9636 17.3201 44.4481 17.2488 44.1425 17.2218C44.142 15.6052 44.3736 8.13633 48.536 4.05873ZM66.2502 9.74272C66.6677 10.2311 67.6693 11.4455 68.4599 12.7226C68.5974 13.4402 69.8541 20.2913 68.8925 26.0193C67.8693 32.1086 64.5955 34.6276 61.8722 34.9549C59.6214 35.2226 57.2172 34.136 55.712 33.0288C54.2574 31.9591 53.3033 30.9074 52.4187 29.399C52.3241 29.2379 52.1246 29.1883 51.9721 29.2876C51.8196 29.3873 51.7726 29.5985 51.8671 29.7596C52.7897 31.333 53.8283 32.4787 55.3405 33.5911C56.7731 34.6455 58.9839 35.6819 61.1696 35.6814C61.4156 35.6814 61.6607 35.6661 61.9047 35.6381C61.8707 36.8229 61.8837 37.9364 61.9947 38.6809C62.3012 40.7395 63.4734 42.1914 63.8779 42.6418C63.6529 43.467 62.2917 47.0938 55.934 46.5547C49.5158 46.0098 48.5577 42.2152 48.4212 41.3351C48.8823 40.6835 49.6779 38.7189 49.7539 36.0822C49.7864 34.9597 49.7469 32.8293 49.6934 30.8108C51.0535 29.3995 51.9371 27.174 51.9371 24.6661C51.9371 22.9312 51.5136 21.3319 50.8035 20.0431C51.9786 20.2865 53.9393 19.9813 56.8931 17.4539C60.9751 13.9613 65.2191 10.5637 66.2502 9.74272ZM46.2826 31.7026C45.9145 31.7026 45.5565 31.6424 45.2104 31.5353C47.8899 31.3726 50.0348 28.3579 50.0348 24.6652C50.0348 21.6646 48.6175 19.1129 46.6497 18.1715C47.0052 18.0854 47.2903 17.9434 47.4678 17.8378C49.6567 18.5881 51.2885 21.3595 51.2885 24.6652C51.2885 28.5453 49.0431 31.7026 46.2826 31.7026ZM70.2447 28.1557C71.0424 26.8273 71.528 25.1388 71.528 23.2893C71.528 21.9366 71.2664 20.6705 70.8153 19.5665C70.8113 19.2788 70.8048 18.9937 70.7973 18.7096C71.7145 19.8807 72.2221 21.444 72.2221 23.2893C72.2221 25.4852 71.5105 27.2682 70.2237 28.4921C70.2307 28.3807 70.2362 28.2687 70.2447 28.1557ZM70.792 21.9987C70.8475 22.4179 70.8795 22.8487 70.8795 23.2907C70.8795 24.3271 70.714 25.3081 70.4264 26.194C70.5669 24.8809 70.727 23.4813 70.792 21.9987ZM89.4574 40.2971C89.4574 38.9745 89.1169 37.8609 88.7873 36.7844C88.6573 36.3599 88.5283 35.9407 88.4248 35.5162C88.1233 34.2818 87.8592 33.0199 87.7527 32.4961C88.0123 32.4011 88.5348 32.3768 89.1484 33.23C90.18 34.663 91.3011 37.7089 91.3121 37.7395C91.3151 37.7485 91.3246 37.7517 91.3286 37.7601C91.3541 37.8171 91.3896 37.8683 91.4426 37.9042C91.4436 37.9053 91.4441 37.9063 91.4451 37.9069C91.4471 37.9079 91.4476 37.91 91.4496 37.9111C91.4591 37.9169 92.4072 38.5415 93.5669 40.8784C94.1254 42.003 94.2874 43.9322 94.2894 43.9512C94.3039 44.1302 94.445 44.2648 94.612 44.2648C94.6215 44.2648 94.631 44.2643 94.6405 44.2638C94.8185 44.2474 94.951 44.0816 94.936 43.8926C94.929 43.8081 94.761 41.8076 94.1424 40.5605C93.1803 38.6218 92.3387 37.7728 91.9722 37.4665L92.6163 33.881C92.6198 33.8118 92.9558 26.9671 93.1223 25.5658C93.2038 24.8773 93.5224 24.5384 93.7124 24.5262C93.8724 24.4988 94.0319 24.7533 94.1209 25.1297C94.3769 26.21 94.4475 31.3266 94.45 34.004C93.7319 34.1619 93.2778 34.3789 93.2273 34.4048C93.0658 34.4861 92.9973 34.6899 93.0738 34.8609C93.1503 35.0315 93.3443 35.1059 93.5053 35.0236C93.6439 34.9555 96.9032 33.3826 100.43 36.1888C100.488 36.2353 100.557 36.2575 100.625 36.2575C100.724 36.2575 100.82 36.2105 100.884 36.1212C100.992 35.9702 100.964 35.7554 100.82 35.6413C100.794 35.6197 100.767 35.6038 100.739 35.5827C100.754 35.5679 100.771 35.5574 100.782 35.5399C100.782 35.5399 103.671 31.2026 104.518 29.9518C104.804 29.5278 105.013 29.4666 105.057 29.4882C105.149 29.5405 105.27 29.9465 105.022 30.6445C104.526 32.041 102.04 37.2522 102.015 37.305C101.988 37.3609 101.978 37.4328 101.982 37.4951C101.984 37.523 102.022 38.2142 101.233 41.2179C100.418 44.3145 98.6679 46.4227 98.6504 46.4433C98.6199 46.4803 98.5964 46.5235 98.5829 46.5695L98.0623 48.3572H90.7816L91.0911 45.2168C91.0981 45.1466 91.0846 45.0763 91.0516 45.0146C91.0361 44.9845 89.4574 41.9734 89.4574 40.2971ZM96.9864 23.812C97.1324 23.1695 97.556 22.878 97.8766 22.9319C98.1676 22.9799 98.3206 23.293 98.2871 23.7709C98.2106 24.8759 96.7684 33.6288 96.7544 33.7165C96.7444 33.7756 96.7539 33.8316 96.7709 33.8844C96.1733 33.8157 95.6272 33.8305 95.1511 33.8854C95.4411 32.2487 96.7684 24.7772 96.9864 23.812ZM100.649 24.0255C100.845 23.893 100.944 23.9659 100.979 23.9928C101.224 24.1749 101.477 24.9358 101.177 26.2863C100.727 28.299 99.6988 34.5625 99.6557 34.828C99.6537 34.8396 99.6598 34.8502 99.6587 34.8618C99.0101 34.4912 98.381 34.2404 97.7829 34.0836C97.8089 34.0456 97.8274 34.0023 97.8369 33.9558C98.7461 29.3956 100.047 24.4347 100.649 24.0255ZM157.012 89.8348H126.652C126.74 89.6326 126.796 89.4109 126.796 89.1733V88.8665C126.796 88.2234 126.436 87.6712 125.92 87.4103C126.639 86.9436 127.175 86.178 127.345 85.2535L133.412 52.2467C133.588 51.2858 133.351 50.3016 132.761 49.5466C132.171 48.7911 131.302 48.3581 130.375 48.3581H120.831C120.652 48.3581 120.507 48.5113 120.507 48.7008C120.507 48.8903 120.652 49.0435 120.831 49.0435H130.375C131.107 49.0435 131.794 49.3856 132.26 49.9822C132.726 50.5794 132.913 51.3566 132.774 52.1158L126.707 85.1226C126.485 86.3338 125.475 87.2123 124.308 87.2123H78.6276C77.8955 87.2123 77.2079 86.8702 76.7418 86.2741C76.2758 85.6764 76.0888 84.8987 76.2283 84.1395L79.6997 65.2557C79.7337 65.0693 79.6187 64.8893 79.4426 64.8528C79.2691 64.8196 79.0961 64.9384 79.0621 65.1242L77.3139 74.6342C76.8799 57.2494 70.3732 47.6818 70.3041 47.5825C70.1966 47.4294 69.9931 47.3967 69.8501 47.5091C69.7056 47.6216 69.6741 47.836 69.7801 47.9886C69.8516 48.091 76.8834 58.4368 76.6883 77.2198C76.6873 77.3195 76.7283 77.4082 76.7924 77.4716L75.5902 84.0086C75.4142 84.97 75.6512 85.9547 76.2408 86.7097C76.4008 86.9146 76.5823 87.0925 76.7789 87.2477H66.6363C65.7907 87.2477 65.1026 87.9742 65.1026 88.8665V89.1733C65.1026 89.4109 65.1576 89.6326 65.2471 89.8348H63.3639C63.3594 89.8111 63.3669 89.7873 63.3579 89.7651L61.3632 84.8882C61.3527 84.8628 61.3392 84.838 61.3237 84.8158L61.1557 84.584C61.3022 84.4077 61.4297 84.1812 61.5117 83.8866C61.7902 82.8892 61.0411 82.1633 59.828 81.4563C60.5396 81.0925 60.9536 80.4726 61.0411 80.1601C61.1287 79.8428 60.9841 79.6553 60.8331 79.5914C59.826 79.1664 57.1082 77.7319 55.6175 76.9357L49.4684 68.4431C49.4544 68.4246 49.4389 68.4072 49.4214 68.3914C49.3794 68.3528 48.3778 67.4722 46.9821 68.3576C45.831 69.0867 45.9565 70.3386 46.1835 70.8988C46.194 70.9241 46.208 70.9484 46.2235 70.9706L50.793 77.3428C47.8712 78.0487 43.7713 80.093 43.1712 80.3961C42.7036 80.3956 40.0784 80.3908 36.6975 80.3433C36.859 78.9716 37.8171 71.0249 39.1268 64.4436C39.1638 64.2583 39.0512 64.0767 38.8757 64.0376C38.7032 63.9949 38.5282 64.1179 38.4917 64.3027C37.196 70.8148 36.2434 78.6516 36.0614 80.1965C35.7324 80.2261 35.0923 80.2741 34.2217 80.3021C33.9522 80.2968 33.6847 80.2921 33.4111 80.2863C29.1392 80.1981 26.0123 79.8634 23.3485 79.178C23.3055 79.1669 23.263 79.1564 23.22 79.1453C23.025 79.0941 22.8325 79.0413 22.6425 78.9859C22.6125 78.9774 22.5825 78.9679 22.552 78.9595C21.9224 78.7747 21.3158 78.5682 20.7238 78.3391C18.6265 77.5265 16.9263 76.5334 15.7757 75.7694C14.4341 74.8027 13.2094 73.6421 12.1903 72.2351C13.1439 70.5033 20.4157 57.61 29.9113 49.3824C37.071 43.1792 44.1573 41.2885 47.8907 40.7098L47.7712 41.0693L47.6937 41.3376L47.7802 41.4242C47.8497 41.8666 48.0947 42.9168 48.9243 44.0139C49.8954 45.2974 51.8896 46.8983 55.8826 47.2367C56.3361 47.2752 56.7657 47.2937 57.1732 47.2937C63.7029 47.2937 64.5495 42.6448 64.558 42.5947L64.5875 42.4125L64.4605 42.2858C64.453 42.279 64.1165 41.9284 63.7299 41.3365C65.6496 41.4822 71.6278 42.799 81.3804 52.5112L80.3697 58.007C80.3362 58.1929 80.4508 58.3729 80.6268 58.4088C80.6478 58.413 80.6688 58.4151 80.6898 58.4151C80.8413 58.4151 80.9773 58.3011 81.0073 58.138L82.2955 51.1322C82.5175 49.922 83.5266 49.0435 84.6942 49.0435H110.926C111.106 49.0435 111.251 48.8903 111.251 48.7008C111.251 48.5113 111.106 48.3581 110.926 48.3581H98.7427L99.1848 46.8418C99.4863 46.4685 101.07 44.4051 101.859 41.402C102.541 38.8117 102.632 37.8555 102.633 37.5361C102.959 36.8518 105.15 32.2388 105.63 30.8867C105.959 29.9632 105.851 29.1586 105.363 28.8841C105.208 28.7953 104.646 28.5857 103.99 29.5546C103.278 30.6074 101.118 33.8466 100.451 34.8487L100.329 34.7452C100.512 33.6375 101.41 28.2362 101.809 26.4427C102.124 25.0303 101.95 23.8767 101.355 23.4326C101.042 23.1987 100.658 23.2045 100.299 23.449C99.5773 23.9384 98.6477 27.3629 97.9862 30.1971C98.4012 27.6079 98.8898 24.4807 98.9363 23.8223C99.0078 22.7938 98.4647 22.3355 97.9777 22.2552C97.3616 22.1581 96.592 22.6116 96.3565 23.6539C96.206 24.3175 95.5654 27.8672 95.0688 30.6449C95.0288 28.4025 94.9433 25.77 94.7523 24.9643C94.4933 23.8751 93.8582 23.8265 93.6742 23.8434C93.0801 23.8809 92.5891 24.5546 92.4791 25.4817C92.3105 26.9073 91.9835 33.5636 91.9745 33.7996L91.501 36.4247C91.0689 35.3698 90.3608 33.7811 89.6668 32.8165C89.2242 32.2014 88.7357 31.8534 88.2156 31.7816C87.6285 31.7003 87.2285 32.0092 87.186 32.0446C87.0875 32.1253 87.042 32.2573 87.0675 32.3856C87.07 32.402 87.402 34.0678 87.7976 35.6887C87.9046 36.1259 88.0366 36.5588 88.1706 36.996C88.4851 38.0224 88.8097 39.0831 88.8097 40.298C88.8097 41.9933 90.1528 44.7008 90.4363 45.2531L90.1303 48.3581H84.6942C83.2161 48.3581 81.9394 49.4701 81.6574 51.0017L81.5249 51.7235C78.6691 48.9062 76.1338 46.7943 73.9285 45.2219C75.2892 40.3729 74.9947 37.6269 72.0698 34.7948C70.5527 33.3244 70.1681 31.5171 70.1916 29.411C71.9008 28.0572 72.8719 25.912 72.8719 23.2901C72.8719 20.9258 72.1143 18.9754 70.7597 17.6412C70.5442 12.8466 69.6661 8.65864 66.8013 6.10057C66.5922 5.91366 66.3952 5.7484 66.2002 5.58737L66.0737 5.12803C65.5876 3.36509 62.9754 1.37935 59.996 0.509239C58.1588 -0.0271911 55.0655 -0.473336 51.8001 0.99287C50.478 1.28062 49.1243 1.86034 47.8057 2.87935C41.315 7.89676 41.8401 15.3566 41.314 19.2779C41.2785 19.5404 41.249 19.8175 41.221 20.1037C40.4259 21.3191 39.9353 22.9115 39.9353 24.6655C39.9353 25.3186 40.0114 25.9458 40.1369 26.5446C39.1943 29.2093 37.2791 31.8613 33.1081 33.77C28.6696 35.8006 25.1842 41.364 28.3941 47.2388C28.7121 47.8222 29.0787 48.3624 29.4712 48.8771C19.2456 57.7515 11.5953 71.9494 11.5188 72.0915L11.4157 72.2863L11.5413 72.4647C12.1488 73.3296 12.8334 74.101 13.568 74.8016C13.1744 75.4943 11.5868 78.4869 11.2167 82.2641C10.6997 87.5418 12.5784 89.1907 13.7435 89.7034C13.856 89.753 13.9615 89.7915 14.0705 89.8348H0.325035C0.145016 89.8348 0 89.9879 0 90.1775C0 93.7065 2.7203 96.5777 6.06266 96.5777H151.273C154.616 96.5777 157.336 93.7065 157.336 90.1775C157.336 89.9879 157.191 89.8348 157.012 89.8348Z" fill="#393F49"/>
</svg>
