<svg width="8" height="8" viewBox="0 0 8 8" fill="none" xmlns="http://www.w3.org/2000/svg">
<path fill-rule="evenodd" clip-rule="evenodd" d="M5.90477 5.59841C4.91508 7.19344 3.06625 7.77158 1.78701 6.8851C0.50578 5.99862 0.269236 3.98067 1.25892 2.38616C1.93404 1.29799 3.00724 0.68395 4.02842 0.68395C4.50451 0.68395 4.96959 0.817002 5.37617 1.09947C5.98978 1.52344 6.38435 2.21932 6.48987 3.05776C6.59689 3.9152 6.38935 4.81752 5.90477 5.59841ZM5.73265 0.526187C4.15336 -0.567264 1.90145 0.0990491 0.715729 2.00982C-0.469987 3.92111 -0.148929 6.36514 1.43036 7.45806C1.94645 7.81498 2.53306 7.98446 3.13167 7.98446C4.3664 7.98446 5.64863 7.26218 6.44728 5.97443C7.01738 5.0568 7.26092 3.98922 7.1334 2.96863C7.00338 1.92851 6.50529 1.06103 5.73265 0.526187Z" fill="#393F49"/>
</svg>
