<svg width="81" height="57" viewBox="0 0 81 57" fill="none" xmlns="http://www.w3.org/2000/svg">
<path fill-rule="evenodd" clip-rule="evenodd" d="M79.3885 39.3204C79.3885 42.3373 77.0638 44.7924 74.206 44.7924H33.4705L33.374 44.8985C28.2645 50.5674 22.0423 54.2438 20.3506 55.1878C20.2991 54.1635 20.1701 51.8874 19.9706 50.3636C19.607 47.5912 19.027 46.1361 18.4539 44.9761L18.3624 44.7924H10.6876C7.82975 44.7924 5.505 42.3373 5.505 39.3204V29.7987C6.4496 33.3969 7.50622 35.88 8.66234 37.1952C9.32892 37.9534 10.0575 38.3668 10.7581 38.5712C11.6137 39.3357 12.7918 39.7734 14.4795 39.2259C15.024 39.049 16.0051 38.4006 16.9547 37.7734C17.5483 37.3811 18.3409 36.8568 18.6404 36.7343C18.858 36.9318 19.0875 37.1102 19.3145 37.2929C19.34 37.313 19.3645 37.3346 19.3905 37.3547C19.685 37.5886 19.9891 37.8061 20.2986 38.0136C20.3551 38.0522 20.4111 38.0928 20.4681 38.1303C20.7442 38.3088 21.0262 38.4735 21.3117 38.6314C21.4132 38.6879 21.5122 38.7475 21.6148 38.8014C21.8613 38.9302 22.1133 39.0448 22.3663 39.1578C22.5139 39.2243 22.6589 39.2945 22.8084 39.3552C23.0274 39.4445 23.2509 39.5194 23.474 39.5965C23.66 39.6614 23.8435 39.7306 24.033 39.7871C24.24 39.8489 24.4506 39.8959 24.6601 39.9471C24.8656 39.9983 25.0686 40.0548 25.2772 40.0955C25.5107 40.1414 25.7472 40.1694 25.9832 40.2026C26.1698 40.229 26.3533 40.2644 26.5423 40.2829C26.9708 40.3246 27.4014 40.3478 27.8339 40.3478C28.2285 40.3478 28.6185 40.3257 29.0051 40.2919C29.0536 40.2876 29.1016 40.2845 29.1501 40.2797C29.5346 40.2417 29.9137 40.1857 30.2887 40.1155C30.3202 40.1097 30.3517 40.1028 30.3842 40.097C33.226 39.5416 35.7783 38.0775 37.7775 35.9909C37.797 35.9703 37.817 35.9503 37.8365 35.9297C38.0986 35.6535 38.3501 35.3668 38.5921 35.0696C38.6321 35.02 38.6716 34.9703 38.7116 34.9202C38.9391 34.6335 39.1597 34.3389 39.3677 34.0347C39.4087 33.9751 39.4462 33.9138 39.4862 33.8536C39.6672 33.5807 39.8412 33.3019 40.0063 33.0163C40.0453 32.9487 40.0853 32.8827 40.1238 32.8146C40.2903 32.5163 40.4443 32.2095 40.5928 31.898C40.6383 31.803 40.6848 31.7085 40.7278 31.6118C40.8709 31.2966 41.0024 30.9746 41.1254 30.6472C41.1634 30.5485 41.1994 30.4487 41.2344 30.3489C41.3554 30.0068 41.4679 29.6604 41.5664 29.3072C41.5879 29.2322 41.6059 29.1562 41.6259 29.0807C41.7289 28.6937 41.8225 28.3019 41.8975 27.9033C41.898 27.9012 41.8985 27.8991 41.899 27.8964L41.9295 27.7333L41.926 27.7291C42.096 26.7729 42.188 25.7877 42.188 24.7787C42.188 18.1757 38.3726 12.5353 33.013 10.2761C33.28 9.3595 33.6871 7.61611 33.5811 5.82889H74.206C77.0638 5.82889 79.3885 8.284 79.3885 11.3014V39.3204ZM3.9494 19.4793C3.9389 19.436 3.9204 19.3954 3.89489 19.3595C3.88989 19.3505 3.29628 18.4941 2.87471 17.3478C2.45163 16.1942 2.37511 15.9355 2.37211 15.9249C2.35911 15.8795 2.33611 15.8357 2.3066 15.7998C1.54996 14.8843 0.898344 13.9197 0.704309 13.4519C1.10538 13.6868 1.88903 14.389 2.61866 15.1842C2.66667 15.2375 2.72968 15.2681 2.79469 15.2808C2.78719 15.2887 2.77069 15.3067 2.76819 15.3093C2.64816 15.4497 2.65767 15.6662 2.79069 15.7935C2.8527 15.8531 2.93122 15.8827 3.00873 15.8827C3.09725 15.8827 3.18476 15.8447 3.24877 15.7708C3.25878 15.7597 4.22195 14.6599 5.76773 14.5342C5.94677 14.52 6.08029 14.3547 6.06629 14.1662C6.05779 14.0485 5.98627 13.9566 5.89526 13.9022C5.92526 12.2021 5.98477 9.64775 6.03278 9.32885C6.04478 9.24807 6.1283 9.17363 6.1578 9.1731C6.18131 9.18471 6.27633 9.30615 6.30583 9.68366C6.39585 10.8869 6.47486 14.1615 6.47586 14.1942C6.47836 14.3051 6.53187 14.4075 6.61889 14.4693C6.63239 14.4793 6.64639 14.4878 6.6614 14.4946C6.6694 14.5084 6.6844 14.5385 6.6989 14.5659C6.34634 14.8563 5.73123 15.5184 5.52819 16.7454C5.49668 16.9318 5.61521 17.1092 5.79174 17.1425C5.81074 17.1456 5.82874 17.1472 5.84825 17.1472C6.00278 17.1472 6.1403 17.03 6.16681 16.8637C6.39335 15.5015 7.2165 15.0105 7.25801 14.9867C7.30151 14.9624 7.33502 14.9281 7.36302 14.889C7.36503 14.8864 7.36853 14.8853 7.37003 14.8827C7.55256 14.6108 7.95563 14.0047 8.45672 13.2201C8.67326 12.8806 9.33238 11.8484 9.71745 11.7724C9.75996 11.7634 9.79147 11.7702 9.82948 11.7988C9.9685 11.9978 9.45841 13.0955 9.29088 13.4561C9.19186 13.6704 9.09984 13.869 9.03383 14.0337C8.8548 14.4783 8.72977 15.3003 8.59775 16.1704C8.49123 16.8721 8.38071 17.5981 8.25519 17.9862C8.07666 18.5369 7.71059 19.0041 7.50855 19.2327C7.42003 19.3331 7.39653 19.4788 7.44854 19.6039C7.70459 20.2222 9.02683 23.4154 9.87448 25.6113C10.086 26.1588 10.2916 26.5875 10.4866 26.9244C10.4906 26.9349 10.4901 26.946 10.4951 26.9561C10.5001 26.9682 11.1097 28.2771 11.8874 31.3378C11.9264 31.4914 12.0579 31.5923 12.2014 31.5923C12.2289 31.5923 12.2569 31.588 12.2854 31.5801C12.4585 31.531 12.561 31.3436 12.515 31.1604C12.1734 29.8167 11.8658 28.8093 11.6228 28.0896C11.6848 28.1092 11.7408 28.1203 11.7878 28.124C12.0474 28.2797 13.2486 29.1335 13.8512 31.9265C14.5708 35.2559 13.9292 37.2353 13.7512 37.691C13.2386 37.9238 10.9527 38.7918 9.13885 36.729C7.60007 34.9798 6.22682 30.9619 5.0571 24.7871C4.4675 21.6762 3.9539 19.501 3.9494 19.4793ZM1.88195 10.4287C2.30203 10.8828 3.11368 12.595 3.7903 14.4921C3.65678 14.5728 3.53626 14.6515 3.42774 14.7312C3.42224 14.7032 3.41923 14.6753 3.40723 14.6483C2.6756 13.0369 1.95747 11.1183 1.88195 10.4287ZM4.30313 8.88114C4.32364 8.88167 4.40015 8.92655 4.45516 9.03743C4.53568 9.29878 4.96675 12.1272 5.2323 13.9281C5.02027 13.9709 4.82023 14.0253 4.63269 14.0923C4.53668 13.1657 4.22412 10.124 4.19311 9.47354C4.17311 9.04165 4.28013 8.89381 4.30313 8.88114ZM10.6885 5.82889H17.7368C18.2509 6.70059 18.9629 7.69319 19.9081 7.71062C19.9226 7.71114 19.9351 7.70798 19.9491 7.70798L19.9441 7.71642L19.9376 7.80196C19.9281 7.92392 19.7855 9.76869 19.806 11.8928C15.9966 14.6948 13.4818 19.4202 13.4818 24.7787C13.4818 25.0131 13.4969 25.2444 13.5074 25.4767C12.5362 26.0849 11.6952 26.6213 11.2791 26.936C11.0561 26.6309 10.7811 26.1425 10.476 25.3521C9.69494 23.3278 8.51381 20.463 8.12677 19.5295C8.36879 19.2301 8.69083 18.7592 8.86985 18.2074C9.01386 17.7639 9.12287 17.0422 9.23939 16.2787C9.3594 15.4873 9.48391 14.6689 9.63143 14.3014C9.69444 14.1457 9.78145 13.9593 9.87496 13.7571C10.323 12.7919 10.8306 11.6979 10.201 11.2354C10.021 11.1029 9.81195 11.0554 9.59843 11.0976C9.05787 11.2048 8.53631 11.8701 7.91824 12.8368C7.61471 13.3136 7.34668 13.7238 7.14266 14.0321C7.13616 14.0232 7.12916 14.0147 7.12116 14.0063C7.10365 13.3083 7.03415 10.7048 6.95314 9.62877C6.88463 8.72751 6.48859 8.53321 6.26006 8.49678C7.16666 6.90492 8.80534 5.82889 10.6885 5.82889ZM29.7392 16.3644C29.5871 16.2646 29.3871 16.3153 29.2921 16.4758C28.8521 17.2303 28.1535 18.017 27.4704 18.5302C26.3873 19.3444 25.3272 19.6358 24.0305 19.4769C23.5785 19.4215 21.2937 18.9748 20.7272 15.6237C20.4342 13.8861 20.4301 11.5904 20.4802 9.94681C20.4877 10.0197 20.5127 10.092 20.5657 10.149C20.6287 10.2177 20.7132 10.2525 20.7977 10.2525C20.8792 10.2525 20.9612 10.2198 21.0247 10.1548C21.5293 9.63425 22.0713 10.0054 22.1313 10.0498C22.2754 10.158 22.4774 10.1247 22.5829 9.97163C22.6879 9.81798 22.6554 9.60362 22.5104 9.49275C22.1588 9.22453 21.3002 8.91302 20.5707 9.66434C20.5192 9.71714 20.4942 9.78419 20.4832 9.85283C20.5142 8.9051 20.5607 8.18652 20.5782 7.94576C20.6602 7.82063 20.7577 7.70289 20.8612 7.58726C21.7968 7.32644 22.3794 6.72295 23.0299 6.58621C23.8765 6.4088 25.5557 7.29212 25.5557 7.29212C25.5557 7.29212 26.2573 7.08515 25.7877 6.35231C25.3182 5.61947 27.5714 7.14851 28.0715 7.74618C29.5466 9.51017 30.0127 11.6416 30.1592 12.5677C30.1622 12.5873 30.1842 12.5471 30.2177 12.479L30.6593 12.1015C30.6653 12.0968 31.1818 11.6612 31.7834 11.6411C32.1419 11.6448 32.6945 11.9135 33.015 12.4642C33.22 12.8175 33.3851 13.3898 33.009 14.1115C32.2729 15.5255 30.4847 15.1775 30.4102 15.1622C30.2377 15.1258 30.0637 15.2467 30.0292 15.4325C29.9952 15.6179 30.1082 15.7979 30.2842 15.8349C30.3147 15.8412 30.5788 15.8919 30.9503 15.8935L31.1198 23.3576C31.1238 23.5439 31.2688 23.6918 31.4443 23.6918H31.4518C31.6314 23.687 31.7734 23.5302 31.7689 23.3407L31.7274 21.5054C33.1115 21.809 35.7088 22.7768 39.2487 25.8634C39.9173 26.4468 40.5833 27.14 41.2314 27.9262C40.5583 31.3269 38.8222 34.2572 36.4514 36.3391C36.1174 35.2757 35.7103 33.9394 35.3573 32.7789C35.0037 31.6152 34.7057 30.6374 34.5967 30.3132C34.5372 30.1347 34.3487 30.0418 34.1826 30.1052C34.0136 30.1685 33.9251 30.3644 33.9851 30.5429C34.0931 30.8639 34.3882 31.8343 34.7392 32.9885C35.1157 34.2261 35.5568 35.6749 35.9013 36.7683C35.9028 36.772 35.9068 36.7736 35.9083 36.7778C33.6216 38.593 30.8208 39.6616 27.835 39.6616C24.6746 39.6616 21.6133 38.4642 19.1735 36.2989C19.1815 36.2826 19.1975 36.2736 19.203 36.2556C20.8532 30.6527 21.4608 27.4558 21.4663 27.4241C21.5013 27.2382 21.3873 27.0582 21.2117 27.0212C21.0322 26.9811 20.8642 27.1052 20.8302 27.2905C20.8237 27.3216 20.2231 30.4821 18.5879 36.0349C18.2719 36.1094 17.7364 36.4478 16.6102 37.1923C15.7401 37.7678 14.7535 38.4193 14.289 38.5703C13.5724 38.8031 12.9668 38.8295 12.4483 38.716C13.4289 38.6199 14.1285 38.2625 14.143 38.2546C14.205 38.2218 14.255 38.1701 14.2865 38.1057C14.331 38.0154 15.3641 35.8449 14.4845 31.7731C13.7264 28.2657 12.0602 27.4948 11.9902 27.4637C11.9357 27.4399 11.9097 27.4294 11.8502 27.4383C11.8492 27.4383 11.8197 27.4336 11.7692 27.4093C12.3298 27.0059 13.4684 26.2963 14.669 25.5476C15.8176 24.8312 17.0053 24.0909 17.7954 23.5497C20.0161 22.0307 21.9013 21.5656 23.1259 21.4489C23.2045 21.2604 23.2715 21.0513 23.2935 20.8433C23.297 20.81 23.3 20.7726 23.3035 20.7388C22.0013 20.8222 19.9251 21.2763 17.4428 22.9748C16.6637 23.5075 15.4816 24.2446 14.3385 24.9568C14.271 24.9991 14.2055 25.0402 14.1385 25.0819C14.1365 24.9806 14.1315 24.8797 14.1315 24.7784C14.1315 19.819 16.3797 15.4252 19.8231 12.7192C19.8551 13.7583 19.9321 14.819 20.0881 15.7441C20.5897 18.7097 22.4149 19.969 23.956 20.158C24.2111 20.1891 24.4581 20.2055 24.6996 20.205C25.8412 20.205 26.8358 19.8481 27.847 19.0883C28.607 18.5175 29.3541 17.6754 29.8452 16.8359C29.9387 16.6749 29.8922 16.4637 29.7392 16.3644ZM32.7988 10.9465C32.7988 10.9465 32.8048 10.9306 32.8068 10.9248C37.9108 13.0922 41.5404 18.4776 41.5404 24.7791C41.5404 25.5547 41.4709 26.3118 41.3639 27.0563C40.8058 26.4137 40.2352 25.835 39.6626 25.3356C35.8904 22.0457 33.1514 21.0732 31.7106 20.7912L31.5986 15.8435C32.2902 15.7258 33.0934 15.3736 33.5785 14.4428C33.9885 13.6545 33.985 12.8245 33.568 12.107C33.3554 11.74 33.0479 11.4359 32.7103 11.2311C32.7423 11.1513 32.7763 11.0457 32.7988 10.9465ZM74.2061 5.14323H33.5132C33.4097 4.40142 33.2051 3.66858 32.8461 3.00227C31.0319 -0.364147 28.6496 -0.102795 27.322 0.113149C25.9799 0.331206 24.7152 1.03976 24.7152 1.03976C24.7152 1.03976 23.4111 -0.0521092 21.7354 0.481153C19.8802 1.07144 19.5762 2.98854 18.5991 3.71346C17.7205 4.36499 17.1069 4.45316 17.3714 5.14323H10.6877C8.12741 5.14323 5.95367 6.89666 5.17109 9.3238C5.11158 8.99856 5.06958 8.80637 5.04607 8.75674C4.84605 8.33805 4.47901 8.12053 4.13898 8.2182C3.98746 8.26044 3.49491 8.47955 3.54491 9.50753C3.56641 9.97322 3.72093 11.5587 3.84794 12.8101C3.30738 11.4854 2.5368 9.86656 1.93474 9.66435C1.76972 9.60944 1.6007 9.63214 1.46168 9.7314C1.26816 9.86973 0.77911 10.2198 2.40229 13.9986C1.76272 13.3692 0.938127 12.6527 0.488078 12.6823C0.343562 12.6855 0.214048 12.7462 0.124038 12.8528C-0.0139768 13.017 -0.433023 13.5139 1.77372 16.1971C1.81872 16.3375 1.94424 16.7076 2.27027 17.5952C2.66331 18.6654 3.18687 19.4875 3.33389 19.7076C3.4219 20.0846 3.88995 22.1205 4.42051 24.9209C4.56202 25.6696 4.70754 26.385 4.85555 27.0719V39.32C4.85555 42.7155 7.47234 45.4774 10.6877 45.4774H17.9685C18.4845 46.5545 18.9971 47.9346 19.3276 50.4568C19.5862 52.4341 19.7252 55.7186 19.7262 55.7514L19.7487 56.2746L20.1937 56.0439C20.2687 56.0053 27.738 52.0983 33.7482 45.4774H74.2061C77.422 45.4774 80.0382 42.7155 80.0382 39.32V11.3011C80.0382 7.90564 77.422 5.14323 74.2061 5.14323Z" fill="#393F49"/>
</svg>
