<svg width="21" height="43" viewBox="0 0 21 43" fill="none" xmlns="http://www.w3.org/2000/svg">
<mask id="mask0_1_425" style="mask-type:alpha" maskUnits="userSpaceOnUse" x="0" y="0" width="21" height="43">
<path fill-rule="evenodd" clip-rule="evenodd" d="M2.55906 38.4813C2.58794 38.4924 2.58197 38.5125 2.57101 38.5289C2.56105 38.5204 2.54811 38.5114 2.52868 38.5014L2.51872 38.5072C2.53317 38.4961 2.54711 38.486 2.55906 38.4813ZM2.39217 39.2462C2.37872 39.2267 2.3588 39.205 2.33689 39.1833C2.35382 39.1541 2.38121 39.134 2.39317 39.1494C2.37125 39.1578 2.39018 39.205 2.39217 39.2462ZM0.642861 37.3932C0.691163 37.4858 0.76735 37.3731 0.837064 37.3557C0.925202 37.443 0.788762 37.4525 0.756893 37.5229C0.821627 37.5731 0.943128 37.562 0.966532 37.6139C0.951594 37.6287 0.951096 37.6424 0.924206 37.6451C1.04421 37.6599 1.05816 37.8424 1.20705 37.8477C1.20157 37.8599 1.19609 37.8689 1.18912 37.8758C1.22995 37.8271 1.27875 37.7879 1.3161 37.7646C1.34249 37.8001 1.42266 37.7863 1.36838 37.8482C1.35544 37.8244 1.32805 37.8419 1.30166 37.8461L1.35494 37.8641C1.28672 37.9683 1.28771 37.835 1.21999 37.8858C1.30116 37.9403 1.43411 37.9699 1.44706 38.0477C1.36739 38.1297 1.32655 37.9345 1.30016 38.0742L1.27377 37.9572C1.17916 38.1345 1.24638 37.8943 1.13883 38.0736C1.19559 38.2149 1.27178 38.1763 1.33203 38.3133C1.40025 38.299 1.39677 38.2461 1.46499 38.2313C1.67512 38.316 1.34946 38.5413 1.55611 38.5609C1.63678 38.5413 1.75131 38.4567 1.76077 38.5905L1.64525 38.6482C1.72293 38.7667 1.828 38.5847 1.85588 38.7572C1.8036 38.772 1.75778 38.7017 1.75978 38.7281C1.74583 38.872 1.85339 38.7302 1.89821 38.7863L1.828 38.8762C1.94302 38.971 2.11133 39.0292 2.23632 39.1302C2.20744 39.1487 2.16412 39.1545 2.1671 39.208C2.34388 39.3175 2.4614 39.5334 2.57393 39.7111L2.69245 39.6831C2.7049 39.6953 2.68996 39.7397 2.66357 39.7424C2.69892 39.8222 2.7049 39.6953 2.75619 39.6889C2.79353 39.7117 2.76515 39.7715 2.72631 39.7767C2.88217 39.7979 3.11969 39.8868 3.17347 40.0561L3.13413 40.0646C3.20235 40.1614 3.34875 39.9677 3.37963 40.1027L3.35473 40.1058C3.52503 40.2794 3.78496 40.3513 3.85816 40.5857C3.95377 40.4862 4.03046 40.7598 4.13801 40.5936C4.20773 40.7471 4.15743 40.7593 4.29338 40.9132C4.33371 40.9465 4.41587 40.8391 4.47911 40.8508L4.4348 40.9455L4.55679 40.8889L4.54186 41.0238L4.6046 41.0286C4.58667 41.0116 4.58169 40.9614 4.59763 40.936C4.69722 40.9381 4.76145 41.1121 4.74203 41.1624C4.81623 41.1741 4.8959 41.1719 4.97309 41.1751C4.95217 41.2121 4.91333 41.2106 4.87598 41.2238C5.02438 41.1725 4.85158 41.3333 4.98753 41.2862C4.98404 41.2592 5.0189 41.2323 5.02985 41.2137C5.05276 41.2931 5.16281 41.3428 5.25443 41.3539L5.21161 41.4143C5.35253 41.4968 5.53578 41.5195 5.7006 41.5936C5.6523 41.5354 5.70906 41.4238 5.76085 41.4333L5.74293 41.5465C5.7967 41.4952 5.70657 41.4846 5.7982 41.4338C5.85497 41.4725 5.7977 41.5709 5.7499 41.5894L5.83754 41.5862C5.83106 41.6195 5.80766 41.628 5.78924 41.6661C5.84202 41.6174 5.88534 41.8238 5.96999 41.7243L5.96352 41.7571C6.13432 41.8148 6.22296 41.8042 6.36338 41.8449C6.39375 41.7539 6.44156 41.7925 6.5048 41.7317C6.59642 41.7941 6.68854 41.9047 6.81353 41.9375C6.91163 41.9195 6.85984 41.8671 6.91262 41.8243C6.89669 41.9111 7.02068 41.9433 6.94151 41.9835C7.09139 42.0216 7.13471 42.0227 7.33987 41.9984C7.32742 41.9587 7.308 41.9386 7.32692 41.9121C7.36427 41.9058 7.39614 41.9661 7.3817 42.0058L7.37074 42.0126C7.60877 41.9333 7.80695 42.3772 8.01311 42.238L8.00215 42.2444L8.19436 42.1915C8.27254 42.2253 8.13461 42.2449 8.1844 42.3126C8.39902 42.2163 8.48069 42.3999 8.65298 42.3253C8.73514 42.5999 9.0862 42.3724 9.22762 42.5613L9.22613 42.4994C9.27592 42.4465 9.27244 42.5417 9.30182 42.5602C9.30381 42.5126 9.26298 42.4989 9.29335 42.4703C9.66134 42.4486 10.0214 42.6825 10.3933 42.7544C10.5293 42.7809 10.4954 42.4454 10.6558 42.6036L10.599 42.7132C10.8823 42.5983 11.1607 42.7608 11.4346 42.6655C11.4176 42.6909 11.4161 42.7248 11.3897 42.7221C11.4435 42.8116 11.5999 42.7391 11.6029 42.6687C11.6447 42.6766 11.6108 42.7296 11.6362 42.7639C11.692 42.8126 11.7816 42.6587 11.8105 42.7407C11.8155 42.7539 11.7941 42.7671 11.7831 42.7735C11.8215 42.7338 11.9574 42.7835 11.9231 42.6888C12.0236 42.7338 12.1163 42.646 12.1969 42.7026C12.2492 42.5957 12.3707 42.7534 12.3857 42.6031C12.3802 42.7581 12.5654 42.728 12.6277 42.655C12.6072 42.702 12.6839 42.7031 12.6605 42.7687C12.7342 42.7661 12.8 42.737 12.785 42.6576C12.9264 42.8475 13.0479 42.4925 13.1346 42.7269C13.3477 42.6264 13.5434 42.5539 13.7336 42.502C13.7396 42.6571 13.521 42.5348 13.5414 42.6962C13.7222 42.6174 13.8158 42.4767 14.0015 42.4989C14.0513 42.5163 13.9816 42.5682 13.9682 42.5957C14.1464 42.5232 14.3257 42.5666 14.4786 42.4576C14.4796 42.4719 14.4641 42.4904 14.4492 42.5047C14.4806 42.4941 14.5269 42.5153 14.5144 42.446L14.485 42.4703C14.4218 42.3767 14.5841 42.238 14.5821 42.1841C14.5557 42.3925 14.7485 42.2079 14.6982 42.4745C14.7171 42.4576 14.739 42.4206 14.7275 42.3745C14.7604 42.3835 14.7744 42.4089 14.7505 42.4671C14.86 42.4105 14.8082 42.3428 14.9123 42.328C14.9168 42.3613 14.8978 42.3777 14.8934 42.419C14.9357 42.3449 14.9775 42.2714 15.0696 42.2851C15.0676 42.3063 15.0821 42.3312 15.0562 42.3349C15.2061 42.3015 15.2818 42.1206 15.4541 42.1407C15.4341 42.2973 15.5188 42.1745 15.5527 42.2978L15.6328 42.2391L15.585 42.1867C15.6622 42.1703 15.7105 42.0629 15.7852 42.0872L15.7394 42.1529L15.8778 42.0941L15.7862 42.0666C15.8489 41.9835 15.7434 41.9105 15.8514 41.9206C15.834 41.9386 15.9276 41.9037 15.9844 41.9671V41.9677C16.0128 41.919 16.0412 41.8677 16.1044 41.8846C16.1288 41.9206 16.1263 42.0248 16.1422 42.0492C16.1542 41.9354 16.315 41.9788 16.3315 41.8497C16.3235 41.8804 16.3389 41.9455 16.3474 41.9571L16.3564 41.8634C16.3982 41.8783 16.4067 41.8899 16.4146 41.9433C16.5232 41.9243 16.3399 41.7978 16.4813 41.8243C16.4734 41.8343 16.4813 41.8449 16.4649 41.865C16.5989 41.8587 16.6895 41.7328 16.815 41.7359C16.8857 41.8476 16.7238 41.7989 16.7936 41.8899C16.9529 41.8105 17.0918 41.6344 17.2572 41.601L17.2233 41.6C17.1869 41.4195 17.3677 41.6359 17.419 41.5227C17.4041 41.5434 17.427 41.628 17.4255 41.6068C17.5425 41.5894 17.6296 41.473 17.7696 41.3529L17.7661 41.4042C17.8438 41.4169 17.9409 41.3576 18.0165 41.3481C18.019 41.2973 18.0589 41.2836 18.0106 41.2338C18.3178 41.3725 18.3377 40.9085 18.6081 41.0169C18.5867 41.0286 18.5743 41.0799 18.5912 41.0714L18.7266 40.954C18.6798 40.8905 18.6853 40.9217 18.627 40.8836C18.626 40.8323 18.6519 40.7778 18.6883 40.755C18.6455 40.8413 18.7446 40.8677 18.7934 40.8894C18.7774 40.8709 18.7749 40.8407 18.762 40.8206C18.9019 40.8984 18.7032 40.6725 18.8501 40.6936L18.8636 40.7333C18.8934 40.691 18.9034 40.6212 18.9512 40.6063C19.011 40.6757 18.9293 40.6688 18.9612 40.736C19.0194 40.6958 18.997 40.5148 19.0936 40.5619C19.0812 40.5989 19.0448 40.6212 19.0314 40.6582C19.1409 40.7164 19.135 40.6884 19.1872 40.6767L19.1818 40.6772L19.3067 40.6582L19.2669 40.6487C19.2261 40.4016 19.3944 40.5122 19.4118 40.3138C19.3939 40.5037 19.4397 40.3974 19.4855 40.4894C19.5249 40.4968 19.5801 40.4974 19.5836 40.5296C19.5866 40.427 19.6961 40.5302 19.6971 40.3825C19.7176 40.4085 19.7484 40.3508 19.7828 40.4275C19.8291 40.364 19.737 40.3894 19.72 40.3513C19.7519 40.1968 20.0109 40.3069 20.0512 40.0778C20.1229 39.9376 20.0806 39.836 20.1428 39.7085C20.2071 39.7217 20.1886 39.8275 20.1886 39.8275C20.2698 39.8191 20.3051 39.7757 20.331 39.7027C20.339 39.7339 20.3644 39.7434 20.4023 39.7588C20.4371 39.7159 20.3544 39.6418 20.4371 39.6323C20.4515 39.6683 20.4764 39.7238 20.4799 39.7699C20.5083 39.7027 20.5178 39.617 20.5442 39.5466C20.594 39.5773 20.5726 39.6408 20.5785 39.6852C20.6169 39.6133 20.6836 39.5085 20.6398 39.4265L20.5845 39.436C20.6004 39.4138 20.6458 39.4836 20.6423 39.5101C20.6433 39.6085 20.5571 39.5514 20.5332 39.5291L20.5526 39.4805C20.3958 39.3704 20.4391 39.6318 20.3604 39.6857L20.3022 39.5514L20.3037 39.7053C20.2663 39.69 20.2075 39.6376 20.2285 39.5916C20.1378 39.581 20.216 39.6693 20.1269 39.6461C20.1154 39.6402 20.1129 39.6334 20.1139 39.6249L20.0915 39.7006C20.0831 39.6688 20.0243 39.6286 20.0656 39.6191C19.9327 39.6281 19.985 39.8185 19.8904 39.7603L19.8928 39.7476C19.7962 39.8842 19.9406 39.8402 19.9157 40.0138L19.7091 39.8545L19.7549 39.9492C19.7405 39.9561 19.7106 39.9699 19.6927 39.9323C19.6842 40.0281 19.726 39.9625 19.7345 40.0397C19.6215 40.0101 19.5811 40.2021 19.479 40.0746C19.4975 40.1572 19.5727 40.0826 19.5328 40.1767C19.4193 40.0408 19.4691 40.2577 19.368 40.2302C19.3381 40.1397 19.4183 40.1423 19.3177 40.1132C19.3625 40.2699 19.1872 40.1635 19.1539 40.2228C19.2146 40.3333 19.0692 40.3365 19.003 40.4238C18.9886 40.3847 18.8088 40.4624 18.7092 40.4704L18.7017 40.4508C18.7441 40.5704 18.6499 40.5995 18.6016 40.6587C18.5708 40.5905 18.5683 40.5577 18.5862 40.5085L18.5299 40.5429C18.5349 40.5868 18.525 40.6138 18.4941 40.646L18.4677 40.555C18.3935 40.5984 18.3586 40.7333 18.2332 40.728C18.2625 40.81 18.4144 40.9069 18.3308 41.0148C18.3073 40.9741 18.2705 40.9026 18.2904 40.8709C18.2834 40.8815 18.274 40.9233 18.2471 40.9143L18.2566 40.8206C18.1968 40.8122 18.26 40.8931 18.2202 40.9053C18.1933 40.8434 18.1734 40.8751 18.157 40.8238C18.1639 40.8132 18.2003 40.8328 18.2038 40.8016C18.1575 40.8116 18.0917 40.8005 18.0554 40.7624C18.0738 40.7958 18.0912 40.845 18.0648 40.8682C17.9887 40.9127 18.0061 40.8074 17.9473 40.7989C17.9468 40.8513 17.8796 40.8317 17.917 40.9254C17.8935 40.9365 17.8716 40.8952 17.8522 40.8746C17.8288 40.9349 17.6645 40.9677 17.7506 41.0481L17.7641 41.0502L17.7586 41.0571H17.7591H17.7586C17.658 41.2074 17.4543 41.1227 17.3343 41.2196L17.3229 41.1878C17.2557 41.2582 17.1511 41.2846 17.1157 41.3777C17.0913 41.3862 17.0386 41.3386 17.0366 41.2968C16.9813 41.3423 16.9853 41.3804 16.8772 41.3582C16.923 41.2809 16.8394 41.3153 16.929 41.2952C16.8384 41.2947 16.804 41.2487 16.7428 41.3661C16.7478 41.2735 16.6502 41.2825 16.6183 41.3201L16.6935 41.3603C16.6536 41.3867 16.6128 41.392 16.572 41.3984L16.561 41.282C16.3588 41.2026 16.3225 41.6105 16.1353 41.4254C16.1099 41.5158 16.2408 41.4534 16.2234 41.5545C16.1417 41.5645 16.0197 41.4222 15.9953 41.4285C15.8743 41.3936 15.9341 41.6148 15.8111 41.601C15.8345 41.637 15.8728 41.7391 15.7957 41.7973C15.7125 41.8026 15.6617 41.655 15.7045 41.6111C15.723 41.6026 15.7344 41.6132 15.7369 41.6269C15.7593 41.6063 15.7882 41.5809 15.7479 41.546L15.7464 41.5878C15.6986 41.5566 15.5915 41.5878 15.603 41.5158C15.5522 41.5682 15.5915 41.5878 15.6403 41.5973C15.5268 41.5645 15.4819 41.6344 15.3709 41.6211C15.3913 41.6391 15.4157 41.682 15.3993 41.6857C15.2375 41.674 15.347 41.7777 15.2464 41.8211C15.1757 41.773 15.2414 41.6735 15.1448 41.7439C15.0736 41.7127 15.113 41.6396 15.1324 41.6031C15.0502 41.6957 14.9452 41.5809 14.8889 41.5756L14.9337 41.5349C14.9068 41.5587 14.8824 41.5624 14.857 41.5661L14.8988 41.6418C14.8675 41.6328 14.8421 41.6365 14.8371 41.6026C14.8152 41.6603 14.8819 41.7328 14.8326 41.8148C14.7868 41.7799 14.7181 41.8777 14.6882 41.7735C14.8182 41.7894 14.6588 41.6682 14.7609 41.6338C14.743 41.6502 14.7181 41.6539 14.6862 41.6444C14.6802 41.6333 14.6872 41.6217 14.6942 41.6137C14.5622 41.5375 14.6583 41.7439 14.5343 41.7613C14.5413 41.6984 14.49 41.6513 14.4721 41.6672C14.5214 41.6608 14.5094 41.7645 14.4701 41.8179C14.3845 41.7836 14.3884 41.8666 14.3461 41.8682L14.3959 41.8825C14.3879 41.9455 14.3471 41.9439 14.2933 41.9724C14.2834 41.9259 14.3401 41.9317 14.3177 41.9142C14.2689 42.0306 14.1663 41.8264 14.0887 41.9121C14.0439 41.8751 14.0727 41.7989 14.0349 41.774C13.9463 41.8603 13.9219 41.6994 13.8277 41.7719C13.8641 41.8513 13.8681 41.8312 13.8033 41.9164L13.9652 41.8455L13.8696 41.9724C13.9199 41.9698 13.9711 41.9126 14.0025 41.9243C13.9587 41.9947 13.9612 41.974 13.9926 42.0396C13.9109 41.9232 13.8611 42.1222 13.773 42.046L13.757 41.8433C13.6305 41.7634 13.5529 41.9645 13.393 41.9264L13.4453 41.9571C13.4304 42.0396 13.3497 41.9761 13.3014 42.0132C13.3019 41.9449 13.269 41.9227 13.2446 41.8825C13.2506 41.9322 13.1306 41.8873 13.1236 42.0232L13.0494 41.9402C12.9225 41.9116 12.914 42.1497 12.7905 42.1248C12.8244 42.0507 12.7681 42.0031 12.8473 41.9502C12.8069 41.9497 12.7701 41.937 12.7711 41.9841C12.7462 41.9417 12.6605 42.0756 12.6217 42.0111C12.6053 42.0412 12.6013 42.1121 12.555 42.1063C12.5495 42.0925 12.5545 42.073 12.5545 42.073C12.555 42.1063 12.4838 42.1185 12.5251 42.1936C12.3961 41.982 12.172 42.2089 12.0625 42.0275C11.9733 42.0507 11.8658 42.0724 11.7851 42.0772C11.7906 42.0571 11.7861 42.0439 11.8016 42.0507C11.6915 41.9878 11.7279 42.2454 11.6024 42.1751C11.5406 42.0656 11.6716 42.1158 11.6322 42.0745C11.6213 41.8545 11.4784 42.1031 11.3982 41.9634L11.4191 41.9518C11.3574 41.8714 11.2573 42.0243 11.1517 41.9999C11.1517 41.9999 11.1577 41.9809 11.1537 41.9666C11.0755 42.0745 10.9346 42.1015 10.8295 42.1253C10.8679 42.0407 10.8793 42.083 10.8659 41.9925C10.8191 42.0015 10.8699 42.1359 10.7763 42.1534C10.7494 42.1036 10.6856 42.0571 10.6841 41.9619L10.7708 41.9634C10.7354 41.838 10.6592 41.9592 10.6154 41.9343L10.6249 41.8814C10.4919 41.8888 10.479 42.0227 10.3371 42.0026L10.3485 42.0439C10.2584 42.1714 10.2898 41.9645 10.2031 42.0571L10.1922 41.9206C10.1379 41.9523 9.99945 42.0322 9.90484 42.0423C9.96808 41.9486 10.0801 41.9195 10.1523 41.8624C10.101 41.8608 9.98003 41.8486 9.94667 41.9121C9.96808 41.9026 9.99746 41.8735 10.0154 41.8973C9.94219 41.9936 9.85405 42.0333 9.75346 42.0158C9.80127 41.7576 9.49801 41.9095 9.45071 41.6963C9.26049 41.7661 9.10512 41.6021 8.89748 41.5862C8.9393 41.7994 8.83573 41.583 8.81631 41.792C8.76651 41.7978 8.74859 41.7915 8.7461 41.7777L8.61962 41.6317C8.59472 41.5666 8.6724 41.5931 8.67589 41.546C8.57331 41.5143 8.64601 41.4518 8.58625 41.3862C8.58725 41.4635 8.53198 41.4852 8.47919 41.4428L8.54492 41.5571C8.38159 41.6333 8.45081 41.355 8.28748 41.4296L8.34474 41.3756C8.26358 41.3963 8.07286 41.3106 7.9663 41.4582C7.95833 41.4317 7.95236 41.3714 7.98771 41.364C7.81741 41.2984 7.55349 41.4465 7.43797 41.3132L7.46336 41.2666C7.42651 41.273 7.38319 41.3465 7.35332 41.2867C7.36078 41.2666 7.37921 41.2402 7.36427 41.2338C7.34286 41.246 7.25372 41.3031 7.21887 41.2571L7.26966 41.2137C7.11828 41.0926 6.97537 41.2629 6.82249 41.2487C6.86333 41.1042 6.74382 41.0127 6.68506 40.9677L6.69402 40.9481C6.5043 40.8656 6.32454 40.9571 6.12187 40.9518C6.0651 40.7518 5.7743 40.7238 5.63288 40.5624C5.64931 40.5995 5.58557 40.6693 5.54872 40.6693C5.51885 40.6227 5.39485 40.7148 5.45361 40.591L5.46756 40.5995C5.48747 40.4614 5.39087 40.4577 5.32614 40.4254L5.24447 40.5857C5.17227 40.282 4.76693 40.4344 4.7744 40.1788C4.71465 40.1968 4.66585 40.1688 4.60609 40.1863L4.6519 40.1021C4.5543 40.0185 4.50551 39.9773 4.3596 39.9212L4.41986 39.8767C4.34716 39.8307 4.1898 40.0625 4.12009 40.0191L4.17088 39.881C4.0429 39.7931 3.98365 39.5984 3.79094 39.6201C3.80389 39.6043 3.83028 39.5725 3.85368 39.5815C3.79592 39.5365 3.67989 39.3418 3.59126 39.5186C3.65948 39.4149 3.46976 39.417 3.37614 39.4027L3.44088 39.3355C3.31738 39.3863 3.29597 39.4112 3.20086 39.3725C3.1904 39.3471 3.23024 39.299 3.2392 39.3387C3.20982 39.2482 3.13961 39.3694 3.09729 39.2667L3.16053 39.2424C3.10376 39.1842 3.08882 39.2138 3.01214 39.2397C2.95039 39.235 2.90956 39.1202 2.95437 39.0466C2.91404 39.0799 2.83636 39.1038 2.81544 39.0535C2.83088 39.0249 2.85677 39.0212 2.86972 39.0196C2.80897 38.8831 2.65659 38.9577 2.65062 38.8233C2.66954 38.799 2.67552 38.7831 2.67602 38.7704C2.74921 38.8498 2.80548 38.9165 2.79552 38.9154C2.8508 38.8498 2.802 38.7773 2.92599 38.736C2.83785 38.7366 2.66257 38.7561 2.6312 38.6646C2.63369 38.6556 2.63668 38.6466 2.64365 38.635L2.6556 38.6345C2.64863 38.6138 2.6312 38.6075 2.61028 38.6059C2.60082 38.5763 2.59634 38.5567 2.57941 38.5371C2.62174 38.4784 2.53858 38.4387 2.51119 38.4054C2.44795 38.4752 2.41957 38.4234 2.40214 38.517C2.40214 38.507 2.41558 38.5149 2.43849 38.5329C2.44496 38.5355 2.45094 38.5398 2.45791 38.5392L2.44994 38.5429C2.47086 38.5625 2.49775 38.5874 2.52812 38.6159C2.47235 38.626 2.41957 38.6286 2.42256 38.5567C2.36479 38.5837 2.30454 38.6101 2.27466 38.6207C2.32396 38.4837 2.29558 38.3525 2.34587 38.2821C2.22636 38.2154 2.12976 38.0646 1.94551 38.1144C1.90468 38.099 1.95597 38.0472 1.96792 38.0181C1.99481 38.0234 2.00925 38.0456 2.03515 38.0382C1.95448 38.0086 1.88327 37.8752 1.7777 37.9387C1.76127 37.8271 1.89422 37.9117 1.8031 37.8165L1.84244 37.808C1.85937 37.4763 1.35394 37.6451 1.40722 37.2504C1.40424 37.2763 1.40324 37.2895 1.3883 37.3043C1.31709 36.962 0.967528 36.7546 0.991928 36.3737C0.982965 36.2753 0.914745 36.297 0.839554 36.2684L0.922214 36.2091L0.783783 36.1642C0.655808 36.0637 0.919725 35.852 0.72353 35.743L0.668257 35.7869C0.661285 35.7229 0.571155 35.6081 0.646347 35.5949C0.632902 35.5928 0.575139 35.5959 0.602029 35.5621L0.65033 35.5446L0.527833 35.4203C0.535801 35.296 0.725024 35.3827 0.700126 35.2192C0.667261 35.1637 0.522356 35.0843 0.492478 35.1092C0.493972 35.133 0.471066 35.1764 0.421769 35.1891L0.385418 35.1356C0.236031 35.1505 0.0712077 35.1134 0 35.3108L0.113036 35.4028L0.0497956 35.4573L0.0253958 35.3626C-0.0298774 35.4325 0.0358528 35.4547 0.0856484 35.4801C0.0502935 35.4986 0.0278855 35.5208 0.0194203 35.5467L0.185738 35.6134C0.132456 35.6436 0.0607506 35.5986 0.0483017 35.6806C0.124987 35.7108 0.162832 35.5944 0.225574 35.6631C0.173787 35.7346 0.116024 35.7377 0.190219 35.7785C0.15586 35.7991 0.128473 35.7943 0.104571 35.7758C0.165321 35.8145 0.167313 35.9102 0.251966 35.9102C0.188725 35.9917 0.328651 36.079 0.192709 36.1256C0.22906 36.1308 0.331639 36.1748 0.354545 36.2192C0.162832 36.1991 0.412308 36.3986 0.235035 36.4499C0.399859 36.452 0.386414 36.6541 0.517376 36.7234C0.503433 36.7229 0.475548 36.7224 0.478536 36.7091C0.494968 36.7758 0.461605 36.8155 0.454136 36.8689C0.572151 36.8176 0.641367 36.8991 0.734485 36.9112C0.66029 37.0456 0.581115 36.9382 0.487997 37.0186C0.577629 36.9652 0.639873 37.1001 0.703114 37.0313C0.662779 37.1266 0.696142 37.098 0.618959 37.18C0.762868 37.1091 0.670747 37.2181 0.780795 37.2133C0.756893 37.3334 0.663277 37.3123 0.753905 37.3742C0.735481 37.4424 0.642861 37.3932 0.642861 37.3932Z" fill="white"/>
<path fill-rule="evenodd" clip-rule="evenodd" d="M17.951 2.33248C17.939 2.35682 17.9226 2.34518 17.9101 2.33036C17.9186 2.32242 17.927 2.31289 17.938 2.29807L17.9345 2.28643C17.9415 2.30337 17.948 2.31924 17.951 2.33248ZM17.3546 1.94419C17.3715 1.93731 17.3899 1.92513 17.4094 1.91084C17.4308 1.93572 17.4432 1.968 17.4303 1.97488C17.4258 1.9516 17.3869 1.9553 17.3546 1.94419ZM18.8193 0.6513C18.7531 0.688864 18.8472 0.77775 18.8676 0.849705C18.8079 0.928009 18.7885 0.790448 18.7312 0.750238C18.6988 0.808966 18.7173 0.932242 18.6789 0.950231C18.6665 0.933829 18.656 0.931713 18.6515 0.903672C18.649 1.02219 18.5026 1.00049 18.5056 1.14758C18.4962 1.1407 18.4887 1.13276 18.4827 1.12536C18.5226 1.17403 18.5554 1.22853 18.5753 1.26927C18.5479 1.28937 18.5614 1.37191 18.5106 1.30736C18.529 1.29837 18.5146 1.26874 18.5101 1.24123L18.4982 1.29096C18.414 1.20578 18.5191 1.22959 18.4762 1.15393C18.4369 1.2243 18.417 1.35233 18.3557 1.3518C18.29 1.25816 18.4409 1.25128 18.3313 1.20049L18.422 1.19467C18.2805 1.07033 18.4703 1.17879 18.3269 1.04123C18.2188 1.07033 18.2532 1.1571 18.1461 1.1862C18.1571 1.25445 18.1994 1.26398 18.2103 1.33223C18.1391 1.51476 17.9643 1.14599 17.9469 1.34122C17.9614 1.42376 18.0246 1.5555 17.9195 1.53328L17.8772 1.40577C17.7831 1.45286 17.921 1.60047 17.7861 1.58566C17.7761 1.53063 17.8329 1.50312 17.812 1.49836C17.7004 1.44968 17.807 1.58989 17.7617 1.62005L17.694 1.52693C17.6103 1.6047 17.5495 1.7428 17.4599 1.83115C17.4475 1.79782 17.4465 1.75496 17.4041 1.74174C17.306 1.8793 17.1243 1.91898 16.9644 1.94702L16.9694 2.06395C16.958 2.0703 16.9251 2.04014 16.9266 2.01527C16.8589 2.01739 16.958 2.0703 16.955 2.1195C16.9316 2.14437 16.8888 2.09675 16.8903 2.05919C16.8499 2.18987 16.7483 2.38457 16.6029 2.35865L16.6044 2.32108C16.5138 2.33748 16.6363 2.54806 16.5228 2.51631L16.5257 2.49303C16.3525 2.5634 16.2389 2.76022 16.0452 2.7216C16.103 2.85651 15.8645 2.77927 15.9655 2.95122C15.8266 2.9327 15.8311 2.88508 15.6757 2.92C15.6384 2.93693 15.6981 3.05862 15.6708 3.10465L15.6115 3.02L15.62 3.15015L15.5219 3.07026L15.501 3.12052C15.5189 3.11418 15.5577 3.13481 15.5732 3.16073C15.5433 3.24433 15.3944 3.20994 15.363 3.16761L15.2799 3.34538C15.2589 3.30888 15.2729 3.27925 15.2754 3.24327C15.2644 3.38665 15.1997 3.16444 15.1897 3.29512C15.2121 3.30782 15.2211 3.34962 15.2311 3.36761C15.1628 3.34221 15.0881 3.40094 15.0488 3.46549L15.0179 3.39935C14.9084 3.46231 14.8287 3.59194 14.7202 3.68241C14.7784 3.67712 14.8422 3.78505 14.8173 3.82103L14.7401 3.74272C14.7595 3.81468 14.7978 3.74854 14.8043 3.85119C14.756 3.87447 14.7037 3.77288 14.7057 3.72474L14.6788 3.79669C14.6569 3.77235 14.6584 3.74907 14.6365 3.71257C14.6564 3.78452 14.4861 3.69511 14.5265 3.81468L14.5045 3.79087C14.3945 3.88081 14.3676 3.95224 14.282 4.03054C14.3367 4.10779 14.2894 4.11996 14.3088 4.20303C14.2252 4.23212 14.1092 4.2353 14.0375 4.30884C14.0116 4.39349 14.0698 4.38662 14.0798 4.45222C14.0235 4.38715 13.9513 4.46069 13.9538 4.37709C13.8701 4.46915 13.8457 4.49402 13.7716 4.65116C13.8064 4.66809 13.8298 4.66756 13.8403 4.69719C13.8283 4.72682 13.7701 4.71094 13.7481 4.6755V4.66386C13.6969 4.87866 13.2895 4.73158 13.2995 4.96755V4.95538L13.2517 5.12521C13.1939 5.15908 13.2407 5.0485 13.171 5.04056C13.1471 5.25696 12.9773 5.19082 12.943 5.35166C12.7094 5.22362 12.6945 5.60509 12.4963 5.56277L12.5396 5.60403C12.5516 5.67123 12.4873 5.60456 12.4609 5.60985C12.4923 5.64371 12.5217 5.62731 12.5262 5.66647C12.3584 5.9109 12.0327 5.98656 11.7847 6.13417C11.6961 6.19131 11.9236 6.42252 11.7379 6.39713L11.7011 6.28232C11.6154 6.52728 11.3555 6.54368 11.2554 6.76537C11.2504 6.73627 11.2325 6.70876 11.2484 6.69659C11.1682 6.65638 11.1169 6.79182 11.1533 6.84738C11.1229 6.86113 11.1145 6.8024 11.0796 6.78653C11.0184 6.7733 11.0487 6.93997 10.986 6.88706C10.9755 6.87859 10.9815 6.85743 10.9845 6.84738C10.983 6.89764 10.8725 6.91986 10.9452 6.98176C10.859 6.99182 10.8481 7.10821 10.7689 7.09922C10.7913 7.21138 10.6314 7.12885 10.6982 7.26218C10.623 7.12885 10.5204 7.23043 10.5154 7.31932C10.5055 7.27011 10.4552 7.30133 10.4387 7.23572C10.3929 7.26747 10.3645 7.31985 10.4118 7.38228C10.2351 7.27964 10.3098 7.62407 10.1464 7.45053C10.0458 7.61031 9.94675 7.75422 9.82824 7.85051C9.7635 7.7119 9.96717 7.76004 9.886 7.61772C9.79388 7.74364 9.77894 7.89655 9.63852 7.93094C9.59768 7.92935 9.62756 7.86163 9.62706 7.832C9.52996 7.95527 9.38157 7.94734 9.30538 8.08278C9.29991 8.06955 9.30538 8.04892 9.31186 8.03199C9.29194 8.04839 9.2521 8.03887 9.28298 8.10077L9.29642 8.0722C9.37311 8.14574 9.29493 8.31187 9.31136 8.3632C9.26903 8.16056 9.1809 8.37642 9.14056 8.11294C9.1311 8.13252 9.12612 8.17273 9.14753 8.21399C9.12114 8.21294 9.10321 8.19124 9.10421 8.13093C9.04047 8.20606 9.09624 8.25791 9.02205 8.28912C9.0096 8.25791 9.01956 8.23939 9.01209 8.19971C9.00014 8.2759 8.98719 8.35314 8.91399 8.35314C8.91001 8.33251 8.89308 8.31082 8.912 8.30394C8.80942 8.3579 8.791 8.5452 8.65007 8.53568C8.63514 8.38277 8.59381 8.50711 8.54501 8.39018L8.49471 8.45261L8.54052 8.50023C8.48426 8.52139 8.46483 8.63038 8.40359 8.61081L8.42848 8.54361C8.39662 8.5653 8.36475 8.59017 8.33188 8.60869L8.40608 8.63144C8.36972 8.71662 8.46334 8.78487 8.3757 8.77747C8.38765 8.76001 8.31644 8.7944 8.26416 8.73249L8.26466 8.73197C8.24822 8.77958 8.2308 8.82985 8.17851 8.81291C8.1556 8.778 8.14714 8.67535 8.1322 8.65154C8.13469 8.76265 8.00672 8.72244 8.00174 8.84307C8.00622 8.81344 7.98879 8.7489 7.98182 8.73673L7.98132 8.82773C7.94696 8.80974 7.93999 8.7981 7.93003 8.74519C7.84588 8.75472 7.99775 8.89334 7.88422 8.8563C7.8897 8.84678 7.88272 8.83514 7.89517 8.81768C7.7906 8.81133 7.72437 8.93302 7.62528 8.91344C7.57001 8.79545 7.69499 8.86371 7.64072 8.7653C7.52071 8.81821 7.40817 8.9727 7.27671 8.97058L7.30261 8.97958C7.31754 9.16211 7.19306 8.91132 7.14575 9.0092C7.1587 8.99227 7.14923 8.90497 7.14874 8.92561C7.0591 8.91503 6.98342 9.01079 6.85743 9.07798L6.86789 9.02984C6.81212 8.99386 6.73145 9.02084 6.67468 9.0055C6.66273 9.05365 6.63086 9.04941 6.65576 9.11555C6.46753 8.8727 6.33707 9.29332 6.17573 9.06793C6.19366 9.06687 6.21756 9.02614 6.20312 9.02614L6.07564 9.07111C6.0866 9.15047 6.09307 9.11872 6.12046 9.1801C6.10452 9.22771 6.06767 9.26475 6.03481 9.26475C6.09407 9.21131 6.03431 9.13724 6.01041 9.09333C6.0139 9.11767 6.00543 9.14465 6.00742 9.16952C5.94119 9.02931 5.99348 9.3293 5.90136 9.23512L5.90683 9.19385C5.87198 9.2166 5.83762 9.27004 5.80027 9.25364C5.78832 9.16105 5.83911 9.21449 5.84409 9.13883C5.7928 9.13989 5.73205 9.3039 5.68923 9.20867C5.71313 9.18486 5.745 9.1875 5.7684 9.1637C5.72259 9.05206 5.71612 9.07851 5.67877 9.05841L5.68275 9.06105L5.5991 9.0055L5.61902 9.03619C5.53436 9.26898 5.48407 9.06899 5.379 9.21713C5.48208 9.07746 5.40241 9.13301 5.42133 9.03037C5.40191 9.00127 5.37352 8.96159 5.38647 8.9346C5.33568 9.01079 5.32921 8.85736 5.25601 8.96846C5.2585 8.93513 5.21368 8.95788 5.23559 8.8764C5.18032 8.89334 5.23858 8.93619 5.22812 8.97693C5.12753 9.07164 5.0628 8.81503 4.92088 8.93355C4.80834 8.97005 4.76303 9.07428 4.65298 9.10285C4.63505 9.04307 4.71025 8.99227 4.71025 8.99227C4.67141 8.93302 4.63356 8.92825 4.5763 8.94783C4.59372 8.92349 4.59074 8.89651 4.58775 8.85577C4.54891 8.85101 4.527 8.96265 4.49314 8.89863C4.51306 8.86635 4.54144 8.81344 4.57032 8.78382C4.51853 8.7981 4.45629 8.84201 4.40102 8.85418C4.40848 8.79545 4.45728 8.78064 4.48517 8.75048C4.42591 8.76001 4.34375 8.74731 4.29346 8.82667L4.31338 8.87164C4.29346 8.86794 4.3323 8.79387 4.35122 8.78382C4.41795 8.73514 4.40002 8.84043 4.39205 8.87323L4.35321 8.87905C4.31935 9.07957 4.49613 8.8981 4.55488 8.93249L4.48467 9.05788L4.58775 8.96952C4.59123 9.01026 4.57928 9.09015 4.53995 9.09862C4.56982 9.18274 4.59671 9.06635 4.61812 9.1547C4.61962 9.1674 4.61563 9.17375 4.60966 9.17745L4.66941 9.14994C4.65248 9.17639 4.65248 9.24941 4.62709 9.22137C4.6968 9.32507 4.7954 9.15576 4.80386 9.26951L4.7944 9.27639C4.92785 9.26211 4.82976 9.17745 4.94528 9.08169L4.95574 9.34887L4.98811 9.24835C5.00006 9.25417 5.02396 9.26634 5.01201 9.30655C5.07226 9.24465 5.01201 9.26052 5.05184 9.19862C5.09666 9.30337 5.22563 9.18433 5.21517 9.35205C5.24854 9.27692 5.16538 9.28062 5.23858 9.23724C5.2326 9.41871 5.31825 9.22031 5.36356 9.31184C5.33518 9.40072 5.28638 9.34253 5.33369 9.43459C5.38647 9.28539 5.44224 9.47903 5.49453 9.45416C5.50847 9.33036 5.60458 9.41131 5.68823 9.37639C5.68026 9.41501 5.83712 9.46316 5.91231 9.50284L5.90982 9.524C5.92775 9.39755 6.00493 9.4203 6.0617 9.39385C6.05921 9.46951 6.04925 9.49913 6.01738 9.53352L6.07216 9.53194C6.0846 9.49173 6.10104 9.47003 6.1354 9.45522L6.12295 9.54993C6.19664 9.54358 6.26536 9.4367 6.35997 9.49808C6.36047 9.41025 6.27881 9.2547 6.36944 9.19491C6.37491 9.24253 6.38288 9.32348 6.35898 9.34305C6.36645 9.33671 6.38587 9.30337 6.4033 9.32348L6.36894 9.4039C6.41226 9.43776 6.38736 9.33829 6.42073 9.34253C6.42371 9.41025 6.44712 9.38803 6.44612 9.44252C6.43766 9.4494 6.41575 9.41871 6.40429 9.44464C6.44264 9.45416 6.48994 9.48855 6.50837 9.53829C6.50289 9.50019 6.50289 9.44728 6.52928 9.43564C6.59949 9.42242 6.55965 9.51395 6.60397 9.54411C6.61742 9.49543 6.66771 9.53881 6.65974 9.43776C6.68066 9.43617 6.68863 9.48273 6.69908 9.50919C6.73245 9.46051 6.87088 9.47691 6.8176 9.3748L6.80714 9.36845C6.80714 9.36845 6.81013 9.36581 6.81262 9.36369C6.91968 9.25152 7.06857 9.39543 7.17861 9.32242L7.18409 9.35575C7.24783 9.30284 7.33647 9.3002 7.37232 9.21872C7.39274 9.21396 7.43207 9.26898 7.43108 9.31025C7.47988 9.27374 7.47789 9.23565 7.56652 9.27374C7.52469 9.34305 7.5959 9.32083 7.52021 9.32771C7.5954 9.34147 7.62379 9.39067 7.67856 9.28486C7.67109 9.37374 7.75624 9.38221 7.78263 9.34464L7.71989 9.29755C7.75475 9.27798 7.78761 9.27269 7.82197 9.27004L7.83094 9.38644C8.00771 9.47585 8.02414 9.07851 8.19195 9.26845C8.20789 9.1801 8.10083 9.23883 8.1088 9.13883C8.17652 9.13301 8.28955 9.26845 8.31047 9.26263C8.41803 9.29438 8.34483 9.07746 8.4494 9.0891C8.4255 9.0547 8.38168 8.95471 8.43795 8.89704C8.50368 8.88699 8.56642 9.02666 8.53803 9.07428C8.52359 9.08381 8.51264 9.07481 8.50915 9.06158C8.49372 9.08328 8.47131 9.10761 8.51015 9.142L8.50617 9.10021C8.54998 9.12825 8.63464 9.08645 8.63613 9.1584C8.67099 9.10179 8.63464 9.08698 8.59331 9.08169C8.6919 9.10338 8.71879 9.0309 8.8144 9.03301C8.79349 9.01714 8.7661 8.97799 8.77904 8.9727C8.91648 8.96846 8.80593 8.87799 8.88063 8.8272C8.94835 8.86529 8.91548 8.97217 8.97922 8.8891C9.04446 8.90656 9.02852 8.98434 9.02006 9.02349C9.06786 8.91926 9.1804 9.01132 9.2292 9.00603L9.20181 9.05365C9.21824 9.02508 9.23816 9.01714 9.25858 9.0092L9.2053 8.94413C9.23368 8.94677 9.2541 8.93884 9.26654 8.97005C9.27003 8.9108 9.19733 8.85365 9.21725 8.76636C9.26405 8.79069 9.29393 8.68646 9.34622 8.77958C9.23467 8.78858 9.399 8.87429 9.32281 8.92561C9.33377 8.90709 9.35319 8.89968 9.38257 8.90233C9.39103 8.91185 9.38805 8.92402 9.38356 8.93302C9.51353 8.97587 9.37858 8.80022 9.4727 8.75366C9.48465 8.81503 9.53992 8.84678 9.55038 8.82667C9.51204 8.84625 9.49212 8.74413 9.50755 8.68382C9.58573 8.69493 9.55785 8.61715 9.59071 8.60604L9.5464 8.60446C9.53395 8.54308 9.56631 8.53462 9.59968 8.49547C9.62258 8.53673 9.57577 8.54467 9.59918 8.55578C9.60017 8.43515 9.74807 8.60022 9.78243 8.50129C9.82923 8.52245 9.83322 8.60234 9.87156 8.61345C9.9104 8.50446 9.98609 8.64573 10.0344 8.54679C9.97613 8.48594 9.98161 8.50552 9.99954 8.40658L9.90044 8.52404L9.92833 8.37589C9.89048 8.39441 9.87206 8.46372 9.84368 8.46319C9.85264 8.3833 9.85762 8.40393 9.81031 8.35261C9.91438 8.43462 9.87953 8.23569 9.97414 8.27801L10.0623 8.4579C10.1917 8.48806 10.1768 8.28595 10.3078 8.25685L10.2565 8.24891C10.2341 8.16902 10.3192 8.19548 10.3391 8.14416C10.3675 8.205 10.4014 8.21188 10.4362 8.23886C10.4108 8.19601 10.5199 8.19019 10.4651 8.06691L10.5567 8.11241C10.6638 8.08596 10.5647 7.8812 10.6603 7.84628C10.6708 7.92564 10.7335 7.94152 10.7017 8.02353C10.731 8.00554 10.7624 7.99972 10.74 7.95898C10.7778 7.98437 10.7734 7.83041 10.8316 7.86797C10.8286 7.83517 10.7973 7.77274 10.8316 7.75687C10.8421 7.76639 10.8481 7.78544 10.8481 7.78544C10.8316 7.75687 10.8749 7.71454 10.8092 7.66904C11.0039 7.79073 11.0452 7.50185 11.2091 7.59391C11.2559 7.53042 11.3151 7.45794 11.3654 7.41349C11.3729 7.43307 11.3839 7.44153 11.3694 7.44365C11.477 7.43889 11.3097 7.24895 11.4307 7.24366C11.5327 7.30027 11.4192 7.32567 11.4675 7.33942C11.601 7.51243 11.5522 7.23731 11.6801 7.30027L11.6737 7.32143C11.7588 7.34947 11.7324 7.17223 11.8116 7.13149C11.8116 7.13149 11.8191 7.15001 11.83 7.15901C11.8146 7.03044 11.8833 6.9315 11.9326 6.85531C11.9615 6.94049 11.9281 6.91563 11.9919 6.97594C12.0148 6.94261 11.9017 6.8696 11.947 6.80399C11.9948 6.8278 12.0606 6.82463 12.1203 6.89446L12.0685 6.94473C12.1686 7.01986 12.1363 6.88018 12.1776 6.87277L12.205 6.91774C12.2777 6.83097 12.2 6.7241 12.2946 6.6532L12.2613 6.62992C12.2314 6.48284 12.3464 6.65267 12.3359 6.53257L12.4311 6.62516C12.4435 6.5712 12.4649 6.42411 12.5062 6.35427C12.5346 6.46009 12.4983 6.55956 12.4918 6.64262C12.5247 6.61511 12.5944 6.53945 12.5705 6.47332C12.566 6.49448 12.5695 6.53416 12.5446 6.5294C12.5197 6.41247 12.5391 6.32729 12.6033 6.27385C12.7517 6.48443 12.808 6.17862 12.9793 6.2929C13.0321 6.11989 13.2298 6.12624 13.3438 5.99926C13.172 5.88656 13.3767 5.96063 13.2382 5.81038C13.2597 5.77334 13.2726 5.7654 13.2841 5.77334L13.4504 5.78604C13.5091 5.81249 13.4514 5.84635 13.4832 5.87969C13.5574 5.8326 13.5649 5.92201 13.6416 5.92519C13.5863 5.87651 13.5978 5.8236 13.6515 5.81196L13.541 5.78551C13.5619 5.61885 13.7267 5.84794 13.7486 5.68128L13.7601 5.758C13.7825 5.68551 13.9314 5.60245 13.8741 5.43155C13.897 5.44266 13.9428 5.47653 13.9319 5.50668C14.0589 5.42679 14.0748 5.14902 14.2252 5.15167L14.2471 5.19876C14.2591 5.16913 14.2262 5.09241 14.2835 5.10934C14.2944 5.1268 14.3054 5.1559 14.3168 5.15008C14.3173 5.1268 14.3193 5.03157 14.3651 5.02998L14.3756 5.09559C14.5255 5.05167 14.4612 4.83898 14.5334 4.72999C14.6216 4.84745 14.7391 4.81253 14.7973 4.79507L14.8083 4.81306C14.9502 4.71941 14.9572 4.53053 15.0448 4.38238C15.2151 4.45011 15.3381 4.22313 15.5144 4.20091C15.4805 4.19403 15.4507 4.10462 15.4641 4.07499C15.5109 4.07657 15.485 3.9279 15.5587 4.04218L15.5468 4.04853C15.6454 4.13954 15.6842 4.06388 15.7325 4.03002L15.6379 3.8787C15.9078 3.99563 15.9018 3.54696 16.101 3.68823C16.106 3.62897 16.1428 3.60146 16.1473 3.54273L16.1991 3.62262C16.2952 3.5803 16.343 3.55913 16.4316 3.46337L16.4491 3.53585C16.5093 3.49776 16.3689 3.25227 16.4192 3.20729L16.5138 3.31364C16.6124 3.23533 16.7827 3.26496 16.8131 3.08455C16.8225 3.10306 16.8419 3.1401 16.829 3.15703C16.8793 3.12529 17.066 3.10412 16.943 2.95228C17.0127 3.05862 17.0541 2.88667 17.0795 2.79937L17.1213 2.88508C17.1034 2.75017 17.0874 2.72107 17.1342 2.64594C17.1562 2.64488 17.188 2.6999 17.1547 2.69461C17.2323 2.69885 17.1472 2.58933 17.2368 2.58827L17.2453 2.65546C17.3026 2.62477 17.2811 2.60044 17.2737 2.52002C17.2876 2.46499 17.3877 2.47028 17.4405 2.53695C17.4206 2.48774 17.4131 2.40838 17.4574 2.40785C17.4788 2.43166 17.4778 2.45706 17.4768 2.46922C17.5998 2.46182 17.553 2.28352 17.6626 2.32002C17.68 2.34542 17.692 2.356 17.7019 2.36076C17.6297 2.40785 17.57 2.4433 17.5715 2.43378C17.6173 2.50785 17.682 2.48086 17.6989 2.61472C17.7109 2.52742 17.7154 2.35124 17.7925 2.34754C17.7995 2.35283 17.8065 2.35812 17.8155 2.36817L17.815 2.38034C17.8319 2.37875 17.8394 2.36394 17.8423 2.34383C17.8677 2.34383 17.8847 2.34542 17.9026 2.33484C17.9459 2.39251 17.9887 2.32426 18.0196 2.30838C17.9683 2.22796 18.0141 2.21632 17.9389 2.17241C17.9464 2.17506 17.9389 2.18564 17.9215 2.20204C17.919 2.20733 17.9145 2.21156 17.9145 2.21844L17.9121 2.20997C17.8936 2.22426 17.8702 2.24278 17.8433 2.26341C17.8413 2.2068 17.8448 2.15601 17.9036 2.17982C17.8887 2.11686 17.8732 2.05231 17.8657 2.02162C17.9733 2.10892 18.0858 2.1195 18.1376 2.18299C18.1989 2.07823 18.3274 2.01474 18.2935 1.82322C18.3074 1.78724 18.3483 1.84861 18.3722 1.86713C18.3662 1.892 18.3473 1.90099 18.3522 1.92797C18.3801 1.85602 18.4937 1.81634 18.4439 1.70047C18.536 1.70841 18.4648 1.82322 18.5425 1.74914L18.5494 1.78988C18.8193 1.8539 18.6749 1.33064 18.9941 1.43646C18.9727 1.43064 18.9622 1.42852 18.9498 1.41212C19.2237 1.37403 19.3576 1.04017 19.6609 1.0698C19.7401 1.0661 19.7102 0.99097 19.7216 0.914782L19.7814 0.998377L19.7938 0.854996C19.8491 0.723784 20.0672 0.988325 20.1135 0.776692L20.0677 0.722726C20.1165 0.711086 20.1857 0.612148 20.2126 0.687277C20.2116 0.673521 20.1962 0.614793 20.2281 0.638602L20.2524 0.686219L20.3187 0.546541C20.4168 0.539134 20.3964 0.745476 20.5184 0.694155C20.5542 0.652358 20.5776 0.488342 20.5477 0.463476C20.5293 0.469825 20.4895 0.455539 20.4656 0.407393L20.495 0.361363C20.4392 0.212691 20.4093 0.0460301 20.2564 0L20.2231 0.125392L20.1678 0.0682516L20.2271 0.0317449C20.1623 -0.0158725 20.1663 0.0534373 20.1608 0.106345C20.1384 0.0724842 20.116 0.05185 20.0956 0.0460301L20.0896 0.220098C20.0543 0.168777 20.0687 0.0920602 20.0065 0.0862403C20.0035 0.16719 20.0976 0.194702 20.0627 0.265599C19.998 0.21904 19.9821 0.160312 19.9696 0.237558C19.9462 0.204226 19.9432 0.176184 19.9517 0.151317C19.9367 0.214807 19.8665 0.221685 19.885 0.306867C19.8108 0.247081 19.7759 0.393108 19.7137 0.257663C19.7181 0.295228 19.7037 0.39734 19.6743 0.421149C19.6529 0.227505 19.5493 0.480406 19.4786 0.300518C19.508 0.468766 19.3526 0.452894 19.3178 0.578286C19.3163 0.564001 19.3128 0.53596 19.3233 0.539663C19.2745 0.55289 19.2396 0.517442 19.1978 0.50686C19.2536 0.62802 19.2013 0.694155 19.2033 0.788332C19.0912 0.705795 19.1629 0.631195 19.0887 0.532256C19.1415 0.625904 19.0474 0.681457 19.1072 0.749709C19.03 0.703679 19.0549 0.736482 18.9822 0.651829C19.0534 0.802088 18.9573 0.698388 18.9732 0.808437C18.8766 0.77193 18.8846 0.680928 18.8452 0.763994C18.7909 0.738069 18.8193 0.6513 18.8193 0.6513Z" fill="white"/>
</mask>
<g mask="url(#mask0_1_425)">
<rect x="-10.1963" y="-5.49072" width="36.3508" height="50.7918" fill="white"/>
</g>
</svg>
