<svg width="145" height="65" viewBox="0 0 145 65" fill="none" xmlns="http://www.w3.org/2000/svg">
<path fill-rule="evenodd" clip-rule="evenodd" d="M143.891 19.2064C143.923 17.7618 143.71 19.7664 143.435 21.3452C143.127 22.924 142.832 24.0808 142.977 21.0351C142.772 22.0837 142.617 23.4185 142.492 24.9174C142.334 26.4131 142.148 28.0676 141.994 29.7631C141.752 31.4468 141.564 33.1775 141.284 34.8022C140.973 36.4199 140.711 37.9582 140.359 39.2514C139.898 39.4571 139.798 38.3775 139.436 38.3855C139.259 38.3893 139.014 38.6626 138.633 39.4933C138.442 39.9089 138.217 40.4636 137.948 41.1931C137.818 41.5586 137.672 41.9668 137.51 42.4224C137.336 42.8737 137.144 43.3719 136.932 43.9207C135.932 46.8972 135.354 48.4563 135.164 49.3632C134.97 50.2674 135.116 50.496 135.291 50.691C135.631 51.0774 136.182 51.3619 133.878 56.6056C134.493 55.4525 134.99 54.244 135.552 53.0633C136.124 51.8851 136.587 50.6639 137.072 49.449C136.368 53.3664 133.877 59.6748 129.85 65.9272C129.341 66.7035 128.826 67.4884 128.306 68.2802C127.789 69.0715 127.18 69.81 126.615 70.5816C126.03 71.3387 125.481 72.1284 124.86 72.8595C124.235 73.5873 123.611 74.3141 122.989 75.0372L122.061 76.1189C121.739 76.4663 121.403 76.7983 121.077 77.1371C120.423 77.8112 119.775 78.4789 119.135 79.138C118.516 79.8184 117.812 80.3896 117.166 81.0008C116.514 81.604 115.873 82.196 115.248 82.7741C114.202 83.5089 113.104 84.1451 112.041 84.8037C111.502 85.1223 110.981 85.4623 110.43 85.7527L108.759 86.5935C108.204 86.8701 107.648 87.1477 107.09 87.4258C106.535 87.7061 105.98 87.9864 105.392 88.2118C104.242 88.6961 103.079 89.1853 101.896 89.683C97.111 91.5181 92.0144 93.2344 85.9342 95.1222C86.5827 94.8148 89.4813 93.6063 88.7586 93.3963C88.1782 93.4763 87.5036 93.6228 86.783 93.8114C86.4216 93.9009 86.0535 94.0208 85.6707 94.112C85.2884 94.2031 84.8978 94.2958 84.5066 94.3885C82.9482 94.7748 81.3941 95.2421 80.2394 95.5821C77.0767 96.5636 77.5646 96.8012 78.5864 96.9254C79.602 97.0506 81.1462 97.0618 79.967 97.6149C78.6031 97.9602 77.2576 98.3012 75.8875 98.6486C75.5429 98.7338 75.1972 98.8202 74.849 98.9065C74.4981 98.9699 74.1451 99.0338 73.7884 99.0983C73.0731 99.2161 72.3462 99.3354 71.6025 99.458C68.6202 99.9919 65.3137 100.108 61.3812 99.9807C58.1327 99.3248 54.9218 98.7738 51.7769 97.8829C48.4824 98.7663 44.2852 98.3987 39.3628 97.4294C34.4299 96.4756 28.7796 95.021 22.3877 93.4571C21.8543 92.9855 20.6217 92.4655 19.0377 91.9198C17.4558 91.3582 15.5487 90.6815 13.641 90.0037C9.85334 88.556 6.13785 86.8178 5.28128 85.6674C2.56931 84.1632 2.70162 83.3576 3.02584 82.5178C3.34692 81.6882 3.83064 80.8287 2.0448 79.1859C1.20287 78.5662 0.69562 78.0861 0.384471 77.7845C0.0743683 77.4819 -0.0281278 77.3418 0.00638616 77.3092C0.07646 77.2442 0.695097 77.6082 1.31112 77.9716C1.93603 78.3217 2.58448 78.635 2.64723 78.5705C2.72881 78.4831 2.1724 78.0856 0.628684 76.7194C1.09567 77.0199 1.50513 77.3013 1.86857 77.5602C2.24614 77.8005 2.57402 78.0249 2.86007 78.2369C3.43112 78.6605 3.83692 79.0335 4.1397 79.3777C4.73794 80.0763 4.94921 80.6209 5.24676 81.2219C5.84814 82.3926 6.73871 83.997 12.4764 86.3809L12.0847 85.7564C14.5268 86.4923 17.6577 87.9432 20.7347 89.0505C22.2705 89.6052 23.762 90.1455 25.1263 90.4439C26.4839 90.7609 27.6699 90.9778 28.585 90.8941C31.788 91.711 33.36 92.2108 34.0215 92.4948C34.6773 92.8033 34.4017 92.9791 33.9096 93.1358C32.9296 93.4502 31.0627 93.6814 34.2197 94.7652C36.1996 94.6832 40.9374 95.216 45.2846 95.3023C46.3712 95.3268 47.4281 95.3753 48.4123 95.3524C49.3975 95.3194 50.3048 95.273 51.085 95.2075C52.6465 95.0764 53.6971 94.8665 53.8508 94.5222L48.7281 94.1503C47.0223 94.0017 45.3191 93.7672 43.6138 93.5807C45.2762 93.7384 44.0342 93.2946 44.7229 93.2514C45.5832 93.5232 46.6385 93.7097 47.8119 93.8354C48.987 93.942 50.2813 93.9255 51.6158 93.9004C52.9509 93.8573 54.3262 93.8226 55.6696 93.6867C57.0063 93.521 58.3183 93.3585 59.5336 93.2072C61.9575 92.9626 63.9587 92.5438 65.0637 92.6019C66.164 92.644 66.3794 93.0644 65.1275 94.145C64.4582 94.2947 63.223 94.3715 62.0228 94.4738C60.8206 94.527 59.6518 94.5691 59.1163 94.7924C59.2439 95.0354 59.781 95.1958 60.5989 95.3029C61.0073 95.3524 61.4868 95.4078 62.0186 95.4174C62.5505 95.4169 63.1356 95.4036 63.7585 95.3817C65.0025 95.3236 66.3956 95.2586 67.8081 95.192C69.2169 95.0828 70.6372 94.892 71.9571 94.7945C72.6176 94.5984 73.2906 94.3981 73.9793 94.1935C74.6607 93.9686 75.3457 93.6883 76.0496 93.4336C76.7504 93.1789 77.4684 92.9184 78.2047 92.6509C78.9383 92.3871 79.6987 92.1607 80.4564 91.8372C81.9782 91.2213 83.6087 90.7039 85.3323 90.1311C86.1863 89.8188 87.0732 89.521 87.9993 89.2423C88.9254 88.9631 89.8997 88.726 90.875 88.3881C93.6314 87.5878 92.256 88.7611 95.0428 87.932C95.9862 87.4232 96.8673 86.9473 97.6946 86.5008C98.5229 86.0602 99.3142 85.684 100.009 85.2353C101.415 84.3742 102.699 83.7167 103.811 83.0341C104.913 82.3345 105.92 81.7345 106.886 81.182C107.851 80.6283 108.698 80.0108 109.601 79.454C110.049 79.1678 110.498 78.8806 110.956 78.5875C111.42 78.2993 111.841 77.9396 112.306 77.5991C113.208 76.8894 114.221 76.1748 115.243 75.2408C115.745 74.7617 116.273 74.2561 116.836 73.719C117.384 73.1659 118.009 72.6192 118.566 71.9307C119.714 70.5858 121.044 69.0971 122.321 67.1826C126.214 62.9411 129.528 57.3074 132.073 51.3592C134.642 45.4042 136.486 39.163 138.123 33.486C137.555 34.2864 137.789 32.3506 138.206 29.9213C138.579 27.4862 139.067 24.5279 139.183 23.3316C139.311 22.9229 139.475 22.2137 139.653 21.3042C139.841 20.3951 139.95 19.2799 140.088 18.0687C140.238 16.857 140.295 15.5457 140.311 14.2429C140.321 13.5912 140.325 12.9417 140.313 12.3082C140.278 11.6751 140.232 11.0576 140.174 10.4698C140.323 13.2508 140.654 11.5419 140.888 13.4847C140.564 8.14132 140.428 4.98742 140.558 3.03934C140.674 1.09553 141.103 0.366597 141.45 0C142.307 4.14126 142.964 6.42823 143.464 8.93739C143.923 11.4434 144.316 14.1928 143.891 19.2064Z" fill="#FFDDD4"/>
</svg>
