<svg width="50" height="131" viewBox="0 0 50 131" fill="none" xmlns="http://www.w3.org/2000/svg">
<path fill-rule="evenodd" clip-rule="evenodd" d="M10.8292 129.845C11.1587 129.953 11.2517 129.787 11.1791 129.433C11.144 129.255 11.0635 129.031 10.9563 128.768C10.8595 128.496 10.7319 128.187 10.5819 127.849C10.2817 127.173 9.89105 126.384 9.47009 125.562C9.07056 124.729 8.68829 123.838 8.31021 123.013C8.12665 122.599 7.94886 122.197 7.78204 121.82C7.64346 121.432 7.51325 121.07 7.39715 120.744C7.17386 120.091 7.02744 119.58 7.00913 119.302C6.97044 118.742 7.44683 119.12 8.8138 121.07C6.4909 115.064 5.46908 112.34 4.0744 108.953C4.22396 109.876 4.33168 110.542 4.40699 111.006C4.49693 111.468 4.53772 111.733 4.54295 111.858C4.55341 112.108 4.42006 111.798 4.2501 111.385C4.06917 110.974 3.89764 110.448 3.77005 110.285C3.64977 110.121 3.55041 110.324 3.64297 111.351C1.78863 105.582 0.753732 99.6253 0.284655 93.7107C-0.178146 87.7892 -0.0521175 81.8997 0.485464 76.1247C1.54703 64.5604 4.38084 53.3941 8.68149 43.0527C10.5515 39.3111 12.4618 35.7517 14.4223 32.3053C16.3813 28.8594 18.4092 25.5296 20.6134 22.3294C24.9721 15.9059 29.9646 9.88585 36.1405 4.54409C38.2433 3.18268 39.5736 2.54113 40.3036 2.28697C41.0593 2.07116 41.2235 2.24754 41.075 2.62745C40.7591 3.36651 39.309 5.07054 38.6585 6.05097C41.9525 3.70913 45.4849 1.73654 49.1126 0C45.6073 2.09674 42.2662 4.41834 39.2086 7.05592C39.2395 7.4385 40.3742 6.88647 41.8296 6.08987C42.547 5.67425 43.4083 5.29913 44.2205 4.89364C45.0409 4.50253 45.8348 4.11622 46.5501 3.90468C47.4967 3.34999 48.4322 2.76546 49.3949 2.23048C49.1162 2.78144 48.6116 3.40487 47.8936 4.01551C47.1798 4.63414 46.2521 5.24638 45.2282 5.9833C44.7094 6.33924 44.153 6.70158 43.5631 7.06817C42.9722 7.43317 42.387 7.86744 41.7548 8.27293C41.1335 8.69761 40.4563 9.08499 39.8116 9.55549C39.1568 10.0143 38.4854 10.4842 37.8024 10.9627C35.1156 12.9343 32.264 15.1322 29.8333 17.5972C29.199 18.1849 28.6206 18.8174 28.0548 19.4408C27.4948 20.069 26.919 20.6637 26.4212 21.3004C25.4213 22.5697 24.4779 23.7766 23.7652 24.9946C24.7159 23.5991 25.4935 22.6475 25.9976 21.9281C26.508 21.2146 26.7951 20.7761 26.9316 20.5465C27.1962 20.0802 26.7438 20.353 26.1524 20.8369C24.9847 21.8093 23.134 23.5533 24.7075 21.0916L23.3228 22.7396L22.0097 24.4495C22.5723 23.6711 23.2072 22.6523 24.0371 21.5104C24.4418 20.9296 24.8774 20.3056 25.3423 19.6396C25.8349 18.9938 26.3589 18.3074 26.9117 17.5833C29.1645 14.7235 32.1249 11.389 36.0265 8.22871C33.2644 10.3478 30.6266 12.6486 28.2394 15.1829C27.0037 16.4095 25.8998 17.757 24.7556 19.0593L23.1439 21.099L22.3485 22.1226L21.5965 23.1782C17.5479 28.7768 14.3611 34.8656 11.8432 41.0199C6.85643 53.3851 4.71081 66.0423 4.37613 77.3652C4.25638 76.6938 4.20513 74.8949 3.76273 76.9197C3.55512 78.9536 3.52217 80.793 3.57917 82.4507C3.68795 84.1094 3.82391 85.5886 4.05975 86.9138C4.30554 88.2389 4.56805 89.4117 4.80128 90.4694C5.07217 91.5239 5.32527 92.4617 5.49052 93.326C5.28134 92.1729 5.01046 91.0177 4.84835 89.8476C4.67055 91.0966 4.72232 92.539 4.78664 94.096C4.8086 94.876 4.94195 95.6721 5.03817 96.4906C5.15322 97.3063 5.24997 98.1434 5.41103 98.9768C5.76454 100.637 6.06732 102.336 6.53064 103.938C6.73982 104.742 6.94586 105.534 7.14614 106.303C7.37781 107.063 7.59483 107.801 7.78936 108.51C7.83695 108.913 7.88401 109.308 7.93003 109.697C7.99331 110.081 8.05553 110.459 8.11724 110.833C8.24432 111.584 8.36878 112.319 8.49323 113.055C8.61717 113.794 8.82059 114.507 8.99683 115.252C9.19554 115.988 9.35295 116.765 9.63272 117.529C9.89837 118.3 10.1881 119.101 10.5118 119.946C10.8271 120.796 11.2763 121.638 11.7177 122.563C12.1481 123.495 12.7139 124.431 13.3351 125.433C13.6505 125.931 13.9517 126.463 14.3214 126.979C14.6963 127.489 15.0859 128.019 15.4907 128.569L14.7413 128.639C16.2646 131.204 18.0819 133.575 19.9629 135.9C18.4296 134.292 18.8181 135.168 19.0252 135.619C18.4537 135.252 18.2508 134.806 17.2791 133.551C16.7112 133.655 16.9183 134.807 17.6572 136.522C17.846 136.946 18.0479 137.424 18.3161 137.892C18.5849 138.36 18.883 138.853 19.2072 139.362C19.5304 139.87 19.8792 140.396 20.2473 140.928C20.6317 141.443 21.0506 141.948 21.4752 142.46C20.2777 141.312 19.2009 140.046 18.3402 139.243C19.6188 140.997 22.975 144.473 25.4318 146.812C27.911 149.091 29.2649 150.561 25.8857 148.77C23.3243 146.854 21.5845 145.186 20.2955 143.681C18.9599 142.227 18.1258 140.874 17.2687 139.621C16.832 139.002 16.4597 138.337 16.0403 137.668C15.624 136.994 15.1717 136.306 14.6576 135.557C14.1786 134.779 13.6332 133.947 12.9842 133.024C12.649 132.571 12.3206 132.071 11.975 131.534C11.6236 131.001 11.2434 130.44 10.8292 129.845Z" fill="#FFDDD4"/>
</svg>
