<svg width="48" height="70" viewBox="0 0 48 70" fill="none" xmlns="http://www.w3.org/2000/svg">
<path fill-rule="evenodd" clip-rule="evenodd" d="M37.0429 32.1806C37.363 32.7528 37.6673 33.2958 37.9576 33.8143C38.2321 34.3397 38.4936 34.8395 38.7441 35.319C39.2482 36.276 39.7235 37.1424 40.179 37.9545C41.0115 39.6089 41.7881 41.0402 42.526 42.5513C43.9013 45.597 45.3294 48.9353 46.4726 54.9511C46.7905 57.5994 45.045 51.9667 45.7127 55.7435C46.0694 57.6148 46.3073 58.753 46.6431 59.6311C46.961 60.5113 47.2946 61.1438 47.6136 62.031L47.7062 60.5103C47.6576 62.0278 47.7778 65.1034 47.7104 67.2129C47.6236 69.3123 47.268 70.4425 46.2446 68.2472C45.2656 60.8545 43.2711 55.6928 41.352 51.0917C39.4181 46.4693 37.4827 42.4181 35.6838 36.9756C35.801 36.1812 35.9442 35.3627 36.0263 34.5624L34.2541 31.5726C33.66 30.5804 32.9839 29.6368 32.3548 28.6702C32.2915 28.4294 32.3548 28.3063 32.2732 28.0025C32.1969 27.6951 31.9694 27.2075 31.2634 26.2825C29.6831 24.4362 30.0575 25.2739 30.7164 26.5591C31.4135 27.8251 32.2183 29.6554 31.8512 29.6528C29.3385 26.0321 26.5925 22.592 23.4842 19.5468C22.5084 18.2744 24.6294 20.2923 24.4286 19.8442C23.5689 18.5243 22.5565 17.5295 21.5969 16.6178C20.6535 15.6869 19.6034 15.0006 18.6501 14.2637C17.7036 13.5167 16.6985 12.8943 15.776 12.1222C14.864 11.3341 13.9149 10.5503 13.017 9.51073C14.1701 10.2104 15.342 10.8977 16.4412 11.6943L18.1219 12.8543C18.6736 13.2545 19.2013 13.6861 19.7441 14.1022C16.1771 10.6777 12.7754 7.98094 9.52953 5.68065C6.24965 3.43471 3.12875 1.58894 0 0C4.57311 1.98325 8.52705 4.01338 12.1306 6.10373C15.7185 8.21006 19.0162 10.3265 22.0058 12.7888C25.0101 15.2239 27.8324 17.8801 30.3399 21.0649C31.6525 22.615 32.7747 24.3675 33.9555 26.1765C35.0281 28.0505 36.1393 30.0034 37.0429 32.1806Z" fill="#FFDDD4"/>
</svg>
