<svg width="77" height="58" viewBox="0 0 77 58" fill="none" xmlns="http://www.w3.org/2000/svg">
<path fill-rule="evenodd" clip-rule="evenodd" d="M0 28.7279C0 28.7279 2.18146 21.2179 13.0846 12.0721C24.2799 2.68223 32.6712 0.304966 32.6712 0.304966L48.9559 1.17788C48.9559 1.17788 59.6202 1.7169 67.3797 0.0271735C68.992 -0.323807 74.2481 2.68436 76.0319 11.4338C77.9233 20.7072 73.9487 25.3645 73.9487 25.3645L59.9996 26.5312C59.9996 26.5312 61.2926 32.0572 63.0643 42.6448C64.3281 50.197 67.8673 65.2122 67.8673 65.2122C67.8673 65.2122 64.6349 71.9514 38.6162 71.8921C27.943 71.868 15.4641 69.0148 12.4763 68.3935C11.9447 68.2829 11.5956 67.7653 11.6813 67.2182L17.5996 38.7194C17.5996 38.7194 11.1509 35.8635 0 28.7279Z" fill="#FC77A0"/>
</svg>
