<svg width="27" height="41" viewBox="0 0 27 41" fill="none" xmlns="http://www.w3.org/2000/svg">
<path fill-rule="evenodd" clip-rule="evenodd" d="M26.1672 13.8002C24.5298 7.63696 19.9849 1.54348 19.9849 1.54348C18.2455 0.442212 15.1188 0 15.1188 0C15.1188 0 13.1253 6.08495 11.5025 11.3126C9.89028 16.5068 5.09794 17.282 5.09794 17.282C5.09794 17.282 3.7529 16.7854 2.13331 17.501C0.115237 18.3934 -1.27268 22.109 1.77352 24.3579C3.62425 25.7245 5.669 25.2658 6.99521 24.6941C7.16047 26.5013 7.35344 28.5419 7.48522 29.7423C7.76238 32.2554 7.23159 34.2901 7.23159 34.2901C7.23159 34.2901 6.82368 40.5589 16.3566 40.7954C20.831 40.9068 23.2951 39.2647 24.3008 37.2045C24.6663 36.4554 24.4038 35.9055 23.5938 35.2363C22.8517 34.6231 21.7854 33.5165 21.5783 32.175C21.3827 30.9107 21.2436 28.5094 21.1557 26.5093C21.8518 26.3079 22.5175 26.0367 23.1069 25.6659C25.786 23.9812 27.8041 19.963 26.1672 13.8002Z" fill="white"/>
</svg>
