<svg width="45" height="24" viewBox="0 0 45 24" fill="none" xmlns="http://www.w3.org/2000/svg">
<path fill-rule="evenodd" clip-rule="evenodd" d="M1.82352 0C1.82352 0 -0.674108 2.50942 0.176738 8.20011C1.02811 13.8897 4.84201 17.4258 12.7773 19.9129C20.7121 22.4005 27.4864 23.6674 32.7421 23.0398C37.9983 22.4116 41.1538 19.2219 43.1881 16.0683C45.2219 12.9147 45.2292 9.35253 44.3715 8.75368C43.7644 8.32958 43.2106 9.04138 43.2106 9.04138C43.2106 9.04138 43.2461 6.61614 42.3644 5.9688C41.4404 5.29003 40.6868 6.56179 40.6868 6.56179C40.6868 6.56179 40.6868 5.5463 39.6958 5.27885C39.2555 5.16003 38.5526 5.66192 37.981 6.92622C37.6348 7.69077 36.6951 9.25237 35.1048 10.5497C33.515 11.8476 32.0895 11.8934 32.0895 11.8934C32.0895 11.8934 32.6244 9.45376 31.9948 6.70511C31.3657 3.957 30.0191 4.34647 29.7649 4.90856C29.5108 5.47065 29.3126 7.83036 28.6772 9.23532C28.0418 10.6403 26.9922 11.8513 26.7511 12.8279C26.5101 13.805 26.315 14.0879 26.315 14.0879C26.315 14.0879 22.3855 12.277 15.3942 8.1431C8.40332 4.00922 1.82352 0 1.82352 0Z" fill="white"/>
</svg>
