<svg width="12" height="15" viewBox="0 0 12 15" fill="none" xmlns="http://www.w3.org/2000/svg">
<path fill-rule="evenodd" clip-rule="evenodd" d="M5.2011 0.159257C4.22109 -0.326644 3.30906 0.332413 2.08953 1.68569C0.869479 3.0395 -0.612571 4.6922 0.264945 6.06413C1.10847 7.38331 2.53927 6.34863 2.53927 6.34863C2.53927 6.34863 0.968317 7.69285 1.94206 9.10527C2.65536 10.1405 3.99099 9.65191 3.99099 9.65191C3.99099 9.65191 2.90638 10.8299 3.75723 11.8811C4.60807 12.9328 5.76694 12.2482 5.76694 12.2482C5.76694 12.2482 4.95427 13.1209 5.59279 13.8982C6.23132 14.6755 7.99472 13.9659 9.47729 13.0628C11.3055 11.9493 12.1208 10.9429 11.2763 9.66789C10.4312 8.39347 9.88677 9.09408 9.88677 9.09408C9.88677 9.09408 11.0603 7.82871 10.2178 6.46478C9.53848 5.36511 8.26352 5.65228 8.26352 5.65228C8.26352 5.65228 9.12012 4.96392 8.56892 4.00597C7.60303 2.32503 6.35526 3.05229 6.35526 3.05229C6.35526 3.05229 7.58472 1.34098 5.2011 0.159257Z" fill="white"/>
</svg>
