<svg width="34" height="44" viewBox="0 0 34 44" fill="none" xmlns="http://www.w3.org/2000/svg">
<path fill-rule="evenodd" clip-rule="evenodd" d="M32.2602 37.3883C31.1489 36.3259 24.9817 28.682 23.4422 26.2216C22.1264 24.1198 21.2426 23.1485 21.0109 22.9082L21.7603 22.3685C23.7669 20.9225 21.9653 14.8126 17.7367 8.72067C13.5076 2.62933 8.45274 -1.13694 6.44617 0.309045L0.820232 4.36302C-1.18634 5.809 0.615234 11.919 4.84384 18.0109C9.07296 24.1022 14.1278 27.8685 16.1344 26.4225L16.8963 25.8737C17.5814 26.6463 21.8393 31.5026 24.1105 35.2992C25.4916 37.6078 25.9319 39.3974 26.3534 40.5605C26.7749 41.7236 28.6937 43.9394 31.0396 42.6831C33.69 41.2638 33.3709 38.4501 32.2602 37.3883Z" fill="white"/>
</svg>
