<svg width="12" height="22" viewBox="0 0 12 22" fill="none" xmlns="http://www.w3.org/2000/svg">
<path fill-rule="evenodd" clip-rule="evenodd" d="M9.80926 8.41663C9.05045 9.4465 7.94283 10.1141 6.69036 10.2952C5.43998 10.4748 4.19274 10.1503 3.18134 9.37617C2.17047 8.6031 1.51574 7.47413 1.33741 6.19864C1.1596 4.92315 1.47965 3.65405 2.23898 2.62364C3.16827 1.36414 4.5907 0.699219 6.02987 0.699219C7.01982 0.699219 8.01709 1.01303 8.86742 1.66409C10.954 3.26139 11.3771 6.29028 9.80926 8.41663ZM9.27929 1.10469C6.88887 -0.724369 3.48444 -0.230476 1.68966 2.20382C-0.105637 4.63919 0.378618 8.10763 2.76852 9.93668C3.15393 10.2318 3.57543 10.4546 4.01158 10.633L0 21.5322L0.643756 21.7784L4.66475 10.852C5.10403 10.9687 5.55324 11.0443 6.01292 11.0443C6.26917 11.0443 6.52855 11.0257 6.78741 10.9884C8.22031 10.7811 9.48899 10.0166 10.3587 8.83754C12.1529 6.40271 11.6697 2.93374 9.27929 1.10469Z" fill="white"/>
</svg>
