<svg width="12" height="11" viewBox="0 0 12 11" fill="none" xmlns="http://www.w3.org/2000/svg">
<path fill-rule="evenodd" clip-rule="evenodd" d="M9.73972 1.03696C7.49782 -0.678613 4.3146 -0.217753 2.63069 2.0663C1.79553 3.19954 1.48751 4.56773 1.66113 5.86933C1.61825 5.85494 1.57223 5.84855 1.52517 5.85228L0.313483 5.9599C0.124697 5.97642 -0.0149313 6.14638 0.00128026 6.33818C0.0164459 6.52093 0.166534 6.65839 0.342769 6.65839C0.353228 6.65839 0.363164 6.65732 0.3731 6.65679L1.58478 6.5497C1.66009 6.54277 1.72337 6.50761 1.77566 6.46072C2.05283 7.55986 2.68142 8.57428 3.64156 9.309C5.88346 11.0246 9.06616 10.5637 10.7506 8.27965C12.434 5.99507 11.9816 2.75253 9.73972 1.03696Z" fill="white"/>
</svg>
