<svg width="15" height="13" viewBox="0 0 15 13" fill="none" xmlns="http://www.w3.org/2000/svg">
<path fill-rule="evenodd" clip-rule="evenodd" d="M14.0861 5.32239L12.033 5.50407C12.0251 5.50461 12.0183 5.50993 12.0105 5.511C11.8447 3.86949 11.0399 2.2999 9.64257 1.2306C6.9823 -0.805181 3.20553 -0.258542 1.20785 2.45174C-0.790356 5.16202 -0.253806 9.00927 2.40698 11.045C5.06725 13.0808 8.84349 12.5342 10.8412 9.82337C11.6439 8.73489 12.0304 7.46313 12.0419 6.19883C12.0487 6.19936 12.0555 6.20256 12.0628 6.20256C12.0722 6.20256 12.0827 6.20202 12.0926 6.20096L14.1457 6.01981C14.335 6.00329 14.4747 5.8328 14.4584 5.641C14.4422 5.44813 14.2697 5.30534 14.0861 5.32239Z" fill="white"/>
</svg>
