<svg width="10" height="10" viewBox="0 0 10 10" fill="none" xmlns="http://www.w3.org/2000/svg">
<path fill-rule="evenodd" clip-rule="evenodd" d="M8.53237 2.25744C8.28659 1.89675 7.99739 1.58507 7.68153 1.31654C7.73905 1.29576 7.79344 1.26433 7.83475 1.21212L8.34307 0.569575C8.4623 0.418797 8.43929 0.198756 8.29182 0.0772809C8.1433 -0.0436615 7.92732 -0.0202189 7.80861 0.13056L7.3003 0.7731C7.25271 0.832772 7.2344 0.903099 7.23022 0.97396C5.6828 -0.0463254 3.62132 -0.0788254 2.01376 1.05867C-0.111524 2.56166 -0.638661 5.53514 0.83659 7.69985C2.31184 9.8651 5.23045 10.4021 7.35573 8.89915C9.48049 7.39616 10.0076 4.42268 8.53237 2.25744Z" fill="white"/>
</svg>
