<svg width="8" height="10" viewBox="0 0 8 10" fill="none" xmlns="http://www.w3.org/2000/svg">
<path fill-rule="evenodd" clip-rule="evenodd" d="M0.343126 9.31579C0.443533 9.31579 0.542894 9.27156 0.610878 9.18525L1.90414 7.55066C1.93029 7.51763 1.9465 7.48087 1.95905 7.44304C3.25493 8.2582 4.95453 8.26779 6.28545 7.32636C8.07656 6.05993 8.52107 3.5537 7.27749 1.72891C6.03443 -0.0958826 3.57446 -0.548218 1.78334 0.718215C-0.0077763 1.98518 -0.452287 4.49141 0.791297 6.3162C0.981129 6.59431 1.20182 6.83673 1.44185 7.05038C1.41623 7.06849 1.39008 7.08554 1.36968 7.11112L0.0758963 8.74677C-0.0428142 8.89701 -0.0198042 9.11706 0.127669 9.23853C0.191469 9.29074 0.267297 9.31579 0.343126 9.31579Z" fill="white"/>
</svg>
