<svg width="29" height="27" viewBox="0 0 29 27" fill="none" xmlns="http://www.w3.org/2000/svg">
<path fill-rule="evenodd" clip-rule="evenodd" d="M21.1125 9.87811C20.7475 10.8052 20.178 11.5862 19.4814 12.1963C19.2942 11.5132 19.108 10.859 18.9281 10.2537C18.8732 10.0694 18.6823 9.96496 18.4998 10.0204C18.3184 10.0763 18.2159 10.2718 18.2703 10.4567C18.4967 11.2175 18.7012 11.9427 18.8947 12.6518C17.3242 13.7136 15.2847 14.0003 13.4078 13.2331C11.35 12.3923 10.0118 10.4993 9.74245 8.40442C10.9745 7.40279 12.2814 6.40648 13.6557 5.43734C13.6918 5.41176 13.7284 5.38832 13.7645 5.36328C14.5217 5.66377 15.2994 5.98291 16.1089 6.33828C17.9941 7.16623 19.7811 8.04906 21.3918 8.94041C21.3222 9.25688 21.2333 9.57123 21.1125 9.87811ZM10.1148 5.38288C10.2743 4.9769 10.4777 4.59649 10.7125 4.24219C11.4384 4.48514 12.1977 4.75633 12.9916 5.05948C11.8447 5.87571 10.7444 6.70952 9.6954 7.54972C9.70429 6.82673 9.83503 6.09362 10.1148 5.38288ZM13.2842 2.08015C14.6967 1.46425 16.2551 1.43494 17.689 1.98265C16.3576 2.78183 15.012 3.6524 13.6806 4.57785C12.8308 4.24592 11.9867 3.93584 11.1615 3.65347C11.7383 2.98215 12.4553 2.44138 13.2842 2.08015ZM21.0609 5.25898C21.4573 6.20414 21.6058 7.21324 21.5106 8.20848C19.936 7.34697 18.2008 6.49558 16.3794 5.69586C15.7419 5.41615 15.1002 5.14923 14.4586 4.88976C15.7911 3.97603 17.1324 3.12144 18.4565 2.33984C19.6191 2.98558 20.5327 3.99894 21.0609 5.25898ZM25.6877 10.7923C24.6737 10.0666 23.4745 9.31751 22.1551 8.57161C22.324 7.36592 22.175 6.13252 21.6928 4.98383C21.1584 3.70887 20.2709 2.66035 19.1424 1.93789C19.9326 1.48502 20.7154 1.05187 21.4758 0.6624C21.6463 0.576089 21.7143 0.365638 21.629 0.193016C21.5443 0.0209257 21.3388 -0.0494021 21.1678 0.0369093C20.2788 0.491909 19.3599 1.00711 18.4333 1.54683C18.314 1.48982 18.1979 1.42961 18.0745 1.37953C16.4356 0.70822 14.6392 0.730064 13.0149 1.43707C11.9962 1.88088 11.1224 2.56178 10.4504 3.41904C5.72758 1.87555 1.76045 1.30494 1.12611 2.8042C0.544587 4.18092 3.14733 6.25452 5.43368 7.75112C5.5937 7.85714 5.8055 7.80866 5.908 7.64669C6.0105 7.48366 5.96448 7.26682 5.80498 7.16292C2.23582 4.82559 1.58108 3.49736 1.75679 3.08125C2.0873 2.30125 5.1973 2.47814 10.0331 4.02215C9.81812 4.36846 9.62986 4.73502 9.47716 5.12342C9.09383 6.09682 8.95786 7.10805 9.02585 8.09104C6.61712 10.0709 4.52792 12.0688 2.94965 13.9266C1.15121 16.0429 -0.766457 18.8986 0.312919 20.4868C0.750631 21.132 1.5565 21.3782 2.53443 21.3782C4.47354 21.3782 7.08569 20.4059 8.82712 19.6482C9.00179 19.572 9.08233 19.3669 9.00807 19.189C8.93328 19.0105 8.72933 18.9284 8.55728 19.0041C4.55093 20.7479 1.60723 21.164 0.877709 20.0883C0.249641 19.1645 1.21867 17.0328 3.46894 14.3848C4.95047 12.641 6.89063 10.7694 9.12835 8.90514C9.54305 11.0768 10.9911 12.9996 13.1514 13.883C13.9557 14.2117 14.7867 14.3678 15.6051 14.3678C16.8424 14.3678 18.0431 14.0002 19.0817 13.348C21.1338 21.0846 21.2358 25.5206 20.4105 25.7993C20.0047 25.9335 18.6168 24.8711 16.2489 19.8704C16.1673 19.6962 15.9613 19.6243 15.7903 19.7074C15.6198 19.791 15.5481 20.0004 15.6307 20.1746C17.6232 24.3826 19.2072 26.5095 20.3473 26.5089C20.444 26.5089 20.5366 26.494 20.6265 26.4636C22.5442 25.8163 21.1688 18.5528 19.6763 12.9207C20.5664 12.2137 21.3001 11.2808 21.7498 10.1391C21.8596 9.86095 21.9433 9.57751 22.015 9.29194C23.2361 9.98936 24.3468 10.6878 25.2928 11.365C27.7962 13.1573 28.4713 14.2964 28.2899 14.728C28.1069 15.1574 26.6494 15.5873 22.3392 14.468C22.1535 14.4184 21.9679 14.5324 21.9214 14.7205C21.8743 14.9075 21.9852 15.0977 22.1692 15.1457C23.6733 15.5367 25.3729 15.8804 26.7017 15.8798C27.803 15.8798 28.6497 15.6443 28.92 15.005C29.3295 14.038 28.2418 12.6208 25.6877 10.7923Z" fill="white"/>
</svg>
