<svg width="29" height="36" viewBox="0 0 29 36" fill="none" xmlns="http://www.w3.org/2000/svg">
<path fill-rule="evenodd" clip-rule="evenodd" d="M9.02232 21.3632C7.0623 18.0773 8.70987 14.7803 10.5171 11.2962C14.3874 11.2717 18.0206 11.3026 19.9807 14.5885C21.9412 17.8743 20.2931 21.1714 18.4859 24.6549C14.614 24.6789 10.9823 24.649 9.02232 21.3632ZM28.9535 28.2798C26.8616 24.7739 23.0452 24.6274 19.2659 24.6492C21.0255 21.2419 22.6605 17.7301 20.5686 14.2237C18.4767 10.7173 14.6624 10.5723 10.881 10.5936C12.6406 7.18577 14.2751 3.67453 12.1837 0.16809C12.0863 0.00398322 11.8744 -0.0498309 11.7116 0.0508707C11.5494 0.15104 11.4975 0.366296 11.5965 0.531468C13.5565 3.81733 11.9089 7.11437 10.1017 10.5979C6.22876 10.6219 2.59813 10.592 0.637583 7.30619C0.539189 7.14155 0.329841 7.0888 0.165502 7.18897C0.00325698 7.28913 -0.0485568 7.50439 0.049837 7.6701C2.14175 11.176 5.95504 11.3199 9.73796 11.3002C7.97839 14.708 6.34338 18.2198 8.43529 21.7262C10.5267 25.2321 14.341 25.3781 18.1229 25.3568C16.3628 28.7642 14.7278 32.2759 16.8197 35.7818C16.8841 35.8905 16.9976 35.9502 17.1138 35.9502C17.1745 35.9502 17.2358 35.9337 17.2923 35.8996C17.454 35.7994 17.5058 35.5836 17.4074 35.4185C15.4469 32.1321 17.095 28.835 18.9022 25.3515C22.7725 25.3265 26.4058 25.3579 28.3658 28.6437C28.4302 28.7519 28.5437 28.8116 28.6599 28.8116C28.7206 28.8116 28.7824 28.7951 28.8379 28.761C29.0006 28.6608 29.0525 28.445 28.9535 28.2798Z" fill="#393F49"/>
</svg>
