<svg width="19" height="10" viewBox="0 0 19 10" fill="none" xmlns="http://www.w3.org/2000/svg">
<path fill-rule="evenodd" clip-rule="evenodd" d="M0.659706 9.13308C0.84498 9.09045 0.960645 8.9029 0.918775 8.71429C0.496414 6.81428 0.653949 5.48651 1.36416 4.97554L5.73693 1.82608C5.52601 2.82298 5.65476 4.17898 6.14359 5.8307C6.19802 6.01506 6.38853 6.12109 6.57171 6.06514C6.75384 6.0092 6.85642 5.81419 6.80147 5.6293C6.09335 3.23537 6.164 1.51918 6.99407 0.920833C8.61757 -0.243897 13.3494 2.82351 17.8142 9.24977C17.8812 9.3462 17.9875 9.39789 18.0953 9.39789C18.1639 9.39789 18.2335 9.37711 18.2931 9.33342C18.4486 9.22153 18.4857 9.00307 18.3758 8.84536C14.1575 2.77449 9.24456 -0.890199 6.90562 0.187149L6.87788 0.147721L6.59788 0.349657C6.59735 0.349657 6.59735 0.349657 6.59735 0.349657C6.59683 0.349657 6.59683 0.35019 6.59683 0.35019L0.966925 4.40383C0.00130513 5.09915 -0.246773 6.64324 0.248336 8.8688C0.290206 9.05742 0.474433 9.1757 0.659706 9.13308Z" fill="#393F49"/>
</svg>
