<svg width="15" height="20" viewBox="0 0 15 20" fill="none" xmlns="http://www.w3.org/2000/svg">
<path fill-rule="evenodd" clip-rule="evenodd" d="M13.5918 19.0726C13.3516 19.2468 12.4551 19.0864 10.6149 17.4001C8.99716 15.9183 7.14861 13.7237 5.40998 11.2216C1.46742 5.54605 0.104562 1.29899 0.86345 0.752327C0.927301 0.706505 1.00999 0.683594 1.11048 0.683594C2.21008 0.683594 5.43353 3.40467 9.04479 8.60386C10.784 11.1065 12.2007 13.6112 13.0344 15.6572C13.9833 17.9867 13.831 18.8999 13.5918 19.0726ZM0.466789 0.18038C-1.09495 1.30462 1.48946 6.78886 4.84898 11.6247C6.6164 14.1683 8.50054 16.404 10.1549 17.9193C11.5418 19.1906 12.6216 19.8289 13.3773 19.8289C13.6123 19.8289 13.8164 19.7671 13.9886 19.6435C14.7145 19.1208 14.6067 17.6897 13.6688 15.3885C12.8168 13.2961 11.3738 10.7429 9.60642 8.19922C6.2469 3.3634 2.02801 -0.943855 0.466789 0.18038Z" fill="#393F49"/>
</svg>
