<svg width="4" height="6" viewBox="0 0 4 6" fill="none" xmlns="http://www.w3.org/2000/svg">
<path fill-rule="evenodd" clip-rule="evenodd" d="M1.99139 2.99248L3.12449 3.83593C3.17211 3.8615 3.20509 3.91159 3.20718 3.95847C3.20823 3.97392 3.21032 4.02028 3.12815 4.07622L2.05576 4.83761C1.8998 4.94844 1.86211 5.16689 1.97045 5.32514C2.03744 5.42264 2.14369 5.47486 2.25255 5.47486C2.32059 5.47486 2.38915 5.45461 2.44881 5.41199L3.51701 4.65379C3.77033 4.47956 3.90745 4.21422 3.89437 3.92544C3.88023 3.63452 3.71118 3.36385 3.49189 3.24663L2.4195 2.44582C1.25762 1.42282 0.657837 0.206936 0.651556 0.194681C0.56677 0.0215171 0.361609 -0.049347 0.191513 0.0364359C0.0208941 0.121686 -0.0481909 0.331614 0.0355485 0.504779C0.0611937 0.559658 0.698136 1.85599 1.99139 2.99248Z" fill="#393F49"/>
</svg>
