<svg width="4" height="5" viewBox="0 0 4 5" fill="none" xmlns="http://www.w3.org/2000/svg">
<path fill-rule="evenodd" clip-rule="evenodd" d="M2.85613 3.57919C2.11922 3.95695 1.22007 3.65644 0.848477 2.90891C0.47636 2.16031 0.772065 1.24387 1.5074 0.86557C1.86277 0.682282 2.26681 0.649781 2.6473 0.777123C2.82787 0.837331 3.02151 0.737695 3.08118 0.553874C3.14032 0.370054 3.04193 0.17238 2.86136 0.112172C2.30711 -0.0737793 1.7157 -0.0268918 1.19652 0.24058C0.123084 0.79364 -0.308174 2.13207 0.234562 3.22487C0.497818 3.75448 0.947918 4.1477 1.50164 4.33258C1.72512 4.40718 1.95436 4.44448 2.1836 4.44448C2.52065 4.44448 2.85665 4.36349 3.16649 4.20364C3.33554 4.11626 3.40358 3.9058 3.31827 3.7337C3.23191 3.56054 3.02518 3.49074 2.85613 3.57919Z" fill="#393F49"/>
</svg>
