<svg width="13" height="8" viewBox="0 0 13 8" fill="none" xmlns="http://www.w3.org/2000/svg">
<path fill-rule="evenodd" clip-rule="evenodd" d="M11.7376 6.42995C11.0598 6.50028 10.302 6.52639 9.48812 6.50561C6.0548 6.42036 3.56251 5.54388 2.0798 3.90069C0.596038 2.25643 0.689198 0.390515 0.690245 0.371866C0.701235 0.179521 0.557832 0.0132832 0.368371 0.00156129C0.177341 -0.0170872 0.0161423 0.133699 0.00358142 0.326577C-0.00217566 0.413959 -0.11627 2.49086 1.56113 4.3605C3.17364 6.15768 5.83498 7.11515 9.47137 7.20573C9.65716 7.20999 9.84035 7.21212 10.0204 7.21212C10.6573 7.21212 11.2561 7.18388 11.8077 7.12634C11.9961 7.10662 12.1338 6.93506 12.1149 6.74271C12.0956 6.5509 11.9359 6.41343 11.7376 6.42995Z" fill="#393F49"/>
</svg>
