<svg width="90" height="95" viewBox="0 0 90 95" fill="none" xmlns="http://www.w3.org/2000/svg">
<path fill-rule="evenodd" clip-rule="evenodd" d="M80.5574 61.5871L67.0235 62.714C63.6326 49.5077 59.7167 41.7611 59.6769 41.6839C59.5895 41.5123 59.3818 41.4462 59.2137 41.5347C59.0447 41.6237 58.9793 41.8352 59.0667 42.0062C59.1065 42.084 63.0438 49.8737 66.4295 63.1642L66.43 63.168C66.4431 63.2234 67.7437 68.7923 69.4954 79.2168C70.6829 86.2851 73.9121 100.059 74.2764 101.607C74.0252 101.982 72.9083 103.378 69.4881 104.757C65.8019 106.244 58.6365 107.984 45.3512 107.979C35.5385 107.956 24.3368 105.577 20.1195 104.681L19.2428 104.496C18.8911 104.423 18.6603 104.083 18.7142 103.739L22.0366 87.8047C28.2699 89.9541 34.3442 90.9925 38.5678 90.9925C39.4089 90.9925 40.1777 90.9515 40.8581 90.8705C45.3062 90.3387 48.8065 88.0082 51.5594 83.7431C53.6613 80.486 53.7241 76.6961 52.6512 75.9475C52.2822 75.6901 51.9164 75.7141 51.6165 75.8452C51.5589 75.0145 51.3543 73.6846 50.6488 73.1673C50.3379 72.9387 49.9935 72.8561 49.6528 72.9264C49.3676 72.9861 49.1258 73.1422 48.9363 73.3106C48.7605 72.9424 48.4333 72.5758 47.8655 72.4229C47.4463 72.3094 46.9789 72.5311 46.5435 73.0079L38.5024 58.825C37.812 57.6075 36.3937 56.9916 35.0528 57.3246L30.7685 58.3918L30.2305 57.542C29.6407 56.6117 28.5322 56.1455 27.4697 56.3847L20.6088 57.9256C20.0912 58.0423 19.6757 58.3939 19.4679 58.8911C19.2612 59.3882 19.3009 59.9375 19.5788 60.3979L19.9892 61.0777L16.5689 61.9302C15.9922 62.0741 15.5321 62.4769 15.3076 63.0374C15.0831 63.5979 15.1349 64.2144 15.4494 64.7286L20.4874 72.9579C17.5157 71.3988 12.9598 68.8573 7.09434 65.1282C7.58736 63.7615 10.4068 56.9527 20.0017 48.9365C27.5948 42.5934 33.9401 39.461 37.1772 38.1193C37.1929 37.9941 37.2065 37.8593 37.2196 37.7197C37.2196 37.7192 37.2201 37.7192 37.2201 37.7192C37.2217 37.7011 37.2227 37.6803 37.2243 37.6622C37.2342 37.5562 37.2431 37.4496 37.251 37.3366C37.2499 37.3366 37.2489 37.3372 37.2479 37.3377C37.2976 36.6243 37.3065 35.7808 37.2055 34.8639C37.0819 33.7412 36.9056 31.8844 36.7475 30.1698C37.6959 29.7782 38.325 29.3194 38.3401 29.3082C38.4924 29.1937 38.5244 28.9747 38.4124 28.8191C38.2998 28.6635 38.0842 28.6305 37.9319 28.7456C37.8974 28.7711 34.5002 31.269 31.6907 29.1963C30.5105 28.3252 29.9379 27.1231 30.0787 25.8108C30.2132 24.5593 30.9978 23.3801 31.9859 22.9432C33.4513 22.2959 34.6875 22.7274 34.7006 22.7322L34.7838 22.7621L34.8702 22.7482C34.9204 22.7402 39.8956 21.8776 41.5536 16.5388C41.6143 16.3427 41.6761 16.1445 41.7379 15.9463C42.0069 15.3363 42.6674 14.4193 44.2338 14.3324C44.4228 14.3223 44.5682 14.1571 44.5578 13.9643C44.5478 13.7709 44.3788 13.6142 44.1956 13.6339C43.3624 13.6797 42.7396 13.9296 42.268 14.2578C43.4896 10.3859 44.7363 6.56189 45.0791 5.51172C45.8652 5.64652 48.1125 6.08822 49.479 6.92687C49.6533 7.1661 50.408 8.21841 51.3464 9.74865C49.5439 9.36662 48.4736 10.6555 48.1586 11.4057C48.0832 11.5831 48.1643 11.7893 48.3386 11.865C48.3826 11.8847 48.4286 11.8932 48.4742 11.8932C48.6071 11.8932 48.7343 11.8138 48.7903 11.6812C48.8185 11.6135 49.5125 10.0225 51.2836 10.4477C51.4385 10.4845 51.5898 10.4045 51.6615 10.2671C53.0442 12.5827 54.7164 15.8009 55.57 19.0127C57.1909 25.108 55.1288 28.9379 52.659 30.4895C50.6226 31.7698 47.8487 31.87 45.9337 31.538C44.0841 31.2168 42.7207 30.6823 41.2286 29.695C41.0706 29.589 40.857 29.6359 40.7534 29.7973C40.6498 29.9598 40.6948 30.1762 40.8544 30.2817C42.4099 31.3116 43.8947 31.894 45.8181 32.2275C46.4315 32.3341 47.1281 32.398 47.8623 32.398C48.8458 32.398 49.8951 32.2776 50.9037 31.9957C50.9921 33.9165 51.1256 36.1074 51.3093 37.2967C51.3428 37.5135 51.405 37.7213 51.4783 37.9249L55.6883 38.1497C55.7956 38.1545 66.5022 38.6697 74.2261 36.9946C74.6077 36.9115 75.4451 37.0766 76.5551 37.8135C77.885 38.6969 81.1257 41.4665 82.4839 48.1005C84.1629 56.3005 81.11 60.8481 80.5574 61.5871ZM21.2545 61.8374L20.1648 60.0317C20.0057 59.7674 19.9822 59.4509 20.1015 59.1653C20.2208 58.8792 20.4595 58.6768 20.7578 58.6096L27.6192 57.0687C27.7553 57.0378 27.8929 57.0234 28.0295 57.0234C28.6749 57.0234 29.2945 57.3554 29.6525 57.9218L30.7495 59.6555L21.2545 61.8374ZM87.6983 21.7291C87.5094 21.7526 87.3754 21.9268 87.3984 22.1186C88.7529 33.3205 88.9152 44.8527 87.7763 48.9436C87.1184 51.3056 85.184 52.9568 83.65 53.9435C83.738 52.2204 83.6223 50.2288 83.1575 47.9574C81.7465 41.067 78.3331 38.1579 76.9305 37.2271C75.8398 36.5035 74.7752 36.1636 74.0839 36.3101C72.1531 36.7283 70.033 37.0086 67.939 37.1935C68.2933 31.2233 67.1267 27.2768 63.2004 25.1013C59.0233 22.7873 59.2248 20.1866 57.763 14.1818C56.3013 8.17702 51.8929 2.98795 47.5788 0.822069C43.2646 -1.34382 41.358 1.45505 41.358 1.45505C41.358 1.45505 32.7914 -1.2932 27.3374 5.36856C21.8844 12.0298 24.6138 17.8497 25.0225 21.8708C25.4313 25.8925 24.1077 28.8177 19.4994 30.8402C14.8911 32.8628 11.8079 33.8272 11.3254 41.0484C10.8433 48.2691 8.46461 49.0715 5.55833 51.183C2.65205 53.2946 -2.56282 60.7198 1.47813 70.1879C3.44862 74.8037 6.30047 77.9952 9.80915 80.2085C9.00211 78.8696 8.48031 77.3729 8.227 75.6823C7.48643 70.7341 9.27898 68.1931 9.75943 67.6139C9.83113 67.5271 9.8751 67.4818 9.8751 67.4818C9.8751 67.4818 10.3676 67.7812 11.2045 68.289C11.2756 68.3321 11.3458 68.3742 11.4211 68.4201C11.5556 68.5016 11.6975 68.5874 11.8477 68.6779C11.8482 68.6785 11.8493 68.679 11.8503 68.6801C13.0692 69.4175 14.7749 70.4464 16.7559 71.634C16.7967 71.659 16.837 71.683 16.8783 71.7081C17.1374 71.8636 17.4012 72.0213 17.6686 72.1812L17.7989 72.2595C18.9294 72.9362 20.1258 73.6502 21.36 74.3828C21.3689 74.3881 21.3788 74.394 21.3877 74.3993C21.7127 74.5927 22.0409 74.7872 22.3695 74.9822C22.2596 74.7057 22.1413 74.411 22.0309 74.1462C22.0283 74.1446 22.0257 74.1435 22.0225 74.1419L21.2469 72.8749L16.0336 64.3584C15.8373 64.0377 15.8044 63.6519 15.9452 63.3024C16.0854 62.9518 16.3722 62.6998 16.7334 62.6097L20.3682 61.7039L20.9266 62.6305L31.8604 60.1172L31.1627 59.0148L35.2167 58.0052C36.2614 57.743 37.3688 58.2252 37.9079 59.1752L46.095 73.6171C45.9741 73.8137 45.8569 74.0247 45.7491 74.2624C45.3434 75.1607 44.371 76.6153 42.9684 77.7592C42.0028 78.5467 41.0984 78.8461 40.5865 78.9586C40.7132 78.0927 40.8843 76.197 40.4054 74.1084C39.9402 72.0768 39.0886 71.6915 38.6218 71.6441C38.1586 71.5946 37.708 71.8428 37.5269 72.2446C37.4107 72.5014 37.3233 72.9745 37.2019 73.6294C37.0271 74.5746 36.8099 75.7505 36.4383 76.5721C36.164 77.1774 35.8108 77.7443 35.4695 78.2925C35.0409 78.9804 34.6368 79.6299 34.4898 80.2251C34.3846 80.6492 34.2904 80.9326 34.2208 81.1111C33.2771 80.6694 30.0955 79.1179 24.3903 75.7462C24.3322 75.7121 24.2704 75.7031 24.2087 75.7047L24.2123 75.6887C24.1077 75.678 23.9826 75.7105 23.9135 75.8933C23.8324 76.0574 23.8873 76.2583 24.0449 76.3515C29.8893 79.8052 33.0992 81.3584 33.9863 81.7713L33.2646 84.8819C33.2206 85.0699 33.3347 85.2586 33.52 85.3033C33.5467 85.3097 33.5733 85.3124 33.599 85.3124C33.755 85.3124 33.8963 85.2042 33.9334 85.0433L34.7085 81.7026C34.7881 81.5608 34.9582 81.1959 35.156 80.3961C35.2764 79.9102 35.6522 79.3065 36.0499 78.6677C36.3875 78.1263 36.7691 77.5131 37.0627 76.8646C37.4698 75.9647 37.6959 74.7413 37.8776 73.7594C37.977 73.2228 38.0702 72.7156 38.1513 72.5371C38.1942 72.4423 38.346 72.3133 38.5522 72.3405C38.7307 72.3586 39.343 72.552 39.736 74.2672C40.3395 76.8998 39.8344 79.2767 39.8302 79.3006L39.7334 79.7407L40.1762 79.7263C40.239 79.7242 41.7364 79.6598 43.3981 78.3059C45.3283 76.7309 46.2154 74.9049 46.374 74.5549C46.9204 73.347 47.5086 73.0497 47.6897 73.0998C48.3403 73.2756 48.4151 73.8633 48.4245 74.0114C48.3377 74.371 47.697 76.9094 46.3839 78.6932C44.9849 80.5959 43.598 81.3466 43.5839 81.3546C43.4159 81.4441 43.3504 81.6551 43.4373 81.8262C43.4986 81.9455 43.6189 82.0148 43.7425 82.0148C43.7964 82.0148 43.8497 82.0025 43.9005 81.9759C43.9623 81.9429 45.4335 81.1527 46.9345 79.1131C48.3272 77.2205 48.9824 74.6396 49.0892 74.1894C49.1965 74.0242 49.4765 73.6763 49.7931 73.6113C49.9434 73.5835 50.093 73.6208 50.2474 73.7343C50.6761 74.0498 50.875 75.085 50.932 75.9317C50.9153 75.9652 50.9006 75.9999 50.8948 76.0393C50.8901 76.0723 50.4186 79.3662 48.8396 81.3349C47.2339 83.3378 46.6058 83.8967 46.5995 83.902C46.4567 84.0277 46.4399 84.2483 46.5634 84.3949C46.6315 84.4753 46.7272 84.5169 46.8246 84.5169C46.9031 84.5169 46.9826 84.4897 47.047 84.4327C47.0732 84.4103 47.7117 83.8487 49.3724 81.7777C50.6044 80.2416 51.1947 78.0544 51.4355 76.9056L51.5648 76.7405C51.5789 76.7224 51.9238 76.287 52.2629 76.5247C52.9077 76.9744 52.9716 80.2821 50.9849 83.3591C48.3507 87.4404 45.0122 89.6702 40.7786 90.1753C35.4052 90.8217 24.495 88.8875 14.8675 84.0491C14.698 83.9633 14.4918 84.0352 14.407 84.2073C14.3227 84.381 14.3934 84.5909 14.5635 84.6762C16.7946 85.7978 19.0948 86.7606 21.3825 87.5768L18.0392 103.612C17.924 104.345 18.393 105.034 19.1063 105.182L19.9803 105.367C20.6806 105.516 21.5756 105.705 22.6213 105.918C20.812 115.148 17.889 124.176 17.8518 124.289C17.7921 124.473 17.8905 124.671 18.07 124.731C18.1067 124.744 18.1423 124.749 18.1789 124.749C18.3228 124.749 18.4568 124.656 18.505 124.509C18.5421 124.396 21.4756 115.334 23.2954 106.054C28.6599 107.127 37.4416 108.661 45.3503 108.679C45.4659 108.679 45.5769 108.68 45.692 108.68C57.1067 108.679 64.1231 107.377 68.4142 105.907C68.7319 108.003 69.0637 110.213 69.3751 112.324C70.4857 119.864 71.2493 125.364 71.2571 125.418C71.2812 125.592 71.4288 125.719 71.5973 125.719C71.613 125.719 71.6292 125.718 71.6455 125.716C71.8334 125.688 71.9642 125.512 71.9375 125.32C71.9302 125.265 71.1661 119.764 70.0549 112.22C69.7373 110.066 69.3986 107.809 69.0752 105.674C73.8661 103.9 74.881 101.97 74.9532 101.82L75.0081 101.708L74.9788 101.584C74.9432 101.435 71.423 86.5341 70.1732 79.0998C68.6816 70.2188 67.5145 64.8491 67.1895 63.4026L80.9013 62.2607L80.9934 62.1536C81.1127 62.0146 83.122 59.578 83.5799 54.8227C85.2578 53.829 87.6476 51.9721 88.4378 49.1344C89.5982 44.9662 89.4448 33.3146 88.0809 22.0334C88.0574 21.8415 87.8841 21.7009 87.6983 21.7291Z" fill="#393F49"/>
</svg>
