<svg width="29" height="47" viewBox="0 0 29 47" fill="none" xmlns="http://www.w3.org/2000/svg">
<path fill-rule="evenodd" clip-rule="evenodd" d="M28.2334 28.6421C28.1371 29.3619 27.7414 30.3705 26.4005 31.0882C25.684 31.4718 24.9602 31.5246 24.25 31.247C23.1483 30.8165 22.4035 29.7349 22.1932 29.1541C22.112 28.9293 22.0293 28.681 21.9398 28.4092C21.8488 28.1327 21.7425 27.8215 21.6269 27.496C22.4156 27.2568 23.2336 26.8199 23.8276 26.4581C24.9628 25.767 25.6291 25.1575 25.9326 24.5352C26.6732 25.4159 27.2615 26.0856 27.5467 26.3579C28.0727 26.8604 28.3485 27.7779 28.2334 28.6421ZM20.0273 26.7686C19.6233 26.2763 20.0755 25.712 20.1723 25.6023L24.521 22.3516C24.6251 22.3723 24.8481 22.4778 25.1674 22.9584C25.405 23.3165 25.4871 23.6415 25.4191 23.9532C25.2951 24.5206 24.6775 25.1254 23.4753 25.8575C21.7764 26.8911 20.424 27.2486 20.0273 26.7686ZM18.1916 24.7519C17.5546 23.965 18.3501 23.0523 18.4072 22.9894L22.5921 19.0748C22.8396 19.0423 23.6419 19.0013 24.1009 19.744C24.7494 20.7921 23.9533 21.782 23.8256 21.9302C23.8073 21.9493 23.7953 21.9637 23.7911 21.9696C23.7691 21.9978 23.756 22.0303 23.7445 22.0623L19.7564 25.0434C19.635 25.1116 18.8196 25.5256 18.1916 24.7519ZM16.3918 21.9985C15.613 20.8684 16.8759 19.7564 16.9298 19.7101L16.9303 19.7095L20.7195 16.4391C20.8922 16.3534 21.726 16.0241 22.4461 17.2767C22.8292 17.9422 22.2855 18.4201 22.2242 18.4713C22.22 18.4745 22.2185 18.4787 22.2143 18.4819C22.2111 18.4851 22.207 18.4857 22.2038 18.4883L17.9844 22.4359C17.7442 22.5057 16.8748 22.6986 16.3918 21.9985ZM15.3736 19.4613C15.1125 19.4091 14.8979 19.2482 14.7189 18.9674C13.983 17.8186 15.3841 16.2655 16.5104 15.0171C17.779 13.6105 18.5139 13.2167 19.2204 13.5684C19.9254 13.9174 20.3436 14.3383 20.4634 14.8189C20.5927 15.3352 20.3378 15.7971 20.2671 15.9117L16.5004 19.1635C16.4507 19.1981 15.9033 19.5657 15.3736 19.4613ZM12.9186 14.6452L16.4759 12.084C16.6743 12.3083 16.9867 12.6877 17.3923 13.2391C16.8993 13.5833 16.4351 14.0639 16.0038 14.5419C15.4726 15.1311 14.8901 15.7796 14.4588 16.4515C13.7973 15.6592 13.2525 15.0267 12.9186 14.6452ZM28.0168 25.8468C27.7117 25.5553 27.0067 24.7428 26.1237 23.6809C26.1112 23.3132 25.9845 22.9397 25.7359 22.5662C25.4292 22.1032 25.11 21.8128 24.785 21.6999C25.0712 21.0733 25.2047 20.2165 24.6829 19.3726C24.2506 18.673 23.6246 18.4428 23.1322 18.381C23.3064 17.9899 23.3588 17.4789 23.039 16.9227C22.4167 15.8405 21.6651 15.6231 21.1182 15.6445C21.1905 15.3658 21.2219 15.0243 21.1329 14.6561C20.9633 13.9618 20.4216 13.3843 19.5214 12.9378C18.9939 12.6767 18.4867 12.7049 18.0036 12.9015C17.5897 12.333 17.2636 11.9329 17.0417 11.6771L17.7529 11.1656L17.72 11.1187C18.7641 10.0212 18.6542 7.57128 17.3662 4.26304C17.2966 4.08295 17.0966 3.9961 16.9203 4.06643C16.7439 4.1373 16.6575 4.34083 16.7277 4.52039C17.9508 7.66452 18.0837 10.0696 17.0752 10.7959C15.4543 11.9617 10.7204 8.89479 6.25448 2.46746C5.72849 1.71087 5.22972 0.937224 4.77125 0.168375C4.67285 0.00267007 4.46193 -0.0490128 4.29916 0.0506233C4.1364 0.150792 4.08458 0.366049 4.1835 0.531221C4.64982 1.31392 5.15802 2.10142 5.69343 2.87187C9.22095 7.94904 13.2357 11.3479 15.8259 11.6953L11.4448 14.85C10.6152 15.4457 9.00584 14.9438 7.03012 13.4738C4.92564 11.9068 2.65054 9.43772 0.624574 6.52164C0.51519 6.36446 0.300084 6.32556 0.145166 6.43799C-0.00975192 6.54988 -0.0463879 6.7678 0.0629967 6.92551C1.40911 8.86282 2.86565 10.6035 4.31591 12.0309C4.31591 12.0336 4.31434 12.0352 4.31434 12.0373C4.33999 13.1994 8.72532 18.3496 11.1485 19.778C11.6379 20.3828 11.7289 26.7621 11.7729 29.8279C11.7829 30.5163 11.7923 31.152 11.8027 31.7008C11.9022 36.6821 11.6834 43.2191 11.316 46.2716C11.293 46.464 11.427 46.6387 11.6154 46.6616C11.6295 46.6638 11.6442 46.6648 11.6572 46.6648C11.8284 46.6648 11.977 46.5348 11.998 46.3574C12.369 43.2767 12.5894 36.6954 12.4904 31.6864C12.4795 31.1397 12.4706 30.5046 12.4606 29.8178C12.346 21.848 12.1455 19.5654 11.5274 19.1989C9.64854 18.0869 7.08612 15.1708 5.80386 13.3907C6.07967 13.6203 6.35287 13.8366 6.6245 14.0391C8.18101 15.198 9.54334 15.7915 10.6006 15.7915C11.0805 15.7915 11.4976 15.669 11.8415 15.4212L12.3538 15.0525C12.7045 15.4526 13.3341 16.181 14.0993 17.1017C13.7554 17.8535 13.6759 18.6186 14.1427 19.3486C14.4264 19.7924 14.7985 20.0609 15.2481 20.1483C15.4077 20.1792 15.5653 20.184 15.7149 20.1718C15.3993 20.8053 15.2837 21.6098 15.8285 22.4C16.2592 23.025 16.9019 23.2104 17.4551 23.2115C17.2045 23.78 17.1171 24.5254 17.6619 25.1978C18.1418 25.7914 18.7337 25.9384 19.2372 25.907C19.1231 26.3092 19.142 26.7813 19.4994 27.2172C19.7695 27.5448 20.1578 27.6743 20.6032 27.6743C20.7147 27.6743 20.8309 27.6626 20.9487 27.6477C21.0753 28.0009 21.1899 28.3361 21.2873 28.6318C21.3794 28.9099 21.4642 29.1651 21.5479 29.3958C21.8101 30.1189 22.6805 31.3827 24.003 31.8995C24.3788 32.0466 24.7619 32.1196 25.1471 32.1196C25.6757 32.1196 26.207 31.9816 26.7193 31.7066C27.9686 31.039 28.7474 29.9835 28.9144 28.7351C29.0604 27.6407 28.7076 26.5069 28.0168 25.8468Z" fill="#393F49"/>
</svg>
