<svg width="10" height="18" viewBox="0 0 10 18" fill="none" xmlns="http://www.w3.org/2000/svg">
<path fill-rule="evenodd" clip-rule="evenodd" d="M8.03517 3.48993C8.04512 3.47346 8.05349 3.45169 8.06186 3.4278C8.09483 3.4347 8.12519 3.45169 8.11786 3.46603C8.10007 3.4501 8.06919 3.47824 8.03517 3.48993ZM8.45397 1.50444C8.42309 1.57772 8.55655 1.58462 8.6183 1.62657C8.61883 1.728 8.51573 1.63348 8.44351 1.64038C8.4545 1.70782 8.54713 1.79225 8.52672 1.83154C8.50631 1.82676 8.49636 1.8326 8.47543 1.81349C8.54713 1.90801 8.41525 1.98872 8.50788 2.10235C8.49584 2.10342 8.48485 2.10182 8.47543 2.0997C8.53928 2.11191 8.59999 2.13315 8.64238 2.15227C8.63243 2.18625 8.69471 2.24254 8.61202 2.22502C8.62197 2.2059 8.59109 2.19209 8.57016 2.17298L8.59109 2.22077C8.4681 2.20909 8.57016 2.15864 8.48747 2.12678C8.49898 2.20856 8.56178 2.32325 8.51102 2.36308C8.39745 2.33228 8.51939 2.22767 8.3964 2.25953L8.4681 2.19528C8.27289 2.1905 8.49846 2.15068 8.29278 2.13687C8.22161 2.23086 8.30482 2.27652 8.23364 2.37051C8.28493 2.41724 8.32627 2.39653 8.37809 2.44379C8.43199 2.63548 8.05989 2.45813 8.16456 2.6238C8.22736 2.68009 8.36186 2.74328 8.25981 2.79478L8.14572 2.72097C8.096 2.81921 8.3022 2.84682 8.17921 2.92329C8.13787 2.88559 8.16822 2.82718 8.14781 2.83673C8.0243 2.87019 8.19962 2.91267 8.18026 2.9663L8.06617 2.93656C8.04367 3.05232 8.07978 3.2026 8.05623 3.33163C8.02587 3.31251 7.99918 3.27906 7.95522 3.29499C7.95522 3.46863 7.82438 3.61731 7.70611 3.74157L7.78147 3.8329C7.77571 3.84564 7.72966 3.8414 7.71657 3.82069C7.66005 3.86529 7.77571 3.84564 7.80345 3.88706C7.79822 3.92211 7.73332 3.91043 7.71239 3.8791C7.75687 4.01079 7.78356 4.23221 7.64435 4.30284L7.62342 4.27204C7.55538 4.3416 7.78461 4.43612 7.66947 4.48179L7.65743 4.46108C7.55276 4.62781 7.57161 4.85986 7.38006 4.94748C7.50776 5.02235 7.25707 5.10572 7.44391 5.18484C7.31359 5.25546 7.289 5.21351 7.17543 5.33777C7.15345 5.37388 7.27591 5.43813 7.27958 5.49335L7.17909 5.45937L7.26178 5.56185L7.1299 5.55495L7.14089 5.60964C7.1524 5.59371 7.19846 5.58681 7.22672 5.59955C7.24817 5.68611 7.0985 5.74823 7.04669 5.73177L7.07495 5.92931C7.03622 5.91178 7.03151 5.87886 7.01319 5.84753C7.08541 5.97232 6.90224 5.82735 6.96818 5.94152C6.99487 5.93833 7.02575 5.9686 7.04564 5.9771C6.97132 5.99728 6.93887 6.0902 6.94202 6.16826L6.87712 6.13109C6.8185 6.25003 6.82374 6.40562 6.77664 6.54527C6.82531 6.50598 6.94149 6.55802 6.9394 6.60315L6.82792 6.58351C6.88549 6.63236 6.88235 6.5543 6.94463 6.63554C6.91532 6.68386 6.81222 6.63023 6.78763 6.58828L6.80333 6.66422C6.77088 6.65731 6.75884 6.63661 6.71959 6.61961C6.77716 6.6674 6.57724 6.69342 6.67929 6.76936L6.64685 6.76245C6.59974 6.90211 6.6144 6.97751 6.58352 7.09433C6.67458 7.12672 6.64004 7.16496 6.70337 7.22337C6.64737 7.29771 6.54479 7.36727 6.5202 7.47081C6.54322 7.55684 6.59137 7.51754 6.63586 7.56746C6.55055 7.54516 6.52595 7.6487 6.48251 7.57648C6.45739 7.70233 6.44954 7.73738 6.46838 7.91314C6.50816 7.9073 6.52909 7.89349 6.55474 7.91261C6.55945 7.945 6.49874 7.96465 6.46001 7.94766L6.45373 7.93704C6.52438 8.14997 6.08424 8.2567 6.21613 8.45105L6.21037 8.44043L6.25643 8.61247C6.22189 8.67354 6.20619 8.553 6.13867 8.58486C6.23078 8.78346 6.04238 8.82169 6.09628 8.97834C5.81681 8.99321 5.9958 9.31606 5.79536 9.38827L5.85554 9.40155C5.90055 9.45465 5.80844 9.42916 5.78698 9.44775C5.83304 9.46102 5.85083 9.43182 5.87543 9.46314C5.85083 9.76794 5.59073 10.0011 5.41122 10.2443C5.3526 10.3366 5.67446 10.4333 5.48553 10.4986L5.39813 10.4147C5.43163 10.6754 5.21444 10.8257 5.20868 11.0668C5.19089 11.0429 5.16158 11.0264 5.17152 11.0084C5.0768 11.0094 5.08831 11.1549 5.14693 11.1884C5.1239 11.2144 5.08936 11.1661 5.04958 11.1677C4.98521 11.1841 5.08726 11.3206 5.00405 11.302C4.99044 11.2988 4.98678 11.2776 4.98521 11.267C5.00614 11.3126 4.91037 11.3843 5.00719 11.4066C4.92869 11.4555 4.96951 11.5654 4.89048 11.5941C4.96375 11.6875 4.77796 11.6891 4.89938 11.7783C4.76854 11.6923 4.71569 11.8336 4.75075 11.9164C4.71935 11.8771 4.68533 11.9286 4.64085 11.8766C4.61102 11.927 4.60683 11.9881 4.6801 12.0226C4.46605 12.013 4.68952 12.2907 4.45715 12.2106C4.43779 12.407 4.3933 12.5743 4.32788 12.723C4.20437 12.6279 4.41738 12.5716 4.27921 12.4835C4.24572 12.6407 4.30276 12.7899 4.18553 12.8897C4.14576 12.9083 4.14366 12.8313 4.13006 12.8053C4.09447 12.9651 3.95055 13.0315 3.9406 13.1919C3.92909 13.1828 3.9249 13.1611 3.92333 13.143C3.91234 13.1674 3.86995 13.1786 3.92752 13.2195V13.1871C4.03428 13.2163 4.03481 13.4037 4.07249 13.4404C3.94165 13.2795 3.94898 13.5126 3.7925 13.297C3.7925 13.3188 3.80506 13.357 3.84483 13.383C3.81762 13.3947 3.79145 13.3836 3.76528 13.3299C3.7365 13.4271 3.81552 13.4483 3.7611 13.5147C3.7344 13.4924 3.73493 13.4706 3.70928 13.4382C3.7344 13.5142 3.75848 13.5906 3.69044 13.6289C3.67736 13.6124 3.65172 13.6018 3.66532 13.5853C3.59572 13.6884 3.66846 13.8657 3.53344 13.9305C3.44552 13.802 3.46697 13.9347 3.36492 13.8561L3.34713 13.9369L3.41359 13.9565C3.36963 14.0027 3.40155 14.1078 3.33352 14.1211L3.32515 14.05L3.26339 14.1562L3.34556 14.1381C3.35184 14.2316 3.47168 14.2417 3.38742 14.2825C3.38952 14.2602 3.34294 14.3303 3.26444 14.3038C3.27333 14.3553 3.28328 14.4095 3.22728 14.4233C3.18907 14.4047 3.12941 14.3192 3.10377 14.3064C3.16186 14.4031 3.02579 14.4397 3.08231 14.5486C3.07184 14.5199 3.02317 14.4732 3.00957 14.4668L3.05614 14.5465C3.01585 14.5496 3.00329 14.5438 2.96665 14.5029C2.896 14.5592 3.10482 14.5942 2.98287 14.6256C2.9834 14.6144 2.97084 14.6086 2.97293 14.5863C2.87559 14.641 2.86878 14.7748 2.76935 14.8162C2.65735 14.7451 2.80755 14.7318 2.7055 14.6787C2.62438 14.796 2.6113 14.9994 2.49302 15.0759L2.52128 15.0679C2.63589 15.2139 2.38678 15.0764 2.39777 15.1884C2.40039 15.1661 2.34334 15.0987 2.35381 15.1168C2.26641 15.1614 2.246 15.2814 2.1811 15.4226L2.16226 15.3759C2.09318 15.3828 2.0398 15.4582 1.98223 15.4831C2.00055 15.5304 1.97019 15.5485 2.03142 15.5851C1.72055 15.5129 1.86448 15.9313 1.59443 15.8708C1.60908 15.8575 1.6028 15.8081 1.59076 15.8182L1.51436 15.9435C1.57402 15.9977 1.55936 15.9685 1.62164 15.9966C1.63891 16.045 1.63263 16.0991 1.60646 16.1225C1.61955 16.0396 1.52325 16.0242 1.47458 16.0072C1.49342 16.0232 1.50336 16.0503 1.52168 16.0678C1.37514 16.0062 1.61484 16.2 1.47877 16.192L1.45574 16.1565C1.44109 16.1979 1.44946 16.2621 1.41073 16.2791C1.33903 16.2175 1.4144 16.2202 1.36782 16.1591C1.32804 16.1989 1.39189 16.3667 1.2935 16.3269C1.29612 16.2919 1.32281 16.2696 1.32543 16.2345C1.21395 16.1851 1.22599 16.2106 1.1836 16.2234L1.18831 16.2228L1.08364 16.2441L1.1208 16.252C1.21605 16.4862 1.03706 16.3774 1.06009 16.5632C1.0402 16.3859 1.01874 16.4846 0.959605 16.397C0.923493 16.3896 0.874822 16.3869 0.864878 16.3567C0.882149 16.4528 0.765442 16.3492 0.791086 16.4867C0.768059 16.4613 0.750788 16.5128 0.707873 16.439C0.677519 16.4952 0.754451 16.4777 0.775909 16.5144C0.773292 16.662 0.525224 16.5298 0.516851 16.7363C0.465562 16.8553 0.514234 16.9599 0.461899 17.0677C0.402237 17.0438 0.414274 16.9498 0.414274 16.9498C0.339958 16.9423 0.311174 16.9742 0.289717 17.0374C0.281343 17.0071 0.258839 16.9928 0.223775 16.971C0.193944 17.0029 0.270876 17.09 0.196037 17.0804C0.182954 17.0438 0.159403 16.987 0.154169 16.9439C0.131142 16.9981 0.125908 17.0778 0.0997409 17.1325C0.0557796 17.091 0.0761902 17.0406 0.0693867 16.9986C0.0364156 17.0528 -0.0248163 17.1271 0.0107715 17.2158L0.0604897 17.2227C0.0447892 17.2386 0.00710804 17.1617 0.0107715 17.1388C0.0118182 17.0496 0.0877039 17.125 0.109161 17.1521L0.0903206 17.1909C0.231625 17.3342 0.197084 17.0809 0.263549 17.047L0.319548 17.1845L0.314314 17.0406C0.348855 17.0618 0.40433 17.1213 0.386013 17.1611C0.470796 17.1882 0.395434 17.091 0.478646 17.1293C0.49016 17.1362 0.492253 17.1431 0.49173 17.151L0.510047 17.0847C0.519467 17.1155 0.575989 17.1627 0.537261 17.1648C0.663389 17.1765 0.59954 16.9864 0.692696 17.0544L0.691126 17.0661C0.768582 16.9477 0.639838 16.9726 0.645071 16.8123L0.852318 16.9832L0.799983 16.8898C0.813067 16.8845 0.839234 16.8744 0.860691 16.9116C0.857551 16.8223 0.82615 16.8797 0.80888 16.8069C0.91826 16.8446 0.925063 16.6609 1.03863 16.7868C1.00828 16.7082 0.951231 16.7756 0.973212 16.6885C1.09829 16.8202 1.01874 16.6153 1.11504 16.6429C1.15795 16.7284 1.08364 16.7252 1.1815 16.7533C1.11242 16.6052 1.2935 16.7066 1.31444 16.6503C1.23855 16.5499 1.36782 16.5393 1.40759 16.4528C1.42905 16.4883 1.57611 16.4066 1.66456 16.3885L1.67659 16.4066C1.60699 16.2977 1.6834 16.2627 1.71166 16.2032C1.75876 16.2632 1.76975 16.2935 1.76713 16.3407L1.809 16.303C1.7933 16.2632 1.79225 16.2356 1.81057 16.2005L1.86134 16.2823C1.91472 16.2287 1.90216 16.0981 2.01572 16.0827C1.9613 16.012 1.79696 15.9457 1.8336 15.8347C1.86814 15.8687 1.92466 15.9276 1.91733 15.96C1.91995 15.9494 1.91524 15.9095 1.94141 15.9138L1.96391 16.0014C2.02043 15.9993 1.93722 15.9356 1.9681 15.918C2.01258 15.9701 2.01939 15.9377 2.05131 15.9818C2.0487 15.9929 2.00997 15.9807 2.01782 16.0099C2.05498 15.9929 2.11778 15.9924 2.16383 16.0205C2.13557 15.994 2.10312 15.9515 2.1183 15.9249C2.16959 15.8702 2.19157 15.969 2.24652 15.9653C2.2282 15.9175 2.29572 15.9212 2.22873 15.8442C2.24443 15.8294 2.28002 15.8623 2.30461 15.8772C2.30252 15.8166 2.4276 15.7433 2.32241 15.6929L2.31037 15.694C2.31037 15.694 2.31089 15.6902 2.31194 15.6865L2.31142 15.6871L2.31194 15.6865C2.33444 15.5256 2.54221 15.549 2.60397 15.4306L2.62752 15.4555C2.65369 15.3743 2.728 15.3191 2.7144 15.2288C2.72957 15.2129 2.79447 15.2362 2.81645 15.2718C2.83843 15.2123 2.81593 15.1805 2.91379 15.1614C2.91536 15.2447 2.96456 15.1847 2.9028 15.2346C2.97607 15.2022 3.02684 15.2283 3.01637 15.1051C3.05981 15.1863 3.13465 15.1422 3.1404 15.0982L3.05928 15.0918C3.07812 15.0541 3.10848 15.0344 3.13831 15.0143L3.20687 15.1088C3.4183 15.0966 3.22466 14.7419 3.47273 14.8157C3.44133 14.7302 3.37591 14.839 3.33143 14.7472C3.38952 14.7058 3.55908 14.7631 3.57426 14.7461C3.68626 14.7169 3.51093 14.565 3.61037 14.5188C3.57164 14.5008 3.48215 14.4365 3.50308 14.3548C3.56065 14.3128 3.68887 14.4047 3.68364 14.4604C3.67527 14.4753 3.66009 14.4726 3.65015 14.4631C3.64596 14.4896 3.63915 14.5236 3.69097 14.5326L3.66637 14.4987C3.7208 14.5003 3.78255 14.4243 3.81762 14.4865C3.8239 14.4201 3.78255 14.4243 3.74016 14.4397C3.84483 14.4105 3.8375 14.3362 3.92543 14.2889C3.89926 14.2857 3.85425 14.2645 3.86315 14.2533C3.98823 14.1795 3.84221 14.1556 3.88618 14.0717C3.96677 14.0712 3.98823 14.1832 4.00707 14.0765C4.07563 14.059 4.09813 14.137 4.10912 14.1763C4.10232 14.0585 4.2499 14.0845 4.2923 14.0553L4.28916 14.1116C4.29125 14.0781 4.30538 14.0611 4.31951 14.0436L4.23996 14.0117C4.2677 14.0001 4.28235 13.9825 4.30852 14.0043C4.28392 13.9491 4.1892 13.9342 4.16617 13.8461C4.2206 13.8445 4.19862 13.7345 4.29125 13.793C4.19234 13.8567 4.38336 13.8519 4.33835 13.9363C4.3394 13.914 4.35405 13.897 4.38179 13.8854C4.39383 13.8901 4.39749 13.9023 4.39749 13.9124C4.54036 13.8896 4.33207 13.7967 4.40272 13.7128C4.4425 13.7616 4.51053 13.7648 4.51158 13.7425C4.48279 13.7765 4.4179 13.6958 4.40586 13.6353C4.48593 13.6076 4.42313 13.5508 4.44878 13.5248L4.40691 13.545C4.36661 13.4961 4.3933 13.4722 4.40639 13.4207C4.44668 13.4467 4.40639 13.477 4.4336 13.4754C4.37969 13.366 4.59427 13.4436 4.58014 13.3374C4.63457 13.3336 4.67486 13.4037 4.71516 13.3952C4.70156 13.2784 4.8371 13.3697 4.8371 13.2572C4.75494 13.2296 4.76907 13.245 4.74081 13.1462L4.70156 13.3007L4.66021 13.1526C4.63352 13.1881 4.64713 13.2598 4.62096 13.2731C4.5927 13.1961 4.60631 13.2126 4.53879 13.1887C4.67382 13.2131 4.55083 13.049 4.65864 13.0416L4.82245 13.1627C4.95852 13.1287 4.84705 12.9487 4.96899 12.8664L4.91404 12.8823C4.85961 12.8218 4.95224 12.8058 4.94805 12.7495C5.00248 12.7915 5.03755 12.7819 5.08308 12.7894C5.03964 12.7628 5.14117 12.706 5.03441 12.62L5.14169 12.6178C5.23118 12.543 5.04644 12.4039 5.12233 12.3269C5.16681 12.3943 5.23328 12.3789 5.24008 12.4686C5.25945 12.4384 5.28718 12.4182 5.24793 12.3922C5.29503 12.3975 5.22281 12.2594 5.29503 12.2658C5.27724 12.2376 5.21967 12.1957 5.24532 12.1649C5.25945 12.1686 5.2741 12.183 5.2741 12.183C5.24532 12.1649 5.26782 12.106 5.18565 12.0959C5.42744 12.1166 5.3301 11.8293 5.52949 11.8362C5.54624 11.756 5.57189 11.6631 5.60067 11.5988C5.61637 11.6127 5.62998 11.6153 5.61794 11.6238C5.71895 11.5686 5.47454 11.4767 5.58863 11.4141C5.71162 11.4167 5.61323 11.4937 5.66661 11.4831C5.87072 11.5765 5.70272 11.3509 5.85345 11.3466L5.85659 11.3684C5.95079 11.3535 5.84717 11.2064 5.90526 11.1321C5.90526 11.1321 5.92096 11.1448 5.93509 11.1475C5.85973 11.0376 5.87438 10.9117 5.88223 10.8167C5.94974 10.8804 5.90735 10.874 5.99475 10.8974C5.99894 10.8554 5.8613 10.8459 5.87072 10.7625C5.92462 10.7599 5.98586 10.7253 6.07482 10.7583L6.04866 10.83C6.17531 10.8469 6.08477 10.7381 6.12088 10.711L6.16746 10.7381C6.19886 10.6239 6.07639 10.5671 6.13553 10.4577L6.09314 10.4529C5.99789 10.3372 6.18525 10.4312 6.1214 10.3297L6.25486 10.3648C6.24125 10.3096 6.20095 10.1715 6.20305 10.086C6.28364 10.1683 6.2894 10.2724 6.32185 10.3505C6.34016 10.309 6.37575 10.2076 6.32028 10.1598C6.32656 10.1821 6.34801 10.215 6.32185 10.2235C6.24648 10.1327 6.2177 10.0446 6.25067 9.96282C6.49036 10.0743 6.38883 9.77007 6.60288 9.78016C6.56363 9.59749 6.74681 9.49713 6.79391 9.31606C6.57724 9.31446 6.80594 9.26296 6.60236 9.20932C6.60393 9.16525 6.61178 9.15091 6.62644 9.15144L6.78344 9.06861C6.85095 9.05852 6.81589 9.12065 6.86194 9.13127C6.90486 9.04896 6.95824 9.12171 7.02994 9.08082C6.95405 9.06967 6.93626 9.01763 6.97917 8.97674L6.86508 9.01763C6.79652 8.86152 7.06605 8.96559 6.99854 8.80895L7.04983 8.86842C7.03255 8.79302 7.12362 8.63584 6.98179 8.5222C7.00848 8.51849 7.06762 8.52167 7.0739 8.55406C7.14507 8.41122 7.00691 8.16218 7.14403 8.07775L7.18956 8.10536C7.18433 8.07244 7.11315 8.02678 7.17334 8.00713C7.19322 8.01616 7.21834 8.03474 7.22567 8.02253C7.21416 8.00235 7.16392 7.92004 7.20421 7.89243L7.24922 7.94182C7.36017 7.8165 7.18747 7.6726 7.19375 7.53825C7.33714 7.58604 7.42088 7.48621 7.46275 7.43683L7.48211 7.44533C7.55433 7.28071 7.45751 7.1161 7.45333 6.93875C7.64121 6.89361 7.6276 6.62917 7.76629 6.5012C7.7328 6.5166 7.65586 6.45925 7.65115 6.42633C7.69198 6.39925 7.58574 6.29039 7.715 6.34137L7.70768 6.35358C7.84636 6.37004 7.83747 6.28242 7.86049 6.22455L7.6925 6.15551C7.99395 6.08702 7.73698 5.71797 7.98871 5.7116C7.95836 5.65903 7.97458 5.61283 7.94423 5.56079L8.03582 5.5953C8.09391 5.50026 8.12374 5.453 8.14572 5.31759L8.20224 5.36697C8.23312 5.29688 7.96883 5.18271 7.9861 5.11421L8.13054 5.14236C8.17136 5.01651 8.33517 4.93208 8.25353 4.76375C8.27289 4.77331 8.3111 4.79083 8.30953 4.81313C8.3336 4.75525 8.48223 4.61879 8.2865 4.57259C8.41001 4.61507 8.34459 4.44727 8.31424 4.36019L8.40059 4.4032C8.30586 4.30443 8.27446 4.29116 8.2708 4.19982C8.28912 4.18549 8.34878 4.20991 8.31685 4.22637C8.38646 4.18018 8.24882 4.14619 8.32366 4.08725L8.37128 4.13663C8.40111 4.07451 8.36867 4.06813 8.31371 4.00813C8.29173 3.95397 8.38018 3.89343 8.46496 3.91361C8.41838 3.88706 8.365 3.82706 8.40164 3.79732C8.43461 3.80369 8.44874 3.8244 8.45554 3.83502C8.5555 3.74953 8.40844 3.6359 8.52358 3.59342C8.55393 3.60297 8.57016 3.60351 8.58167 3.60138C8.5487 3.68634 8.51887 3.75325 8.51468 3.74475C8.59789 3.77502 8.63715 3.7113 8.73187 3.80847C8.68948 3.72988 8.58795 3.58439 8.65128 3.53129C8.66017 3.53076 8.66907 3.53076 8.68268 3.53288L8.68948 3.5435C8.70309 3.53076 8.70047 3.51377 8.69157 3.49571C8.71303 3.47925 8.72768 3.46969 8.73658 3.44898C8.80776 3.46651 8.802 3.38314 8.8177 3.35022C8.72611 3.31889 8.75699 3.27959 8.66698 3.29393C8.67535 3.29074 8.67535 3.30402 8.67064 3.32844C8.67169 3.33482 8.67064 3.34172 8.67483 3.34703L8.6675 3.34172C8.6607 3.36561 8.65284 3.39535 8.6429 3.42987C8.60679 3.38526 8.57801 3.34225 8.64238 3.32313C8.59057 3.28172 8.53823 3.23977 8.51311 3.22012C8.65703 3.22012 8.75856 3.15427 8.84125 3.17127C8.82921 3.04648 8.8983 2.91054 8.75228 2.77992C8.74181 2.74115 8.81351 2.76346 8.84492 2.76239C8.85538 2.78629 8.84544 2.80594 8.86637 2.82452C8.84439 2.74806 8.91452 2.64079 8.80095 2.58132C8.8826 2.52663 8.89463 2.66522 8.91347 2.55424L8.94435 2.58238C9.21021 2.45176 8.76432 2.13421 9.09246 2.00253C9.07205 2.01208 9.0621 2.01739 9.04117 2.01315C9.24475 1.79756 9.14113 1.44391 9.40856 1.25753C9.47032 1.19965 9.39757 1.16194 9.3578 1.09504L9.46037 1.1184L9.37821 0.998926C9.33791 0.859272 9.68594 0.910248 9.58545 0.713776L9.51376 0.704749C9.54516 0.661738 9.53574 0.536421 9.60744 0.575184C9.59749 0.565095 9.5462 0.531641 9.58755 0.526862L9.63831 0.545979L9.59959 0.392518C9.67285 0.316054 9.79323 0.489161 9.85655 0.360658C9.85707 0.303309 9.76706 0.159407 9.72624 0.163655C9.71629 0.18224 9.67442 0.200825 9.62366 0.181178L9.61581 0.124892C9.47189 0.0542681 9.33529 -0.0466229 9.18561 0.0240008L9.24371 0.140822L9.16206 0.136043L9.18404 0.0680742C9.10136 0.0776323 9.1516 0.126485 9.18195 0.170027C9.14113 0.160469 9.11025 0.160469 9.08984 0.170027L9.20027 0.305964C9.13851 0.291096 9.09874 0.223659 9.0464 0.261891C9.09769 0.325612 9.19033 0.281007 9.20969 0.358534C9.127 0.368623 9.07624 0.33517 9.11653 0.402607C9.07571 0.39358 9.0553 0.373933 9.04588 0.349507C9.07571 0.407386 9.0239 0.461549 9.09455 0.514118C8.99564 0.518897 9.0642 0.655366 8.92446 0.5943C8.95377 0.620319 9.0082 0.707935 9.00035 0.746698C8.85695 0.612885 8.93755 0.877857 8.7638 0.787586C8.89568 0.897504 8.76223 0.991492 8.81299 1.1115C8.80305 1.10194 8.78264 1.08229 8.79258 1.07805C8.7617 1.12159 8.71041 1.11734 8.66959 1.13752C8.79258 1.19327 8.79206 1.28036 8.85381 1.35204C8.70989 1.36426 8.72036 1.25753 8.59685 1.23044C8.69942 1.26761 8.6586 1.37435 8.75124 1.38762C8.6586 1.40355 8.69942 1.41258 8.5869 1.39506C8.74129 1.46515 8.59737 1.44816 8.67901 1.52409C8.57696 1.55967 8.52567 1.48373 8.54608 1.57507C8.48485 1.591 8.45397 1.50444 8.45397 1.50444Z" fill="white"/>
</svg>
