<svg width="22" height="8" viewBox="0 0 22 8" fill="none" xmlns="http://www.w3.org/2000/svg">
<path fill-rule="evenodd" clip-rule="evenodd" d="M2.7201 3.42858C2.75098 3.43973 2.74417 3.46044 2.73266 3.47743C2.72219 3.4684 2.70859 3.45937 2.68818 3.44929L2.67719 3.4546C2.69236 3.44344 2.70754 3.43389 2.7201 3.42858ZM2.54269 4.20388C2.52803 4.18424 2.5071 4.16193 2.48407 4.13963C2.50187 4.11043 2.53117 4.09078 2.54374 4.10565C2.52071 4.11467 2.5406 4.16193 2.54269 4.20388ZM0.683495 2.32392C0.734783 2.41791 0.815902 2.30374 0.890218 2.28569C0.983898 2.37437 0.838406 2.38446 0.804912 2.45561C0.873471 2.50659 1.00274 2.49544 1.02734 2.54801C1.01164 2.56341 1.01111 2.57721 0.982851 2.57987C1.11002 2.59473 1.1252 2.77952 1.28325 2.78537C1.27802 2.79811 1.27122 2.80714 1.26441 2.81404C1.30785 2.76466 1.35966 2.72483 1.39944 2.70094C1.42665 2.73704 1.51248 2.72324 1.45491 2.7859C1.44131 2.76147 1.41252 2.77952 1.38321 2.78377L1.44026 2.80183C1.36804 2.90803 1.36908 2.77262 1.29686 2.82413C1.38321 2.87935 1.52504 2.90909 1.53865 2.98821C1.45387 3.07211 1.41043 2.87351 1.38217 3.01582L1.35443 2.89688C1.25395 3.07689 1.32512 2.83209 1.21051 3.01476C1.27069 3.15813 1.35234 3.11937 1.41618 3.25849C1.48893 3.24362 1.48527 3.18999 1.55697 3.17512C1.78096 3.26061 1.4345 3.48948 1.65483 3.50966C1.74014 3.49001 1.86208 3.40399 1.87255 3.53939L1.74956 3.59833C1.83225 3.71834 1.94372 3.53408 1.97355 3.70878C1.91808 3.72418 1.86888 3.65197 1.87098 3.67958C1.85632 3.8256 1.97041 3.6817 2.01804 3.73852L1.94372 3.82985C2.06566 3.9265 2.24465 3.98491 2.3781 4.08792C2.34722 4.10651 2.30065 4.11235 2.30379 4.16651C2.49219 4.27802 2.61675 4.49732 2.73712 4.67787L2.86272 4.64919C2.87581 4.66194 2.86011 4.70654 2.83185 4.7092C2.86953 4.79044 2.87581 4.66194 2.93076 4.65503C2.97053 4.6784 2.9407 4.73893 2.89936 4.74477C3.06474 4.76601 3.31699 4.85628 3.37456 5.0278L3.33269 5.0363C3.40491 5.13506 3.56035 4.93806 3.59384 5.07506L3.56663 5.07878C3.74875 5.25454 4.02404 5.32782 4.10306 5.56518C4.20407 5.46482 4.28519 5.74253 4.3998 5.57367C4.47412 5.72979 4.42074 5.742 4.56518 5.89812C4.60809 5.9321 4.69497 5.82271 4.76248 5.83493L4.71538 5.93104L4.84517 5.87369L4.82947 6.01069L4.89646 6.01547C4.87762 5.99795 4.87134 5.9475 4.88913 5.92148C4.99485 5.9236 5.06341 6.10043 5.04247 6.15141C5.1215 6.16309 5.20628 6.16149 5.28793 6.16415C5.26542 6.20185 5.22408 6.20026 5.18483 6.21353C5.34288 6.16149 5.15866 6.32504 5.30363 6.27725C5.29944 6.24964 5.33712 6.22203 5.34811 6.20344C5.37271 6.28416 5.48994 6.3346 5.58728 6.34575L5.54175 6.40682C5.69195 6.49072 5.88611 6.51408 6.06144 6.58895C6.01015 6.53001 6.07033 6.41638 6.12581 6.42647L6.10645 6.54116C6.16349 6.48966 6.06824 6.4785 6.16558 6.427C6.22525 6.46629 6.16454 6.56612 6.11377 6.58471L6.20745 6.58152C6.20012 6.61497 6.17605 6.62453 6.15564 6.66276C6.21164 6.61338 6.25769 6.82313 6.34771 6.7217L6.34143 6.75516C6.52251 6.8141 6.61671 6.80295 6.76587 6.84437C6.79884 6.75197 6.8496 6.79127 6.91659 6.72914C7.01446 6.79286 7.11232 6.9049 7.24525 6.93835C7.3494 6.9203 7.29393 6.86667 7.35045 6.82366C7.33318 6.9118 7.46506 6.94473 7.3808 6.98508C7.54042 7.02385 7.587 7.02491 7.80472 7.00048C7.79111 6.96013 7.7707 6.93942 7.79111 6.91287C7.83088 6.90649 7.86438 6.96756 7.8492 7.00792L7.83716 7.01429C8.09046 6.93411 8.30137 7.38493 8.52066 7.24315L8.50914 7.25005L8.71377 7.19642C8.79594 7.23041 8.64993 7.25059 8.70331 7.31909C8.93044 7.22138 9.01732 7.40776 9.20154 7.33183C9.28893 7.61061 9.66208 7.38015 9.81176 7.57184L9.81019 7.50918C9.86357 7.45502 9.85991 7.5522 9.89131 7.57078C9.89288 7.52246 9.84997 7.50865 9.88241 7.47892C10.2734 7.45715 10.6559 7.69504 11.0516 7.76778C11.196 7.7954 11.1604 7.45396 11.3305 7.61485L11.2698 7.72583C11.5718 7.60954 11.868 7.77416 12.159 7.67751C12.1412 7.703 12.1391 7.73752 12.1108 7.73539C12.1684 7.82619 12.3348 7.75239 12.338 7.6807C12.3825 7.68866 12.3463 7.74283 12.3725 7.77734C12.4327 7.82673 12.5279 7.67061 12.5588 7.75398C12.5641 7.76725 12.541 7.78106 12.5295 7.78743C12.5703 7.74708 12.7148 7.79752 12.6776 7.70088C12.7849 7.74708 12.8838 7.65787 12.9697 7.71521C13.0246 7.60689 13.1544 7.76672 13.1706 7.61432C13.1643 7.77203 13.3611 7.74123 13.4271 7.66689C13.4056 7.71468 13.4872 7.71628 13.4621 7.78212C13.5406 7.78 13.6113 7.75026 13.5945 7.66955C13.7453 7.86283 13.8745 7.50175 13.9666 7.74017C14.1932 7.63769 14.401 7.56441 14.6041 7.51131C14.6104 7.66902 14.3769 7.54476 14.3984 7.70884C14.5915 7.62919 14.6915 7.48582 14.8888 7.50865C14.9416 7.52618 14.8673 7.57875 14.8532 7.60689C15.0426 7.53308 15.2331 7.57715 15.3959 7.4667C15.3975 7.48104 15.3802 7.49963 15.3645 7.5145C15.398 7.50388 15.4467 7.52512 15.4336 7.45502L15.4027 7.47892C15.3352 7.3844 15.5084 7.24368 15.5058 7.18846C15.4775 7.40033 15.6827 7.21342 15.6293 7.4837C15.6497 7.4667 15.6728 7.429 15.6607 7.38227C15.6958 7.39077 15.7104 7.41679 15.6848 7.47626C15.8015 7.41838 15.746 7.35041 15.8565 7.33448C15.8617 7.369 15.8413 7.38546 15.8371 7.42741C15.8816 7.35254 15.9261 7.27714 16.0244 7.29147C16.0224 7.31271 16.0375 7.3382 16.0103 7.34192C16.1694 7.30793 16.25 7.12421 16.4332 7.14492C16.4122 7.30369 16.5017 7.17943 16.5373 7.30475L16.6232 7.24474L16.5729 7.19164C16.6546 7.17465 16.7064 7.06527 16.7849 7.09075L16.7362 7.15713L16.8838 7.09713L16.7864 7.06951C16.8534 6.98508 16.7404 6.91127 16.856 6.92136C16.8377 6.93942 16.9366 6.90384 16.9968 6.96862V6.96915C17.0272 6.91924 17.0575 6.86773 17.1245 6.88472C17.1502 6.92136 17.1476 7.02703 17.1648 7.05146C17.1769 6.93623 17.3485 6.9803 17.3663 6.84915C17.3574 6.88048 17.3742 6.94685 17.3836 6.958L17.3925 6.86295C17.4364 6.87835 17.4459 6.89003 17.4542 6.9442C17.5699 6.92455 17.3747 6.79658 17.5254 6.82366C17.5165 6.83375 17.5254 6.8449 17.5076 6.86454C17.65 6.85817 17.7468 6.7302 17.8802 6.73339C17.9551 6.84702 17.7834 6.79764 17.8572 6.89003C18.0268 6.80932 18.1744 6.63037 18.3502 6.59692L18.3146 6.59533C18.2759 6.41266 18.468 6.6325 18.5219 6.51674C18.5067 6.53798 18.5308 6.624 18.5292 6.60276C18.6532 6.58471 18.7464 6.46682 18.895 6.34469L18.8914 6.39726C18.9746 6.40947 19.0771 6.34947 19.1577 6.33991C19.1604 6.2884 19.2028 6.2746 19.1515 6.22362C19.4786 6.36487 19.4995 5.89387 19.7868 6.00379C19.7643 6.01547 19.7507 6.06751 19.769 6.05901L19.9129 5.94007C19.8632 5.87528 19.869 5.90714 19.8062 5.86838C19.8062 5.81634 19.8339 5.76112 19.8716 5.73775C19.8266 5.82537 19.9318 5.85192 19.9831 5.87369C19.9668 5.8551 19.9647 5.82484 19.9506 5.80466C20.0992 5.88378 19.8883 5.65385 20.0443 5.67509L20.0584 5.71545C20.0898 5.67244 20.1013 5.60182 20.1516 5.58695C20.2154 5.65704 20.1286 5.65014 20.1626 5.71864C20.2238 5.67722 20.2003 5.49402 20.3034 5.54181C20.2892 5.57951 20.251 5.60182 20.2374 5.63952C20.3531 5.69846 20.3473 5.67031 20.4023 5.6581L20.3965 5.65863L20.53 5.63899L20.4871 5.62996C20.4436 5.37879 20.6226 5.49137 20.6414 5.28958C20.6226 5.48287 20.6713 5.37455 20.7205 5.468C20.7623 5.47544 20.8199 5.47597 20.8246 5.50889C20.8278 5.40481 20.9434 5.50942 20.945 5.35968C20.9664 5.3857 20.9994 5.32729 21.0355 5.40534C21.0852 5.34056 20.9874 5.36658 20.9691 5.32782C21.0031 5.17064 21.2784 5.28268 21.3213 5.04957C21.3982 4.90779 21.3527 4.80478 21.4191 4.67521C21.4866 4.68849 21.4673 4.79575 21.4673 4.79575C21.5542 4.78725 21.5913 4.74371 21.6191 4.66884C21.6274 4.7007 21.6541 4.71026 21.6949 4.72566C21.7316 4.68212 21.6437 4.60724 21.7316 4.59769C21.7468 4.63432 21.7734 4.69061 21.7771 4.73734C21.8075 4.66937 21.8174 4.58176 21.8457 4.5106C21.8985 4.54193 21.876 4.60671 21.8823 4.65132C21.9221 4.57857 21.9938 4.47237 21.9467 4.38847L21.8886 4.39803C21.9059 4.37573 21.954 4.44688 21.9503 4.47343C21.9514 4.57326 21.8588 4.51538 21.8342 4.49255L21.8546 4.44316C21.6876 4.33165 21.7342 4.59715 21.6505 4.65185L21.5882 4.51538L21.5897 4.67149C21.55 4.65663 21.4877 4.60299 21.5097 4.55627C21.4134 4.54512 21.4966 4.63486 21.4019 4.61149C21.3893 4.60565 21.3872 4.59875 21.3883 4.59025L21.3647 4.66725C21.3553 4.63486 21.293 4.59397 21.3364 4.58441C21.1951 4.59344 21.2511 4.78672 21.1501 4.72778L21.1528 4.71451C21.0502 4.8531 21.2035 4.80849 21.1779 4.98479L20.9581 4.82336L21.0062 4.91947C20.9905 4.92638 20.9596 4.94071 20.9403 4.90195C20.9314 4.99966 20.9753 4.93328 20.9848 5.01134C20.8644 4.98107 20.8209 5.17648 20.7126 5.04638C20.7325 5.13028 20.8126 5.05488 20.7702 5.15046C20.6498 5.0124 20.7021 5.23277 20.5943 5.20462C20.5635 5.11276 20.6488 5.11541 20.542 5.08621C20.5891 5.24498 20.4028 5.13719 20.3672 5.19719C20.4321 5.30923 20.2777 5.31242 20.2071 5.4011C20.1919 5.3618 20.0003 5.44039 19.8941 5.44889L19.8868 5.42871C19.9313 5.55031 19.8313 5.57951 19.78 5.64005C19.747 5.57049 19.7449 5.53703 19.7627 5.48712L19.7041 5.52163C19.7094 5.56677 19.6989 5.59438 19.6654 5.6273L19.6377 5.53491C19.5586 5.57898 19.522 5.71598 19.388 5.71014C19.4194 5.79404 19.5811 5.89174 19.4922 6.00166C19.467 5.96024 19.4278 5.8875 19.4487 5.8551C19.4419 5.86573 19.4315 5.90821 19.4027 5.89918L19.4137 5.80413C19.3493 5.79563 19.4168 5.87794 19.3744 5.88962C19.3461 5.82749 19.3252 5.85935 19.3074 5.80731C19.3147 5.79669 19.3535 5.81687 19.3566 5.78501C19.3074 5.7951 19.2378 5.78395 19.1986 5.74519C19.219 5.77864 19.2378 5.82909 19.209 5.85245C19.129 5.89759 19.1468 5.79138 19.085 5.78236C19.0845 5.83546 19.0117 5.81581 19.0515 5.91033C19.0269 5.92201 19.0034 5.88006 18.9829 5.85935C18.9583 5.92042 18.783 5.95387 18.8751 6.03512L18.8898 6.03724L18.884 6.04414H18.8846H18.884C18.7767 6.19707 18.5601 6.11105 18.4324 6.20929L18.4209 6.17742C18.3481 6.24858 18.2372 6.27566 18.2005 6.37018C18.1738 6.37868 18.1178 6.33035 18.1158 6.28787C18.0571 6.33354 18.0613 6.37283 17.9462 6.34947C17.9954 6.27141 17.9064 6.30646 18.0017 6.28628C17.9048 6.28575 17.8682 6.23902 17.8033 6.3585C17.8085 6.26451 17.7049 6.27301 17.6709 6.31124L17.751 6.35213C17.7086 6.37921 17.6651 6.38452 17.6217 6.39089L17.6102 6.27247C17.3951 6.19229 17.3564 6.60648 17.157 6.4185C17.1303 6.51036 17.2695 6.44718 17.2517 6.54966C17.1643 6.55975 17.0345 6.41532 17.0094 6.42169C16.8801 6.38611 16.944 6.61126 16.8131 6.59639C16.8377 6.63303 16.8786 6.73657 16.7969 6.79605C16.7079 6.80136 16.654 6.65108 16.6996 6.60648C16.7184 6.59851 16.7315 6.60913 16.7336 6.62294C16.7571 6.60223 16.7885 6.57621 16.7456 6.54063L16.7441 6.58311C16.6928 6.55178 16.5787 6.58311 16.5912 6.51036C16.5368 6.56347 16.5787 6.58311 16.6305 6.5932C16.5106 6.55975 16.463 6.63037 16.3442 6.6171C16.3662 6.63515 16.3924 6.67922 16.3751 6.68241C16.2029 6.6702 16.3186 6.7764 16.2118 6.81994C16.137 6.77162 16.2071 6.6702 16.1045 6.74188C16.0281 6.71002 16.07 6.63621 16.0909 6.59851C16.0035 6.6925 15.8915 6.57621 15.8324 6.5709L15.8795 6.52948C15.8512 6.55391 15.8251 6.55762 15.7984 6.56134L15.8423 6.63834C15.8088 6.62878 15.7821 6.6325 15.7769 6.59851C15.7534 6.65692 15.8251 6.7302 15.7722 6.81357C15.7235 6.77852 15.6503 6.87782 15.6194 6.77162C15.757 6.78808 15.5875 6.66489 15.6958 6.63037C15.6769 6.64683 15.6503 6.65002 15.6168 6.64046C15.61 6.62931 15.6178 6.61763 15.6251 6.60966C15.4854 6.53214 15.5864 6.74135 15.455 6.75941C15.4629 6.69569 15.4079 6.6479 15.3886 6.66436C15.4414 6.65745 15.4284 6.76259 15.3865 6.81675C15.2954 6.78224 15.2996 6.86667 15.2546 6.86826L15.3085 6.8826C15.2991 6.94685 15.2556 6.94526 15.1991 6.9734C15.1876 6.92667 15.2483 6.93251 15.2248 6.91446C15.1724 7.03287 15.0631 6.82578 14.9814 6.91287C14.9338 6.87463 14.9641 6.79764 14.9233 6.77215C14.8296 6.85977 14.804 6.69622 14.7035 6.77056C14.7428 6.85074 14.7464 6.83003 14.6779 6.91658L14.85 6.8449L14.7475 6.97393C14.8019 6.97075 14.8558 6.9134 14.8898 6.92455C14.8427 6.99677 14.8459 6.97552 14.8788 7.04243C14.792 6.92402 14.7396 7.1258 14.6454 7.04827L14.6287 6.8433C14.4936 6.76153 14.4115 6.96597 14.2414 6.92667L14.2974 6.95853C14.2812 7.0419 14.1953 6.97818 14.1435 7.01482C14.1446 6.94632 14.1095 6.92349 14.0839 6.8826C14.0896 6.93358 13.9624 6.88738 13.9551 7.02544L13.8761 6.94101C13.7416 6.91234 13.7322 7.15394 13.6003 7.12845C13.6369 7.05358 13.5767 7.00473 13.661 6.9511C13.6181 6.95057 13.5788 6.93782 13.5799 6.98561C13.5532 6.9426 13.4626 7.07854 13.4208 7.01323C13.4035 7.04349 13.3993 7.11571 13.3507 7.10987C13.3449 7.09606 13.3501 7.07588 13.3501 7.07588C13.3507 7.10987 13.2742 7.12208 13.3187 7.19855C13.1811 6.98349 12.943 7.21395 12.8268 7.02969C12.7321 7.05305 12.6174 7.07535 12.5316 7.08066C12.5374 7.05996 12.5327 7.04615 12.5484 7.05358C12.4322 6.98986 12.4709 7.25112 12.3374 7.17943C12.2715 7.06845 12.4112 7.11943 12.3694 7.07748C12.3573 6.85392 12.2056 7.10668 12.1197 6.9649L12.1422 6.95322C12.0768 6.87092 11.9706 7.0265 11.8575 7.00208C11.8575 7.00208 11.8643 6.98243 11.8602 6.96809C11.7769 7.07748 11.6278 7.10509 11.5158 7.12899C11.5561 7.04296 11.5681 7.08597 11.554 6.99464C11.5043 7.00367 11.5587 7.13961 11.4587 7.15766C11.4305 7.10721 11.363 7.05942 11.3609 6.96331L11.4535 6.9649C11.4153 6.83693 11.3342 6.96013 11.2871 6.93517L11.2981 6.88154C11.1562 6.88897 11.1426 7.02491 10.9919 7.0042L11.0034 7.04615C10.9082 7.17571 10.9417 6.96544 10.849 7.05995L10.838 6.92136C10.7794 6.95322 10.6329 7.03447 10.5324 7.04456C10.5994 6.94951 10.7182 6.91977 10.7957 6.86189C10.7412 6.86083 10.612 6.84808 10.5764 6.91287C10.5999 6.90278 10.6303 6.87304 10.6491 6.89747C10.5722 6.9957 10.4785 7.03553 10.3712 7.01747C10.4225 6.75569 10.0996 6.91021 10.0494 6.69356C9.84735 6.76419 9.68145 6.59798 9.46059 6.58152C9.50613 6.79817 9.3957 6.57833 9.37529 6.79074C9.32138 6.79658 9.30202 6.7902 9.29992 6.77587L9.16542 6.62772C9.13926 6.56134 9.22195 6.58895 9.22561 6.54063C9.11675 6.50877 9.19368 6.44505 9.12984 6.37868C9.13141 6.45726 9.07279 6.47904 9.01575 6.43602L9.0864 6.55231C8.91265 6.62931 8.98644 6.34682 8.81216 6.42275L8.87339 6.36752C8.78704 6.38876 8.58451 6.30168 8.47094 6.45142C8.46204 6.42487 8.45576 6.36328 8.49397 6.35637C8.31236 6.28947 8.03185 6.43974 7.90886 6.30433L7.93608 6.25708C7.89735 6.26398 7.85077 6.33832 7.81885 6.27778C7.8267 6.25761 7.84606 6.23053 7.83088 6.22362C7.80786 6.23637 7.71313 6.29425 7.67597 6.24752L7.72988 6.20344C7.56921 6.08025 7.41744 6.25336 7.25415 6.23902C7.29759 6.09193 7.17146 5.99954 7.10866 5.95334L7.11756 5.93369C6.91659 5.84979 6.72504 5.94272 6.50942 5.93741C6.44924 5.73404 6.13994 5.70642 5.98921 5.54181C6.00701 5.57951 5.93897 5.65067 5.89972 5.65067C5.86832 5.60341 5.73696 5.69687 5.79924 5.57102L5.81337 5.58004C5.83483 5.43933 5.73173 5.43561 5.66317 5.40269L5.57629 5.56518C5.50041 5.25719 5.06812 5.41172 5.07649 5.15312C5.01369 5.17117 4.96136 5.1425 4.89803 5.16002L4.9467 5.07453C4.84256 4.98957 4.79074 4.94762 4.63583 4.8908L4.7002 4.84566C4.62222 4.79894 4.45528 5.0347 4.38096 4.9901L4.43487 4.85044C4.29932 4.76123 4.23652 4.56317 4.03084 4.58547C4.04445 4.56901 4.07218 4.53662 4.09731 4.54618C4.0366 4.50051 3.91256 4.30298 3.81888 4.48193C3.89111 4.37679 3.68962 4.37891 3.58966 4.36457L3.65821 4.29607C3.52738 4.34758 3.50487 4.37307 3.40334 4.33378C3.39183 4.30829 3.43422 4.2589 3.44469 4.29926C3.41224 4.2074 3.33845 4.33059 3.29344 4.22651L3.36095 4.20209C3.30024 4.14261 3.28454 4.17288 3.2029 4.1989C3.13696 4.19412 3.09404 4.0773 3.14167 4.00349C3.09823 4.03694 3.01554 4.06084 2.99356 4.00986C3.01031 3.98119 3.03752 3.97694 3.05113 3.97535C2.98676 3.83729 2.82504 3.91269 2.81824 3.77622C2.83865 3.75126 2.84493 3.73533 2.84545 3.72259C2.92291 3.8033 2.98309 3.87074 2.9721 3.87021C3.03177 3.8033 2.97943 3.72896 3.11131 3.68754C3.01711 3.68807 2.8308 3.70772 2.7973 3.61533C2.80044 3.60577 2.80306 3.59674 2.81091 3.58453L2.824 3.584C2.81614 3.56329 2.7973 3.55692 2.77532 3.55532C2.7659 3.52559 2.76067 3.50541 2.74288 3.48523C2.78736 3.42629 2.69891 3.3854 2.67013 3.35195C2.60314 3.42257 2.57279 3.37 2.55447 3.46505C2.55395 3.45496 2.5686 3.46293 2.59267 3.48098C2.59948 3.48417 2.60576 3.48842 2.61309 3.48735L2.60471 3.4916C2.62722 3.51125 2.656 3.53674 2.68845 3.56541C2.62879 3.57603 2.57279 3.57869 2.57593 3.50541C2.5147 3.53302 2.45032 3.55957 2.4184 3.57019C2.47073 3.4316 2.4409 3.29779 2.49429 3.22663C2.36711 3.15866 2.26401 3.00573 2.06828 3.05618C2.02536 3.04078 2.07927 2.98768 2.09235 2.95847C2.12114 2.96378 2.13631 2.98662 2.16405 2.97865C2.0777 2.94892 2.00181 2.81298 1.88982 2.87723C1.87307 2.76466 2.01385 2.85068 1.91755 2.75404L1.9589 2.74501C1.97669 2.40782 1.43974 2.57934 1.49626 2.17896C1.49259 2.20551 1.49155 2.21825 1.47585 2.23365C1.40048 1.88637 1.02891 1.67557 1.05403 1.28846C1.04513 1.18863 0.972384 1.21094 0.892835 1.18173L0.980757 1.1212L0.833173 1.07606C0.697102 0.974108 0.977617 0.759051 0.769324 0.648602L0.710186 0.692675C0.703382 0.627893 0.607086 0.511603 0.687158 0.497796C0.673028 0.495672 0.611273 0.499389 0.639533 0.464343L0.691345 0.44682L0.561031 0.320441C0.569405 0.194062 0.770371 0.282739 0.744727 0.117066C0.709139 0.0597173 0.555274 -0.0209954 0.523873 0.00502384C0.525443 0.0289191 0.500846 0.0729925 0.447987 0.0862676L0.409783 0.0315741C0.250685 0.0464422 0.0753624 0.00927188 0 0.209461L0.119847 0.302918L0.052335 0.358142L0.0272142 0.26203C-0.0324477 0.333185 0.0376812 0.355487 0.0910629 0.380975C0.0533817 0.400091 0.0293076 0.422925 0.020934 0.448944L0.197303 0.516913C0.140258 0.54718 0.064372 0.501513 0.0507649 0.584881C0.132931 0.615679 0.173229 0.497265 0.240218 0.567358C0.184219 0.640106 0.122987 0.643292 0.202536 0.68471C0.165379 0.705419 0.136594 0.700109 0.111474 0.681524C0.176369 0.720818 0.177939 0.817992 0.267955 0.817992C0.200443 0.900829 0.349074 0.989507 0.20463 1.03677C0.243881 1.04208 0.352738 1.08668 0.376812 1.13182C0.173229 1.11111 0.438567 1.31395 0.249114 1.36599C0.42496 1.36811 0.41083 1.57361 0.550041 1.6437C0.535387 1.64317 0.506079 1.64264 0.508173 1.62937C0.52649 1.69734 0.490902 1.73716 0.483052 1.79132C0.608132 1.73929 0.681925 1.82212 0.780838 1.83487C0.702335 1.9708 0.618076 1.86248 0.51864 1.94372C0.613889 1.88956 0.680355 2.02603 0.747343 1.957C0.704429 2.05311 0.740017 2.0239 0.657851 2.1078C0.811192 2.03506 0.712802 2.14604 0.830033 2.14126C0.804912 2.26339 0.704952 2.24162 0.801248 2.30481C0.781885 2.37437 0.683495 2.32392 0.683495 2.32392Z" fill="white"/>
</svg>
