<svg width="7" height="22" viewBox="0 0 7 22" fill="none" xmlns="http://www.w3.org/2000/svg">
<path fill-rule="evenodd" clip-rule="evenodd" d="M3.15565 2.77206C3.18339 2.78799 3.17292 2.80658 3.15931 2.82144C3.14989 2.81136 3.13838 2.8002 3.12111 2.7864L3.10907 2.79065C3.12582 2.78215 3.14204 2.77472 3.15565 2.77206ZM2.81481 3.46546C2.80644 3.44529 2.79388 3.42192 2.77765 3.39856C2.80173 3.37519 2.83522 3.36086 2.84202 3.37732C2.81847 3.38103 2.82423 3.42723 2.81481 3.46546ZM1.2272 1.88732C1.28215 1.95476 1.34495 1.8321 1.41037 1.79599C1.50667 1.85015 1.37426 1.89688 1.34966 1.96804C1.41665 1.99353 1.53597 1.95211 1.56476 1.99193C1.5522 2.00892 1.55272 2.02114 1.52551 2.0307C1.6464 2.01477 1.66367 2.18097 1.81387 2.15814C1.80916 2.17035 1.80288 2.17938 1.7966 2.18681C1.83638 2.1353 1.88452 2.09123 1.92168 2.06309C1.94994 2.09123 2.03106 2.06787 1.97663 2.13371C1.96355 2.113 1.93634 2.13318 1.90912 2.14114L1.96303 2.1507C1.89447 2.25797 1.89656 2.13212 1.828 2.19053C1.90807 2.22823 2.0431 2.24044 2.05566 2.31107C1.97297 2.39603 1.93529 2.22133 1.90598 2.35355L1.88138 2.24947C1.78509 2.42629 1.85574 2.19531 1.74584 2.37585C1.79608 2.49586 1.87824 2.44753 1.92849 2.56807C1.99652 2.54896 1.99757 2.49957 2.06613 2.48099C2.26919 2.55002 1.92168 2.77516 2.12474 2.78101C2.20691 2.76083 2.3367 2.67799 2.32728 2.80384L2.20324 2.85747C2.26186 2.96526 2.39584 2.80065 2.39741 2.95942C2.34193 2.97164 2.30739 2.90632 2.30477 2.93128C2.26814 3.06138 2.39898 2.93447 2.43561 2.98704L2.34821 3.06722C2.43718 3.1628 2.58843 3.2313 2.68891 3.33856C2.65542 3.35184 2.61093 3.35237 2.60047 3.40016C2.75433 3.51539 2.79411 3.73841 2.82812 3.92214L2.94849 3.92585C2.95582 3.93966 2.92494 3.9747 2.89982 3.97046C2.90244 4.04851 2.95582 3.93966 3.00711 3.94656C3.0338 3.97683 2.98408 4.02143 2.94535 4.01612C3.08247 4.07241 3.28501 4.21578 3.24628 4.38517L3.2086 4.37827C3.21854 4.48606 3.44201 4.37614 3.40276 4.50412L3.37869 4.49721C3.44044 4.70908 3.6367 4.87848 3.57494 5.09406C3.71834 5.05795 3.60373 5.31709 3.79266 5.24115C3.75288 5.3978 3.70526 5.38134 3.71415 5.56772C3.72515 5.61392 3.85808 5.57781 3.90099 5.62135L3.80469 5.66649L3.93815 5.69198L3.83924 5.78118L3.88634 5.81942C3.8832 5.79711 3.91093 5.75888 3.94024 5.74879C4.01874 5.80667 3.95647 5.96597 3.90779 5.98881C3.96379 6.03607 4.01194 6.0881 4.06323 6.13855C4.02188 6.15076 3.99676 6.12527 3.96275 6.11147C4.09986 6.16882 3.86593 6.172 3.99205 6.22457C4.00932 6.20333 4.05276 6.20758 4.07317 6.20121C4.03078 6.2713 4.06846 6.37432 4.12237 6.44122L4.04857 6.4529C4.08259 6.59734 4.18936 6.73062 4.24588 6.88567C4.25687 6.81877 4.3809 6.78797 4.40969 6.82992L4.31077 6.8862C4.38718 6.89205 4.33275 6.82355 4.43533 6.85594C4.44475 6.9186 4.32961 6.93771 4.28304 6.917L4.34584 6.97435C4.31601 6.98922 4.29298 6.9786 4.25111 6.98869C4.327 6.99506 4.19145 7.14587 4.31653 7.14958L4.28565 7.16445C4.33171 7.32269 4.3898 7.38216 4.43376 7.5096C4.52692 7.48305 4.52116 7.53987 4.60751 7.55527C4.60647 7.66041 4.56512 7.78785 4.60699 7.89989C4.67764 7.9668 4.69334 7.90042 4.75876 7.9206C4.67607 7.9514 4.71846 8.06344 4.63996 8.02149C4.69334 8.15531 4.71375 8.19035 4.82104 8.35072C4.85139 8.32257 4.86186 8.29655 4.89326 8.30027C4.91472 8.32895 4.87442 8.38311 4.83203 8.38948L4.82156 8.38311C4.99531 8.5525 4.67607 8.90402 4.89064 9.01978L4.88018 9.01235L5.01101 9.15625C5.01363 9.23537 4.93565 9.12492 4.89535 9.19289C5.078 9.33998 4.9435 9.47592 5.05916 9.60548C4.82209 9.76797 5.14185 10.0096 5.00264 10.1922L5.06178 10.1737C5.12772 10.2039 5.03509 10.2278 5.02567 10.2591C5.07172 10.2475 5.07277 10.2066 5.1094 10.2268C5.23763 10.5549 5.1361 10.9367 5.11412 11.2983C5.11202 11.429 5.4365 11.3344 5.30985 11.5144L5.19209 11.4815C5.35643 11.7268 5.24705 12.0147 5.39097 12.2584C5.36323 12.2456 5.32869 12.2488 5.3266 12.2239C5.25123 12.286 5.3402 12.4241 5.40771 12.4187C5.40353 12.4591 5.34753 12.4336 5.31613 12.4618C5.27217 12.5202 5.43283 12.5876 5.35276 12.6242C5.3402 12.6301 5.32555 12.6115 5.31822 12.6019C5.36061 12.6338 5.32188 12.7676 5.41347 12.7251C5.37684 12.825 5.47156 12.9051 5.42184 12.9869C5.53227 13.0278 5.38521 13.1558 5.53646 13.1595C5.3805 13.1648 5.42551 13.3374 5.50349 13.3926C5.45534 13.3761 5.45953 13.4494 5.39254 13.4303C5.40091 13.4999 5.4344 13.5609 5.51343 13.5429C5.33549 13.6841 5.67776 13.7903 5.44435 13.8785C5.5396 14.0787 5.60711 14.2672 5.65369 14.4514C5.49878 14.4525 5.627 14.2465 5.46476 14.2635C5.53855 14.4355 5.67724 14.5311 5.65002 14.7079C5.63118 14.7541 5.58147 14.6851 5.55373 14.6713C5.62752 14.8444 5.55111 15.0116 5.64113 15.1656C5.627 15.1656 5.61025 15.1492 5.59821 15.1338C5.60449 15.1646 5.5778 15.2065 5.64793 15.2007L5.62804 15.1709C5.72853 15.1178 5.84523 15.2867 5.89914 15.291C5.69608 15.2448 5.85308 15.4481 5.5956 15.3722C5.6092 15.3918 5.64374 15.4163 5.69085 15.4104C5.67776 15.4412 5.65055 15.4513 5.59612 15.4221C5.63746 15.5315 5.71126 15.4906 5.71283 15.591C5.67829 15.5915 5.66468 15.5713 5.62438 15.5623C5.69242 15.6111 5.76045 15.6611 5.73428 15.7466C5.71335 15.7418 5.68718 15.7524 5.68666 15.7269C5.70288 15.8724 5.86722 15.9733 5.80389 16.1342C5.65526 16.088 5.75522 16.1894 5.627 16.1984L5.6652 16.2839L5.72748 16.2489C5.72486 16.3243 5.81907 16.3912 5.7772 16.456L5.72382 16.4002L5.74841 16.5415L5.79709 16.4613C5.86303 16.5378 5.95932 16.4533 5.92374 16.5542C5.91065 16.534 5.92217 16.6301 5.8468 16.6689L5.84628 16.6684C5.88763 16.7066 5.93054 16.7454 5.89862 16.8011C5.85727 16.8149 5.75679 16.7879 5.72905 16.7969C5.83791 16.8351 5.75627 16.9737 5.86931 17.022C5.84314 17.0061 5.77563 17.0045 5.7615 17.0093L5.84837 17.0417C5.81907 17.0762 5.80494 17.081 5.75208 17.0741C5.73324 17.1787 5.91536 17.0443 5.84209 17.1675C5.83529 17.1574 5.82221 17.1622 5.80912 17.1415C5.76935 17.2652 5.85779 17.3852 5.81174 17.4989C5.68195 17.5286 5.78348 17.3974 5.67358 17.4325C5.69137 17.5987 5.82116 17.7819 5.77929 17.9407L5.79552 17.912C5.97607 17.9428 5.69817 18.0267 5.77982 18.1122C5.76726 18.0915 5.68038 18.0809 5.70027 18.0872C5.66468 18.195 5.73219 18.3134 5.78034 18.4839L5.73481 18.46C5.68928 18.5221 5.70131 18.6288 5.67358 18.6968C5.71806 18.7212 5.70707 18.76 5.7772 18.7414C5.49302 18.9336 5.88449 19.1652 5.64688 19.3351C5.64846 19.3123 5.61025 19.2767 5.60868 19.2947L5.63432 19.4609C5.71492 19.4567 5.68457 19.445 5.74998 19.4174C5.79447 19.4429 5.82587 19.4928 5.82116 19.5331C5.7772 19.4546 5.69451 19.5199 5.64636 19.5464C5.67148 19.5438 5.6966 19.5576 5.7212 19.5576C5.57152 19.6261 5.87873 19.59 5.77092 19.6951L5.7301 19.6845C5.74632 19.7302 5.79656 19.7769 5.77929 19.822C5.68561 19.8305 5.74161 19.7705 5.6673 19.7583C5.6652 19.8241 5.82535 19.9102 5.72696 19.958C5.70498 19.9266 5.70916 19.8863 5.68718 19.8555C5.57257 19.9064 5.59926 19.9171 5.57676 19.9627L5.5799 19.9585L5.51605 20.0615L5.54902 20.0376C5.77458 20.1523 5.56838 20.2091 5.70759 20.3429C5.57623 20.2134 5.62543 20.3121 5.52337 20.2882C5.49093 20.3121 5.45272 20.3493 5.42551 20.3328C5.50087 20.3971 5.34753 20.4082 5.45796 20.5006C5.42498 20.4985 5.44644 20.5553 5.36532 20.5293C5.37945 20.6005 5.42551 20.5235 5.46633 20.5362C5.56106 20.6589 5.28682 20.7529 5.41556 20.9286C5.45691 21.0688 5.56001 21.1139 5.59141 21.2462C5.5307 21.2748 5.47837 21.1878 5.47837 21.1878C5.41661 21.2419 5.41556 21.2913 5.44069 21.3609C5.41452 21.3423 5.38835 21.3492 5.34701 21.3593C5.34596 21.4097 5.459 21.4193 5.3962 21.4713C5.36271 21.4522 5.30723 21.4241 5.27635 21.3927C5.2931 21.4559 5.34073 21.526 5.3559 21.5924C5.29572 21.5934 5.27845 21.5356 5.246 21.5058C5.25647 21.5775 5.25804 21.6885 5.34073 21.732L5.38416 21.6986C5.38207 21.7235 5.30357 21.6901 5.29205 21.6688C5.23553 21.5945 5.3423 21.5956 5.37579 21.6004L5.38678 21.6476C5.58722 21.6524 5.39672 21.4703 5.42708 21.3901L5.55844 21.457L5.46162 21.3433C5.50139 21.3327 5.58251 21.337 5.59455 21.3842C5.67619 21.3375 5.55635 21.3189 5.64427 21.2823C5.65735 21.2791 5.66363 21.2833 5.66834 21.2897L5.63903 21.2202C5.66573 21.2382 5.73952 21.2313 5.71178 21.2642C5.81488 21.1713 5.64374 21.0667 5.75731 21.047L5.76412 21.0577C5.74318 20.8962 5.66363 21.0226 5.56263 20.8867L5.83058 20.8575L5.7301 20.8235C5.7369 20.8086 5.74946 20.7789 5.78976 20.7922C5.72957 20.721 5.74318 20.7938 5.68247 20.7486C5.78976 20.6897 5.67462 20.5341 5.84157 20.5442C5.76621 20.5044 5.76987 20.6063 5.72696 20.5166C5.90804 20.5224 5.71021 20.4189 5.8018 20.3626C5.89077 20.3982 5.83215 20.4566 5.92426 20.3997C5.77511 20.3344 5.97817 20.2697 5.95671 20.2065C5.83267 20.1858 5.92531 20.0721 5.89443 19.968C5.93577 19.9797 5.98392 19.7917 6.03992 19.7052L6.06033 19.71C5.93682 19.6776 5.97136 19.5862 5.95357 19.5146C6.02788 19.5252 6.05614 19.5411 6.08598 19.582L6.09226 19.5172C6.05405 19.4976 6.03521 19.4747 6.02527 19.4317L6.11738 19.4577C6.12366 19.3701 6.02317 19.2724 6.09592 19.1673C6.00904 19.1529 5.84471 19.2315 5.79604 19.1099C5.84419 19.1099 5.92531 19.1131 5.94205 19.1455C5.9363 19.1349 5.90594 19.1062 5.92792 19.0876L6.00329 19.1418C6.04306 19.0945 5.93891 19.1094 5.9499 19.0696C6.01742 19.077 6.00119 19.0446 6.05405 19.0552C6.05981 19.0659 6.02317 19.0876 6.04777 19.1057C6.06452 19.0611 6.109 19.0096 6.16186 18.9958C6.12313 18.9963 6.07027 18.9878 6.06504 18.9538C6.06713 18.8667 6.14878 18.931 6.1875 18.8832C6.1425 18.8582 6.1964 18.8073 6.09487 18.7977C6.09749 18.7722 6.14511 18.7712 6.1739 18.7637C6.1336 18.7154 6.17651 18.5534 6.06556 18.5959L6.05771 18.6071L6.05353 18.5996C5.9609 18.4462 6.12837 18.2991 6.09278 18.1504L6.1268 18.1525C6.09278 18.0639 6.11476 17.9582 6.04515 17.8929C6.04672 17.8674 6.11057 17.8355 6.15087 17.8483C6.12941 17.7803 6.08964 17.7718 6.14878 17.6778C6.20635 17.7468 6.20164 17.6566 6.19065 17.7479C6.22152 17.6629 6.277 17.6449 6.18646 17.5488C6.27281 17.5838 6.29793 17.4872 6.27281 17.4452L6.20896 17.5042C6.19745 17.4575 6.20635 17.4171 6.21524 17.3762L6.32829 17.4022C6.47273 17.2275 6.10063 17.0767 6.33718 16.9461C6.25868 16.8983 6.27857 17.0417 6.18594 16.9981C6.20425 16.9174 6.37015 16.8346 6.36963 16.8091C6.43243 16.6976 6.20216 16.7029 6.24507 16.5866C6.20425 16.6009 6.0954 16.6147 6.05719 16.5277C6.07184 16.4464 6.22833 16.4284 6.2613 16.4793C6.26391 16.4995 6.25135 16.5085 6.23775 16.508C6.2524 16.534 6.26967 16.5685 6.31416 16.5367L6.27333 16.5261C6.31468 16.4857 6.31049 16.3731 6.37748 16.3997C6.33823 16.3376 6.31049 16.3731 6.28904 16.4188C6.3487 16.3142 6.2906 16.2553 6.33038 16.1475C6.30788 16.165 6.26025 16.1809 6.26077 16.1639C6.31049 16.0052 6.18279 16.0949 6.165 15.9887C6.22728 15.9271 6.31363 16.0083 6.2613 15.9016C6.30317 15.8352 6.36963 15.8857 6.4026 15.9117C6.32515 15.8145 6.45023 15.7269 6.46331 15.6706L6.49837 15.7216C6.47796 15.6908 6.47744 15.6653 6.47692 15.6393L6.3958 15.6711C6.40941 15.6398 6.40941 15.6143 6.4429 15.6143C6.38899 15.5841 6.30788 15.6409 6.23304 15.5809C6.27333 15.5389 6.18489 15.4587 6.2927 15.4418C6.26025 15.5703 6.40103 15.4253 6.42197 15.5326C6.40836 15.5124 6.40836 15.4869 6.42144 15.4561C6.43348 15.4508 6.44395 15.4598 6.45075 15.4678C6.54391 15.343 6.32672 15.4147 6.32515 15.2883C6.3869 15.3026 6.43976 15.2559 6.42668 15.2357C6.42668 15.2867 6.32567 15.2628 6.27752 15.2177C6.32253 15.1354 6.23984 15.1311 6.2435 15.0886L6.22257 15.1375C6.16134 15.1232 6.16814 15.0828 6.14721 15.0276C6.19483 15.0207 6.18122 15.077 6.20164 15.0562C6.09278 14.9978 6.3084 14.9108 6.23408 14.8263C6.27386 14.7844 6.34817 14.8178 6.37486 14.7807C6.29375 14.6861 6.45389 14.6713 6.38324 14.5709C6.30317 14.6044 6.32358 14.6086 6.23932 14.5406L6.30683 14.7063L6.18122 14.6038C6.18279 14.6543 6.23984 14.7084 6.22623 14.7398C6.15715 14.6909 6.17704 14.6957 6.11057 14.7228C6.2299 14.6479 6.03155 14.5884 6.11005 14.5045L6.31259 14.4971C6.3958 14.3707 6.1964 14.2868 6.23827 14.127L6.20582 14.1796C6.12418 14.1631 6.18908 14.0834 6.15401 14.0341C6.22152 14.0351 6.24403 14.0017 6.28485 13.9772C6.23513 13.9831 6.2838 13.862 6.14721 13.8567L6.23251 13.7802C6.26182 13.6507 6.03102 13.6486 6.04725 13.5254C6.12313 13.5572 6.16762 13.4983 6.22466 13.5763C6.22309 13.5354 6.23356 13.4977 6.18646 13.5004C6.22676 13.4733 6.08598 13.3947 6.14721 13.3523C6.11581 13.3374 6.04463 13.3374 6.0462 13.2917C6.05981 13.2853 6.07969 13.2891 6.07969 13.2891C6.0462 13.2917 6.02788 13.2216 5.95671 13.2673C6.15715 13.1255 5.9117 12.92 6.08388 12.7958C6.05353 12.7092 6.02265 12.6046 6.01061 12.5249C6.03155 12.5281 6.04463 12.5218 6.03887 12.5377C6.09226 12.4209 5.83895 12.4878 5.89862 12.3556C6.00172 12.2807 5.96299 12.4166 6.00119 12.3725C6.221 12.3333 5.95932 12.2228 6.07865 12.1256L6.09435 12.1447C6.16238 12.072 5.9923 11.995 5.99648 11.8877C5.99648 11.8877 6.01689 11.8909 6.02998 11.8851C5.90856 11.8246 5.8557 11.6923 5.81279 11.5946C5.90333 11.6164 5.86407 11.6355 5.95043 11.6063C5.93263 11.5622 5.80965 11.6355 5.77511 11.5474C5.81959 11.5123 5.85361 11.4422 5.94676 11.4226L5.96142 11.5081C6.07812 11.4497 5.94467 11.3971 5.9609 11.3493L6.0148 11.3488C5.98235 11.2192 5.84837 11.2335 5.84209 11.0912L5.80389 11.1109C5.66206 11.0498 5.87036 11.0365 5.76307 10.9723L5.89548 10.9319C5.85727 10.8852 5.74632 10.77 5.70498 10.6824C5.81383 10.7206 5.87978 10.8215 5.94519 10.8799C5.94153 10.8294 5.91432 10.7089 5.84262 10.6919C5.85884 10.71 5.896 10.7317 5.87821 10.7546C5.76255 10.7063 5.69765 10.6324 5.68457 10.5321C5.94781 10.5124 5.70864 10.2607 5.89862 10.1561C5.77458 9.99258 5.88344 9.79346 5.83477 9.58636C5.64531 9.69788 5.81907 9.52636 5.61444 9.5784C5.5935 9.5322 5.59403 9.51362 5.60711 9.50671L5.70602 9.33573C5.75993 9.289 5.76098 9.3729 5.80494 9.35962C5.8018 9.25024 5.88396 9.2975 5.92374 9.21625C5.85308 9.24546 5.80965 9.20085 5.8243 9.13448L5.74841 9.23909C5.60554 9.11483 5.89234 9.07554 5.74998 8.94916L5.82587 8.98261C5.76987 8.91411 5.76202 8.69906 5.58094 8.66295C5.60135 8.64436 5.65317 8.61303 5.67567 8.6433C5.6584 8.45373 5.40928 8.28115 5.47784 8.11442L5.5307 8.11495C5.5082 8.08468 5.42394 8.08097 5.46424 8.02521C5.48517 8.02149 5.51709 8.02521 5.51605 8.00875C5.49407 7.99547 5.403 7.94344 5.4187 7.8914L5.48569 7.9137C5.49825 7.71988 5.27007 7.68377 5.19314 7.54943C5.33811 7.50642 5.34439 7.35402 5.34701 7.27756L5.36846 7.27384C5.32398 7.06356 5.14761 6.96426 5.03038 6.79859C5.1429 6.62973 4.95135 6.38865 4.96862 6.17094C4.95397 6.2097 4.85715 6.20917 4.83046 6.18209C4.84354 6.12793 4.68863 6.10191 4.82052 6.05731L4.82366 6.07377C4.93827 5.99093 4.87128 5.915 4.84878 5.84437L4.67607 5.90225C4.85977 5.61498 4.38666 5.47904 4.56355 5.28469C4.50337 5.2608 4.47982 5.20823 4.42015 5.1854L4.50965 5.1461C4.47877 5.0176 4.46359 4.95228 4.37672 4.81635L4.45312 4.81582C4.42015 4.73032 4.15586 4.83546 4.11295 4.76484L4.23175 4.67722C4.15638 4.53969 4.19459 4.33738 4.00566 4.26304C4.02555 4.25454 4.06428 4.23861 4.08207 4.25826C4.05067 4.19135 4.0334 3.95559 3.87168 4.07772C3.9842 4.01241 3.80679 3.92798 3.71782 3.88231L3.80731 3.84567C3.66548 3.84567 3.63408 3.8616 3.55401 3.79469C3.55244 3.76814 3.60896 3.73735 3.60425 3.77664C3.60634 3.68371 3.49435 3.77133 3.48911 3.66407L3.55977 3.66247C3.52418 3.58973 3.49906 3.61203 3.41532 3.61203C3.35671 3.58973 3.35671 3.46919 3.4237 3.41237C3.37345 3.43149 3.29076 3.43202 3.2871 3.37786C3.31118 3.35449 3.33787 3.35821 3.35043 3.36033C3.33473 3.209 3.15312 3.25041 3.18243 3.11979C3.20808 3.10067 3.2175 3.08686 3.22116 3.07518C3.27768 3.16652 3.31693 3.24457 3.30699 3.24086C3.38183 3.19253 3.34833 3.10864 3.48754 3.1012C3.39543 3.07624 3.21069 3.0566 3.19551 2.96473C3.20023 2.95677 3.20494 2.9488 3.21383 2.93818L3.22744 2.93978C3.22378 2.91854 3.20703 2.90898 3.18505 2.9042C3.18138 2.8734 3.18034 2.85269 3.16673 2.83092C3.22116 2.78047 3.14161 2.72578 3.12015 2.68755C3.0427 2.74702 3.02281 2.69127 2.98827 2.78154C2.98984 2.77198 3.0024 2.78154 3.02176 2.80278C3.02804 2.80649 3.0338 2.8118 3.0406 2.81234L3.03223 2.81499C3.05002 2.83729 3.07305 2.8665 3.09922 2.89942C3.03851 2.89942 2.98461 2.89411 3.00135 2.82402C2.93698 2.84048 2.87104 2.85747 2.83964 2.86544C2.91657 2.73906 2.91029 2.60153 2.96838 2.53887C2.85063 2.46134 2.75852 2.30363 2.56122 2.35249C2.51987 2.33815 2.57639 2.28664 2.59 2.25797C2.61774 2.26381 2.63134 2.28558 2.65961 2.27868C2.57639 2.24841 2.50783 2.11459 2.39793 2.18097C2.3838 2.07105 2.52144 2.14911 2.42514 2.0599L2.46649 2.04928C2.46544 1.71156 1.95989 1.9383 1.96983 1.55492C1.97088 1.5804 1.9714 1.59315 1.95884 1.61014C1.83376 1.2841 1.43392 1.2018 1.33501 0.846555C1.29366 0.757346 1.23138 0.810447 1.14974 0.819474L1.20522 0.728141L1.05606 0.75416C0.903767 0.729734 1.0503 0.404759 0.812704 0.421751L0.784967 0.490782C0.746762 0.440336 0.613308 0.398918 0.66983 0.342632C0.656746 0.349004 0.609121 0.388298 0.612785 0.344756L0.644709 0.300151L0.46991 0.283159C0.400305 0.180144 0.616448 0.118016 0.478807 0.00544342C0.414958 -0.0157968 0.232309 0.0288076 0.235449 0.0755361C0.256383 0.0930592 0.274177 0.142443 0.24487 0.189171L0.181021 0.181206C0.0857714 0.312364 -0.0267488 0.434495 0.0056989 0.593797L0.134443 0.564592L0.111939 0.644773L0.0486136 0.60601C0.0407633 0.690971 0.0988551 0.651676 0.150143 0.634153C0.131303 0.672386 0.123976 0.703715 0.129209 0.727079L0.291448 0.658579C0.26214 0.715397 0.184684 0.734513 0.210852 0.798765C0.287261 0.767435 0.264757 0.660703 0.348493 0.666545C0.338549 0.751505 0.290924 0.7908 0.370474 0.772745C0.350586 0.809916 0.325466 0.824253 0.298251 0.826377C0.36524 0.814695 0.403968 0.887974 0.476714 0.835935C0.45421 0.935764 0.611214 0.919303 0.509161 1.03347C0.543179 1.01488 0.649419 0.993113 0.684483 1.01807C0.507591 1.10303 0.794387 1.13542 0.649419 1.26764C0.800667 1.18427 0.849339 1.3542 0.985933 1.35738C0.972849 1.36269 0.946158 1.37437 0.945635 1.36216C0.977559 1.41154 0.954008 1.4604 0.958719 1.50925C1.05763 1.41632 1.14189 1.4588 1.23505 1.43438C1.19266 1.57828 1.09322 1.51668 1.02047 1.62235C1.09479 1.54164 1.18271 1.63191 1.23086 1.55014C1.2115 1.64625 1.23609 1.6112 1.17539 1.70997C1.30308 1.59846 1.23034 1.7259 1.33658 1.68554C1.33082 1.80024 1.23714 1.80874 1.33187 1.83688C1.32088 1.90325 1.2272 1.88732 1.2272 1.88732Z" fill="white"/>
</svg>
