<svg width="7" height="6" viewBox="0 0 7 6" fill="none" xmlns="http://www.w3.org/2000/svg">
<path fill-rule="evenodd" clip-rule="evenodd" d="M1.22172 1.31983C1.21805 1.3124 1.21073 1.30602 1.20235 1.30124C1.22119 1.27257 1.24317 1.24602 1.24684 1.2508C1.23114 1.26726 1.23114 1.29115 1.22172 1.31983ZM0.425483 1.09599C0.448511 1.1167 0.510266 1.00307 0.558937 0.947313C0.609702 0.939879 0.51707 1.03387 0.488809 1.0944C0.52649 1.0806 0.610226 0.995634 0.620693 1.00997C0.609702 1.02803 0.607609 1.03599 0.588768 1.05511C0.667794 0.987138 0.649477 1.09387 0.74682 1.00679C0.741587 1.01741 0.736353 1.02696 0.73112 1.03493C0.765137 0.980235 0.802818 0.927135 0.830556 0.889964C0.843116 0.896336 0.898591 0.839519 0.853583 0.910673C0.848873 0.90377 0.828463 0.930321 0.809622 0.949437L0.842593 0.928728C0.782408 1.03387 0.802295 0.950499 0.74996 1.02272C0.795492 1.00732 0.880274 0.946251 0.877134 0.986607C0.811715 1.08484 0.813809 0.988731 0.775604 1.09122L0.775081 1.03493C0.686635 1.2006 0.766184 1.0121 0.668841 1.18733C0.684018 1.24096 0.743157 1.16768 0.758334 1.22184C0.804389 1.17458 0.812239 1.14113 0.858817 1.0944C0.977617 1.03599 0.723793 1.36362 0.852537 1.26326C0.908535 1.20697 0.999598 1.08909 0.979711 1.17246L0.892311 1.27335C0.918479 1.30946 1.0242 1.13263 1.00692 1.23193C0.97029 1.26963 0.95459 1.24786 0.950403 1.26432C0.911675 1.36681 1.01111 1.21547 1.02838 1.22875L0.962963 1.32698C1.01006 1.33866 1.10008 1.2999 1.15294 1.31211C1.13044 1.33866 1.10165 1.36362 1.09014 1.39973C1.17492 1.38964 1.18957 1.49212 1.19742 1.58505L1.2754 1.51655C1.27907 1.5208 1.25656 1.55956 1.24034 1.57231C1.23668 1.61744 1.27907 1.5208 1.31151 1.49478C1.32721 1.49743 1.29163 1.55319 1.26703 1.57284C1.35129 1.5277 1.47166 1.49319 1.44288 1.60788L1.41828 1.62753C1.42142 1.68116 1.57162 1.4815 1.54179 1.57762L1.52661 1.58824C1.56011 1.66895 1.681 1.6424 1.63599 1.80117C1.73124 1.6886 1.65745 1.89781 1.78096 1.73532C1.75584 1.84259 1.72444 1.86489 1.73281 1.95622C1.74014 1.97321 1.82701 1.86701 1.85475 1.86117L1.79247 1.94826L1.87987 1.87339L1.81655 1.98543L1.84742 1.97428C1.84533 1.96472 1.86312 1.92595 1.88197 1.90206C1.93378 1.87976 1.89505 2.00454 1.86365 2.04915L1.97146 2.01676C1.94477 2.05074 1.92697 2.05605 1.90395 2.07251C1.9971 2.00614 1.84324 2.16809 1.92854 2.10703C1.93953 2.08473 1.96779 2.05711 1.9814 2.03959C1.9568 2.10225 1.98664 2.12508 2.02589 2.1203L1.97826 2.17659C2.00757 2.22226 2.08503 2.21217 2.13003 2.24721C2.1337 2.20739 2.2122 2.1065 2.23261 2.1065L2.1719 2.20208C2.22162 2.15216 2.18289 2.15694 2.25093 2.10119C2.26035 2.12402 2.18708 2.21376 2.15568 2.23606L2.19964 2.22013C2.1808 2.24827 2.16562 2.25889 2.13893 2.29288C2.18865 2.24243 2.10858 2.41129 2.19231 2.32208L2.17399 2.35023C2.219 2.38474 2.26244 2.36881 2.30326 2.39218C2.36083 2.31359 2.36292 2.34226 2.42049 2.28651C2.42939 2.33217 2.41526 2.4166 2.45294 2.43466C2.50475 2.41236 2.50789 2.37306 2.55238 2.33377C2.50214 2.40705 2.53982 2.42457 2.48539 2.46386C2.53354 2.48139 2.54662 2.48723 2.63873 2.46599C2.65495 2.43253 2.65809 2.41501 2.67903 2.39271C2.6963 2.38793 2.67798 2.43837 2.65129 2.47183L2.64344 2.47767C2.77794 2.41129 2.62146 2.78459 2.7748 2.66777L2.76747 2.67308L2.87005 2.62954C2.88209 2.65768 2.81824 2.67414 2.80149 2.73043C2.93861 2.64759 2.86848 2.80689 2.96739 2.75751C2.84545 2.99381 3.09195 2.82707 3.03647 2.99487L3.07049 2.94283C3.11707 2.90194 3.06317 2.98159 3.06317 2.99912C3.08986 2.95929 3.08358 2.94495 3.11027 2.92318C3.24843 2.93327 3.25209 3.14142 3.31594 3.25878C3.34159 3.2986 3.52371 3.01505 3.48185 3.16744L3.40177 3.25081C3.55407 3.19293 3.54517 3.36338 3.68386 3.3209C3.66345 3.33949 3.64356 3.3671 3.63728 3.36179C3.60274 3.44038 3.68909 3.40587 3.72939 3.35117C3.73567 3.36551 3.6959 3.40268 3.68229 3.4356C3.66816 3.48658 3.78173 3.37719 3.7409 3.45047C3.73462 3.46215 3.72102 3.46905 3.71474 3.47224C3.74823 3.44675 3.75346 3.51419 3.80057 3.42923C3.80004 3.48605 3.87593 3.43188 3.86337 3.49401C3.9403 3.41702 3.87854 3.56941 3.97118 3.44941C3.87802 3.57472 3.94344 3.58588 4.0031 3.53862C3.96961 3.57313 3.98897 3.58906 3.94396 3.63791C3.96437 3.65013 3.99839 3.63951 4.04235 3.57154C3.96751 3.74996 4.20145 3.50145 4.07951 3.71066C4.18575 3.68464 4.27106 3.67721 4.34328 3.68464C4.2496 3.81049 4.27786 3.65597 4.18418 3.79084C4.27001 3.77385 4.37625 3.6857 4.40189 3.75208C4.40189 3.77863 4.35479 3.80199 4.33543 3.82058C4.42073 3.80412 4.41969 3.90129 4.51232 3.86359C4.50342 3.87527 4.48982 3.88483 4.4783 3.8912C4.48982 3.89333 4.48406 3.92466 4.52488 3.86625L4.50552 3.8758C4.55262 3.78235 4.66566 3.72606 4.69863 3.68305C4.56466 3.83757 4.71067 3.7558 4.53692 3.94749C4.55053 3.94059 4.57774 3.91882 4.60391 3.87899C4.60391 3.89651 4.5903 3.92094 4.55053 3.95864C4.60286 3.94961 4.63688 3.88058 4.66357 3.90235C4.64316 3.92997 4.62955 3.93687 4.60286 3.96714C4.65624 3.92306 4.70962 3.87899 4.71538 3.91988C4.70177 3.93581 4.68869 3.9597 4.68241 3.95386C4.72794 3.9751 4.85459 3.85934 4.85983 3.9443C4.75934 4.05635 4.8457 3.99528 4.77243 4.10201L4.81848 4.08821L4.8457 4.03033C4.86454 4.04732 4.93833 3.98413 4.931 4.03192L4.88442 4.06378L4.93728 4.07228L4.94461 4.01599C5.00427 3.97776 5.03776 3.88218 5.04404 3.93156C5.03096 3.93793 5.06393 3.94802 5.02991 4.01758L5.02939 4.01811C5.06341 3.99209 5.10004 3.96448 5.09586 4.00218C5.07597 4.03829 5.00898 4.11582 4.99485 4.13971C5.06864 4.05953 5.06079 4.1514 5.14139 4.0675C5.12098 4.08608 5.08068 4.14078 5.0744 4.15299L5.13406 4.08821C5.12673 4.11794 5.12045 4.13016 5.08696 4.17317C5.10632 4.20715 5.17436 4.03298 5.16703 4.11582C5.16023 4.11954 5.15342 4.13122 5.14034 4.13759C5.15238 4.19281 5.23821 4.14131 5.24449 4.19972C5.17698 4.31229 5.19843 4.20503 5.14453 4.3022C5.20367 4.31654 5.32927 4.24538 5.35491 4.30273L5.35544 4.28468C5.46953 4.14025 5.3345 4.38238 5.40777 4.32875C5.39417 4.33619 5.34078 4.40628 5.35387 4.39088C5.36643 4.43708 5.44127 4.39991 5.52029 4.38663L5.48732 4.42062C5.47999 4.46788 5.51925 4.47478 5.52553 4.50611C5.55954 4.47212 5.5653 4.48646 5.59932 4.42593C5.49988 4.68771 5.79557 4.39247 5.71603 4.61284C5.70975 4.60859 5.67677 4.63514 5.68201 4.63939L5.75161 4.63673C5.79557 4.5693 5.77464 4.59319 5.80133 4.53531C5.83535 4.50133 5.86884 4.48062 5.88036 4.48912C5.82907 4.51726 5.80447 4.59319 5.7872 4.6362C5.80028 4.61496 5.81913 4.59532 5.83273 4.57461C5.77255 4.70736 5.93165 4.44663 5.90705 4.54806L5.88036 4.58098C5.90495 4.57248 5.94839 4.53531 5.95363 4.55443C5.90495 4.63355 5.91595 4.58045 5.87041 4.64151C5.89135 4.65054 6.0091 4.52522 5.9709 4.61284C5.94839 4.62771 5.93688 4.61974 5.91385 4.63514C5.8678 4.73656 5.88664 4.71532 5.88925 4.73922V4.73603L5.89082 4.79922L5.90024 4.76895C6.06458 4.59001 5.97194 4.76736 6.09493 4.66169C5.9777 4.76099 6.03946 4.72807 5.97508 4.81197C5.96619 4.84117 5.95834 4.87622 5.93793 4.89799C6.00177 4.83958 5.92275 4.96967 6.01538 4.88418C5.99654 4.91233 6.02847 4.89852 5.97561 4.9649C6.01015 4.95693 6.00596 4.91339 6.03213 4.88047C6.12843 4.80825 6.01748 5.04402 6.15145 4.94631C6.22524 4.91976 6.29904 4.83214 6.36498 4.8109C6.34457 4.86294 6.28334 4.90383 6.28334 4.90383C6.27235 4.95746 6.29119 4.96012 6.33044 4.94153C6.31003 4.96277 6.29904 4.9856 6.28124 5.02012C6.30061 5.02278 6.36289 4.92719 6.35137 4.98083C6.32625 5.00897 6.287 5.05517 6.25874 5.08065C6.29276 5.06738 6.34562 5.02809 6.37963 5.01587C6.34928 5.06685 6.31735 5.08066 6.28909 5.10774C6.32363 5.09977 6.36812 5.1003 6.42935 5.02862L6.43615 4.99304C6.4461 4.9941 6.39272 5.06048 6.37806 5.07057C6.31945 5.11783 6.37388 5.02702 6.39272 4.99888L6.41731 4.99038C6.52146 4.82046 6.35137 4.98083 6.33463 4.95374L6.42935 4.84436L6.33463 4.92295C6.35137 4.88896 6.39481 4.82099 6.41941 4.81197C6.44453 4.74187 6.3744 4.84276 6.40685 4.76736C6.41208 4.75621 6.41679 4.7509 6.4215 4.74718L6.38016 4.77002C6.40109 4.74771 6.43668 4.68506 6.43459 4.71001C6.45395 4.62027 6.32363 4.76152 6.37649 4.66488L6.38434 4.65904C6.31421 4.66806 6.31788 4.7424 6.21425 4.81993L6.34614 4.59266L6.2802 4.6755C6.2781 4.66913 6.27444 4.65638 6.30113 4.62346C6.24199 4.67019 6.27653 4.66275 6.22734 4.71108C6.26293 4.61762 6.14413 4.70577 6.23833 4.56558C6.1839 4.62505 6.22158 4.63036 6.16715 4.65904C6.26711 4.5077 6.12319 4.66594 6.15302 4.58417C6.21425 4.51248 6.20274 4.56611 6.23309 4.48434C6.12843 4.60434 6.21635 4.42911 6.18338 4.44186C6.10854 4.54328 6.11796 4.45885 6.06667 4.47319C6.09336 4.43973 6.05777 4.37973 6.05987 4.3245L6.07243 4.30751C5.9934 4.40734 5.98189 4.36911 5.94787 4.37654C5.9934 4.31495 6.01434 4.29317 6.04417 4.273L6.02637 4.26078C5.99811 4.29105 5.98032 4.30379 5.96043 4.30751L6.02062 4.2337C5.99445 4.22043 5.90862 4.28999 5.91542 4.21565C5.86204 4.2868 5.79453 4.43389 5.72806 4.45832C5.75528 4.41902 5.80186 4.35158 5.82174 4.3415C5.81546 4.34468 5.78877 4.36698 5.79557 4.34627L5.85524 4.28999C5.86256 4.25122 5.80866 4.33937 5.80186 4.32504C5.84268 4.26981 5.82227 4.2799 5.85628 4.23689C5.86309 4.23317 5.84896 4.26662 5.86884 4.24804C5.86413 4.22892 5.87303 4.18485 5.89815 4.13918C5.87669 4.17157 5.84425 4.21405 5.83012 4.21459C5.80395 4.20131 5.87041 4.14184 5.87774 4.10361C5.84425 4.13759 5.85838 4.08661 5.79819 4.16945C5.79139 4.16361 5.81808 4.12431 5.83169 4.09989C5.79348 4.1275 5.76784 4.06856 5.7176 4.1668L5.71655 4.17476C5.71446 4.17635 5.71393 4.17582 5.71236 4.17688V4.17742V4.17688C5.61293 4.22998 5.66421 4.06909 5.59984 4.07546L5.61973 4.04785C5.57315 4.06219 5.55431 4.02767 5.49465 4.07546C5.48732 4.07015 5.51506 4.01227 5.54123 3.98147C5.50878 3.98944 5.48418 4.01865 5.49151 3.95386C5.54437 3.91882 5.51663 3.90607 5.53547 3.93209C5.52971 3.8912 5.55693 3.84235 5.47685 3.8997C5.53704 3.83492 5.52396 3.79722 5.49779 3.81049L5.47685 3.87315C5.45697 3.87421 5.45121 3.86041 5.44441 3.84607L5.51768 3.75686C5.55326 3.60765 5.29264 3.88696 5.39417 3.66924C5.3345 3.72553 5.38631 3.73456 5.32037 3.80306C5.30729 3.77385 5.38213 3.62252 5.37532 3.61721C5.38317 3.5434 5.24867 3.7335 5.24292 3.67455C5.22251 3.71066 5.16232 3.80306 5.11627 3.81686C5.10266 3.78819 5.19006 3.65703 5.22355 3.64004C5.23088 3.64163 5.22565 3.65384 5.21727 3.665C5.2335 3.65809 5.25286 3.65066 5.27013 3.60818L5.24344 3.63951C5.25705 3.59703 5.2246 3.57844 5.27118 3.52906C5.23193 3.54871 5.2246 3.57844 5.22408 3.60499C5.2314 3.53596 5.18169 3.57101 5.17593 3.51685C5.16755 3.53915 5.14348 3.5811 5.13929 3.57738C5.12673 3.50463 5.07492 3.62676 5.03567 3.61986C5.05608 3.5572 5.12883 3.50304 5.06969 3.52428C5.07702 3.47649 5.12987 3.43295 5.15656 3.41064C5.0833 3.45578 5.13825 3.33206 5.13144 3.30922L5.16494 3.29276C5.14505 3.30232 5.13877 3.29648 5.13197 3.2917L5.09167 3.36392C5.09167 3.34639 5.08487 3.34108 5.10528 3.31347C5.06498 3.35117 5.03148 3.42923 4.97182 3.47649C4.98543 3.43454 4.91216 3.48817 4.97235 3.39684C4.98491 3.45259 5.03358 3.30551 5.07231 3.31241C5.05922 3.31878 5.05294 3.31347 5.05294 3.29595C5.05922 3.2848 5.06707 3.27842 5.07335 3.27471C5.09795 3.17169 4.98595 3.36392 4.95351 3.33683C4.9938 3.29011 5.01474 3.23594 5.00113 3.24232C5.01421 3.25347 4.94722 3.33046 4.90693 3.35967C4.91373 3.30497 4.86297 3.37135 4.85459 3.35807V3.38569C4.81377 3.43242 4.80801 3.41808 4.78132 3.42233C4.80801 3.3825 4.81429 3.40587 4.8211 3.38463C4.74102 3.46003 4.84936 3.26568 4.78289 3.30763C4.79702 3.26568 4.84988 3.21311 4.85721 3.18284C4.78394 3.22851 4.87814 3.09363 4.8122 3.12656C4.77138 3.1993 4.78446 3.18391 4.718 3.23488L4.79755 3.22161L4.69759 3.29754C4.71015 3.30869 4.75673 3.2763 4.75673 3.29435C4.70334 3.33843 4.71695 3.32303 4.68346 3.38356C4.73736 3.26887 4.60338 3.41436 4.63112 3.33046L4.75254 3.16479C4.77347 3.06655 4.63269 3.20727 4.62118 3.13399L4.61333 3.17329C4.55995 3.23488 4.58088 3.16267 4.54791 3.17913C4.58925 3.12496 4.59553 3.09841 4.61437 3.05965C4.58507 3.10107 4.58611 3.03257 4.50238 3.14089L4.5364 3.05328C4.52383 2.99805 4.38305 3.18284 4.36369 3.1393C4.41759 3.0862 4.4312 3.03576 4.48458 3.0092C4.47359 3.00071 4.47098 2.98319 4.44324 3.02142C4.46208 2.98212 4.35898 3.07346 4.38672 3.01345C4.36474 3.03416 4.32078 3.09151 4.3124 3.0777C4.31868 3.06549 4.33229 3.05009 4.33229 3.05009C4.3124 3.0777 4.28571 3.07346 4.25222 3.14249C4.3438 2.94442 4.14912 3.08514 4.22762 2.91469C4.18994 2.91522 4.14807 2.91203 4.12347 2.89982C4.13708 2.88442 4.14336 2.87221 4.14336 2.88123C4.15121 2.80742 4.01043 3.02673 4.01776 2.94389C4.06538 2.84141 4.07114 2.90884 4.08474 2.86636C4.21192 2.68051 4.02561 2.86105 4.08003 2.73733L4.09364 2.73096C4.12086 2.65556 4.00048 2.76813 3.98164 2.73361C3.98164 2.73361 3.9942 2.71874 4.00153 2.70653C3.91466 2.78512 3.85552 2.78831 3.80946 2.79362C3.86965 2.72883 3.84924 2.76547 3.89634 2.68848C3.87697 2.68954 3.81574 2.80795 3.77597 2.81008C3.79638 2.76494 3.80371 2.71768 3.85761 2.63803L3.88326 2.65131C3.94449 2.54245 3.85133 2.63272 3.85133 2.60564L3.88482 2.56316C3.83877 2.55095 3.7587 2.66087 3.72625 2.62476L3.70636 2.66087C3.60588 2.75432 3.73305 2.58652 3.6535 2.65237L3.72782 2.53608C3.69433 2.55307 3.60117 2.60776 3.56139 2.61042C3.63519 2.5382 3.69433 2.51803 3.74823 2.48245C3.73462 2.4713 3.69537 2.4559 3.64879 2.50528C3.6624 2.49891 3.68857 2.47661 3.68177 2.49785C3.60169 2.57272 3.54883 2.59927 3.52319 2.57697C3.68386 2.36563 3.49127 2.4697 3.5928 2.2881C3.48708 2.33164 3.52162 2.18296 3.4562 2.15429C3.3552 2.33589 3.43631 2.14632 3.31542 2.32102C3.29449 2.32208 3.29187 2.31571 3.29815 2.3035L3.33321 2.17128C3.35991 2.11446 3.37299 2.14314 3.4002 2.10331C3.38032 2.06879 3.4405 2.02154 3.45463 1.96206C3.41381 2.02631 3.38084 2.04278 3.38136 2.00667L3.34734 2.10331C3.2411 2.16491 3.41695 1.93339 3.31123 1.99392L3.36305 1.94932C3.31908 1.96578 3.28768 1.89144 3.16731 2.0141C3.1783 1.9918 3.20709 1.94135 3.22593 1.93551C3.19086 1.87816 3.00926 2.00083 3.03229 1.88719L3.06631 1.8479C3.04851 1.85321 2.99304 1.9148 3.0124 1.86383C3.02548 1.84737 3.04642 1.82506 3.0438 1.81922C3.02862 1.82984 2.96582 1.87445 2.97158 1.84099L3.01606 1.8017C3.00821 1.71037 2.85906 1.8617 2.79783 1.86011C2.88732 1.73639 2.87842 1.66842 2.87424 1.6339L2.88732 1.61691C2.84231 1.55956 2.71828 1.64824 2.63088 1.65833C2.69577 1.50009 2.56232 1.5208 2.56546 1.40663C2.55656 1.43531 2.49376 1.50221 2.47597 1.50805C2.48225 1.47354 2.37967 1.56859 2.46393 1.45655L2.46655 1.46186C2.53825 1.34397 2.49167 1.35459 2.4744 1.3376L2.36397 1.4831C2.46916 1.22928 2.17295 1.46292 2.28494 1.24892C2.24569 1.27707 2.23052 1.26485 2.19179 1.293L2.24988 1.21388C2.23052 1.16821 2.2211 1.14538 2.16457 1.13316L2.21482 1.08272C2.19441 1.05989 2.01856 1.28981 1.99292 1.27813L2.07246 1.1544C2.02955 1.1252 2.06304 0.989793 1.94372 1.06679C1.95733 1.0498 1.9835 1.01634 1.99344 1.01687C1.97617 0.99882 1.97617 0.879875 1.86522 1.0482C1.94163 0.941472 1.83015 1.00625 1.77363 1.03599L1.83382 0.960588C1.74275 1.04661 1.72234 1.07316 1.67577 1.08113C1.67681 1.06626 1.71554 1.01475 1.70926 1.04077C1.71816 0.984483 1.63913 1.1029 1.64436 1.04236L1.6899 0.999351C1.67315 0.977049 1.65536 1.00519 1.60093 1.05511C1.56482 1.07635 1.57424 1.00466 1.62291 0.931383C1.58889 0.972801 1.53498 1.02165 1.53708 0.991917C1.55487 0.963774 1.5711 0.950499 1.57947 0.944127C1.58209 0.863945 1.46067 0.995103 1.49102 0.900053C1.50934 0.873503 1.51719 0.859697 1.52085 0.850139C1.54807 0.873503 1.56796 0.894743 1.56168 0.898991C1.61349 0.826775 1.59988 0.796507 1.69042 0.710485C1.63285 0.751372 1.51562 0.845891 1.51771 0.795445C1.5219 0.78748 1.52556 0.780046 1.53237 0.768364L1.54074 0.761992C1.54074 0.750841 1.53132 0.754027 1.51824 0.763054C1.51981 0.745531 1.52138 0.733318 1.5151 0.727477C1.55592 0.665349 1.51196 0.675438 1.50306 0.663756C1.44654 0.743938 1.44078 0.719512 1.40781 0.795445C1.4099 0.788542 1.41671 0.78748 1.42665 0.790135C1.43031 0.789073 1.43293 0.789604 1.43764 0.785356C1.43607 0.78748 1.43398 0.790135 1.43188 0.792259C1.44078 0.795445 1.4523 0.800755 1.46381 0.807658C1.42613 0.841112 1.39211 0.868193 1.41095 0.814562C1.36856 0.86129 1.32407 0.908549 1.30262 0.930321C1.36699 0.808189 1.37955 0.726415 1.42456 0.65526C1.35705 0.673314 1.32093 0.622869 1.19114 0.754558C1.16759 0.76624 1.21051 0.703581 1.22359 0.677562C1.24034 0.666942 1.24557 0.674376 1.26441 0.65526C1.21679 0.678624 1.19428 0.626055 1.11421 0.726415C1.12311 0.661101 1.19795 0.641454 1.15085 0.632427L1.17806 0.604284C1.2304 0.388165 0.876087 0.786949 0.955113 0.518261C0.950926 0.534722 0.949356 0.542687 0.937843 0.561272C0.919526 0.403033 0.697102 0.517199 0.719606 0.305328C0.717512 0.257537 0.666748 0.321789 0.615459 0.361083L0.671981 0.272406L0.575685 0.351525C0.488285 0.396661 0.665177 0.0971739 0.52178 0.199127L0.486192 0.260723C0.477818 0.23789 0.41083 0.255944 0.460548 0.192755C0.451651 0.201782 0.412923 0.247979 0.427577 0.213464L0.458978 0.16886L0.364775 0.215057C0.356925 0.159832 0.497182 0.0424804 0.457931 0C0.429147 0.00477904 0.316627 0.0939879 0.301973 0.128503C0.306683 0.135406 0.298833 0.16886 0.266908 0.213995L0.234984 0.225677C0.137641 0.35418 0.0287842 0.479497 0 0.598974L0.0847827 0.538439L0.0465781 0.608532L0.0219807 0.596318C-0.00889695 0.664818 0.0376812 0.61809 0.0722223 0.588353C0.0502416 0.623931 0.0366345 0.64995 0.032971 0.666411L0.149155 0.560741C0.115137 0.614373 0.064372 0.653667 0.0607086 0.695085C0.114614 0.645702 0.131884 0.571361 0.179509 0.547997C0.149678 0.617028 0.110427 0.662694 0.162238 0.622869C0.139734 0.657915 0.120894 0.677031 0.10467 0.687651C0.147061 0.656853 0.151771 0.696678 0.208817 0.631896C0.168519 0.715264 0.266385 0.645702 0.175322 0.768895C0.200966 0.741814 0.269002 0.688713 0.284702 0.69243C0.155435 0.82412 0.323953 0.73438 0.202536 0.889433C0.31558 0.767833 0.30459 0.873503 0.386755 0.821465C0.377335 0.830492 0.358495 0.849608 0.361111 0.841112C0.369485 0.863945 0.344887 0.908018 0.337037 0.940941C0.41868 0.832085 0.462118 0.825713 0.52492 0.767833C0.467875 0.888902 0.419203 0.888371 0.351691 0.995103C0.415016 0.905363 0.450604 0.931914 0.498229 0.852263C0.465258 0.929259 0.487762 0.894212 0.42967 0.991386C0.531723 0.855449 0.460548 0.978642 0.53434 0.903239C0.507126 0.987138 0.446941 1.03652 0.501369 1.01263C0.482005 1.06307 0.425483 1.09599 0.425483 1.09599Z" fill="white"/>
</svg>
