<svg width="36" height="32" viewBox="0 0 36 32" fill="none" xmlns="http://www.w3.org/2000/svg">
<ellipse cx="17.57" cy="9.93303" rx="6.58874" ry="5.95982" stroke="#172239" stroke-width="1.71429" stroke-linecap="round" stroke-linejoin="round"/>
<path fill-rule="evenodd" clip-rule="evenodd" d="M7.68688 23.8358C7.68521 23.3937 7.78322 22.957 7.97351 22.5587C8.57067 21.3539 10.2546 20.7154 11.652 20.4263C12.6597 20.2093 13.6814 20.0644 14.7094 19.9925C16.6127 19.8239 18.5269 19.8239 20.4302 19.9925C21.4581 20.0652 22.4797 20.2101 23.4876 20.4263C24.8849 20.7154 26.5689 21.2937 27.1661 22.5587C27.5487 23.3705 27.5487 24.313 27.1661 25.1249C26.5689 26.3899 24.8849 26.9682 23.4876 27.2453C22.481 27.4712 21.459 27.6202 20.4302 27.691C18.8811 27.8235 17.3247 27.8476 15.7723 27.7633C15.4141 27.7633 15.0677 27.7633 14.7094 27.691C13.6845 27.6211 12.6663 27.472 11.6639 27.2453C10.2546 26.9682 8.58261 26.3899 7.97351 25.1249C7.78419 24.722 7.68627 24.2816 7.68688 23.8358Z" stroke="#172239" stroke-width="1.71429" stroke-linecap="round" stroke-linejoin="round"/>
</svg>
