<svg width="36" height="32" viewBox="0 0 36 32" fill="none" xmlns="http://www.w3.org/2000/svg">
<path d="M16.284 25.9021H10.834C9.06804 25.8964 7.63621 24.6357 7.62323 23.0751V13.4945C7.6267 12.9721 7.89123 12.4777 8.34595 12.1438L9.30563 11.5156C9.65599 11.1857 9.69161 10.6823 9.3905 10.3165C9.08939 9.95055 8.53653 9.82541 8.07345 10.0183L7.09008 10.6675C6.09812 11.3458 5.50947 12.3863 5.49062 13.4945V23.0855C5.49713 25.6912 7.88564 27.802 10.834 27.8077H16.284C16.8729 27.8077 17.3503 27.3858 17.3503 26.8654C17.3503 26.345 16.8729 25.9231 16.284 25.9231V25.9021Z" fill="#161616"/>
<path d="M30.5278 13.5123C30.5157 12.414 29.9612 11.3783 29.0166 10.6899L21.0453 4.93013C19.2936 3.65423 16.7984 3.65423 15.0467 4.93013L12.5203 6.59221C12.0457 6.90108 11.9372 7.50013 12.2781 7.93024C12.6189 8.36034 13.28 8.45862 13.7547 8.14976L16.3156 6.4145C17.3208 5.66462 18.7712 5.66462 19.7764 6.4145L27.7477 12.1743C28.2064 12.5038 28.4775 13.0028 28.486 13.5332V23.1085C28.486 24.6673 27.0915 25.9309 25.3713 25.9309H23.0064C22.7643 25.9309 22.5681 25.753 22.5681 25.5337V21.2164C22.5681 19.8407 21.3407 18.7238 19.8225 18.7181H16.3618C15.6305 18.7181 14.9293 18.9813 14.4122 19.4498C13.8952 19.9184 13.6047 20.5538 13.6047 21.2164V22.8681C13.6047 23.3876 14.0695 23.8089 14.6429 23.8089C15.2163 23.8089 15.6811 23.3876 15.6811 22.8681V21.2164C15.6781 21.0538 15.7472 20.8969 15.873 20.7809C15.9988 20.665 16.1708 20.5997 16.3502 20.5997H19.811C20.1805 20.5997 20.4801 20.8711 20.4801 21.206V25.5337C20.4864 26.7939 21.6156 27.8125 23.0064 27.8125H25.3136C28.187 27.8125 30.5163 25.7018 30.5163 23.098L30.5278 13.5123Z" fill="#161616"/>
</svg>
