<svg width="33" height="34" viewBox="0 0 33 34" fill="none" xmlns="http://www.w3.org/2000/svg">
<path d="M23.123 0C28.9038 0 32.3662 3.27464 32.3818 8.74219V24.8184C32.3818 30.2859 28.9351 33.5605 23.1387 33.5605H18C17.3412 33.4917 16.8428 32.9648 16.8428 32.3379C16.843 31.7111 17.3413 31.1851 18 31.1162H23.123C27.5409 31.1162 29.7656 28.9968 29.7656 24.8184V8.74219C29.7656 4.56374 27.5409 2.44434 23.123 2.44434H9.24316C4.82534 2.44434 2.58496 4.56374 2.58496 8.74219V24.8184C2.58496 28.9968 4.82534 31.1162 9.24316 31.1162C9.90187 31.185 10.4001 31.7111 10.4004 32.3379C10.4004 32.9649 9.90204 33.4917 9.24316 33.5605C3.46239 33.5605 0 30.2859 0 24.8184V8.74219C0 3.25982 3.46239 0 9.24316 0H23.123ZM22.6533 22.6699C23.3628 22.6699 23.9385 23.2137 23.9385 23.8848C23.9383 24.5557 23.3627 25.0996 22.6533 25.0996H9.68164C8.97248 25.0994 8.39764 24.5555 8.39746 23.8848C8.39746 23.2139 8.97237 22.6701 9.68164 22.6699H22.6533ZM22.6543 15.5566C23.15 15.5049 23.6334 15.7264 23.8984 16.126C24.1633 16.5256 24.1634 17.0331 23.8984 17.4326C23.6334 17.8321 23.15 18.0536 22.6543 18.002H9.68359C9.0247 17.9332 8.52552 17.4062 8.52539 16.7793C8.52539 16.1522 9.02461 15.6254 9.68359 15.5566H22.6543ZM14.6328 8.45996C15.2915 8.52876 15.7898 9.05487 15.79 9.68164C15.79 10.3086 15.2917 10.8355 14.6328 10.9043H9.69824C9.03926 10.8356 8.54004 10.3087 8.54004 9.68164C8.54029 9.0548 9.03943 8.52867 9.69824 8.45996H14.6328Z" fill="black"/>
</svg>
