<svg width="42" height="43" viewBox="0 0 42 43" fill="none" xmlns="http://www.w3.org/2000/svg">
<path d="M26.9149 5.375H16.2597C11.8644 5.375 9.10742 8.57723 9.10742 13.715V34.9209C9.10742 36.4143 10.2404 37.625 11.638 37.625C12.0612 37.6247 12.4776 37.5122 12.85 37.2977L21.5207 32.2737L31.6164 37.3261C31.8902 37.449 32.1984 37.4505 32.4732 37.3303C32.748 37.2102 32.9668 36.9783 33.0815 36.6857C33.2508 36.1465 33.0457 35.5541 32.5887 35.2625L22.5596 30.2528C21.9043 29.8679 21.1104 29.8679 20.4552 30.2528L11.7712 35.2625C11.6716 35.3207 11.5511 35.3207 11.4516 35.2625C11.3569 35.1974 11.3012 35.0838 11.305 34.9636V13.715C11.3184 9.91505 13.1031 7.75177 16.2997 7.75177H26.9548C31.0571 7.75177 31.6564 11.3098 31.6564 13.4446V14.4124H20.1222C19.8289 14.4235 19.5519 14.5588 19.352 14.7884C19.1521 15.0179 19.0459 15.323 19.0567 15.6364C19.0707 16.2589 19.5396 16.7599 20.1222 16.7749H31.6164V29.228C31.6164 29.8804 32.1114 30.4093 32.7219 30.4093C33.3273 30.4094 33.8201 29.8891 33.8274 29.2423V13.4446C33.8274 8.46337 31.1902 5.375 26.9149 5.375Z" fill="#161616"/>
</svg>
