<svg width="32" height="32" viewBox="0 0 32 32" fill="none" xmlns="http://www.w3.org/2000/svg">
<path fill-rule="evenodd" clip-rule="evenodd" d="M12.3036 16.4717C12.9221 14.9757 14.3812 14 16 14C17.0599 13.9972 18.0773 14.4162 18.8278 15.1647C19.5782 15.9131 20 16.9294 20 17.9893C20.0043 19.6081 19.0325 21.0699 17.5381 21.6923C16.0438 22.3148 14.3216 21.9752 13.1754 20.8321C12.0293 19.689 11.6851 17.9677 12.3036 16.4717ZM13.8724 17.9999C13.8724 19.175 14.825 20.1276 16 20.1276C17.1751 20.1276 18.1277 19.175 18.1277 17.9999C18.1277 16.8249 17.1751 15.8723 16 15.8723C14.825 15.8723 13.8724 16.8249 13.8724 17.9999Z" fill="#161616"/>
<path d="M12 7V5.66667C12 4.19391 13.1939 3 14.6667 3H17.3333C18.8061 3 20 4.19391 20 5.66667V7" stroke="#161616" stroke-width="1.86667"/>
<path d="M27.1508 16.6931C27.6198 16.6931 28 16.2675 28 15.7426V13.7941C27.9883 9.49494 24.8776 6.01305 21.0367 6H10.9633C7.11757 6 4 9.48952 4 13.7941V22.2059C4.00585 26.5078 7.12 29.9935 10.9633 30H21.0367C24.8776 29.987 27.9883 26.5051 28 22.2059C27.9514 21.7188 27.5835 21.3503 27.1455 21.3503C26.7076 21.3503 26.3396 21.7188 26.291 22.2059C26.2623 25.4406 23.9266 28.0549 21.0367 28.0871H10.9633C8.07341 28.0549 5.73774 25.4406 5.70898 22.2059V13.7941C5.73774 10.5594 8.07341 7.94506 10.9633 7.91287H21.0367C23.9266 7.94506 26.2623 10.5594 26.291 13.7941V15.7188C26.291 15.9709 26.3805 16.2127 26.5397 16.3909C26.699 16.5692 26.915 16.6693 27.1402 16.6693L27.1508 16.6931Z" fill="#161616"/>
</svg>
