<svg width="32" height="40" viewBox="0 0 32 40" fill="none" xmlns="http://www.w3.org/2000/svg">
<path d="M14.829 32.3863H9.86593C8.25776 32.3791 6.95387 30.8029 6.94206 28.8516V16.873C6.94521 16.2198 7.18611 15.6016 7.6002 15.1842L8.47413 14.3987C8.79318 13.9863 8.82562 13.3569 8.55141 12.8994C8.2772 12.4419 7.77374 12.2854 7.35205 12.5267L6.45654 13.3383C5.55322 14.1864 5.01717 15.4873 5 16.873V28.8647C5.00593 32.1225 7.18101 34.7617 9.86593 34.7689H14.829C15.3653 34.7689 15.8 34.2414 15.8 33.5907C15.8 32.94 15.3653 32.4125 14.829 32.4125V32.3863Z" fill="#161616"/>
<path d="M27.8 16.8936C27.789 15.5204 27.284 14.2255 26.4238 13.3648L19.1648 6.16324C17.5697 4.56798 15.2973 4.56798 13.7022 6.16324L11.4016 8.24136C10.9693 8.62754 10.8706 9.37654 11.181 9.9143C11.4914 10.4521 12.0934 10.575 12.5256 10.1888L14.8577 8.01917C15.7731 7.08158 17.0939 7.08158 18.0093 8.01917L25.2683 15.2207C25.6861 15.6327 25.9329 16.2565 25.9406 16.9198V28.8918C25.9406 30.8407 24.6707 32.4207 23.1042 32.4207H20.9507C20.7302 32.4207 20.5515 32.1983 20.5515 31.924V26.5261C20.5515 24.8061 19.4338 23.4096 18.0513 23.4024H14.8998C14.2339 23.4024 13.5953 23.7315 13.1244 24.3173C12.6536 24.9032 12.3891 25.6977 12.3891 26.5261V28.5912C12.3891 29.2408 12.8123 29.7675 13.3345 29.7675C13.8567 29.7675 14.28 29.2408 14.28 28.5912V26.5261C14.2771 26.3228 14.3401 26.1266 14.4547 25.9816C14.5692 25.8366 14.7258 25.755 14.8893 25.755H18.0408C18.3773 25.755 18.6501 26.0944 18.6501 26.5131V31.924C18.6559 33.4997 19.6842 34.7733 20.9507 34.7732H23.0517C25.6683 34.7732 27.7895 32.1342 27.7895 28.8787L27.8 16.8936Z" fill="#161616"/>
</svg>
