<svg width="24" height="29" viewBox="0 0 24 29" fill="none" xmlns="http://www.w3.org/2000/svg">
<path d="M16.4551 0C20.5689 0 23.0328 2.74185 23.0439 7.31934V20.7783C23.0439 25.3557 20.5916 28.0976 16.4668 28.0977H12.8096C12.3408 28.04 11.9864 27.5991 11.9863 27.0742C11.9863 26.5494 12.3408 26.1085 12.8096 26.0508H16.4551C19.599 26.0508 21.1826 24.2766 21.1826 20.7783V7.31934C21.1826 3.8211 19.599 2.04688 16.4551 2.04688H6.57812C3.43425 2.04688 1.83984 3.8211 1.83984 7.31934V20.7783C1.83984 24.2766 3.43425 26.0508 6.57812 26.0508C7.04694 26.1085 7.40137 26.5493 7.40137 27.0742C7.40133 27.5991 7.04693 28.04 6.57812 28.0977C2.46433 28.0977 0 25.3558 0 20.7783V7.31934C0 2.72945 2.46433 0 6.57812 0H16.4551ZM16.1211 18.9785C16.626 18.9785 17.0352 19.4343 17.0352 19.9961C17.035 20.5577 16.6259 21.0127 16.1211 21.0127H6.89062C6.38585 21.0127 5.97674 20.5577 5.97656 19.9961C5.97656 19.4343 6.38574 18.9785 6.89062 18.9785H16.1211ZM16.1221 13.0234C16.4748 12.9802 16.8192 13.1655 17.0078 13.5C17.1963 13.8345 17.1964 14.2602 17.0078 14.5947C16.8192 14.9292 16.4748 15.1136 16.1221 15.0703H6.89062C6.42192 15.0125 6.06738 14.5717 6.06738 14.0469C6.06754 13.5222 6.42198 13.0812 6.89062 13.0234H16.1221ZM10.4131 7.08203C10.882 7.13957 11.2373 7.5805 11.2373 8.10547C11.2373 8.63043 10.882 9.07137 10.4131 9.12891H6.90137C6.43254 9.07125 6.07813 8.63035 6.07812 8.10547C6.07812 7.58059 6.43253 7.13969 6.90137 7.08203H10.4131Z" fill="black"/>
</svg>
