<svg width="23" height="29" viewBox="0 0 23 29" fill="none" xmlns="http://www.w3.org/2000/svg">
<path d="M16.4238 0C20.5297 3.88278e-05 22.9888 2.82935 23 7.55371V21.4453C23 26.1698 20.5516 29 16.4346 29H12.7852C12.3171 28.9406 11.9629 28.4852 11.9629 27.9434C11.9629 27.4016 12.3171 26.9461 12.7852 26.8867H16.4238C19.5616 26.8867 21.1416 25.0559 21.1416 21.4453V7.55371C21.1416 3.94326 19.5616 2.11234 16.4238 2.1123H6.56543C3.4276 2.1123 1.83598 3.94323 1.83594 7.55371V21.4453C1.83594 25.0559 3.42756 26.8867 6.56543 26.8867C7.03331 26.9463 7.38767 27.4017 7.3877 27.9434C7.3877 28.4851 7.03332 28.9404 6.56543 29C2.45949 29 0 26.1698 0 21.4453V7.55371C5.3516e-05 2.81651 2.45954 0 6.56543 0H16.4238ZM16.0898 19.5879C16.5938 19.5879 17.0029 20.0579 17.0029 20.6377C17.0029 21.2175 16.5938 21.6875 16.0898 21.6875H6.87695C6.37303 21.6875 5.96484 21.2175 5.96484 20.6377C5.96487 20.0579 6.37305 19.5879 6.87695 19.5879H16.0898ZM16.0908 13.4414C16.4429 13.3967 16.7864 13.5883 16.9746 13.9336C17.1627 14.2788 17.1627 14.7173 16.9746 15.0625C16.7864 15.4078 16.4429 15.5994 16.0908 15.5547H6.87793C6.40988 15.4953 6.05568 15.0399 6.05566 14.498C6.05566 13.9562 6.40987 13.5008 6.87793 13.4414H16.0908ZM10.3936 7.30957C10.8614 7.36914 11.2158 7.82451 11.2158 8.36621C11.2157 8.90781 10.8614 9.36227 10.3936 9.42188H6.8877C6.41992 9.36225 6.0655 8.90779 6.06543 8.36621C6.06543 7.82453 6.41983 7.36915 6.8877 7.30957H10.3936Z" fill="black"/>
</svg>
