<svg width="39" height="38" viewBox="0 0 39 38" fill="none" xmlns="http://www.w3.org/2000/svg">
<path d="M25.0003 4.75H15.103C11.0204 4.75 8.45947 7.57988 8.45947 12.1203V30.8603C8.45947 32.1801 9.51187 33.25 10.8101 33.25C11.2031 33.2497 11.5899 33.1504 11.9359 32.9607L19.9898 28.521L29.3675 32.9859C29.6217 33.0944 29.908 33.0958 30.1633 32.9896C30.4185 32.8835 30.6218 32.6785 30.7283 32.4199C30.8855 31.9434 30.695 31.4199 30.2706 31.1622L20.9548 26.735C20.3462 26.3949 19.6087 26.3949 19.0001 26.735L10.9338 31.1622C10.8413 31.2136 10.7294 31.2136 10.6369 31.1622C10.5489 31.1047 10.4972 31.0043 10.5008 30.8981V12.1203C10.5132 8.76214 12.171 6.8504 15.1401 6.8504H25.0374C28.8479 6.8504 29.4046 9.9947 29.4046 11.8813V12.7365H18.6908C18.4184 12.7464 18.161 12.8659 17.9754 13.0688C17.7897 13.2717 17.691 13.5413 17.7011 13.8182C17.7141 14.3683 18.1497 14.8111 18.6908 14.8244H29.3675V25.8294C29.3675 26.406 29.8272 26.8733 30.3943 26.8733C30.9566 26.8734 31.4144 26.4136 31.4212 25.842V11.8813C31.4212 7.47926 28.9716 4.75 25.0003 4.75Z" fill="#161616"/>
</svg>
