<svg width="32" height="32" viewBox="0 0 32 32" fill="none" xmlns="http://www.w3.org/2000/svg">
<path d="M23.1513 28.8945C22.9914 28.8976 22.8334 28.8572 22.6937 28.7773L16.0126 25.2605L10.1322 28.4256C9.16188 28.9546 7.95673 28.5831 7.43231 27.5933C7.22826 27.1938 7.15601 26.7372 7.22639 26.2921L8.37042 19.5399L3.58836 14.6985C3.21179 14.3155 3 13.7944 3 13.2508C3 12.7071 3.21179 12.186 3.58836 11.803C3.89484 11.4818 4.29773 11.2754 4.73239 11.2169L11.2877 10.2205L14.205 4.14821C14.5381 3.44585 15.2333 3 15.9954 3C16.7575 3 17.4527 3.44585 17.7858 4.14821L20.7145 10.2439L27.2927 11.2521C27.8213 11.33 28.2971 11.6222 28.6133 12.063C28.9296 12.5039 29.0597 13.0565 28.9745 13.5966C28.9124 14.0404 28.7117 14.4517 28.4025 14.7688L23.6433 19.5516L24.3068 23.1856C24.3966 23.7387 24.0338 24.2624 23.4945 24.3579C22.9645 24.4581 22.4544 24.1027 22.3505 23.5607L21.6755 19.9268C21.5629 19.258 21.7765 18.5751 22.2476 18.098L27.0182 13.2801L20.44 12.2602C19.7783 12.1561 19.2137 11.7145 18.9413 11.088L16.0126 5.01568L13.0495 11.1817C12.7771 11.8083 12.2125 12.2499 11.5508 12.354L4.99552 13.3504L9.73182 18.1566C10.2008 18.6253 10.4147 19.3004 10.3038 19.9619L9.15981 26.7141L15.0401 23.5607C15.6247 23.2334 16.3317 23.2334 16.9164 23.5607L23.5861 27.0775C23.9903 27.2953 24.198 27.7671 24.0898 28.2218C23.9815 28.6765 23.5852 28.9973 23.1285 29L23.1513 28.8945Z" fill="#161616"/>
</svg>
