<svg width="31" height="36" viewBox="0 0 31 36" fill="none" xmlns="http://www.w3.org/2000/svg">
<path d="M14.2085 6.00034H5.16683C4.48169 6.00034 3.82461 6.31641 3.34014 6.87902C2.85567 7.44163 2.5835 8.20469 2.5835 9.00034V30.0003C2.5835 30.796 2.85567 31.5591 3.34014 32.1217C3.82461 32.6843 4.48169 33.0003 5.16683 33.0003H23.2502C23.9353 33.0003 24.5924 32.6843 25.0769 32.1217C25.5613 31.5591 25.8335 30.796 25.8335 30.0003V19.5003M23.896 3.75034C24.4099 3.1536 25.1068 2.81836 25.8335 2.81836C26.5602 2.81836 27.2571 3.1536 27.771 3.75034C28.2849 4.34708 28.5735 5.15643 28.5735 6.00034C28.5735 6.84425 28.2849 7.6536 27.771 8.25034L15.5002 22.5003L10.3335 24.0003L11.6252 18.0003L23.896 3.75034Z" stroke="var(--Icon-Default-Default, #1E1E1E)" stroke-width="4" stroke-linecap="round" stroke-linejoin="round"/>
</svg>
