<svg width="36" height="32" viewBox="0 0 36 32" fill="none" xmlns="http://www.w3.org/2000/svg">
<ellipse cx="17.57" cy="9.93296" rx="6.58874" ry="5.95982" stroke="#172239" stroke-width="1.71429" stroke-linecap="round" stroke-linejoin="round"/>
<path fill-rule="evenodd" clip-rule="evenodd" d="M7.68688 23.8357C7.68521 23.3936 7.78322 22.9569 7.97351 22.5586C8.57067 21.3538 10.2546 20.7153 11.652 20.4262C12.6597 20.2092 13.6814 20.0643 14.7094 19.9925C16.6127 19.8238 18.5269 19.8238 20.4302 19.9925C21.4581 20.0651 22.4797 20.21 23.4876 20.4262C24.8849 20.7153 26.5689 21.2936 27.1661 22.5586C27.5487 23.3704 27.5487 24.3129 27.1661 25.1248C26.5689 26.3898 24.8849 26.9681 23.4876 27.2452C22.481 27.4711 21.459 27.6201 20.4302 27.6909C18.8811 27.8234 17.3247 27.8475 15.7723 27.7632C15.4141 27.7632 15.0677 27.7632 14.7094 27.6909C13.6845 27.621 12.6663 27.4719 11.6639 27.2452C10.2546 26.9681 8.58261 26.3898 7.97351 25.1248C7.78419 24.7219 7.68627 24.2815 7.68688 23.8357Z" stroke="#172239" stroke-width="1.71429" stroke-linecap="round" stroke-linejoin="round"/>
</svg>
