<svg width="36" height="32" viewBox="0 0 36 32" fill="none" xmlns="http://www.w3.org/2000/svg">
<path d="M22.7168 3.97314H13.7236C10.0139 3.97314 7.68686 6.34024 7.68686 10.1381V25.8135C7.68686 26.9175 8.64313 27.8124 9.82276 27.8124C10.1799 27.8122 10.5314 27.7291 10.8457 27.5705L18.164 23.8567L26.6851 27.5915C26.9161 27.6823 27.1763 27.6834 27.4082 27.5946C27.6401 27.5058 27.8249 27.3344 27.9217 27.1181C28.0645 26.7195 27.8914 26.2816 27.5057 26.066L19.0408 22.3628C18.4878 22.0784 17.8177 22.0784 17.2647 22.3628L9.93517 26.066C9.85112 26.1091 9.74943 26.1091 9.66537 26.066C9.58545 26.0179 9.53848 25.934 9.54172 25.8451V10.1381C9.55296 7.32916 11.0593 5.73006 13.7573 5.73006H22.7505C26.2129 5.73006 26.7188 8.36016 26.7188 9.93822V10.6536H16.9836C16.7361 10.6618 16.5022 10.7618 16.3336 10.9315C16.1649 11.1012 16.0752 11.3267 16.0843 11.5584C16.0962 12.0185 16.4919 12.3889 16.9836 12.4H26.6851V21.6054C26.6851 22.0876 27.1028 22.4786 27.6181 22.4786C28.1291 22.4786 28.545 22.094 28.5512 21.6159V9.93822C28.5512 6.25608 26.3254 3.97314 22.7168 3.97314Z" fill="#161616"/>
</svg>
