<svg width="41" height="37" viewBox="0 0 41 37" fill="none" xmlns="http://www.w3.org/2000/svg">
<path d="M18.7216 29.8027H12.4557C10.4254 29.7962 8.77926 28.3456 8.76435 26.55V15.527C8.76833 14.9259 9.07246 14.3571 9.59525 13.973L10.6986 13.2502C11.1014 12.8706 11.1423 12.2914 10.7962 11.8704C10.45 11.4494 9.81435 11.3055 9.28196 11.5274L8.15139 12.2743C7.01095 13.0548 6.33417 14.2519 6.3125 15.527V26.5621C6.31999 29.56 9.06603 31.9886 12.4557 31.9953H18.7216C19.3986 31.9953 19.9475 31.5098 19.9475 30.911C19.9475 30.3122 19.3986 29.8268 18.7216 29.8268V29.8027Z" fill="#161616"/>
<path d="M35.0977 15.5476C35.0837 14.2839 34.4462 13.0923 33.3603 12.3003L24.1958 5.67326C22.1819 4.20527 19.3131 4.20527 17.2992 5.67326L14.3947 7.58559C13.849 7.94096 13.7243 8.63021 14.1162 9.12507C14.508 9.61994 15.2681 9.73302 15.8138 9.37765L18.7581 7.38113C19.9137 6.51834 21.5813 6.51834 22.7369 7.38113L31.9014 14.0081C32.4289 14.3873 32.7405 14.9613 32.7502 15.5717V26.5886C32.7502 28.3821 31.147 29.8359 29.1693 29.8359H26.4504C26.1721 29.8359 25.9465 29.6313 25.9465 29.3789V24.4117C25.9465 22.8288 24.5354 21.5438 22.7899 21.5372H18.8111C17.9705 21.5372 17.1642 21.84 16.5698 22.3791C15.9753 22.9182 15.6414 23.6493 15.6414 24.4117V26.312C15.6414 26.9098 16.1758 27.3944 16.835 27.3944C17.4942 27.3944 18.0287 26.9098 18.0287 26.312V24.4117C18.0251 24.2246 18.1046 24.044 18.2492 23.9106C18.3939 23.7772 18.5916 23.702 18.7979 23.7021H22.7767C23.2015 23.7021 23.5459 24.0144 23.5459 24.3996V29.3789C23.5532 30.8289 24.8515 32.0009 26.4504 32.0008H29.103C32.4064 32.0008 35.0844 29.5723 35.0844 26.5766L35.0977 15.5476Z" fill="#161616"/>
</svg>
