<svg width="16" height="16" viewBox="0 0 16 16" fill="none" xmlns="http://www.w3.org/2000/svg">
<path d="M15.8044 14.8852L13.0545 12.1967L12.9901 12.0986C12.8702 11.9793 12.7064 11.9121 12.5353 11.9121C12.3643 11.9121 12.2004 11.9793 12.0806 12.0986C9.74359 14.2427 6.14252 14.3592 3.6656 12.371C1.18869 10.3827 0.604535 6.90669 2.30055 4.24814C3.99656 1.58958 7.44646 0.573478 10.3623 1.87371C13.2781 3.17394 14.755 6.38703 13.8136 9.38208C13.7458 9.59844 13.8012 9.83374 13.959 9.99933C14.1167 10.1649 14.3529 10.2356 14.5784 10.1849C14.804 10.1341 14.9847 9.96952 15.0525 9.75315C16.1779 6.19892 14.4782 2.37404 11.0529 0.752846C7.62759 -0.868351 3.50467 0.200659 1.35124 3.26833C-0.802184 6.33601 -0.339857 10.4817 2.43914 13.0236C5.21815 15.5655 9.47983 15.7407 12.4673 13.4359L14.9021 15.8164C15.1536 16.0612 15.5601 16.0612 15.8116 15.8164C16.0628 15.5682 16.0628 15.1685 15.8116 14.9202L15.8044 14.8852Z" fill="#161616"/>
</svg>
