<svg width="35" height="39" viewBox="0 0 35 39" fill="none" xmlns="http://www.w3.org/2000/svg">
<path fill-rule="evenodd" clip-rule="evenodd" d="M32.1973 9.09116C31.373 9.0917 30.9805 9.74504 30.5412 10.4616C30.5412 10.4616 28.8841 10.3843 25.6978 8.07065C22.5121 5.7575 20.2665 0 20.2665 0C20.2665 0 18.2614 6.81041 12.9135 9.93348C7.56548 13.0566 5.87329 13.8422 5.87329 13.8422C5.01073 13.4064 4.06 13.1964 3.15017 13.2385C1.23012 13.3271 -0.148167 14.8119 0.012766 16.9906C0.172637 19.1402 1.47285 20.4879 3.15017 21.0441C4.1232 21.3669 6.12983 21.2995 7.24998 20.8572C8.44025 24.3054 10.3566 27.1941 12.932 28.9322C13.025 30.9246 13.0972 33.0213 13.0213 33.5456C12.8306 34.863 11.5915 35.7631 11.5915 35.7631C11.5915 35.7631 13.9529 38.7221 19.7066 38.6076C25.8253 38.485 27.2365 34.9294 27.2365 34.9294C27.2365 34.9294 25.573 34.1606 25.573 31.8544V28.4355C28.78 26.0478 30.7962 21.9598 31.2508 17.0927C31.5642 17.0743 31.8839 17.0095 32.1973 16.8972C33.3557 16.482 34.3436 15.15 34.3436 12.9945C34.3436 10.8384 33.3844 9.09062 32.1973 9.09116Z" fill="white"/>
</svg>
