<svg width="36" height="31" viewBox="0 0 36 31" fill="none" xmlns="http://www.w3.org/2000/svg">
<path fill-rule="evenodd" clip-rule="evenodd" d="M34.0964 29.5723H20.0026C19.9962 28.6974 19.902 17.6607 19.0787 13.8158C18.2202 9.81118 16.1081 5.67322 11.6844 2.86995C7.26181 0.0666805 0 0 0 0C0.726022 1.73531 1.05632 3.73734 1.38609 8.67653C1.71639 13.6157 5.34703 16.8191 9.44041 17.7537C13.5333 18.6877 16.1081 20.4236 17.5602 22.0917C19.0127 23.7603 18.8808 29.5674 18.8808 29.5674L18.9675 29.5723H12.1791C11.594 29.5723 11.1201 30.0519 11.1201 30.6429V35.531C11.1201 36.122 11.594 36.6011 12.1791 36.6011H13.3194L15.5448 51.4811H30.7307L32.955 36.6011H34.0964C34.681 36.6011 35.1549 36.122 35.1549 35.531V30.6429C35.1549 30.0519 34.681 29.5723 34.0964 29.5723Z" fill="white"/>
</svg>
