<svg width="36" height="32" viewBox="0 0 36 32" fill="none" xmlns="http://www.w3.org/2000/svg">
<ellipse cx="17.5699" cy="9.93296" rx="6.58874" ry="5.95982" stroke="#172239" stroke-width="1.71429" stroke-linecap="round" stroke-linejoin="round"/>
<path fill-rule="evenodd" clip-rule="evenodd" d="M7.68679 23.8357C7.68511 23.3936 7.78313 22.9569 7.97342 22.5586C8.57058 21.3538 10.2546 20.7153 11.6519 20.4262C12.6597 20.2092 13.6813 20.0643 14.7093 19.9925C16.6126 19.8238 18.5268 19.8238 20.4301 19.9925C21.458 20.0651 22.4796 20.21 23.4875 20.4262C24.8848 20.7153 26.5688 21.2936 27.166 22.5586C27.5486 23.3704 27.5486 24.3129 27.166 25.1248C26.5688 26.3898 24.8848 26.9681 23.4875 27.2452C22.4809 27.4711 21.4589 27.6201 20.4301 27.6909C18.881 27.8234 17.3247 27.8475 15.7723 27.7632C15.414 27.7632 15.0676 27.7632 14.7093 27.6909C13.6844 27.621 12.6662 27.4719 11.6638 27.2452C10.2546 26.9681 8.58252 26.3898 7.97342 25.1248C7.7841 24.7219 7.68618 24.2815 7.68679 23.8357Z" stroke="#172239" stroke-width="1.71429" stroke-linecap="round" stroke-linejoin="round"/>
</svg>
