<svg width="49" height="28" viewBox="0 0 49 28" fill="none" xmlns="http://www.w3.org/2000/svg">
<path fill-rule="evenodd" clip-rule="evenodd" d="M47.5418 23.3052C47.5418 25.2711 45.965 26.8711 44.0264 26.8711H4.25524C2.31616 26.8711 0.739868 25.2711 0.739868 23.3052V4.31574C0.739868 2.34938 2.31616 0.749933 4.25524 0.749933H44.0264C45.965 0.749933 47.5418 2.34938 47.5418 4.31574V23.3052ZM44.0264 0H4.25525C1.90937 0 0 1.93623 0 4.31577V23.3053C0 25.6853 1.90937 27.621 4.25525 27.621H44.0264C46.3723 27.621 48.2817 25.6853 48.2817 23.3053V4.31577C48.2817 1.93623 46.3723 0 44.0264 0Z" fill="#393F49"/>
</svg>
