<svg width="49" height="36" viewBox="0 0 49 36" fill="none" xmlns="http://www.w3.org/2000/svg">
<path fill-rule="evenodd" clip-rule="evenodd" d="M47.5418 23.3053C47.5418 25.2717 45.965 26.8711 44.0264 26.8711H17.9778L17.868 26.9879C14.4598 30.6198 10.3451 33.0408 8.92153 33.8214C8.89342 33.0478 8.83137 31.6964 8.71203 30.7742C8.53064 29.3771 8.00556 27.9073 7.56641 27.0702L7.46192 26.8711H4.25524C2.31616 26.8711 0.739868 25.2717 0.739868 23.3053V4.3158C0.739868 2.34998 2.31616 0.75053 4.25524 0.75053H44.0264C45.965 0.75053 47.5418 2.34998 47.5418 4.3158V23.3053ZM44.0264 0H4.25525C1.90937 0 0 1.93569 0 4.31577V23.3053C0 25.6853 1.90937 27.6216 4.25525 27.6216H7.01323C7.39829 28.4194 7.8226 29.6729 7.978 30.8721C8.14507 32.1617 8.1997 34.4175 8.20076 34.4401L8.21455 35.026L8.73273 34.7677C8.7863 34.7414 14.044 32.0998 18.2939 27.6216H44.0264C46.3723 27.6216 48.2817 25.6853 48.2817 23.3053V4.31577C48.2817 1.93569 46.3723 0 44.0264 0Z" fill="#393F49"/>
</svg>
