<svg width="36" height="32" viewBox="0 0 36 32" fill="none" xmlns="http://www.w3.org/2000/svg">
<path d="M22.7167 3.97314H13.7235C10.0138 3.97314 7.68677 6.34024 7.68677 10.1381V25.8135C7.68677 26.9175 8.64304 27.8124 9.82266 27.8124C10.1798 27.8122 10.5313 27.7291 10.8456 27.5705L18.1639 23.8567L26.685 27.5915C26.916 27.6823 27.1762 27.6834 27.4081 27.5946C27.6401 27.5058 27.8248 27.3344 27.9216 27.1181C28.0644 26.7195 27.8913 26.2816 27.5056 26.066L19.0407 22.3628C18.4877 22.0784 17.8176 22.0784 17.2646 22.3628L9.93508 26.066C9.85103 26.1091 9.74933 26.1091 9.66528 26.066C9.58536 26.0179 9.53839 25.934 9.54162 25.8451V10.1381C9.55287 7.32916 11.0592 5.73006 13.7572 5.73006H22.7505C26.2129 5.73006 26.7187 8.36016 26.7187 9.93822V10.6536H16.9835C16.736 10.6618 16.5022 10.7618 16.3335 10.9315C16.1648 11.1012 16.0751 11.3267 16.0842 11.5584C16.0961 12.0185 16.4918 12.3889 16.9835 12.4H26.685V21.6054C26.685 22.0876 27.1027 22.4786 27.618 22.4786C28.129 22.4786 28.5449 22.094 28.5511 21.6159V9.93822C28.5511 6.25608 26.3253 3.97314 22.7167 3.97314Z" fill="#161616"/>
</svg>
